# Converted from user-supplied modularDungeon.fbx; Y-up, meters, bottom centered
mtllib Gothic.mtl
o Doorway
v -0.5 4 -2
v -0.5 1.4901161e-08 -2
v -0.5 1.4901161e-08 2
v -0.5 4 2
v 0.5 4 -2
v 0.5 1.4901161e-08 -2
v 0.5 1.4901161e-08 2
v 0.5 3.9999647 1.9999647
v -0.18399203 1.4901161e-08 -1.5999999
v -0.5 1.4901161e-08 -1.7531834
v -0.5 1.4901161e-08 1.7531834
v -0.18399203 1.4901161e-08 1.5999999
v 0.5 1.4901161e-08 -1.7531834
v 0.18399203 1.4901161e-08 -1.5999999
v 0.18399209 0 1.5999999
v 0.5 1.4901161e-08 1.7531834
v -0.5 2.0075262 -1.7531835
v -0.18399206 2 -1.6
v -0.18399203 2.3121448 -1.5692564
v -0.5 2.3421738 -1.7202235
v -0.18399203 2.6122937 -1.4782072
v -0.5 2.6711977 -1.6204153
v -0.18399206 2.8889127 -1.3303514
v -0.5 2.9744291 -1.4583347
v -0.18399206 3.131371 -1.1313709
v -0.5 3.2402125 -1.2402118
v -0.18399206 3.3303518 -0.88891244
v -0.5 3.4583354 -0.97442865
v -0.18399206 3.4782076 -0.61229348
v -0.5 3.6204152 -0.67119837
v -0.5 3.7202237 -0.3421737
v -0.18399203 3.5692568 -0.31214452
v -0.18399203 3.6000002 0
v -0.5 3.7539249 2.3841858e-07
v -0.5 2.0075262 1.7531834
v -0.18399206 2 1.5999999
v -0.18399203 3.5692568 0.31214452
v -0.5 3.7202237 0.34217381
v -0.18399206 3.4782076 0.61229348
v -0.5 3.6204152 0.67119837
v -0.18399206 3.3303518 0.88891244
v -0.5 3.4583354 0.97442865
v -0.18399206 3.131371 1.131371
v -0.5 3.2402125 1.240212
v -0.18399206 2.8889127 1.3303514
v -0.5 2.9744291 1.4583347
v -0.18399206 2.6122937 1.4782071
v -0.5 2.6711977 1.6204152
v -0.18399203 2.3121448 1.5692563
v -0.5 2.3421738 1.7202234
v 0.5 2.0075262 -1.7531835
v 0.18399203 2 -1.6
v 0.5 3.7202237 -0.34217381
v 0.18399203 3.5692568 -0.31214464
v 0.34681654 3.4782076 -0.61229348
v 0.5 3.6204152 -0.67119837
v 0.34681654 3.3303518 -0.88891244
v 0.5 3.4583354 -0.97442865
v 0.34681654 3.131371 -1.1313709
v 0.5 3.2402125 -1.2402118
v 0.34681654 2.8889127 -1.3303514
v 0.5 2.9744291 -1.4583347
v 0.18399203 2.6122937 -1.4782072
v 0.5 2.6711977 -1.6204153
v 0.18399203 2.3121448 -1.5692564
v 0.5 2.3421738 -1.7202235
v 0.5 2.0075262 1.7531834
v 0.18399203 2 1.5999999
v 0.5 3.7539246 0
v 0.34681654 3.6000002 0
v 0.34681654 2.3121448 1.5692563
v 0.5 2.3421738 1.7202234
v 0.34681654 2.6122937 1.4782071
v 0.5 2.6711977 1.6204152
v 0.34681654 2.8889127 1.3303514
v 0.5 2.9744291 1.4583347
v 0.34681654 3.131371 1.131371
v 0.5 3.2402125 1.240212
v 0.18399203 3.3303518 0.88891244
v 0.5 3.4583354 0.97442865
v 0.18399203 3.4782076 0.61229348
v 0.5 3.6204152 0.67119837
v 0.18399203 3.5692568 0.31214452
v 0.5 3.7202237 0.34217358
v -0.34681651 1.4901161e-08 -1.5999999
v 0.34681654 1.4901161e-08 -1.5999999
v 0.34681654 2.3121448 -1.5692564
v 0.34681654 2.6122937 -1.4782072
v -0.34681651 2 -1.6
v -0.34681651 2.6122937 -1.4782072
v -0.34681651 2.3121448 -1.5692564
v -0.34681651 2.8889127 -1.3303514
v -0.34681651 3.131371 -1.1313709
v -0.34681651 3.3303518 -0.88891244
v -0.34681651 3.4782076 -0.61229348
v 0.34681654 3.5692568 0.31214452
v 0.34681654 3.4782076 0.61229348
v -0.34681651 3.5692568 -0.31214452
v 0.34681654 3.3303518 0.88891244
v -0.34681651 3.5692568 0.31214452
v -0.34681651 3.6000002 0
v -0.34681651 3.4782076 0.61229348
v -0.34681651 3.3303518 0.88891244
v -0.34681651 3.131371 1.131371
v -0.34681651 2.8889127 1.3303514
v -0.34681651 2.6122937 1.4782071
v -0.34681651 2.3121448 1.5692563
v 0.34681654 2 1.5999999
v 0.34681654 1.4901161e-08 1.5999999
v 0.18399203 3.3303518 -0.88891244
v 0.18399203 3.4782076 -0.61229348
v 0.18399203 3.131371 -1.1313709
v 0.18399203 2.8889127 -1.3303514
v -0.34681651 1.4901161e-08 1.5999999
v -0.34681651 2 1.5999999
v 0.34681654 2 -1.6
v 0.34681654 3.5692568 -0.31214464
v 0.18399203 3.6000002 0
v 0.18399203 2.3121448 1.5692563
v 0.18399203 2.6122937 1.4782071
v 0.18399203 2.8889127 1.3303514
v 0.18399203 3.131371 1.131371
v -0.10654426 3.3534007 -0.56059682
v 0.10654426 3.3534007 -0.56059694
v -0.10654426 3.2180288 -0.81386042
v 0.10654426 3.2180288 -0.81386054
v -0.10654426 3.0358482 -1.0358479
v 0.10654426 3.0358482 -1.0358479
v -0.10654426 2.8138609 -1.2180282
v 0.10654426 2.8138609 -1.2180282
v -0.10654426 2.5605972 -1.3534005
v 0.10654426 2.5605972 -1.3534005
v -0.10654426 2.28579 -1.4367623
v 0.10654426 2.28579 -1.4367623
v -0.10654426 3.4649103 0
v 0.10654426 3.4649103 0
v -0.10654426 2.28579 1.4367623
v 0.10654426 2.28579 1.4367623
v 0.10654426 2.5605972 1.3534005
v -0.10654426 2.5605972 1.3534005
v 0.10654426 2.8138609 1.2180281
v -0.10654426 2.8138609 1.2180281
v 0.10654426 3.0358482 1.0358479
v -0.10654426 3.0358482 1.0358479
v 0.10654426 3.2180288 0.81386042
v -0.10654426 3.2180288 0.81386042
v -0.10654426 3.3534007 0.56059694
v 0.10654426 3.3534007 0.56059694
v -0.10654426 3.4367626 0.28578997
v 0.10654426 3.4367626 0.28578997
v 0.10654426 1.9933715 -1.4650729
v -0.10654426 1.9933715 -1.4650729
v -0.10654426 3.4367626 -0.28578985
v 0.10654426 3.4367626 -0.28578997
v -0.10654426 1.9933715 1.4650729
v 0.10654426 1.9933715 1.4650729
v -0.10654426 1.4901161e-08 -1.46491
v 0.10654426 1.4901161e-08 -1.46491
v 0.10654426 1.4901161e-08 1.46491
v -0.10654426 1.4901161e-08 1.46491
vt -7.1525574e-07 0
vt 0.86458302 0.74360728
vt 0.061703444 0.50188154
vt 0.1612598 0.55237901
vt 0.9234255 0.55237901
vt 0.16125995 0.40552178
vt -0.085463643 0.45494393
vt 0.74360645 0.86458385
vt 0.58554274 0.93005592
vt 0.094895482 0.66779941
vt 0.64600402 0.53741586
vt -0.17255485 0.4549439
vt -0.052264616 0.41379863
vt 0.83874047 0.51790559
vt 0.99535429 0.50344235
vt 0.79558194 0.45494384
vt 0.22613913 0.41379863
vt 0.20719668 0.45520082
vt 0.61981368 0.45520082
vt 0.16125992 0.43999526
vt 0.7857163 0.53741586
vt 0.41531509 0.55237901
vt 0.5055837 0.53741586
vt 0.5055837 0.41379863
vt 0.88368648 0.45494384
vt 1.0598958 0.50147289
vt 1.7721106 0.50147289
vt 0.61937273 0.50147289
vt 0.2959995 0.41379863
vt 0.57544333 0.53741586
vt 0.97179103 0.45494384
vt 0.53126818 0.50147289
vt 0.18994635 0.81005311
vt 0.85555494 0.53741586
vt 0.49999925 0.93848121
vt 0.086538851 0.53741586
vt 0.36586142 0.53741586
vt 0.66937035 0.4055219
vt -0.67350805 0.43999541
vt -0.008110404 0.51790553
vt 0.9234255 0.40552196
vt -0.052264616 0.53741586
vt -0.49368834 0.53741562
vt 0.66779888 0.9051038
vt 1.2289767 -8.0808997e-05
vt 0.66937035 0.43999535
vt 1.1480004 0.50147283
vt 0.7158618 0.41379863
vt 0.086538851 0.41379863
vt -0.70747125 0.45520079
vt 0.016476721 0.53741586
vt 0.53729028 0.50118911
vt -0.17748073 0.43999529
vt -0.71746969 0.4055219
vt -0.075077951 0.15935761
vt 0.45476693 0.50118911
vt 0.25639212 0.86458385
vt -0.12981951 0.27708957
vt -0.67350805 0.51790559
vt -0.17255485 0.50147295
vt -7.1525574e-07 0
vt 0.090745687 0.50147289
vt 0.36586142 0.41379863
vt 0.53729028 0.45520082
vt 0.50000024 0.55237901
vt 0.44316363 0.45494384
vt 0.33063003 0.51790553
vt 0.44316363 0.50147289
vt 1.1669028 0.12797371
vt 1.7174697 0.55237901
vt 1.5054388 0.53741586
vt 0.70233703 0.45520082
vt 0.88368648 0.50147289
vt 0.28972 0.50118911
vt 0.7158618 0.53741586
vt 0.99999928 0
vt 0.9234255 0.43999538
vt 0.64600402 0.50344235
vt 1.0927956 0.40552202
vt 0.33063 0.55237901
vt 1.1140046 0.50118923
vt -0.49368834 0.41379863
vt 0.086538851 0.44778648
vt 0.81005228 0.81005311
vt 1.0324304 0.45520085
vt 0.17885 0.45494384
vt -0.70957327 0.45494393
vt -0.008110404 0.43999526
vt -0.040373594 0.50118911
vt 0.58468521 0.55237901
vt 1.2350916 0.45494381
vt 0.78486025 0.45520082
vt -0.70747125 0.50118911
vt 0.8673836 0.45520082
vt 0.75405538 0.51790559
vt 0.81005228 0.81005311
vt 0.85555494 0.44778654
vt 0.5055837 0.44778648
vt 0.93829513 0
vt 1.0598958 0.45494384
vt -0.17748076 0.40552178
vt 0.22613913 0.53741586
vt 0.94990706 0.45520085
vt 0.70747739 0.50147289
vt 0.2959995 0.50344235
vt 0.50000024 0.51790553
vt 0.13541564 0.74360728
vt 0.069943428 0.58554345
vt 1.0640855 0.50344235
vt 0.090745687 0.45494384
vt 1.2350916 0.50147283
vt 0.26695454 0.45494384
vt 0.90510315 0.66779941
vt 1.0081106 0.55237925
vt 0.8673836 0.50118911
vt 0.042149931 0.45520082
vt 0.43572313 0.44778648
vt 0.12467328 0.45520082
vt 1.5054388 0.44778654
vt 0.7158618 0.44778654
vt 1.1480004 0.45494381
vt -0.12289697 0.45520079
vt 0.22613913 0.44778648
vt 1.1669029 0.3430711
vt 0.13541564 0.74360728
vt 0.83874053 0.43999541
vt 1.0927956 0.51790577
vt 0.24594492 0.51790553
vt 0.99999928 0
vt -0.052264616 0.50344235
vt 0.93829519 0.50188154
vt 0.86458302 0.74360728
vt -0.092795312 0.55237901
vt -0.49368834 0.50344235
vt 0.99535429 0.53741586
vt 0.43572313 0.50344235
vt 0.57544333 0.50344235
vt 0.9234255 0.51790559
vt 0.64600402 0.44778654
vt 0.83874047 0.55237901
vt 0.2959995 0.53741586
vt 0.15629387 0.44778648
vt 0.33219969 0.9051038
vt 1.1774808 0.55237925
vt 0.66937029 0.51790559
vt 0.33063012 0.43999526
vt 0.16125984 0.51790553
vt 0.92530143 0.44778654
vt 0.99535429 0.44778654
vt 0.58468521 0.51790559
vt 0.58554274 0.93005592
vt 0.35505909 0.50147289
vt 0.15629387 0.53741586
vt 1.673508 0.43999547
vt 0.36586142 0.50344235
vt 1.1140046 0.45520085
vt 0.66779888 0.9051038
vt 0.85555494 0.50344235
vt 0.24594504 0.40552184
vt 1.6735079 0.51790559
vt -0.12981951 0.34306991
vt 0.0026408434 0.50147289
vt 0.99999928 1
vt 0.94990706 0.50118923
vt 1.5054388 0.41379869
vt 0.25639212 0.86458385
vt 0.93829513 0
vt 0.20719664 0.50118911
vt 1.0081106 0.51790577
vt 0.016476721 0.44778648
vt 1.166903 0.27709034
vt 0.75405544 0.43999541
vt 0.45476693 0.45520082
vt -0.19189489 0.40514541
vt 1.1774808 0.40552202
vt 0.7857163 0.44778654
vt 1.1774808 0.4399955
vt 0.17885 0.50147289
vt 0.086538851 0.50344235
vt 1.1774808 0.51790577
vt -0.052264616 0.44778648
vt 1.112161 0.24570639
vt 0.93829519 0.50188154
vt 0.61981368 0.50118911
vt -0.092795357 0.51790553
vt 0.57544333 0.44778648
vt 1.6170043 0.45520085
vt 0.41445586 0.93005592
vt 0.016476721 0.50344235
vt 0.094895482 0.66779941
vt 0.50000036 0.43999529
vt 1.7174697 0.40552202
vt 0.75405538 0.40552196
vt -0.20447117 0.45520079
vt -0.71746969 0.55237901
vt 1.0927956 0.55237925
vt 0.92530143 0.53741586
vt 0.076574802 0.40552178
vt 0.016476721 0.41379863
vt 1.0640855 0.53741586
vt -0.092795447 0.43999529
vt -7.1525574e-07 1
vt 1.1121612 0.15935741
vt 0.57544333 0.41379863
vt 1.0324304 0.50118923
vt 0.99999928 1
vt 0.50000036 0.40552184
vt 0.28972 0.45520082
vt 1.0081106 0.43999553
vt 0.58468521 0.4055219
vt 0.33063018 0.40552178
vt 0.70233703 0.50118911
vt 0.41531509 0.43999529
vt 1.228977 0.40514535
vt 0.49999931 0.93848115
vt 1.0640855 0.41379869
vt 0.58468521 0.43999535
vt 0.99535429 0.41379869
vt 0.042149931 0.50118911
vt 0.85555494 0.41379869
vt 0.12467328 0.50118911
vt 0.061703444 0
vt 0.076574802 0.55237877
vt 0.53126818 0.45494384
vt -0.092795491 0.40552178
vt 0.37224352 0.50118911
vt 1.0640855 0.44778648
vt 0.15629387 0.41379863
vt -0.12981993 0.12797374
vt -0.008110404 0.55237901
vt 0.0026408434 0.45494384
vt -0.12289697 0.50118911
vt 0.90510315 0.66779941
vt 0.7158618 0.50344235
vt 0.35505909 0.45494384
vt 0.83874047 0.40552196
vt -0.17748064 0.55237901
vt 0.78486025 0.50118911
vt 1.5054388 0.50344235
vt 0.7857163 0.50344235
vt -0.19189537 -8.2626939e-05
vt -0.49368834 0.44778648
vt 0.64600402 0.41379863
vt -0.075077951 0.24570598
vt 0.79558194 0.50147289
vt 0.36586142 0.44778648
vt -0.17748067 0.51790553
vt 0.22613913 0.50344235
vt 0.74360645 0.86458385
vt 0.70747739 0.45494384
vt 0.5055837 0.50344235
vt 1.0927956 0.4399955
vt -0.70957327 0.50147289
vt 0.75405538 0.55237901
vt 0.076574802 0.51790535
vt 0.97179103 0.50147289
vt 0.92530143 0.41379869
vt -0.12981993 0.061992988
vt 0.37224352 0.45520082
vt 0.43572313 0.53741586
vt -0.008110404 0.40552178
vt 0.2959995 0.44778648
vt 0.15629387 0.50344235
vt 0.061703444 0.50188154
vt 0.18994635 0.81005311
vt 0.069943428 0.58554345
vt 0.33219969 0.9051038
vt -0.040373594 0.45520082
vt 0.061703444 0
vt 0.43572313 0.41379863
vt 0.41445589 0.93005592
vt 0.61937273 0.45494384
vt 1.6170043 0.50118923
vt 0.9300552 0.58554345
vt 0.26695454 0.50147289
vt 0.41531509 0.40552184
vt 0.9300552 0.58554345
vt 1.0081106 0.40552202
vt 0.41531509 0.51790553
vt 1.7721106 0.45494375
vt 8.1658363e-06 0.99999118
vt 0.076574802 0.43999523
vt -0.085463643 0.50147295
vt 1.1669027 0.061993331
vt -0.20447117 0.50118911
vt 0.92530143 0.50344235
vt 0.24594501 0.43999529
vt 0.7857163 0.41379863
vt 0.24594489 0.55237901
vt 0.66937035 0.55237901
vn 0.86754084 -0.35169062 -0.3516911
vn 0.8675409 -0.27632162 -0.41354465
vn 0.86754084 -0.27632165 -0.4135446
vn 0.86754084 -0.35169065 -0.35169107
vn -0.86754096 -0.48780903 0.097031064
vn -0.86754102 -0.45950603 0.19033346
vn -0.86754102 -0.45950603 0.19033344
vn -0.86754096 -0.48780906 0.097031079
vn -0.99999994 0 0
vn -1 0 0
vn -0.99999994 0 0
vn 1 0 0
vn 0.99999994 0 0
vn 1 0 0
vn 0.8675409 -0.27632162 -0.41354465
vn 0.86754066 -0.19033375 -0.45950654
vn 0.86754072 -0.1903338 -0.45950654
vn 0.86754084 -0.27632165 -0.4135446
vn 0.86754096 -0.48780894 -0.097031064
vn 0.86754084 -0.4595063 -0.19033356
vn 0.86754078 -0.45950627 -0.19033362
vn 0.86754102 -0.48780894 -0.097031139
vn 0.86754113 -0.27632156 0.41354418
vn 0.86754113 -0.35169044 0.3516905
vn 0.86754119 -0.35169044 0.35169053
vn 0.86754113 -0.27632162 0.41354412
vn 0.86754066 -0.19033375 -0.45950654
vn 0.86774111 -0.096799888 -0.48749873
vn 0.86774123 -0.096778885 -0.48750275
vn 0.86754072 -0.1903338 -0.45950654
vn -0.86754102 -0.45950603 0.19033346
vn -0.86754084 -0.41354474 0.27632174
vn -0.86754078 -0.4135448 0.27632168
vn -0.86754102 -0.45950603 0.19033344
vn -1 0 0
vn -1 0 0
vn -1 0 0
vn 0.86754113 -0.35169044 0.3516905
vn 0.86754107 -0.41354433 0.2763215
vn 0.86754107 -0.41354427 0.27632144
vn 0.86754119 -0.35169044 0.35169053
vn 0.86754102 -0.49736559 0
vn 0.86754096 -0.48780894 -0.097031064
vn 0.86754102 -0.48780894 -0.097031139
vn 0.86754102 -0.49736559 0
vn -0.86754084 -0.41354474 0.27632174
vn -0.86754066 -0.35169092 0.35169113
vn -0.86754072 -0.35169092 0.35169113
vn -0.86754078 -0.4135448 0.27632168
vn 0.86754107 -0.41354433 0.2763215
vn 0.86754107 -0.45950601 0.19033335
vn 0.86754107 -0.45950598 0.1903334
vn 0.86754107 -0.41354427 0.27632144
vn 0.86774111 -0.096799888 -0.48749873
vn 0.86740488 -0.024228835 -0.49701294
vn 0.86740494 -0.024217479 -0.49701324
vn 0.86774123 -0.096778885 -0.48750275
vn -0.86754066 -0.35169092 0.35169113
vn -0.8675409 -0.27632177 0.41354471
vn -0.86754084 -0.27632177 0.41354465
vn -0.86754072 -0.35169092 0.35169113
vn 0.86740488 -0.024228835 -0.49701294
vn 0.86741114 2.0330157e-05 -0.49759209
vn 0.86741114 2.0330157e-05 -0.49759209
vn 0.86740494 -0.024217479 -0.49701324
vn 0.86754107 -0.48780885 0.097031035
vn 0.86754102 -0.49736559 0
vn 0.86754102 -0.49736559 0
vn 0.86754107 -0.48780879 0.097031042
vn -0.8675409 -0.27632177 0.41354471
vn -0.86754102 -0.19033363 0.45950615
vn -0.8675409 -0.19033365 0.45950609
vn -0.86754084 -0.27632177 0.41354465
vn -0.86774123 -0.096799858 -0.48749861
vn -0.86754066 -0.19033402 -0.45950651
vn -0.86754066 -0.19033404 -0.45950654
vn -0.86774141 -0.096778855 -0.48750266
vn -0.99999994 0 0
vn -1 0 0
vn -1 0 0
vn -1 0 0
vn -0.99999994 0 0
vn -1 0 0
vn 0 1 0
vn -1.1936358e-08 1 2.1230132e-08
vn 0 0.99999994 0
vn 0 0.99999994 0
vn -0.70881164 -0.69184375 0.13761614
vn -0.70881134 -0.70539802 4.5530784e-09
vn -0.7088114 -0.70539802 -8.7059576e-08
vn -0.7088117 -0.69184375 0.13761616
vn -0.70753276 -0.034675099 0.70582926
vn -0.70881128 -0.1376164 0.69184411
vn -0.70881128 -0.13761635 0.69184417
vn -0.70753282 -0.034675252 0.70582938
vn -0.70881128 -0.1376164 0.69184411
vn -0.70881128 -0.26994419 0.65170282
vn -0.7088114 -0.26994401 0.65170294
vn -0.70881128 -0.13761635 0.69184417
vn -0.70881128 -0.26994419 0.65170282
vn -0.7088114 -0.39189813 0.58651698
vn -0.70881146 -0.39189836 0.58651692
vn -0.7088114 -0.26994401 0.65170294
vn -0.7088114 -0.39189813 0.58651698
vn -0.70881116 -0.49879172 0.49879205
vn -0.70881116 -0.49879187 0.49879193
vn -0.70881146 -0.39189836 0.58651692
vn -0.70881116 -0.49879172 0.49879205
vn -0.70881116 -0.58651727 0.39189839
vn -0.7088111 -0.58651721 0.39189845
vn -0.70881116 -0.49879187 0.49879193
vn -0.70881116 -0.58651727 0.39189839
vn -0.70881128 -0.65170294 0.26994392
vn -0.70881134 -0.65170294 0.26994416
vn -0.7088111 -0.58651721 0.39189845
vn -0.70881128 -0.65170294 0.26994392
vn -0.70881164 -0.69184375 0.13761614
vn -0.7088117 -0.69184375 0.13761616
vn -0.70881134 -0.65170294 0.26994416
vn -0.70881134 -0.70539802 4.5530784e-09
vn -0.70881081 -0.69184464 -0.13761628
vn -0.70881075 -0.69184464 -0.13761631
vn -0.7088114 -0.70539802 -8.7059576e-08
vn -0.70881081 -0.69184464 -0.13761628
vn -0.70881087 -0.65170348 -0.26994407
vn -0.70881087 -0.65170336 -0.26994425
vn -0.70881075 -0.69184464 -0.13761631
vn -0.70881087 -0.65170348 -0.26994407
vn -0.7088114 -0.58651704 -0.39189824
vn -0.7088114 -0.58651698 -0.39189836
vn -0.70881087 -0.65170336 -0.26994425
vn -0.7088114 -0.58651704 -0.39189824
vn -0.7088114 -0.49879146 -0.49879199
vn -0.7088114 -0.49879155 -0.49879187
vn -0.7088114 -0.58651698 -0.39189836
vn -0.7088114 -0.49879146 -0.49879199
vn -0.70881128 -0.39189798 -0.58651716
vn -0.70881134 -0.39189824 -0.5865171
vn -0.7088114 -0.49879155 -0.49879187
vn -0.70881128 -0.39189798 -0.58651716
vn -0.70881128 -0.26994413 -0.65170294
vn -0.70881128 -0.26994392 -0.651703
vn -0.70881134 -0.39189824 -0.5865171
vn -0.70881128 -0.26994413 -0.65170294
vn -0.70881122 -0.13761644 -0.69184405
vn -0.70881128 -0.1376164 -0.69184417
vn -0.70881128 -0.26994392 -0.651703
vn -0.70881122 -0.13761644 -0.69184405
vn -0.70753276 -0.0346752 -0.70582926
vn -0.70753282 -0.034675356 -0.70582938
vn -0.70881128 -0.1376164 -0.69184417
vn 0.7088114 -0.69184411 0.13761605
vn 0.70881146 -0.65170288 0.26994371
vn 0.70881152 -0.65170282 0.26994395
vn 0.7088114 -0.69184417 0.1376161
vn 0.70881146 -0.65170288 0.26994371
vn 0.70881122 -0.58651721 0.39189816
vn 0.70881122 -0.58651721 0.39189827
vn 0.70881152 -0.65170282 0.26994395
vn 0.70881122 -0.58651721 0.39189816
vn 0.70881116 -0.49879166 0.49879208
vn 0.70881116 -0.49879178 0.49879202
vn 0.70881122 -0.58651721 0.39189827
vn 0.70881116 -0.49879166 0.49879208
vn 0.70881128 -0.3918981 0.58651716
vn 0.70881134 -0.39189833 0.58651704
vn 0.70881116 -0.49879178 0.49879202
vn 0.70881128 -0.3918981 0.58651716
vn 0.70881122 -0.26994419 0.65170288
vn 0.70881122 -0.26994404 0.65170312
vn 0.70881134 -0.39189833 0.58651704
vn 0.70881122 -0.26994419 0.65170288
vn 0.70881128 -0.13761634 0.69184422
vn 0.70881116 -0.13761625 0.69184417
vn 0.70881122 -0.26994404 0.65170312
vn 0.70881128 -0.13761634 0.69184422
vn 0.70753288 -0.034675084 0.70582926
vn 0.70753294 -0.034675237 0.7058292
vn 0.70881116 -0.13761625 0.69184417
vn 0.70753288 -0.034675207 -0.7058292
vn 0.70881128 -0.13761646 -0.69184399
vn 0.70881128 -0.1376164 -0.69184405
vn 0.70753288 -0.034675356 -0.7058292
vn 0.70881128 -0.13761646 -0.69184399
vn 0.70881134 -0.26994416 -0.65170288
vn 0.70881134 -0.26994398 -0.65170294
vn 0.70881128 -0.1376164 -0.69184405
vn 0.70881134 -0.26994416 -0.65170288
vn 0.70881146 -0.39189789 -0.58651716
vn 0.70881146 -0.39189804 -0.58651698
vn 0.70881134 -0.26994398 -0.65170294
vn 0.70881146 -0.39189789 -0.58651716
vn 0.70881158 -0.49879131 -0.4987919
vn 0.70881164 -0.49879143 -0.49879178
vn 0.70881146 -0.39189804 -0.58651698
vn 0.70881158 -0.49879131 -0.4987919
vn 0.70881146 -0.58651704 -0.39189816
vn 0.70881146 -0.58651698 -0.39189824
vn 0.70881164 -0.49879143 -0.49879178
vn 0.70881146 -0.58651704 -0.39189816
vn 0.70881087 -0.65170348 -0.26994401
vn 0.70881087 -0.65170342 -0.26994422
vn 0.70881146 -0.58651698 -0.39189824
vn 0.70881087 -0.65170348 -0.26994401
vn 0.70881093 -0.69184458 -0.13761617
vn 0.70881087 -0.69184452 -0.13761614
vn 0.70881087 -0.65170342 -0.26994422
vn 0.70881093 -0.69184458 -0.13761617
vn 0.70881104 -0.70539838 -1.8212315e-08
vn 0.70881104 -0.70539838 -1.4924492e-08
vn 0.70881087 -0.69184452 -0.13761614
vn -0.70710671 4.2909832e-08 0.70710677
vn -0.70753276 -0.034675099 0.70582926
vn -0.70753282 -0.034675252 0.70582938
vn -0.70710671 4.2909832e-08 0.70710677
vn 0.70710671 4.2909832e-08 0.70710677
vn 0.70753294 -0.034675237 0.7058292
vn 0.70753288 -0.034675084 0.70582926
vn 0.70710671 4.2909832e-08 0.70710677
vn -0.70753276 -0.0346752 -0.70582926
vn -0.70710671 0 -0.70710677
vn -0.70710671 0 -0.70710677
vn -0.70753282 -0.034675356 -0.70582938
vn 0.70753288 -0.034675356 -0.7058292
vn 0.70710671 0 -0.70710677
vn 0.70710671 0 -0.70710677
vn 0.70753288 -0.034675207 -0.7058292
vn 0.70881104 -0.70539838 -1.8212315e-08
vn 0.7088114 -0.69184411 0.13761605
vn 0.7088114 -0.69184417 0.1376161
vn 0.70881104 -0.70539838 -1.4924492e-08
vn -1.3192316e-20 1 0
vn -7.915389e-21 1 0
vn -7.915389e-21 1 0
vn -1.3192316e-20 1 0
vn -1 0 0
vn -0.99999994 0 0
vn -1 0 0
vn -1 0 0
vn -1 0 0
vn -0.99999994 0 0
vn -1 0 0
vn -1 0 0
vn -1 0 0
vn -1 0 0
vn -1 0 0
vn -0.99999994 0 0
vn -1 0 0
vn -1 0 0
vn -0.99999994 0 0
vn -1 0 0
vn -1 0 0
vn -0.99999994 0 0
vn -1 0 0
vn -0.99999994 0 0
vn -1 0 0
vn -1 0 0
vn -1 0 0
vn -1 0 0
vn -1 0 0
vn -1 0 0
vn -0.99999994 0 0
vn -1 0 0
vn -1 0 0
vn -0.99999994 0 0
vn -1 0 0
vn -1 0 0
vn -0.99999994 0 0
vn -1 0 0
vn -0.99999994 0 0
vn -0.99999994 0 0
vn -0.99999994 0 0
vn -1 0 0
vn -0.99999994 0 0
vn -1 0 0
vn -0.99999994 0 0
vn -0.99999994 0 0
vn -1 0 0
vn -0.99999994 0 0
vn -0.99999994 0 0
vn -0.99999994 0 0
vn -1 0 0
vn -0.99999994 0 0
vn -1 0 0
vn -0.99999994 0 0
vn -0.99999994 0 0
vn 1 0 0
vn 1 0 0
vn 1 0 0
vn 1 0 0
vn 0.99999994 0 0
vn 1 0 0
vn 0.99999994 0 0
vn 1 0 0
vn 1 0 0
vn 1 0 0
vn 1 0 0
vn 1 0 0
vn 1 0 0
vn 1 0 0
vn 1 0 0
vn 1 0 0
vn 1 0 0
vn 1 0 0
vn 1 0 0
vn 1 0 0
vn 1 0 0
vn 0.99999994 0 0
vn 1 0 0
vn 1 0 0
vn 1 0 0
vn 1 0 0
vn 1 0 0
vn 1 0 0
vn 1 0 0
vn 1 0 0
vn 1 0 0
vn 0.99999994 0 0
vn 1 0 0
vn 1 0 0
vn 1 0 0
vn 1 0 0
vn 1 0 0
vn 1 0 0
vn 1 0 0
vn 1 0 0
vn 1 0 0
vn 1 0 0
vn 1 0 0
vn 1 0 0
vn 1 0 0
vn 0.99999994 0 0
vn 1 0 0
vn 1 0 0
vn 1 0 0
vn 1 0 0
vn 0.99999994 0 0
vn 1 0 0
vn 0.99999994 0 0
vn 1 0 0
vn 0.99999994 0 0
vn 0.99999994 0 0
vn 1 0 0
vn 1 0 0
vn 1 0 0
vn 1 0 0
vn 0 -0.38268337 0.92387962
vn 0 -0.19509037 0.98078525
vn 0 -0.19509037 0.98078525
vn 0 -0.38268337 0.92387962
vn 0 4.5758355e-08 1
vn 0 -0.049067646 0.99879545
vn 0 -0.049067646 0.99879545
vn 0 4.5758355e-08 1
vn 0 -0.19509034 0.98078525
vn 0 -0.38268331 0.92387962
vn 0 -0.38268334 0.92387962
vn 0 -0.19509031 0.98078525
vn 0 -0.38268331 0.92387962
vn 0 -0.55557024 0.83146966
vn 0 -0.55557024 0.83146966
vn 0 -0.38268334 0.92387962
vn 0 -0.55557024 0.83146966
vn 0 -0.70710665 0.70710695
vn 0 -0.70710665 0.70710695
vn 0 -0.55557024 0.83146966
vn 0 -0.70710665 0.70710695
vn 0 -0.83146948 0.55557042
vn 0 -0.83146948 0.55557042
vn 0 -0.70710665 0.70710695
vn 0 -0.83146948 0.55557042
vn 0 -0.92387962 0.38268322
vn 0 -0.92387962 0.38268322
vn 0 -0.83146948 0.55557042
vn 0 -0.92387962 -0.38268334
vn 0 -0.98078531 -0.19509001
vn 0 -0.98078531 -0.19509001
vn 0 -0.92387962 -0.38268334
vn 0 -0.92387962 0.38268322
vn 0 -0.98078531 0.19509001
vn 0 -0.98078531 0.19509001
vn 0 -0.92387962 0.38268322
vn 0 -0.83146966 -0.5555703
vn 0 -0.92387962 -0.38268334
vn 0 -0.92387962 -0.38268334
vn 0 -0.83146966 -0.5555703
vn 0 -1 0
vn 0 -0.98078531 -0.19509009
vn 0 -0.98078531 -0.19509009
vn 0 -1 0
vn 0 -0.98078531 -0.19509009
vn 0 -0.92387962 -0.38268322
vn 0 -0.92387962 -0.38268322
vn 0 -0.98078531 -0.19509009
vn 0 -0.92387962 -0.38268322
vn 0 -0.83146966 -0.55557007
vn 0 -0.83146966 -0.55557007
vn 0 -0.92387962 -0.38268322
vn 0 -0.83146966 -0.55557007
vn 0 -0.70710641 -0.70710719
vn 0 -0.70710641 -0.70710719
vn 0 -0.83146966 -0.55557007
vn 0 -0.70710641 -0.70710719
vn 0 -0.55556983 -0.83146989
vn 0 -0.55556983 -0.83146989
vn 0 -0.70710641 -0.70710719
vn 0 -0.55556983 -0.83146989
vn 0 -0.38268349 -0.92387956
vn 0 -0.38268349 -0.92387956
vn 0 -0.55556983 -0.83146989
vn 0 -0.38268349 -0.92387956
vn 0 -0.1950901 -0.98078531
vn 0 -0.19509013 -0.98078531
vn 0 -0.38268349 -0.92387956
vn 0 0 -1
vn 0 -0.049067948 -0.99879545
vn 0 -0.049067948 -0.99879545
vn 0 0 -1
vn 0 -0.92387962 0.38268331
vn 0 -0.83146948 0.5555703
vn 0 -0.83146948 0.5555703
vn 0 -0.92387962 0.38268331
vn 0 -0.83146948 0.5555703
vn 0 -0.70710647 0.70710713
vn 0 -0.70710647 0.70710713
vn 0 -0.83146948 0.5555703
vn 0 -0.70710647 0.70710713
vn 0 -0.55557019 0.83146971
vn 0 -0.55557019 0.83146971
vn 0 -0.70710647 0.70710713
vn 0 -0.049067646 0.99879545
vn 0 -0.19509034 0.98078525
vn 0 -0.19509031 0.98078525
vn 0 -0.049067646 0.99879545
vn 0 -0.55557019 0.83146971
vn 0 -0.38268337 0.92387962
vn 0 -0.38268337 0.92387962
vn 0 -0.55557019 0.83146971
vn 0 -0.98078531 0.19509001
vn 0 -1 0
vn 0 -1 0
vn 0 -0.98078531 0.19509001
vn 0 -0.049067389 -0.99879551
vn 0 0 -1
vn 0 0 -1
vn 0 -0.049067389 -0.99879551
vn 0 -0.1950901 -0.98078531
vn 0 -0.049067389 -0.99879551
vn 0 -0.049067389 -0.99879551
vn 0 -0.19509013 -0.98078531
vn 0 -0.049067713 0.99879545
vn 0 4.5758348e-08 1
vn 0 4.5758348e-08 1
vn 0 -0.049067713 0.99879545
vn 0 -0.98078531 0.19509007
vn 0 -0.92387962 0.38268331
vn 0 -0.92387962 0.38268331
vn 0 -0.98078531 0.19509007
vn 0 -0.19509037 0.98078525
vn 0 -0.049067713 0.99879545
vn 0 -0.049067713 0.99879545
vn 0 -0.19509037 0.98078525
vn 0 -1 0
vn 0 -0.98078531 0.19509007
vn 0 -0.98078531 0.19509007
vn 0 -1 0
vn 0 -0.049067948 -0.99879545
vn 0 -0.19509065 -0.98078525
vn 0 -0.19509065 -0.98078525
vn 0 -0.049067948 -0.99879545
vn 0 -0.98078531 -0.19509001
vn 0 -1 0
vn 0 -1 0
vn 0 -0.98078531 -0.19509001
vn 0 -0.19509065 -0.98078525
vn 0 -0.38268289 -0.9238798
vn 0 -0.38268289 -0.9238798
vn 0 -0.19509065 -0.98078525
vn 0 -0.38268289 -0.9238798
vn 0 -0.55556959 -0.83147001
vn 0 -0.55556959 -0.83147001
vn 0 -0.38268289 -0.9238798
vn 0 -0.55556959 -0.83147001
vn 0 -0.70710659 -0.70710701
vn 0 -0.70710659 -0.70710701
vn 0 -0.55556959 -0.83147001
vn 0 -0.70710659 -0.70710701
vn 0 -0.83146966 -0.5555703
vn 0 -0.83146966 -0.5555703
vn 0 -0.70710659 -0.70710701
vn 0 8.1686077e-05 0.99999994
vn 0 8.1686077e-05 0.99999994
vn 0 -0.048197612 0.99883783
vn 0 -0.048197612 0.99883783
vn 0 -0.04819762 -0.99883783
vn 0 -0.04819762 -0.99883783
vn 0 8.1668535e-05 -0.99999994
vn 0 8.1668535e-05 -0.99999994
vn 0 -0.19427583 -0.98094702
vn 0 -0.19427583 -0.98094702
vn 0 -0.04819762 -0.99883783
vn 0 -0.04819762 -0.99883783
vn 0 -0.92387962 -0.38268334
vn 0 -0.92387962 -0.38268334
vn 0 -0.83146948 -0.5555703
vn 0 -0.83146948 -0.5555703
vn 0 -0.83146948 -0.5555703
vn 0 -0.83146948 -0.5555703
vn 0 -0.70710641 -0.70710713
vn 0 -0.70710641 -0.70710713
vn 0 -0.70710641 -0.70710713
vn 0 -0.70710641 -0.70710713
vn 0 -0.55557048 -0.83146948
vn 0 -0.55557048 -0.83146948
vn 0 -0.55557048 -0.83146948
vn 0 -0.55557048 -0.83146948
vn 0 -0.3826836 -0.9238795
vn 0 -0.3826836 -0.9238795
vn 0 -0.3826836 -0.9238795
vn 0 -0.3826836 -0.9238795
vn 0 -0.19427583 -0.98094702
vn 0 -0.19427583 -0.98094702
vn 0 -0.98078531 -0.19509022
vn 0 -0.98078531 -0.19509022
vn 0 -0.92387962 -0.38268334
vn 0 -0.92387962 -0.38268334
vn -4.2748258e-07 -1 0
vn -4.2748258e-07 -1 0
vn 0 -0.98078531 -0.19509022
vn 0 -0.98078531 -0.19509022
vn -4.2748258e-07 -1 0
vn -4.2748258e-07 -1 0
vn -2.8399813e-07 -0.98078531 0.19509017
vn -2.8399774e-07 -0.98078525 0.19509026
vn -2.8399774e-07 -0.98078525 0.19509026
vn -2.8399813e-07 -0.98078531 0.19509017
vn 4.1946521e-07 -0.92387962 0.38268331
vn 4.1946532e-07 -0.92387962 0.38268334
vn 4.1946532e-07 -0.92387962 0.38268334
vn 4.1946521e-07 -0.92387962 0.38268331
vn -2.1339548e-07 -0.83146966 0.55557019
vn -2.1339594e-07 -0.8314696 0.55557024
vn -2.1339594e-07 -0.8314696 0.55557024
vn -2.1339548e-07 -0.83146966 0.55557019
vn -4.893763e-07 -0.70710665 0.70710695
vn -4.893763e-07 -0.70710665 0.70710695
vn -4.893763e-07 -0.70710665 0.70710695
vn -4.893763e-07 -0.70710665 0.70710695
vn 0 -0.55557024 0.8314696
vn 0 -0.55557024 0.8314696
vn 0 -0.55557024 0.8314696
vn 0 -0.55557024 0.8314696
vn 0 -0.38268349 0.92387956
vn 0 -0.38268349 0.92387956
vn 0 -0.38268349 0.92387956
vn 0 -0.38268349 0.92387956
vn 0 -0.19427598 0.9809469
vn 0 -0.19427598 0.9809469
vn 0 -0.19427598 0.9809469
vn 0 -0.19427598 0.9809469
vn 0 -0.048197612 0.99883783
vn 0 -0.048197612 0.99883783
vn -0.86774153 -0.096799672 0.48749819
vn -0.867405 -0.024228645 0.4970127
vn -0.867405 -0.024217289 0.49701297
vn -0.86774158 -0.096778668 0.48750222
vn 0.86754084 -0.4595063 -0.19033356
vn 0.86754072 -0.41354477 -0.2763218
vn 0.86754078 -0.41354483 -0.2763218
vn 0.86754078 -0.45950627 -0.19033362
vn 0.86754072 -0.41354477 -0.2763218
vn 0.86754084 -0.35169062 -0.3516911
vn 0.86754084 -0.35169065 -0.35169107
vn 0.86754078 -0.41354483 -0.2763218
vn 0.86754096 -0.19033365 0.45950618
vn 0.86754113 -0.27632156 0.41354418
vn 0.86754113 -0.27632162 0.41354412
vn 0.8675409 -0.19033366 0.45950615
vn -0.86754119 -0.48780873 -0.097031012
vn -0.86754084 -0.49736592 5.7741612e-08
vn -0.8675409 -0.49736595 6.081374e-08
vn -0.86754119 -0.4878087 -0.097031064
vn -0.86754084 -0.49736592 5.7741612e-08
vn -0.86754096 -0.48780903 0.097031064
vn -0.86754096 -0.48780906 0.097031079
vn -0.8675409 -0.49736595 6.081374e-08
vn -0.86754113 -0.4595058 -0.1903335
vn -0.86754119 -0.48780873 -0.097031012
vn -0.86754119 -0.4878087 -0.097031064
vn -0.86754119 -0.4595058 -0.19033353
vn -0.86741114 2.0330157e-05 -0.49759209
vn -0.86740488 -0.024228834 -0.49701294
vn -0.86740494 -0.024217479 -0.49701324
vn -0.86741114 2.0330157e-05 -0.49759209
vn -0.86754084 -0.4135446 -0.27632171
vn -0.86754113 -0.4595058 -0.1903335
vn -0.86754119 -0.4595058 -0.19033353
vn -0.86754078 -0.41354465 -0.27632165
vn -0.86740488 -0.024228834 -0.49701294
vn -0.86774123 -0.096799858 -0.48749861
vn -0.86774141 -0.096778855 -0.48750266
vn -0.86740494 -0.024217479 -0.49701324
vn -0.86754078 -0.35169068 -0.35169119
vn -0.86754084 -0.4135446 -0.27632171
vn -0.86754078 -0.41354465 -0.27632165
vn -0.86754072 -0.35169074 -0.3516911
vn 0.86774141 -0.096799746 0.48749831
vn 0.86754096 -0.19033365 0.45950618
vn 0.8675409 -0.19033366 0.45950615
vn 0.86774153 -0.096778758 0.48750237
vn 0.86741114 2.0306174e-05 0.49759188
vn 0.867405 -0.024228679 0.4970127
vn 0.867405 -0.024217324 0.49701297
vn 0.86741114 2.0306174e-05 0.49759188
vn -0.86754066 -0.27632189 -0.41354489
vn -0.86754078 -0.35169068 -0.35169119
vn -0.86754072 -0.35169074 -0.3516911
vn -0.86754066 -0.27632192 -0.41354486
vn -0.867405 -0.024228645 0.4970127
vn -0.86741114 2.0294186e-05 0.49759188
vn -0.86741114 2.0294186e-05 0.49759188
vn -0.867405 -0.024217289 0.49701297
vn 0.86754107 -0.45950601 0.19033335
vn 0.86754107 -0.48780885 0.097031035
vn 0.86754107 -0.48780879 0.097031042
vn 0.86754107 -0.45950598 0.1903334
vn -0.86754066 -0.19033402 -0.45950651
vn -0.86754066 -0.27632189 -0.41354489
vn -0.86754066 -0.27632192 -0.41354486
vn -0.86754066 -0.19033404 -0.45950654
vn -0.86754102 -0.19033363 0.45950615
vn -0.86774153 -0.096799672 0.48749819
vn -0.86774158 -0.096778668 0.48750222
vn -0.8675409 -0.19033365 0.45950609
vn 0.867405 -0.024228679 0.4970127
vn 0.86774141 -0.096799746 0.48749831
vn 0.86774153 -0.096778758 0.48750237
vn 0.867405 -0.024217324 0.49701297
vn -7.915389e-21 1 0
vn 0 1 0
vn 0 1 0
vn 0 1 0
vn 0 1 0
vn -1.1746746e-08 1 2.0892886e-08
vn 0 1 0
vn 0 1 0
vn 0 1 0
vn -7.915389e-21 1 0
vn -7.915389e-21 1 0
vn -7.915389e-21 1 0
vn 0 1 0
vn 0 1 0
vn -1.1936358e-08 1 2.1230132e-08
vn -1.1746746e-08 1 2.0892886e-08
vn -9.151686e-08 1 1.6277286e-07
vn 0 1 0
vn -1.1746746e-08 1 2.0892886e-08
vn -1.1936358e-08 1 2.1230132e-08
vn 0 1 0
vn 0 1 0
vn 0 1 0
vn 0 1 0
usemtl stonetrims
f 122/102/1 121/153/2 141/263/3
f 122/102/1 141/263/3 143/248/4
f 32/204/5 29/243/6 123/139/7
f 32/204/5 123/139/7 153/186/8
usemtl brickwall1
f 4/202/9 1/163/10 34/35/11
f 69/215/12 53/151/13 5/206/14
usemtl stonetrims
f 121/153/15 120/36/16 139/179/17
f 121/153/15 139/179/17 141/263/18
f 83/260/19 81/37/20 148/155/21
f 83/260/19 148/155/21 150/136/22
f 113/34/23 112/21/24 128/240/25
f 113/34/23 128/240/25 130/158/26
f 120/36/27 119/51/28 138/189/29
f 120/36/27 138/189/29 139/179/30
f 29/243/31 27/48/32 125/120/33
f 29/243/31 125/120/33 123/139/34
usemtl brickwall1
f 1/163/35 2/76/36 17/131/37
usemtl stonetrims
f 112/21/38 110/75/39 126/234/40
f 112/21/38 126/234/40 128/240/41
f 118/23/42 83/260/43 150/136/44
f 118/23/42 150/136/44 136/251/45
f 27/48/46 25/288/47 127/176/48
f 27/48/46 127/176/48 125/120/49
f 110/75/50 111/11/51 124/78/52
f 110/75/50 124/78/52 126/234/53
f 119/51/54 68/42/55 156/130/56
f 119/51/54 156/130/56 138/189/57
f 25/288/58 23/220/59 129/97/60
f 25/288/58 129/97/60 127/176/61
f 68/42/62 15/43/63 159/134/64
f 68/42/62 159/134/64 156/130/65
f 54/30/66 118/23/67 136/251/68
f 54/30/66 136/251/68 154/137/69
f 23/220/70 21/257/71 131/148/72
f 23/220/70 131/148/72 129/97/73
f 49/199/74 47/49/75 140/83/76
f 49/199/74 140/83/76 137/170/77
usemtl brickwall1
f 11/269/78 3/1/79 35/264/80
f 3/1/81 4/202/82 35/264/83
usemtl stonetrims
f 86/161/84 109/124/85 16/214/86
f 86/161/84 16/214/86 13/174/87
f 98/68/88 101/32/89 34/224/90
f 98/68/88 34/224/90 31/66/91
f 89/60/92 91/283/93 20/7/94
f 89/60/92 20/7/94 17/12/95
f 91/283/96 90/162/97 22/231/98
f 91/283/96 22/231/98 20/7/99
f 90/162/100 92/62/101 24/110/102
f 90/162/100 24/110/102 22/231/103
f 92/62/104 93/178/105 26/86/106
f 92/62/104 26/86/106 24/110/107
f 93/178/108 94/275/109 28/112/110
f 93/178/108 28/112/110 26/86/111
f 94/275/112 95/152/113 30/235/114
f 94/275/112 30/235/114 28/112/115
f 95/152/116 98/68/117 31/66/118
f 95/152/116 31/66/118 30/235/119
f 101/32/120 100/28/121 38/272/122
f 101/32/120 38/272/122 34/224/123
f 100/28/124 102/104/125 40/250/126
f 100/28/124 40/250/126 38/272/127
f 102/104/128 103/245/129 42/16/130
f 102/104/128 42/16/130 40/250/131
f 103/245/132 104/73/133 44/25/134
f 103/245/132 44/25/134 42/16/135
f 104/73/136 105/256/137 46/31/138
f 104/73/136 46/31/138 44/25/139
f 105/256/140 106/26/141 48/100/142
f 105/256/140 48/100/142 46/31/143
f 106/26/144 107/47/145 50/121/146
f 106/26/144 50/121/146 48/100/147
f 107/47/148 115/111/149 35/91/150
f 107/47/148 35/91/150 50/121/151
f 117/226/152 55/74/153 56/208/154
f 117/226/152 56/208/154 53/259/155
f 55/74/156 57/168/157 58/18/158
f 55/74/156 58/18/158 56/208/159
f 57/168/160 59/221/161 60/118/162
f 57/168/160 60/118/162 58/18/163
f 59/221/164 61/219/165 62/116/166
f 59/221/164 62/116/166 60/118/167
f 61/219/168 88/89/169 64/268/170
f 61/219/168 64/268/170 62/116/171
f 88/89/172 87/232/173 66/122/174
f 88/89/172 66/122/174 64/268/175
f 87/232/176 116/285/177 51/194/178
f 87/232/176 51/194/178 66/122/179
f 108/81/180 71/205/181 72/85/182
f 108/81/180 72/85/182 67/156/183
f 71/205/184 73/164/185 74/103/186
f 71/205/184 74/103/186 72/85/187
f 73/164/188 75/115/189 76/94/190
f 73/164/188 76/94/190 74/103/191
f 75/115/192 77/238/193 78/92/194
f 75/115/192 78/92/194 76/94/195
f 77/238/196 99/212/197 80/72/198
f 77/238/196 80/72/198 78/92/199
f 99/212/200 97/184/201 82/19/202
f 99/212/200 82/19/202 80/72/203
f 97/184/204 96/52/205 84/64/206
f 97/184/204 84/64/206 82/19/207
f 96/52/208 70/56/209 69/173/210
f 96/52/208 69/173/210 84/64/211
f 85/253/212 89/60/213 17/12/214
f 85/253/212 17/12/214 10/87/215
f 13/50/216 51/194/217 116/285/218
f 13/50/216 116/285/218 86/93/219
f 115/111/220 114/27/221 11/280/222
f 115/111/220 11/280/222 35/91/223
f 67/156/224 16/187/225 109/273/226
f 67/156/224 109/273/226 108/81/227
f 70/56/228 117/226/229 53/259/230
f 70/56/228 53/259/230 69/173/231
f 11/45/232 114/284/233 85/258/234
f 11/45/232 85/258/234 10/241/235
usemtl brickwall1
f 2/76/236 10/167/237 17/131/238
f 50/266/239 35/264/240 4/202/241
f 1/163/242 17/131/243 20/277/244
f 1/163/245 20/277/246 22/233/247
f 48/10/248 50/266/249 4/202/250
f 46/107/251 48/10/252 4/202/253
f 1/163/254 22/233/255 24/2/256
f 1/163/257 24/2/258 26/96/259
f 44/265/260 46/107/261 4/202/262
f 42/57/263 44/265/264 4/202/265
f 1/163/266 26/96/267 28/8/268
f 1/163/269 28/8/270 30/157/271
f 40/267/272 42/57/273 4/202/274
f 38/188/275 40/267/276 4/202/277
f 1/163/278 30/157/279 31/9/280
f 34/35/281 38/188/282 4/202/283
f 1/163/284 31/9/285 34/35/286
f 8/281/287 7/61/288 67/3/289
f 7/61/290 16/222/291 67/3/292
f 13/99/293 6/129/294 51/183/295
f 6/129/296 5/206/297 51/183/298
f 8/281/299 67/3/300 72/108/301
f 8/281/302 72/108/303 74/190/304
f 66/274/305 51/183/306 5/206/307
f 64/113/308 66/274/309 5/206/310
f 8/281/311 74/190/312 76/125/313
f 8/281/314 76/125/315 78/33/316
f 62/132/317 64/113/318 5/206/319
f 60/84/320 62/132/321 5/206/322
f 8/281/323 78/33/324 80/166/325
f 8/281/326 80/166/327 82/143/328
f 58/249/329 60/84/330 5/206/331
f 56/44/332 58/249/333 5/206/334
f 8/281/335 82/143/336 84/271/337
f 8/281/338 84/271/339 69/215/340
f 53/151/341 56/44/342 5/206/343
f 8/281/344 69/215/345 5/206/346
usemtl stonetrims
f 63/169/347 65/127/348 87/196/349
f 63/169/347 87/196/349 88/114/350
f 9/154/351 18/177/352 89/175/353
f 9/154/351 89/175/353 85/192/354
f 19/252/355 21/209/356 90/278/357
f 19/252/355 90/278/357 91/79/358
f 21/209/359 23/77/360 92/41/361
f 21/209/359 92/41/361 90/278/362
f 23/77/363 25/126/364 93/236/365
f 23/77/363 93/236/365 92/41/366
f 25/126/367 27/172/368 94/193/369
f 25/126/367 94/193/369 93/236/370
f 27/172/371 29/46/372 95/38/373
f 27/172/371 95/38/373 94/193/374
f 81/67/375 83/279/376 96/22/377
f 81/67/375 96/22/377 97/80/378
f 29/46/379 32/217/380 98/210/381
f 29/46/379 98/210/381 95/38/382
f 79/128/383 81/67/384 97/80/385
f 79/128/383 97/80/385 99/289/386
f 33/191/387 37/213/388 100/276/389
f 33/191/387 100/276/389 101/207/390
f 37/213/391 39/146/392 102/211/393
f 37/213/391 102/211/393 100/276/394
f 39/146/395 41/287/396 103/159/397
f 39/146/395 103/159/397 102/211/398
f 41/287/399 43/20/400 104/6/401
f 41/287/399 104/6/401 103/159/402
f 43/20/403 45/282/404 105/198/405
f 43/20/403 105/198/405 104/6/406
f 45/282/407 47/88/408 106/261/409
f 45/282/407 106/261/409 105/198/410
f 47/88/411 49/201/412 107/225/413
f 47/88/411 107/225/413 106/261/414
f 15/59/415 68/247/416 108/237/417
f 15/59/415 108/237/417 109/195/418
f 111/145/419 110/95/420 57/254/421
f 111/145/419 57/254/421 55/290/422
f 110/95/423 112/14/424 59/140/425
f 110/95/423 59/140/425 57/254/426
f 112/14/427 113/138/428 61/5/429
f 112/14/427 61/5/429 59/140/430
f 18/177/431 19/252/432 91/79/433
f 18/177/431 91/79/433 89/175/434
f 113/138/435 63/169/436 88/114/437
f 113/138/435 88/114/437 61/5/438
f 32/217/439 33/191/440 101/207/441
f 32/217/439 101/207/441 98/210/442
f 36/53/443 12/39/444 114/54/445
f 36/53/443 114/54/445 115/101/446
f 49/201/447 36/53/448 115/101/449
f 49/201/447 115/101/449 107/225/450
f 52/180/451 14/160/452 86/70/453
f 52/180/451 86/70/453 116/144/454
f 54/150/455 111/145/456 55/290/457
f 54/150/455 55/290/457 117/90/458
f 65/127/459 52/180/460 116/144/461
f 65/127/459 116/144/461 87/196/462
f 118/106/463 54/150/464 117/90/465
f 118/106/463 117/90/465 70/65/466
f 68/247/467 119/185/468 71/133/469
f 68/247/467 71/133/469 108/237/470
f 83/279/471 118/106/472 70/65/473
f 83/279/471 70/65/473 96/22/474
f 119/185/475 120/40/476 73/230/477
f 119/185/475 73/230/477 71/133/478
f 120/40/479 121/255/480 75/223/481
f 120/40/479 75/223/481 73/230/482
f 121/255/483 122/147/484 77/4/485
f 121/255/483 77/4/485 75/223/486
f 122/147/487 79/128/488 99/289/489
f 122/147/487 99/289/489 77/4/490
f 157/119/491 158/239/492 151/109/493
f 157/119/491 151/109/493 152/227/494
f 155/181/495 156/130/496 159/134/497
f 155/181/495 159/134/497 160/242/498
f 137/170/499 138/189/500 156/130/501
f 137/170/499 156/130/501 155/181/502
f 147/246/503 148/155/504 145/105/505
f 147/246/503 145/105/505 146/262/506
f 146/262/507 145/105/508 143/248/509
f 146/262/507 143/248/509 144/123/510
f 144/123/511 143/248/512 141/263/513
f 144/123/511 141/263/513 142/142/514
f 142/142/515 141/263/516 139/179/517
f 142/142/515 139/179/517 140/83/518
f 140/83/519 139/179/520 138/189/521
f 140/83/519 138/189/521 137/170/522
f 149/117/523 150/136/524 148/155/525
f 149/117/523 148/155/525 147/246/526
f 135/98/527 136/251/528 150/136/529
f 135/98/527 150/136/529 149/117/530
f 136/251/531 135/98/532 153/186/533
f 136/251/531 153/186/533 154/137/534
f 154/137/535 153/186/536 123/139/537
f 154/137/535 123/139/537 124/78/538
f 124/78/539 123/139/540 125/120/541
f 124/78/539 125/120/541 126/234/542
f 126/234/543 125/120/544 127/176/545
f 126/234/543 127/176/545 128/240/546
f 128/240/547 127/176/548 129/97/549
f 128/240/547 129/97/549 130/158/550
f 130/158/551 129/97/552 131/148/553
f 130/158/551 131/148/553 132/286/554
f 132/286/555 131/148/556 133/149/557
f 132/286/555 133/149/557 134/15/558
f 134/15/559 133/149/560 152/227/561
f 134/15/559 152/227/561 151/109/562
f 19/218/563 18/216/564 152/227/565
f 19/218/563 152/227/565 133/149/566
f 81/37/567 79/141/568 145/105/569
f 81/37/567 145/105/569 148/155/570
f 79/141/571 122/102/572 143/248/573
f 79/141/571 143/248/573 145/105/574
f 63/197/575 113/34/576 130/158/577
f 63/197/575 130/158/577 132/286/578
f 37/270/579 33/24/580 135/98/581
f 37/270/579 135/98/581 149/117/582
f 33/24/583 32/204/584 153/186/585
f 33/24/583 153/186/585 135/98/586
f 39/63/587 37/270/588 149/117/589
f 39/63/587 149/117/589 147/246/590
f 12/82/591 36/13/592 155/181/593
f 12/82/591 155/181/593 160/242/594
f 41/29/595 39/63/596 147/246/597
f 41/29/595 147/246/597 146/262/598
f 36/13/599 49/199/600 137/170/601
f 36/13/599 137/170/601 155/181/602
f 43/17/603 41/29/604 146/262/605
f 43/17/603 146/262/605 144/123/606
f 65/135/607 63/197/608 132/286/609
f 65/135/607 132/286/609 134/15/610
f 14/71/611 52/200/612 151/109/613
f 14/71/611 151/109/613 158/239/614
f 45/228/615 43/17/616 144/123/617
f 45/228/615 144/123/617 142/142/618
f 18/216/619 9/165/620 157/119/621
f 18/216/619 157/119/621 152/227/622
f 111/11/623 54/30/624 154/137/625
f 111/11/623 154/137/625 124/78/626
f 47/49/627 45/228/628 142/142/629
f 47/49/627 142/142/629 140/83/630
f 21/257/631 19/218/632 133/149/633
f 21/257/631 133/149/633 131/148/634
f 52/200/635 65/135/636 134/15/637
f 52/200/635 134/15/637 151/109/638
f 85/258/639 157/55/640 9/229/641
f 157/55/642 160/203/643 159/182/644
f 157/55/642 159/182/644 158/244/645
f 160/203/646 157/55/647 85/258/648
f 160/203/646 85/258/648 114/284/649
f 114/284/650 12/69/651 160/203/652
f 109/124/653 159/182/654 15/171/655
f 158/244/656 159/182/657 109/124/658
f 158/244/656 109/124/658 86/161/659
f 86/161/660 14/58/661 158/244/662
