# Converted from user-supplied modularDungeon.fbx; Y-up, meters, bottom centered
mtllib Gothic.mtl
o Stairs
v -2 4 3.9999995
v -2 2 -2.8312206e-07
v -2 6 -2.8312206e-07
v 2 0 3.9999995
v 2 2 -2.8312206e-07
v 2 6 -2.8312206e-07
v -2 0 5
v -2 4 5
v 2 4 5
v 2 0 5
v -2 7.9999995 -4
v -2 4 -4
v 2 4 -4
v -2 7.9999995 -5
v -2 4 -5
v 2 4 -5
v 2 7.9999995 -5
v -2 0 3.9999995
v -2 0.22222209 3.5616436
v 2 0.22222209 3.5616436
v -2 0.44444442 3.1232874
v 2 0.44444442 3.1232874
v -2 0.88888884 2.2465754
v 2 0.88888884 2.2465754
v -2 1.1111112 1.8082193
v 2 1.1111112 1.8082193
v -2 1.3333335 1.3698632
v 2 1.3333335 1.3698632
v -2 1.5555556 0.93150735
v 2 1.5555556 0.93150735
v -2 1.7777778 0.49315092
v 2 1.7777778 0.49315092
v -2 2 0.054794744
v 2 2 0.054794744
v -2 2.2222223 -0.3835614
v 2 2.2222223 -0.3835614
v -2 2.4444444 -0.82191777
v 2 2.4444444 -0.82191777
v -2 2.6666667 -1.2602738
v 2 2.6666667 -1.2602738
v -2 2.8888888 -1.6986302
v 2 2.8888888 -1.6986302
v -2 3.1111112 -2.136986
v 2 3.1111112 -2.136986
v -2 3.3333333 -2.5753424
v 2 3.3333333 -2.5753424
v -2 3.5555556 -3.0136988
v 2 3.5555556 -3.0136988
v -2 3.7777779 -3.4520547
v 2 3.7777779 -3.4520547
v -2 0.17222214 3.9999995
v -2 0.22222209 3.9499998
v -2 0.19722223 3.9933012
v -2 0.21552348 3.9749997
v 2 0.22222209 3.9499998
v 2 0.17222214 3.9999995
v 2 0.21552348 3.9749997
v 2 0.19722223 3.9933012
v -2 0.39444447 3.5616436
v -2 0.44444442 3.5116436
v -2 0.41944456 3.5549448
v -2 0.43774557 3.5366437
v 2 0.44444442 3.5116436
v 2 0.39444447 3.5616436
v 2 0.43774557 3.5366437
v 2 0.41944456 3.5549448
v -2 0.61666679 3.1232874
v -2 0.66666675 3.0732877
v -2 0.64166665 3.1165888
v -2 0.6599679 3.0982876
v 2 0.66666675 3.0732877
v 2 0.61666679 3.1232874
v 2 0.6599679 3.0982876
v 2 0.64166665 3.1165888
v -2 1.0611112 2.2465754
v -2 1.1111112 2.1965754
v -2 1.0861111 2.2398765
v -2 1.1044126 2.2215753
v 2 1.1111112 2.1965754
v 2 1.0611112 2.2465754
v 2 1.1044126 2.2215753
v 2 1.0861111 2.2398765
v -2 1.2833333 1.8082193
v -2 1.3333335 1.7582194
v -2 1.3083334 1.8015206
v -2 1.3266346 1.7832193
v 2 1.3333335 1.7582194
v 2 1.2833333 1.8082193
v 2 1.3266346 1.7832193
v 2 1.3083334 1.8015206
v -2 1.5055556 1.3698632
v -2 1.5555556 1.3198632
v -2 1.5305557 1.3631645
v -2 1.5488569 1.3448632
v 2 1.5555556 1.3198632
v 2 1.5055556 1.3698632
v 2 1.5488569 1.3448632
v 2 1.5305557 1.3631645
v -2 1.7277778 0.93150735
v -2 1.7777778 0.8815074
v -2 1.7527778 0.92480862
v -2 1.7710791 0.90650737
v 2 1.7777778 0.8815074
v 2 1.7277778 0.93150735
v 2 1.7710791 0.90650737
v 2 1.7527778 0.92480862
v -2 1.95 0.49315092
v -2 2 0.44315097
v -2 1.975 0.48645219
v -2 1.9933013 0.46815094
v 2 2 0.44315097
v 2 1.95 0.49315092
v 2 1.9933013 0.46815094
v 2 1.975 0.48645219
v -2 2.1722224 0.054794744
v -2 2.2222223 0.0047947913
v -2 2.1972222 0.048096016
v -2 2.2155235 0.029794767
v 2 2.2222223 0.0047947913
v 2 2.1722224 0.054794744
v 2 2.2155235 0.029794767
v 2 2.1972222 0.048096016
v -2 2.3944445 -0.3835614
v -2 2.4444444 -0.43356135
v -2 2.4194446 -0.39026025
v -2 2.437746 -0.4085615
v 2 2.4444444 -0.43356135
v 2 2.3944445 -0.3835614
v 2 2.437746 -0.4085615
v 2 2.4194446 -0.39026025
v -2 2.6166668 -0.82191777
v -2 2.6666667 -0.87191784
v -2 2.6416669 -0.82861662
v -2 2.6599684 -0.84691799
v 2 2.6666667 -0.87191784
v 2 2.6166668 -0.82191777
v 2 2.6599684 -0.84691799
v 2 2.6416669 -0.82861662
v -2 2.8388889 -1.2602738
v -2 2.8888888 -1.3102738
v -2 2.8638887 -1.2669727
v -2 2.88219 -1.2852739
v 2 2.8888888 -1.3102738
v 2 2.8388889 -1.2602738
v 2 2.88219 -1.2852739
v 2 2.8638887 -1.2669727
v -2 3.0611112 -1.6986302
v -2 3.1111112 -1.7486302
v -2 3.0861111 -1.7053291
v -2 3.1044123 -1.7236303
v 2 3.1111112 -1.7486302
v 2 3.0611112 -1.6986302
v 2 3.1044123 -1.7236303
v 2 3.0861111 -1.7053291
v -2 3.2833333 -2.136986
v -2 3.3333333 -2.1869862
v -2 3.3083334 -2.1436846
v -2 3.3266349 -2.1619861
v 2 3.3333333 -2.1869862
v 2 3.2833333 -2.136986
v 2 3.3266349 -2.1619861
v 2 3.3083334 -2.1436846
v -2 3.5055556 -2.5753424
v -2 3.5555556 -2.6253426
v -2 3.5305557 -2.582041
v -2 3.5488572 -2.6003425
v 2 3.5555556 -2.6253426
v 2 3.5055556 -2.5753424
v 2 3.5488572 -2.6003425
v 2 3.5305557 -2.582041
v -2 3.727778 -3.0136988
v -2 3.7777779 -3.063699
v -2 3.7527781 -3.0203974
v -2 3.7710795 -3.0386989
v 2 3.7777779 -3.063699
v 2 3.727778 -3.0136988
v 2 3.7710795 -3.0386989
v 2 3.7527781 -3.0203974
v -2 3.95 -3.4520547
v -2 4 -3.5020549
v -2 3.9749999 -3.4587533
v -2 3.9933012 -3.4770548
v 2 4 -3.5020549
v 2 3.95 -3.4520547
v 2 3.9933012 -3.4770548
v 2 3.9749999 -3.4587533
v -2 0.66666675 2.6849315
v 2 0.66666675 2.6849315
v -2 0.83888888 2.6849315
v -2 0.88888884 2.6349316
v -2 0.86388874 2.6782329
v -2 0.88219023 2.6599314
v 2 0.88888884 2.6349316
v 2 0.83888888 2.6849315
v 2 0.88219023 2.6599314
v 2 0.86388874 2.6782329
v -1.7000389 4.1988811 4.0002136
v -0.40003967 5.8988843 4.0002136
v 1.5999603 4.5988832 4.0002136
v 0.79996061 5.6988835 4.0002136
v -0.80003929 5.6988835 4.0002136
v -1.2000389 5.3988824 4.0002136
v 1.6999607 4.1988811 4.0002136
v 1.1999607 5.3988824 4.0002136
v -3.9100647e-05 5.9988837 4.0002136
v -1.4000397 5.0988832 4.0002136
v -1.6000385 4.5988832 4.0002136
v 1.3999605 5.0988832 4.0002136
v 0.39996052 5.8988833 4.0002136
v -1.7000389 3.9988831 4.0002136
v 2 4.0000005 3.9999995
v -1.6999989 6.1966653 -4.7683716e-07
v -0.39999962 7.896668 -4.7683716e-07
v 1.6000004 6.5966678 -4.7683716e-07
v 0.80000067 7.6966672 -4.7683716e-07
v -0.79999924 7.6966672 -4.7683716e-07
v -1.1999989 7.396666 -4.7683716e-07
v 1.7000008 6.1966653 -4.7683716e-07
v 1.2000008 7.396666 -4.7683716e-07
v 9.5367432e-07 7.9966674 -4.7683716e-07
v -1.3999996 7.0966678 -4.7683716e-07
v -1.5999985 6.5966678 -4.7683716e-07
v 1.4000006 7.0966678 -4.7683716e-07
v 0.40000057 7.896667 -4.7683716e-07
v -1.6999989 5.9966674 -4.7683716e-07
v 1.7000008 5.9966674 -4.7683716e-07
v -1.6987629 6.0000005 -0.0011429787
v -0.80000162 7.5666814 0.26027441
v -1.2000017 7.2666802 0.26027441
v 1.3999982 6.966682 0.26027441
v 1.1999984 7.2666802 0.26027441
v 0.79999828 7.5666814 0.26027441
v -1.7000017 6.0666795 0.26027441
v -1.7000017 5.8666816 0.26027441
v -1.4000025 6.966682 0.26027441
v 1.6999984 5.8666816 0.26027441
v 1.6999984 6.0666795 0.26027441
v -0.400002 7.7666821 0.26027441
v -1.4305115e-06 7.8666816 0.26027441
v 1.599998 6.466682 0.26027441
v -1.6000013 6.466682 0.26027441
v 0.39999819 7.7666812 0.26027441
v -1.7000389 6.1988811 0.00021362305
v -0.40003967 7.8988843 0.00021362305
v 1.5999603 6.5988832 0.00021362305
v 0.79996061 7.6988835 0.00021362305
v -0.80003929 7.6988835 0.00021362305
v -1.2000389 7.3988824 0.00021362305
v 1.6999607 6.1988811 0.00021362305
v 1.1999607 7.3988824 0.00021362305
v -3.9100647e-05 7.9988837 0.00021362305
v -1.4000397 7.0988832 0.00021362305
v -1.6000385 6.5988832 0.00021362305
v 1.3999605 7.0988832 0.00021362305
v 0.39996052 7.8988833 0.00021362305
v -1.7000389 5.9988832 0.00021362305
v 1.6999607 5.9988832 0.00021362305
v 2 8.0000005 -4.0000005
v -1.6999989 8.1966653 -4.0000005
v -0.39999962 9.896668 -4.0000005
v 1.6000004 8.5966678 -4.0000005
v 0.80000067 9.6966672 -4.0000005
v -0.79999924 9.6966672 -4.0000005
v -1.1999989 9.396666 -4.0000005
v 1.7000008 8.1966653 -4.0000005
v 1.2000008 9.396666 -4.0000005
v 9.5367432e-07 9.9966674 -4.0000005
v -1.3999996 9.0966678 -4.0000005
v -1.5999985 8.5966678 -4.0000005
v 1.4000006 9.0966678 -4.0000005
v 0.40000057 9.896667 -4.0000005
v -1.6999989 7.9966674 -4.0000005
v 1.7000008 7.9966674 -4.0000005
v -0.80000162 9.5666814 -3.7397256
v -1.2000017 9.2666802 -3.7397256
v 1.3999982 8.966682 -3.7397256
v 1.1999984 9.2666802 -3.7397256
v 0.79999828 9.5666814 -3.7397256
v -1.7000017 8.0666795 -3.7397256
v -1.7000017 7.8666816 -3.7397256
v -1.4000025 8.966682 -3.7397256
v 1.6999984 7.8666816 -3.7397256
v 1.6999984 8.0666795 -3.7397256
v -0.400002 9.7666821 -3.7397256
v -1.4305115e-06 9.8666816 -3.7397256
v 1.599998 8.466682 -3.7397256
v -1.6000013 8.466682 -3.7397256
v 0.39999819 9.7666812 -3.7397256
v 1.6999607 3.9988828 4.0002136
vt 1 0.76054347
vt 0 0.85205412
vt 0 0.85058343
vt 1 0.73084855
vt 0.49998343 0.55060416
vt 1 0.88026512
vt 0 0.92512727
vt 0.49998343 0.5505054
vt 1 0.70263755
vt 0 0.73084855
vt 0.92730492 0.40235159
vt 1 0
vt -0.079856992 0.55050492
vt 0 0.70263755
vt 0.84594011 0.45006663
vt 0 1
vt 0.38374624 0.55844587
vt 1 0.88026512
vt 0.7383877 1
vt 0 0.61136645
vt 1 0.61136645
vt 1 0.58167154
vt 1.0961957 0.45117235
vt 1 0.74573123
vt 0.25985062 0.85058343
vt -0.12021238 0.5505054
vt 2.0174327 0.99827987
vt 0.85122621 0.66655606
vt 1 1
vt 0.25985062 0.74573123
vt 1 0.7757107
vt 2.0174327 2.007112
vt 2.0174327 2.007112
vt -0.16650242 0.45006657
vt 0.92214668 0.45006663
vt 0.25985062 0.70263755
vt 0 0.85205412
vt 0.90688765 0.32593846
vt 0.15123925 0.41312829
vt -0.1513277 0.23884378
vt 0.9650144 0.18062145
vt -0.26161233 1
vt 0.09311223 0.32593831
vt 0 0.59655422
vt 0.26749271 0.50031894
vt 0 1
vt 0.99407786 0.064367041
vt 0 0.8951478
vt 0 0.88026512
vt 1.0961957 0.45117235
vt -0.15132341 0.76115716
vt 1 0.90996003
vt -0.067416668 0.50097609
vt 1 0.61136645
vt 1 0.76054347
vt 1 0.73084855
vt 0 0.7757107
vt 0 0.92512727
vt 1 0.85205412
vt -0.26161233 0.92512727
vt 0 0.85058343
vt 0.98284894 0.99609375
vt 0 0.62653369
vt -0.19519864 0.5804987
vt 2.0174327 0.99827987
vt 0 0.59655422
vt 0 0.73084855
vt 0 0.58167154
vt 0.073802836 0.2063866
vt 0 1
vt 0.61625355 0.55844557
vt 1.2398729 1
vt 1 0.70263755
vt -0.092289448 0.50097603
vt 1 0.85058343
vt 1 0.88026512
vt 0 0.92512727
vt 1 0.59655422
vt -0.16650245 0.50383824
vt -0.24223363 0.70140642
vt -0.12021238 0.55060416
vt 0.95906246 0.5038383
vt 0.98284322 0.003907403
vt -0.092289448 0.50097603
vt 0.84594011 0.45006663
vt 0.99979681 0.2063866
vt 0 0.55363756
vt -0.24223363 0.55346054
vt 1.2398729 0.90996003
vt 1.2398729 0.8951478
vt 0.92415941 0.2063866
vt 1.2398729 0.88026512
vt 0 0.20600978
vt -0.17765096 0.33344534
vt 1 0.85058343
vt -0.12499915 0.82689166
vt 0 0.55346054
vt 0.98284894 0.99609375
vt -0.19519864 0.5804987
vt 0.3118633 0.45006663
vt 0 0.74573123
vt 1.0713234 0.45117247
vt 0 0.90996003
vt -0.24223363 0.61136645
vt 0 0.62653369
vt 0 0
vt 0 0.55363756
vt -0.00020317594 0.2063866
vt -0.16650242 0.45006657
vt 0.39920366 0.50383824
vt 0.92214668 0.45006663
vt 0.49998343 0.50408959
vt 1 0.61136645
vt 0.95906246 0.5038383
vt 0.0059221983 0.064367041
vt 0.23987299 0.85205412
vt 1 0.76054347
vt 0.94774425 0.076879561
vt -0.12021238 0.50408959
vt 0 0.70140642
vt 1 0.73084855
vt 0 0.7757107
vt 0.11683562 0.50383824
vt 0.74521649 0.45006663
vt 1 0.85205412
vt 0 0.73084855
vt 0.95906246 0.45006663
vt 0 0
vt -0.046031505 0.0039062495
vt 0 0.92512727
vt 1 0.59655422
vt -0.17764838 0.6665563
vt 1 0.61136645
vt 0.49980628 0.55069703
vt 1 0.58167154
vt 0.87754709 0.2388448
vt 1.2598506 0.73084855
vt 1 0.62653369
vt 0.90387571 0.82689166
vt -0.12958571 0.45006657
vt 0.75776637 0.62653369
vt 0.39920366 0.50383824
vt 1 0.70140642
vt 0.85122621 0.66655606
vt 0 0.58167154
vt 1 0.20600978
vt 1 0.55346054
vt 0 0.74573123
vt 0.0059221983 0.064367175
vt 0 0.90996003
vt 0.99979681 0.40235159
vt 1 0.85205412
vt -0.046031505 0.0039062495
vt 1 0.70140642
vt 0 0
vt 0.57615137 0.50383824
vt 1 1.502696
vt 1 0.55363756
vt 0.3118633 0.45006663
vt 1 0.49386388
vt 1 0.76054347
vt -0.15132341 0.76115716
vt 1 0.73084855
vt 0 0.7757107
vt 0 0.62653369
vt 0.84594011 0.5038383
vt 0 0.76054347
vt -0.05341205 0.50383824
vt 0.11683559 0.45006663
vt 1 0.70140642
vt 0 0
vt 0 0
vt 0 0.40822214
vt 0 0.85058343
vt 1 0.7757107
vt -0.24223363 0.59655422
vt 0.95906246 0.45006663
vt 1.0961958 0.5009762
vt 0.61625355 0.55844557
vt 0.74521649 0.45006663
vt -0.081125215 0.92312169
vt 0 0.61136645
vt 1 0.92512727
vt 0 0.58167154
vt 0.7383877 0.92512727
vt 1 1
vt 0 0.8951478
vt 0.3118633 0.50383824
vt 1 0.58167154
vt -0.12958571 0.45006657
vt 0.67634749 0.50383824
vt 0 0.85205412
vt -0.26161233 0.90996003
vt 0.7383877 0.85205412
vt -0.05341205 0.45006657
vt 0 0.90996003
vt 0.21861209 0.45006663
vt 0 0.70263755
vt 1 0
vt 1 0.8951478
vt 0.23987299 0.88026512
vt 0.25985062 0.73084855
vt 0 0.7757107
vt 1.0961958 0.5009762
vt 1 1.502696
vt 1 0.92512727
vt 0 0.59655422
vt 0 0.76054347
vt 1.2598506 0.85058343
vt -0.067416668 0.45117223
vt 0.11683562 0.50383824
vt 0.85122347 0.33344632
vt 0.047502995 0.45006657
vt -0.26161233 0.85205412
vt 1.0713232 0.5009762
vt 1 0.70140642
vt 1 1
vt 0.3118633 0.50383824
vt 0.07628043 0.40235159
vt 0.50001663 0.5504992
vt 0.5 0.58750904
vt 0.99407786 0.064367175
vt -0.17764838 0.6665563
vt 0.9650144 0.18062145
vt 0.21861209 0.50383824
vt 0.87754709 0.2388448
vt 0.73250729 0.50031883
vt 0 0.85205412
vt 0.90387571 0.82689166
vt 0.94774967 0.92312175
vt 0.23987299 0.8951478
vt 0 1
vt 0.11683559 0.45006663
vt 1 0.58167154
vt 1 0.40822214
vt 0.75776637 0.61136645
vt 1 0.40822214
vt 0.75776637 0.58167154
vt 1 0.55346054
vt 1.0713232 0.5009762
vt 0 0.70140642
vt 0 0.55346054
vt -0.046025947 0.99609375
vt 0 0.85058343
vt 0 0.90996003
vt 1 0.70263755
vt 1 0.8951478
vt 1 0.70263755
vt 0 0.70263755
vt 0.67634749 0.45006663
vt 0.57615137 0.45006663
vt 0.75776637 0.59655422
vt 0.21861209 0.50383824
vt -0.26161233 0.8951478
vt 1.0002031 0.40235159
vt 1 0.55346054
vt 1 0.92512727
vt 0.57615137 0.50383824
vt 0 0.76054347
vt 0 0.70140642
vt 0 0.55346054
vt 0.25985062 0.7757107
vt -0.05341205 0.45006657
vt 0.48481229 0.50383824
vt 0.84594011 0.5038383
vt 0.21861209 0.45006663
vt -0.12500367 0.17310916
vt 1 0.62653369
vt 1 0.61136645
vt -0.05341205 0.50383824
vt 0.84876084 0.41312829
vt 0 0.55363756
vt -0.19519991 0.41950348
vt 0.39920366 0.45006663
vt 1 0.40822214
vt 0.90387082 0.17310996
vt 1.2598506 0.7757107
vt 1 0.85058343
vt 0.047502995 0.45006657
vt 0 0.62653369
vt 1 0.59655422
vt 0.5 0.58750916
vt 0 0.85205412
vt 0 0.70140642
vt 0.034985751 0.18062145
vt 0.047503024 0.50383824
vt 0 0.74573123
vt 0.73250729 0.50031894
vt -0.081125215 0.92312169
vt 0.7383877 0.8951478
vt 1 0.55346054
vt 0 0.40822214
vt 0.54033875 0.50408924
vt 1 0.40822214
vt 0 0.8951478
vt 0.83367598 0.5804987
vt 1 0.55346054
vt -0.12500367 0.17310916
vt 1 -5.9604645e-08
vt 0.67634749 0.50383824
vt 1 0.74573123
vt 1 0.8951478
vt 1 0.62653369
vt 0 0.62653369
vt 1 0.8951478
vt 1 0.92512727
vt 0.00020317594 0.2063866
vt 0 0.76054347
vt 0.047503024 0.50383824
vt 0.23987299 0.92512727
vt -0.081130415 0.076878674
vt 0.67634749 0.45006663
vt 0.57615137 0.45006663
vt -0.20397404 0.50000095
vt -0.067416668 0.45117223
vt 0.85122347 0.33344632
vt 0.83367479 0.41950402
vt 0 0.88026512
vt -0.24223363 0.58167154
vt 0.83367598 0.5804987
vt 1 0.90996003
vt 0.23987299 1
vt 1.1201792 0.55060416
vt 0 0.61136645
vt 1 0.20600978
vt 1 0.59655422
vt 0 0.90996003
vt 0 0.20600978
vt 0.87755126 0.76115721
vt 0.38374624 0.55844587
vt 1 0.85058343
vt 1 5.9604645e-08
vt 0 0.70140642
vt 1 0.85205412
vt 0.50001663 0.5040834
vt 0 0.74573123
vt 1.1202123 0.50408345
vt 0.94774967 0.92312175
vt 1 0.88026512
vt 1 0.62653369
vt 0.39920366 0.45006663
vt 0.00020317594 0.40235159
vt 1.0002031 0.2063866
vt 0 0.58167154
vt 1.2398729 0.92512727
vt 0.49998343 0.50399047
vt -0.20397404 0.50000095
vt 1 0.74573123
vt 0.83367479 0.41950402
vt -0.046025947 0.99609375
vt 0.15123925 0.41312829
vt 0 0.55363756
vt 0.87755126 0.76115721
vt 1 0.7757107
vt 1 0.8951478
vt 0.74521649 0.5038383
vt 0 0.40822214
vt 1 0.55363756
vt 0 0.40822214
vt 0 0.61136645
vt 1.2598506 0.70263755
vt 0.90688765 0.32593831
vt 0.82490057 0.50000137
vt 1.2398729 0.85205412
vt -0.1513277 0.23884378
vt 1 0.92512727
vt 0.48481229 0.45006663
vt 0.48481229 0.50383824
vt 1 1
vt 0 0.8951478
vt 0 0.88026512
vt 1 0.90996003
vt -0.067416668 0.50097609
vt -0.092289686 0.45117223
vt -0.19519991 0.41950348
vt 0.90387082 0.17310996
vt 1 0.85205412
vt 0.84876084 0.41312829
vt 0.75776637 0.55346054
vt 1 0.88026512
vt 0 0.92512727
vt 0 1
vt 1 0.62653369
vt 0.74521649 0.5038383
vt -0.16650245 0.50383824
vt 0 0.73084855
vt 0 0.70263755
vt 1.1201792 0.50399047
vt -0.00020317594 0.40235159
vt 0 1
vt 0.75776637 0.70140642
vt -0.26161233 0.88026512
vt 0 0.59655422
vt 0 0.58167154
vt -0.12958571 0.50383824
vt 1.1202123 0.55049932
vt 1 0.55363756
vt 0.82490057 0.50000137
vt 1 0.49386388
vt 0 0.61136645
vt 0.034985751 0.18062145
vt 0.92214668 0.5038383
vt 0.98284322 0.003907403
vt 1 0.74573123
vt 1 0.58167154
vt 0.09311223 0.32593846
vt 1 1
vt -0.092289686 0.45117223
vt -0.24223363 0.62653369
vt 1 0.7757107
vt -0.17765096 0.33344534
vt -0.12499915 0.82689166
vt 1 0.55363756
vt 1.2598506 0.76054347
vt 1.2598506 0.74573123
vt -0.079856992 0.50408924
vt 1.0713234 0.45117247
vt 0.26749271 0.50031883
vt -0.081130415 0.076878674
vt 0 0.8951478
vt 0 0
vt 0 0.88026512
vt 1 0.70140642
vt 0.7383877 0.90996003
vt 0 1
vt 0.7383877 0.88026512
vt 1 0.90996003
vt 1 0.59655422
vt -0.12958571 0.50383824
vt 0 0.59655422
vt 0 0.55346054
vt 0.23987299 0.90996003
vt 0.92214668 0.5038383
vt 0.25985062 0.76054347
vt 0.94774425 0.076879561
vt 0 0.88026512
vt -0.12021238 0.50399047
vt 0.54033875 0.55050492
vt 1 0.90996003
vt 0 0.55346054
vt 0.48481229 0.45006663
vn 1 0 0
vn 1 0 0
vn 1 0 0
vn 1 0 0
vn -0.99999994 0 0
vn -1 0 0
vn -1 0 0
vn -1 0 0
vn -1 0 0
vn -1 0 0
vn -1 0 0
vn -0.99999994 0 0
vn 0.0051812194 -0.97320998 -0.22985974
vn 0.00069137127 -0.99999928 0.00090982305
vn 0.0032052072 -0.98837453 -0.15200509
vn -0.0098759299 -0.97332579 -0.22921491
vn -0.0020608844 -0.99999422 -0.0027138521
vn -0.0064840303 -0.98802119 -0.15418202
vn -1 0 0
vn -1 0 0
vn -1 0 0
vn -1 0 0
vn 1 0 0
vn 1 0 0
vn 1 0 0
vn 1 0 0
vn 0 1 0
vn 0 1 0
vn 0 1 0
vn 0 1 0
vn 1 0 0
vn 1 0 0
vn 1 0 0
vn 1 0 0
vn 1 0 0
vn 1 0 0
vn 1 0 0
vn 1 0 0
vn -1 0 0
vn -1 0 0
vn -1 0 0
vn -1 0 0
vn 0 1 0
vn 0 1 0
vn 0 1 0
vn 0 1 0
vn 0 1 0
vn 0 1 0
vn 0 0.99144512 0.13052467
vn 0 0.99144512 0.13052467
vn 0 0 1
vn 0 0.13052788 0.99144465
vn 0 0.13052788 0.99144465
vn 0 0 1
vn 0 1 0
vn 0 1 0
vn 0 0.99144465 0.13052788
vn 0 0.99144465 0.13052788
vn 0 0 1
vn 0 0.13052467 0.99144512
vn 0 0.13052467 0.99144512
vn 0 0 1
vn 0 1 0
vn 0 1 0
vn 0 0.99144447 0.13052906
vn 0 0.99144447 0.13052906
vn 0 0 1
vn 0 0.13052906 0.99144447
vn 0 0.13052906 0.99144447
vn 0 0 1
vn 0 1 0
vn 0 1 0
vn 0 0.99144512 0.13052467
vn 0 0.99144512 0.13052467
vn 0 0 1
vn 0 0.13052569 0.99144489
vn 0 0.13052569 0.99144489
vn 0 0 1
vn 0 1 0
vn 0 1 0
vn 0 0.99144453 0.13052848
vn 0 0.99144453 0.13052848
vn 0 0 1
vn 0 0.13052349 0.99144524
vn 0 0.13052349 0.99144524
vn 0 0 1
vn 0 1 0
vn 0 1 0
vn 0 0.99144483 0.13052627
vn 0 0.99144483 0.13052627
vn 0 0 1
vn 0 0.13052627 0.99144483
vn 0 0.13052627 0.99144483
vn 0 0 1
vn 0 1 0
vn 0 1 0
vn 0 0.99144483 0.13052627
vn 0 0.99144483 0.13052627
vn 0 0 1
vn 0 0.13052627 0.99144483
vn 0 0.13052627 0.99144483
vn 0 0 1
vn 0 1 0
vn 0 1 0
vn 0 0.99144483 0.13052627
vn 0 0.99144483 0.13052627
vn 0 0 1
vn 0 0.13052687 0.99144477
vn 0 0.13052687 0.99144477
vn 0 0 1
vn 0 1 0
vn 0 1 0
vn 0 0.99144453 0.13052848
vn 0 0.99144453 0.13052848
vn 0 0 1
vn 0 0.13052788 0.99144465
vn 0 0.13052788 0.99144465
vn 0 0 1
vn 0 1 0
vn 0 1 0
vn 0 0.9914456 0.13052024
vn 0 0.9914456 0.13052024
vn 0 0 1
vn 0 0.13052788 0.99144465
vn 0 0.13052788 0.99144465
vn 0 0 1
vn 0 1 0
vn 0 1 0
vn 0 0.9914456 0.13052024
vn 0 0.9914456 0.13052024
vn 0 0 1
vn 0 0.13052906 0.99144447
vn 0 0.13052906 0.99144447
vn 0 0 1
vn 0 1 0
vn 0 1 0
vn 0 0.99144447 0.13052906
vn 0 0.99144447 0.13052906
vn 0 0 1
vn 0 0.13052906 0.99144447
vn 0 0.13052906 0.99144447
vn 0 0 1
vn 0 1 0
vn 0 1 0
vn 0 0.99144447 0.13052906
vn 0 0.99144447 0.13052906
vn 0 0 1
vn 0 0.13052349 0.99144524
vn 0 0.13052349 0.99144524
vn 0 0 1
vn 0 1 0
vn 0 1 0
vn 0 0.99144584 0.13051906
vn 0 0.99144584 0.13051906
vn 0 0 1
vn 0 0.13052349 0.99144524
vn 0 0.13052349 0.99144524
vn 0 0 1
vn 0 1 0
vn 0 1 0
vn 0 0.99144584 0.13051906
vn 0 0.99144584 0.13051906
vn 0 0 1
vn 0 0.13052349 0.99144524
vn 0 0.13052349 0.99144524
vn 0 0 1
vn 0 1 0
vn 0 1 0
vn 0 0.99144584 0.13051906
vn 0 0.99144584 0.13051906
vn 0 0 1
vn 0 0.13052467 0.99144512
vn 0 0.13052467 0.99144512
vn 0 0 1
vn 0 0.99999994 0
vn 0 0.99999994 0
vn 0 0.99144465 0.1305279
vn 0 0.99144465 0.1305279
vn 0 0.99144512 0.13052467
vn 0 0.99144512 0.13052467
vn 0 0.86602777 0.49999583
vn 0 0.86602777 0.49999583
vn 0 0.86602777 0.49999583
vn 0 0.86602777 0.49999583
vn 0 0.4999966 0.86602741
vn 0 0.4999966 0.86602741
vn 0 0.4999966 0.86602741
vn 0 0.4999966 0.86602741
vn 0 0.13051906 0.99144584
vn 0 0.13051906 0.99144584
vn 0 0.99144465 0.13052788
vn 0 0.99144465 0.13052788
vn 0 0.86602455 0.50000149
vn 0 0.86602455 0.50000149
vn 0 0.86602455 0.50000149
vn 0 0.86602455 0.50000149
vn 0 0.50000149 0.86602455
vn 0 0.50000149 0.86602455
vn 0 0.50000149 0.86602455
vn 0 0.50000149 0.86602455
vn 0 0.13052788 0.99144465
vn 0 0.13052788 0.99144465
vn 0 0.99144447 0.13052906
vn 0 0.99144447 0.13052906
vn 0 0.86602402 0.50000256
vn 0 0.86602402 0.50000256
vn 0 0.86602402 0.50000256
vn 0 0.86602402 0.50000256
vn 0 0.49999869 0.86602622
vn 0 0.49999869 0.86602622
vn 0 0.49999869 0.86602622
vn 0 0.49999869 0.86602622
vn 0 0.13052467 0.99144512
vn 0 0.13052467 0.99144512
vn 0 0.99144512 0.13052467
vn 0 0.99144512 0.13052467
vn 0 0.86602455 0.50000149
vn 0 0.86602455 0.50000149
vn 0 0.86602455 0.50000149
vn 0 0.86602455 0.50000149
vn 0 0.4999997 0.86602563
vn 0 0.4999997 0.86602563
vn 0 0.4999997 0.86602563
vn 0 0.4999997 0.86602563
vn 0 0.13052906 0.99144447
vn 0 0.13052906 0.99144447
vn 0 0.99144453 0.13052848
vn 0 0.99144453 0.13052848
vn 0 0.86602426 0.50000203
vn 0 0.86602426 0.50000203
vn 0 0.86602426 0.50000203
vn 0 0.86602426 0.50000203
vn 0 0.49999952 0.86602563
vn 0 0.49999952 0.86602563
vn 0 0.49999952 0.86602563
vn 0 0.49999952 0.86602563
vn 0 0.13052569 0.99144489
vn 0 0.13052569 0.99144489
vn 0 0.99144483 0.13052627
vn 0 0.99144483 0.13052627
vn 0 0.866027 0.49999726
vn 0 0.866027 0.49999726
vn 0 0.866027 0.49999726
vn 0 0.866027 0.49999726
vn 0 0.50000042 0.86602521
vn 0 0.50000042 0.86602521
vn 0 0.50000042 0.86602521
vn 0 0.50000042 0.86602521
vn 0 0.13052349 0.99144524
vn 0 0.13052349 0.99144524
vn 0 0.99144483 0.13052627
vn 0 0.99144483 0.13052627
vn 0 0.86602539 0.50000012
vn 0 0.86602539 0.50000012
vn 0 0.86602539 0.50000012
vn 0 0.86602539 0.50000012
vn 0 0.50000012 0.86602539
vn 0 0.50000012 0.86602539
vn 0 0.50000012 0.86602539
vn 0 0.50000012 0.86602539
vn 0 0.13052627 0.99144483
vn 0 0.13052627 0.99144483
vn 0 0.99144483 0.13052627
vn 0 0.99144483 0.13052627
vn 0 0.86602539 0.50000012
vn 0 0.86602539 0.50000012
vn 0 0.86602539 0.50000012
vn 0 0.86602539 0.50000012
vn 0 0.50000012 0.86602539
vn 0 0.50000012 0.86602539
vn 0 0.50000012 0.86602539
vn 0 0.50000012 0.86602539
vn 0 0.13052627 0.99144483
vn 0 0.13052627 0.99144483
vn 0 0.99144453 0.13052848
vn 0 0.99144453 0.13052848
vn 0 0.86602426 0.50000203
vn 0 0.86602426 0.50000203
vn 0 0.86602426 0.50000203
vn 0 0.86602426 0.50000203
vn 0 0.5000006 0.86602503
vn 0 0.5000006 0.86602503
vn 0 0.5000006 0.86602503
vn 0 0.5000006 0.86602503
vn 0 0.13052687 0.99144477
vn 0 0.13052687 0.99144477
vn 0 0.9914456 0.13052024
vn 0 0.9914456 0.13052024
vn 0 0.86602676 0.49999759
vn 0 0.86602676 0.49999759
vn 0 0.86602676 0.49999759
vn 0 0.86602676 0.49999759
vn 0 0.49999866 0.86602616
vn 0 0.49999866 0.86602616
vn 0 0.49999866 0.86602616
vn 0 0.49999866 0.86602616
vn 0 0.13052788 0.99144465
vn 0 0.13052788 0.99144465
vn 0 0.9914456 0.13052024
vn 0 0.9914456 0.13052024
vn 0 0.86602765 0.49999627
vn 0 0.86602765 0.49999627
vn 0 0.86602765 0.49999627
vn 0 0.86602765 0.49999627
vn 0 0.50000006 0.86602539
vn 0 0.50000006 0.86602539
vn 0 0.50000006 0.86602539
vn 0 0.50000006 0.86602539
vn 0 0.13052788 0.99144465
vn 0 0.13052788 0.99144465
vn 0 0.99144447 0.13052906
vn 0 0.99144447 0.13052906
vn 0 0.86602402 0.50000256
vn 0 0.86602402 0.50000256
vn 0 0.86602402 0.50000256
vn 0 0.86602402 0.50000256
vn 0 0.50000256 0.86602402
vn 0 0.50000256 0.86602402
vn 0 0.50000256 0.86602402
vn 0 0.50000256 0.86602402
vn 0 0.13052906 0.99144447
vn 0 0.13052906 0.99144447
vn 0 0.99144447 0.13052906
vn 0 0.99144447 0.13052906
vn 0 0.86602402 0.50000256
vn 0 0.86602402 0.50000256
vn 0 0.86602402 0.50000256
vn 0 0.86602402 0.50000256
vn 0 0.50000256 0.86602402
vn 0 0.50000256 0.86602402
vn 0 0.50000256 0.86602402
vn 0 0.50000256 0.86602402
vn 0 0.13052906 0.99144447
vn 0 0.13052906 0.99144447
vn 0 0.99144584 0.13051906
vn 0 0.99144584 0.13051906
vn 0 0.86602896 0.49999374
vn 0 0.86602896 0.49999374
vn 0 0.86602896 0.49999374
vn 0 0.86602896 0.49999374
vn 0 0.49999759 0.8660267
vn 0 0.49999759 0.8660267
vn 0 0.49999759 0.8660267
vn 0 0.49999759 0.8660267
vn 0 0.13052349 0.99144524
vn 0 0.13052349 0.99144524
vn 0 0.99144584 0.13051906
vn 0 0.99144584 0.13051906
vn 0 0.86602896 0.49999374
vn 0 0.86602896 0.49999374
vn 0 0.86602896 0.49999374
vn 0 0.86602896 0.49999374
vn 0 0.49999759 0.8660267
vn 0 0.49999759 0.8660267
vn 0 0.49999759 0.8660267
vn 0 0.49999759 0.8660267
vn 0 0.13052349 0.99144524
vn 0 0.13052349 0.99144524
vn 0 0.99144584 0.13051906
vn 0 0.99144584 0.13051906
vn 0 0.86602896 0.49999374
vn 0 0.86602896 0.49999374
vn 0 0.86602896 0.49999374
vn 0 0.86602896 0.49999374
vn 0 0.49999759 0.8660267
vn 0 0.49999759 0.8660267
vn 0 0.49999759 0.8660267
vn 0 0.49999759 0.8660267
vn 0 0.13052349 0.99144524
vn 0 0.13052349 0.99144524
vn 0 0.99144465 0.1305279
vn 0 0.99144465 0.1305279
vn 0 0.86602616 0.49999866
vn 0 0.86602616 0.49999866
vn 0 0.86602616 0.49999866
vn 0 0.86602616 0.49999866
vn 0 0.50000149 0.86602455
vn 0 0.50000149 0.86602455
vn 0 0.50000149 0.86602455
vn 0 0.50000149 0.86602455
vn 0 0.13052467 0.99144512
vn 0 0.13052467 0.99144512
vn 0 0 1
vn 0 0.13051906 0.99144584
vn 0 0.13051906 0.99144584
vn 0 0 1
vn 0 0 1
vn 0 0.13052467 0.99144512
vn 0 0.13052467 0.99144512
vn 0 0 1
vn 0 1 0
vn 0 1 0
vn 0 0.99144512 0.13052467
vn 0 0.99144512 0.13052467
vn 0 0.99144512 0.13052467
vn 0 0.99144512 0.13052467
vn 0 0.86602622 0.49999869
vn 0 0.86602622 0.49999869
vn 0 0.86602622 0.49999869
vn 0 0.86602622 0.49999869
vn 0 0.49999869 0.86602622
vn 0 0.49999869 0.86602622
vn 0 0.49999869 0.86602622
vn 0 0.49999869 0.86602622
vn 0 0.13052467 0.99144512
vn 0 0.13052467 0.99144512
vn 0.48451063 -0.78261566 -0.3908478
vn 0.68941712 -0.64804506 -0.32363835
vn 0.66226482 -0.67032629 -0.33476546
vn 0.47297689 -0.78824282 -0.39365751
vn -0.86258799 -0.45259896 -0.22604454
vn -0.68941474 -0.64804155 -0.32365051
vn -0.66226345 -0.67032218 -0.33477667
vn -0.84763736 -0.47466907 -0.23706585
vn -0.68941474 -0.64804155 -0.32365051
vn -0.48450771 -0.7826134 -0.39085618
vn -0.47297463 -0.78824019 -0.39366519
vn -0.66226345 -0.67032218 -0.33477667
vn 0.99073344 -0.12151393 -0.060675997
vn 0.99999994 0 1.0258437e-05
vn 1 0 1.087793e-05
vn 0.98451924 -0.15681246 -0.078304216
vn 0.68941712 -0.64804506 -0.32363835
vn 0.86259121 -0.45260096 -0.22602826
vn 0.84764004 -0.47467211 -0.23705016
vn 0.66226482 -0.67032629 -0.33476546
vn -1 0 -9.6270805e-06
vn -0.99073225 -0.12151365 -0.060695756
vn -0.98451787 -0.15681197 -0.0783237
vn -1 0 -9.1603615e-06
vn 0.31487969 -0.84912783 -0.42406696
vn 0.48451063 -0.78261566 -0.3908478
vn 0.47297689 -0.78824282 -0.39365751
vn 0.3051604 -0.85196346 -0.42548254
vn -1.1324672e-06 -0.89463526 -0.44679725
vn 0.31487969 -0.84912783 -0.42406696
vn 0.3051604 -0.85196346 -0.42548254
vn -2.172053e-06 -0.89463556 -0.44679657
vn -0.94057608 -0.30379927 -0.15173201
vn -0.86258799 -0.45259896 -0.22604454
vn -0.84763736 -0.47466907 -0.23706585
vn -0.93330967 -0.32123554 -0.16043907
vn 0.86259121 -0.45260096 -0.22602826
vn 0.94057906 -0.30379945 -0.1517133
vn 0.93331271 -0.32123587 -0.1604207
vn 0.84764004 -0.47467211 -0.23705016
vn -0.99073225 -0.12151365 -0.060695756
vn -0.94057608 -0.30379927 -0.15173201
vn -0.93330967 -0.32123554 -0.16043907
vn -0.98451787 -0.15681197 -0.0783237
vn -0.31487903 -0.84912556 -0.42407188
vn -1.1324672e-06 -0.89463526 -0.44679725
vn -2.172053e-06 -0.89463556 -0.44679657
vn -0.30516097 -0.85196102 -0.42548698
vn -0.48450771 -0.7826134 -0.39085618
vn -0.31487903 -0.84912556 -0.42407188
vn -0.30516097 -0.85196102 -0.42548698
vn -0.47297463 -0.78824019 -0.39366519
vn 0.94057906 -0.30379945 -0.1517133
vn 0.99073344 -0.12151393 -0.060675997
vn 0.98451924 -0.15681246 -0.078304216
vn 0.93331271 -0.32123587 -0.1604207
vn 0.94735193 -0.28646067 -0.14305454
vn 0.99533093 -0.086355746 -0.043117814
vn 0.99073344 -0.12151393 -0.060675997
vn 0.94057906 -0.30379945 -0.1517133
vn -0.49545836 -0.77710617 -0.38810685
vn -0.32401046 -0.84637117 -0.42269734
vn -0.31487903 -0.84912556 -0.42407188
vn -0.48450771 -0.7826134 -0.39085618
vn -0.32401046 -0.84637117 -0.42269734
vn -2.7276798e-08 -0.89463484 -0.44679794
vn -1.1324672e-06 -0.89463526 -0.44679725
vn -0.31487903 -0.84912556 -0.42407188
vn -0.99532998 -0.086355776 -0.043137718
vn -0.94734901 -0.28646067 -0.14307368
vn -0.94057608 -0.30379927 -0.15173201
vn -0.99073225 -0.12151365 -0.060695756
vn 0.8764168 -0.43081784 -0.21515012
vn 0.94735193 -0.28646067 -0.14305454
vn 0.94057906 -0.30379945 -0.1517133
vn 0.86259121 -0.45260096 -0.22602826
vn -0.94734901 -0.28646067 -0.14307368
vn -0.87641311 -0.43081686 -0.21516714
vn -0.86258799 -0.45259896 -0.22604454
vn -0.94057608 -0.30379927 -0.15173201
vn -2.7276798e-08 -0.89463484 -0.44679794
vn 0.32401252 -0.84637314 -0.42269182
vn 0.31487969 -0.84912783 -0.42406696
vn -1.1324672e-06 -0.89463526 -0.44679725
vn 0.32401252 -0.84637314 -0.42269182
vn 0.49546206 -0.77710825 -0.38809791
vn 0.48451063 -0.78261566 -0.3908478
vn 0.31487969 -0.84912783 -0.42406696
vn -0.99999994 0 -9.8812334e-06
vn -0.99532998 -0.086355776 -0.043137718
vn -0.99073225 -0.12151365 -0.060695756
vn -1 0 -9.6270805e-06
vn 0.71389884 -0.62646979 -0.31286407
vn 0.8764168 -0.43081784 -0.21515012
vn 0.86259121 -0.45260096 -0.22602826
vn 0.68941712 -0.64804506 -0.32363835
vn 0.99533093 -0.086355746 -0.043117814
vn 1 0 9.9210902e-06
vn 0.99999994 0 1.0258437e-05
vn 0.99073344 -0.12151393 -0.060675997
vn -0.71389562 -0.62646705 -0.312877
vn -0.49545836 -0.77710617 -0.38810685
vn -0.48450771 -0.7826134 -0.39085618
vn -0.68941474 -0.64804155 -0.32365051
vn -0.87641311 -0.43081686 -0.21516714
vn -0.71389562 -0.62646705 -0.312877
vn -0.68941474 -0.64804155 -0.32365051
vn -0.86258799 -0.45259896 -0.22604454
vn 0.49546206 -0.77710825 -0.38809791
vn 0.71389884 -0.62646979 -0.31286407
vn 0.68941712 -0.64804506 -0.32363835
vn 0.48451063 -0.78261566 -0.3908478
vn 0.0051812194 -0.97320998 -0.22985974
vn 0.0032052072 -0.98837453 -0.15200509
vn 0.007267328 -0.89453143 -0.44694605
vn 0.0081126504 -0.89455104 -0.44689211
vn 0.0081126504 -0.89455104 -0.44689211
vn 0.007267328 -0.89453143 -0.44694605
vn 0.0099374531 -0.89459139 -0.44677463
vn -0.0072564813 -0.89356828 -0.44886872
vn -0.0081018936 -0.8926791 -0.45061994
vn -0.0098963873 -0.8907783 -0.45433038
vn -0.0098963873 -0.8907783 -0.45433038
vn -0.0032045003 -0.98837441 -0.15200624
vn -0.00517976 -0.9732101 -0.22985952
vn -0.0081018936 -0.8926791 -0.45061994
vn -0.0072564813 -0.89356828 -0.44886872
vn 0.48451021 -0.78261608 -0.39084786
vn 0.689417 -0.64804512 -0.32363835
vn 0.6622647 -0.67032653 -0.33476537
vn 0.4729763 -0.78824317 -0.39365748
vn -0.86258799 -0.45259896 -0.22604451
vn -0.68941468 -0.64804155 -0.32365048
vn -0.66226333 -0.67032224 -0.33477661
vn -0.8476373 -0.47466919 -0.23706581
vn -0.68941468 -0.64804155 -0.32365048
vn -0.48450735 -0.78261364 -0.39085621
vn -0.47297418 -0.78824049 -0.39366525
vn -0.66226333 -0.67032224 -0.33477661
vn 0.99073344 -0.1215139 -0.060675975
vn 0.99999994 0 1.0258437e-05
vn 1 0 1.087793e-05
vn 0.98451924 -0.15681247 -0.078304216
vn 0.689417 -0.64804512 -0.32363835
vn 0.86259121 -0.45260096 -0.22602822
vn 0.84764004 -0.4746722 -0.23705016
vn 0.6622647 -0.67032653 -0.33476537
vn -0.99999994 0 -9.6270878e-06
vn -0.99073225 -0.1215136 -0.060695734
vn -0.98451787 -0.15681198 -0.0783237
vn -1 0 -9.1603615e-06
vn 0.31487972 -0.84912783 -0.42406693
vn 0.48451021 -0.78261608 -0.39084786
vn 0.4729763 -0.78824317 -0.39365748
vn 0.30516052 -0.85196346 -0.42548245
vn -1.1324674e-06 -0.89463532 -0.44679719
vn 0.31487972 -0.84912783 -0.42406693
vn 0.30516052 -0.85196346 -0.42548245
vn -2.1616108e-06 -0.89463562 -0.44679648
vn -0.9405762 -0.30379927 -0.151732
vn -0.86258799 -0.45259896 -0.22604451
vn -0.8476373 -0.47466919 -0.23706581
vn -0.93330967 -0.3212356 -0.16043904
vn 0.86259121 -0.45260096 -0.22602822
vn 0.94057912 -0.30379939 -0.15171327
vn 0.93331271 -0.32123598 -0.1604207
vn 0.84764004 -0.4746722 -0.23705016
vn -0.99073225 -0.1215136 -0.060695734
vn -0.9405762 -0.30379927 -0.151732
vn -0.93330967 -0.3212356 -0.16043904
vn -0.98451787 -0.15681198 -0.0783237
vn -0.31487906 -0.84912556 -0.42407182
vn -1.1324674e-06 -0.89463532 -0.44679719
vn -2.1616108e-06 -0.89463562 -0.44679648
vn -0.30516109 -0.85196108 -0.42548686
vn -0.48450735 -0.78261364 -0.39085621
vn -0.31487906 -0.84912556 -0.42407182
vn -0.30516109 -0.85196108 -0.42548686
vn -0.47297418 -0.78824049 -0.39366525
vn 0.94057912 -0.30379939 -0.15171327
vn 0.99073344 -0.1215139 -0.060675975
vn 0.98451924 -0.15681247 -0.078304216
vn 0.93331271 -0.32123598 -0.1604207
vn 0.94735199 -0.28646052 -0.14305447
vn 0.99533093 -0.086355694 -0.043117788
vn 0.99073344 -0.1215139 -0.060675975
vn 0.94057912 -0.30379939 -0.15171327
vn -0.49545807 -0.7771064 -0.38810697
vn -0.32401049 -0.84637117 -0.4226974
vn -0.31487906 -0.84912556 -0.42407182
vn -0.48450735 -0.78261364 -0.39085621
vn -0.32401049 -0.84637117 -0.4226974
vn -3.6369073e-08 -0.8946349 -0.44679797
vn -1.1324674e-06 -0.89463532 -0.44679719
vn -0.31487906 -0.84912556 -0.42407182
vn -0.99533004 -0.086355709 -0.043137688
vn -0.94734907 -0.28646049 -0.14307359
vn -0.9405762 -0.30379927 -0.151732
vn -0.99073225 -0.1215136 -0.060695734
vn 0.87641692 -0.43081778 -0.21515007
vn 0.94735199 -0.28646052 -0.14305447
vn 0.94057912 -0.30379939 -0.15171327
vn 0.86259121 -0.45260096 -0.22602822
vn -0.94734907 -0.28646049 -0.14307359
vn -0.87641311 -0.43081677 -0.21516711
vn -0.86258799 -0.45259896 -0.22604451
vn -0.9405762 -0.30379927 -0.151732
vn -3.6369073e-08 -0.8946349 -0.44679797
vn 0.32401252 -0.84637314 -0.42269191
vn 0.31487972 -0.84912783 -0.42406693
vn -1.1324674e-06 -0.89463532 -0.44679719
vn 0.32401252 -0.84637314 -0.42269191
vn 0.49546173 -0.77710849 -0.38809803
vn 0.48451021 -0.78261608 -0.39084786
vn 0.31487972 -0.84912783 -0.42406693
vn -1 0 -9.881247e-06
vn -0.99533004 -0.086355709 -0.043137688
vn -0.99073225 -0.1215136 -0.060695734
vn -0.99999994 0 -9.6270878e-06
vn 0.71389884 -0.62646979 -0.31286407
vn 0.87641692 -0.43081778 -0.21515007
vn 0.86259121 -0.45260096 -0.22602822
vn 0.689417 -0.64804512 -0.32363835
vn 0.99533093 -0.086355694 -0.043117788
vn 1 0 9.9210902e-06
vn 0.99999994 0 1.0258437e-05
vn 0.99073344 -0.1215139 -0.060675975
vn -0.71389562 -0.62646705 -0.312877
vn -0.49545807 -0.7771064 -0.38810697
vn -0.48450735 -0.78261364 -0.39085621
vn -0.68941468 -0.64804155 -0.32365048
vn -0.87641311 -0.43081677 -0.21516711
vn -0.71389562 -0.62646705 -0.312877
vn -0.68941468 -0.64804155 -0.32365048
vn -0.86258799 -0.45259896 -0.22604451
vn 0.49546173 -0.77710849 -0.38809803
vn 0.71389884 -0.62646979 -0.31286407
vn 0.689417 -0.64804512 -0.32363835
vn 0.48451021 -0.78261608 -0.39084786
vn 0.0063571553 -0.89450949 -0.44700381
vn 0.0063571553 -0.89450949 -0.44700381
vn 0.0072675417 -0.89453131 -0.44694623
vn 0.0098778708 -0.97332597 -0.22921398
vn 0.0098778708 -0.97332597 -0.22921398
vn 0.0072675417 -0.89453131 -0.44694623
vn 0.0064859129 -0.98802102 -0.15418296
vn -0.0072680884 -0.89453131 -0.44694632
vn -0.0098759299 -0.97332579 -0.22921491
vn -0.0064840303 -0.98802119 -0.15418202
vn -0.0063588205 -0.89450949 -0.44700372
vn -0.0063588205 -0.89450949 -0.44700372
vn -0.0098759299 -0.97332579 -0.22921491
vn -0.0072680884 -0.89453131 -0.44694632
vn 0.0032052072 -0.98837453 -0.15200509
vn 0.00069137127 -0.99999928 0.00090982305
vn -0.00069089636 -0.99999928 0.0009099624
vn -0.0032045003 -0.98837441 -0.15200624
vn -0.0032045003 -0.98837441 -0.15200624
vn -0.00069089636 -0.99999928 0.0009099624
vn -0.00517976 -0.9732101 -0.22985952
vn 0 1.6527495e-07 -1
vn 0 -8.2520944e-07 -1
vn 0 -3.4330901e-07 -1
vn 0 0 0.99999994
vn 0 0 1
vn 0 0 0.99999994
vn 0.0064859129 -0.98802102 -0.15418296
vn 0.0020614769 -0.99999422 -0.0027136786
vn 0.0098778708 -0.97332597 -0.22921398
vn -0.0064840303 -0.98802119 -0.15418202
vn -0.0020608844 -0.99999422 -0.0027138521
vn 0.0020614769 -0.99999422 -0.0027136786
vn 0.0064859129 -0.98802102 -0.15418296
vn 0 -7.9474039e-06 -1
vn 0 8.57885e-08 -0.99999994
vn 0 1.6527495e-07 -1
vn 0 8.57885e-08 -0.99999994
vn 0 2.2252823e-06 -1
vn 0 -8.2520944e-07 -1
vn 0 1.6527495e-07 -1
vn 0 8.57885e-08 -0.99999994
vn 0 -8.2520944e-07 -1
vn 0 2.2252823e-06 -1
vn 0 0 -1
vn 0 -5.4609186e-06 -1
vn 0 -5.4609186e-06 -1
vn 0 -8.2520944e-07 -1
vn 0 2.2252823e-06 -1
vn 0 -8.2520944e-07 -1
vn 0 -3.9736742e-06 -0.99999994
vn 0 -3.4330901e-07 -1
vn 0 -3.4330901e-07 -1
vn 0 -5.0818386e-07 -1
vn 0 1.6527495e-07 -1
vn 0 -5.0818386e-07 -1
vn 0 0 -1
vn 0 -7.283864e-07 -1
vn 0 -7.283864e-07 -1
vn 0 3.6604501e-07 -1
vn 0 6.2433514e-07 -1
vn 0 3.6604501e-07 -1
vn 0 0 -1
vn 0 6.2433514e-07 -1
vn 0 6.2433514e-07 -1
vn 0 1.6527495e-07 -1
vn 0 -5.0818386e-07 -1
vn 0 -7.283864e-07 -1
vn 0 6.2433514e-07 -1
vn 0 -5.0818386e-07 -1
vn 0 0 1
vn 0 0 0.99999994
vn 0 0 0.99999994
vn 0 0 0.99999994
vn 0 0 0.99999994
vn 0 0 0.99999994
vn 0 0 0.99999994
vn 0 0 0.99999994
vn 0 0 0.99999994
vn 0 0 0.99999994
vn 0 0 0.99999994
vn 0 0 1
vn 0 0 0.99999994
vn 0 0 1
vn 0 0 1
vn 0 0 1
vn 0 0 0.99999994
vn 0 0 1
vn 0 0 0.99999994
vn 0 0 1
vn 0 0 1
vn 0 0 1
vn 0 0 1
vn 0 0 0.99999994
vn 0 0 1
vn 0 0 1
vn 0 0 0.99999994
vn 0 0 1
vn 0 0 1
vn 0 0 0.99999994
vn 0 0 0.99999994
vn 0 0 1
vn 0 0 1
vn 0 0 1
vn 0 0 1
vn 0 0 1
usemtl brickwall1
f 18/106/1 2/399/2 3/157/3
f 18/106/1 3/157/3 1/70/4
f 6/205/5 258/33/6 13/27/7
f 6/205/5 13/27/7 5/160/8
f 5/160/9 4/128/10 211/382/11
f 5/160/9 211/382/11 6/205/12
usemtl stonetrims
f 211/255/13 9/343/14 289/11/15
f 11/108/16 14/389/17 272/69/18
f 4/235/19 10/413/20 9/107/21
f 4/235/19 9/107/21 211/292/22
f 1/352/23 8/173/24 7/294/25
f 1/352/23 7/294/25 18/158/26
f 18/93/27 7/171/28 10/12/29
f 18/93/27 10/12/29 4/146/30
usemtl brickwall1
f 2/399/31 12/65/32 11/32/33
f 2/399/31 11/32/33 3/157/34
usemtl stonetrims
f 12/275/35 15/397/36 14/87/37
f 12/275/35 14/87/37 11/357/38
f 258/359/39 17/272/40 16/358/41
f 258/359/39 16/358/41 13/237/42
f 13/199/43 16/325/44 15/328/45
f 13/199/43 15/328/45 12/155/46
f 20/423/47 19/120/48 52/304/49
f 20/423/47 52/304/49 55/138/50
f 20/377/51 64/6/52 59/422/53
f 20/377/51 59/422/53 19/37/54
f 22/217/55 21/425/56 60/58/57
f 22/217/55 60/58/57 63/306/58
f 22/246/59 72/163/60 67/126/61
f 22/246/59 67/126/61 21/249/62
f 188/75/63 187/174/64 68/203/65
f 188/75/63 68/203/65 71/31/66
f 24/364/67 80/92/68 75/201/69
f 24/364/67 75/201/69 23/116/70
f 26/72/71 25/322/72 76/310/73
f 26/72/71 76/310/73 79/345/74
f 26/334/75 88/380/76 83/371/77
f 26/334/75 83/371/77 25/283/78
f 28/29/79 27/232/80 84/7/81
f 28/29/79 84/7/81 87/257/82
f 28/73/83 96/121/84 91/67/85
f 28/73/83 91/67/85 27/198/86
f 30/95/87 29/61/88 92/164/89
f 30/95/87 92/164/89 95/410/90
f 30/379/91 104/238/92 99/319/93
f 30/379/91 99/319/93 29/88/94
f 32/391/95 31/80/96 100/409/97
f 32/391/95 100/409/97 103/141/98
f 32/152/99 112/339/100 107/318/101
f 32/152/99 107/318/101 31/228/102
f 34/407/103 33/46/104 108/381/105
f 34/407/103 108/381/105 111/206/106
f 34/9/107 120/56/108 115/10/109
f 34/9/107 115/10/109 33/14/110
f 36/331/111 35/3/112 116/122/113
f 36/331/111 116/122/113 119/354/114
f 36/256/115 128/135/116 123/68/117
f 36/256/115 123/68/117 35/261/118
f 38/143/119 37/241/120 124/165/121
f 38/143/119 124/165/121 127/268/122
f 38/194/123 136/426/124 131/392/125
f 38/194/123 131/392/125 37/214/126
f 40/19/127 39/42/128 132/60/129
f 40/19/127 132/60/129 135/185/130
f 40/248/131 144/4/132 139/386/133
f 40/248/131 139/386/133 39/387/134
f 42/278/135 41/244/136 140/57/137
f 42/278/135 140/57/137 143/175/138
f 42/125/139 152/76/140 147/49/141
f 42/125/139 147/49/141 41/192/142
f 44/369/143 43/16/144 148/130/145
f 44/369/143 148/130/145 151/366/146
f 44/297/147 160/234/148 155/184/149
f 44/297/147 155/184/149 43/440/150
f 46/170/151 45/284/152 156/280/153
f 46/170/151 156/280/153 159/383/154
f 46/361/155 168/137/156 163/202/157
f 46/361/155 163/202/157 45/36/158
f 48/209/159 47/25/160 164/262/161
f 48/209/159 164/262/161 167/277/162
f 48/59/163 176/18/164 171/436/165
f 48/59/163 171/436/165 47/2/166
f 50/186/167 49/390/168 172/77/169
f 50/186/167 172/77/169 175/183/170
f 50/239/171 184/189/172 179/145/173
f 50/239/171 179/145/173 49/242/174
f 13/216/175 12/333/176 180/105/177
f 13/216/175 180/105/177 183/340/178
f 55/138/179 52/304/180 54/182/181
f 55/138/179 54/182/181 57/269/182
f 57/269/183 54/182/184 53/207/185
f 57/269/183 53/207/185 58/281/186
f 58/281/187 53/207/188 51/344/189
f 58/281/187 51/344/189 56/405/190
f 63/306/191 60/58/192 62/327/193
f 63/306/191 62/327/193 65/427/194
f 65/427/195 62/327/196 61/420/197
f 65/427/195 61/420/197 66/302/198
f 66/302/199 61/420/200 59/422/201
f 66/302/199 59/422/201 64/6/202
f 71/31/203 68/203/204 70/308/205
f 71/31/203 70/308/205 73/161/206
f 73/161/207 70/308/208 69/148/209
f 73/161/207 69/148/209 74/24/210
f 74/24/211 69/148/212 67/126/213
f 74/24/211 67/126/213 72/163/214
f 79/345/215 76/310/216 78/432/217
f 79/345/215 78/432/217 81/89/218
f 81/89/219 78/432/220 77/231/221
f 81/89/219 77/231/221 82/90/222
f 82/90/223 77/231/224 75/201/225
f 82/90/223 75/201/225 80/92/226
f 87/257/227 84/7/228 86/150/229
f 87/257/227 86/150/229 89/372/230
f 89/372/231 86/150/232 85/370/233
f 89/372/231 85/370/233 90/247/234
f 90/247/235 85/370/236 83/371/237
f 90/247/235 83/371/237 88/380/238
f 95/410/239 92/164/240 94/259/241
f 95/410/239 94/259/241 97/117/242
f 97/117/243 94/259/244 93/101/245
f 97/117/243 93/101/245 98/404/246
f 98/404/247 93/101/248 91/67/249
f 98/404/247 91/67/249 96/121/250
f 103/141/251 100/409/252 102/104/253
f 103/141/251 102/104/253 105/236/254
f 105/236/255 102/104/256 101/176/257
f 105/236/255 101/176/257 106/252/258
f 106/252/259 101/176/260 99/319/261
f 106/252/259 99/319/261 104/238/262
f 111/206/263 108/381/264 110/103/265
f 111/206/263 110/103/265 113/321/266
f 113/321/267 110/103/268 109/187/269
f 113/321/267 109/187/269 114/200/270
f 114/200/271 109/187/272 107/318/273
f 114/200/271 107/318/273 112/339/274
f 119/354/275 116/122/276 118/208/277
f 119/354/275 118/208/277 121/55/278
f 121/55/279 118/208/280 117/336/281
f 121/55/279 117/336/281 122/348/282
f 122/348/283 117/336/284 115/10/285
f 122/348/283 115/10/285 120/56/286
f 127/268/287 124/165/288 126/324/289
f 127/268/287 126/324/289 129/133/290
f 129/133/291 126/324/292 125/66/293
f 129/133/291 125/66/293 130/428/294
f 130/428/295 125/66/296 123/68/297
f 130/428/295 123/68/297 128/135/298
f 135/185/299 132/60/300 134/193/301
f 135/185/299 134/193/301 137/424/302
f 137/424/303 134/193/304 133/254/305
f 137/424/303 133/254/305 138/290/306
f 138/290/307 133/254/308 131/392/309
f 138/290/307 131/392/309 136/426/310
f 143/175/311 140/57/312 142/167/313
f 143/175/311 142/167/313 145/1/314
f 145/1/315 142/167/316 141/287/317
f 145/1/315 141/287/317 146/301/318
f 146/301/319 141/287/320 139/386/321
f 146/301/319 139/386/321 144/4/322
f 151/366/323 148/130/324 150/245/325
f 151/366/323 150/245/325 153/52/326
f 153/52/327 150/245/328 149/48/329
f 153/52/327 149/48/329 154/355/330
f 154/355/331 149/48/332 147/49/333
f 154/355/331 147/49/333 152/76/334
f 159/383/335 156/280/336 158/20/337
f 159/383/335 158/20/337 161/113/338
f 161/113/339 158/20/340 157/44/341
f 161/113/339 157/44/341 162/131/342
f 162/131/343 157/44/344 155/184/345
f 162/131/343 155/184/345 160/234/346
f 167/277/347 164/262/348 166/434/349
f 167/277/347 166/434/349 169/414/350
f 169/414/351 166/434/352 165/30/353
f 169/414/351 165/30/353 170/415/354
f 170/415/355 165/30/356 163/202/357
f 170/415/355 163/202/357 168/137/358
f 175/183/359 172/77/360 174/196/361
f 175/183/359 174/196/361 177/439/362
f 177/439/363 174/196/364 173/295/365
f 177/439/363 173/295/365 178/305/366
f 178/305/367 173/295/368 171/436/369
f 178/305/367 171/436/369 176/18/370
f 183/340/371 180/105/372 182/400/373
f 183/340/371 182/400/373 185/54/374
f 185/54/375 182/400/376 181/430/377
f 185/54/375 181/430/377 186/78/378
f 186/78/379 181/430/380 179/145/381
f 186/78/379 179/145/381 184/189/382
f 4/147/383 56/405/384 51/344/385
f 4/147/383 51/344/385 18/97/386
f 188/291/387 194/22/388 189/394/389
f 188/291/387 189/394/389 187/431/390
f 24/154/391 23/260/392 190/63/393
f 24/154/391 190/63/393 193/303/394
f 193/303/395 190/63/396 192/360/397
f 193/303/395 192/360/397 195/21/398
f 195/21/399 192/360/400 191/393/401
f 195/21/399 191/393/401 196/326/402
f 196/326/403 191/393/404 189/394/405
f 196/326/403 189/394/405 194/22/406
f 228/253/407 229/123/408 217/169/409
f 228/253/407 217/169/409 216/266/410
f 230/384/411 231/191/412 219/312/413
f 230/384/411 219/312/413 223/124/414
f 231/191/415 232/156/416 215/313/417
f 231/191/415 215/313/417 219/312/418
f 233/429/419 234/385/420 225/109/421
f 233/429/419 225/109/421 212/190/422
f 229/123/423 235/309/424 221/279/425
f 229/123/423 221/279/425 217/169/426
f 236/114/427 237/433/428 218/111/429
f 236/114/427 218/111/429 226/177/430
f 238/218/431 228/253/432 216/266/433
f 238/218/431 216/266/433 213/159/434
f 239/142/435 238/218/436 213/159/437
f 239/142/435 213/159/437 220/341/438
f 240/166/439 230/384/440 223/124/441
f 240/166/439 223/124/441 214/85/442
f 235/309/443 241/168/444 222/263/445
f 235/309/443 222/263/445 221/279/446
f 237/433/447 240/166/448 214/85/449
f 237/433/447 214/85/449 218/111/450
f 242/264/451 239/142/452 220/341/453
f 242/264/451 220/341/453 224/441/454
f 232/156/455 242/264/456 224/441/457
f 232/156/455 224/441/457 215/313/458
f 241/168/459 233/429/460 212/190/461
f 241/168/459 212/190/461 222/263/462
usemtl brickwall1
f 207/230/463 197/98/464 233/243/465
f 207/230/463 233/243/465 241/181/466
f 200/212/467 209/349/468 242/273/469
f 200/212/467 242/273/469 232/411/470
f 209/349/471 205/398/472 239/347/473
f 209/349/471 239/347/473 242/273/474
f 203/403/475 199/435/476 240/311/477
f 203/403/475 240/311/477 237/153/478
f 206/139/479 207/230/480 241/181/481
f 206/139/479 241/181/481 235/412/482
f 199/435/483 208/276/484 230/298/485
f 199/435/483 230/298/485 240/311/486
f 205/398/487 198/320/488 238/99/489
f 205/398/487 238/99/489 239/347/490
f 198/320/491 201/28/492 228/132/493
f 198/320/491 228/132/493 238/99/494
usemtl stonetrims
f 289/74/495 203/210/496 237/50/497
f 289/74/495 237/50/497 236/240/498
usemtl brickwall1
f 202/353/499 206/139/500 235/412/501
f 202/353/499 235/412/501 229/51/502
usemtl stonetrims
f 197/373/503 210/408/504 234/417/505
f 197/373/503 234/417/505 233/204/506
usemtl brickwall1
f 204/136/507 200/212/508 232/411/509
f 204/136/507 232/411/509 231/365/510
f 208/276/511 204/136/512 231/365/513
f 208/276/511 231/365/513 230/298/514
f 201/28/515 202/353/516 229/51/517
f 201/28/515 229/51/517 228/132/518
usemtl stonetrims
f 211/323/519 289/337/520 236/293/521
f 211/323/519 236/293/521 6/5/522
f 6/5/523 236/293/524 226/112/525
f 234/438/526 3/346/527 227/134/528
f 234/438/526 227/134/528 225/8/529
f 210/396/530 1/388/531 3/346/532
f 210/396/530 3/346/532 234/438/533
f 274/225/534 275/211/535 264/233/536
f 274/225/534 264/233/536 263/197/537
f 276/356/538 277/300/539 266/250/540
f 276/356/538 266/250/540 270/180/541
f 277/300/542 278/258/543 262/251/544
f 277/300/542 262/251/544 266/250/545
f 279/395/546 280/79/547 272/34/548
f 279/395/546 272/34/548 259/140/549
f 275/211/550 281/286/551 268/213/552
f 275/211/550 268/213/552 264/233/553
f 282/82/554 283/402/555 265/35/556
f 282/82/554 265/35/556 273/127/557
f 284/188/558 274/225/559 263/197/560
f 284/188/558 263/197/560 260/100/561
f 285/110/562 284/188/563 260/100/564
f 285/110/562 260/100/564 267/274/565
f 286/265/566 276/356/567 270/180/568
f 286/265/566 270/180/568 261/15/569
f 281/286/570 287/270/571 269/195/572
f 281/286/570 269/195/572 268/213/573
f 283/402/574 286/265/575 261/15/576
f 283/402/574 261/15/576 265/35/577
f 288/368/578 285/110/579 267/274/580
f 288/368/578 267/274/580 271/367/581
f 278/258/582 288/368/583 271/367/584
f 278/258/582 271/367/584 262/251/585
f 287/270/586 279/395/587 259/140/588
f 287/270/586 259/140/588 269/195/589
usemtl brickwall1
f 253/338/590 243/62/591 279/350/592
f 253/338/590 279/350/592 287/289/593
f 246/316/594 255/317/595 288/375/596
f 246/316/594 288/375/596 278/94/597
f 255/317/598 251/363/599 285/314/600
f 255/317/598 285/314/600 288/375/601
f 249/83/602 245/118/603 286/419/604
f 249/83/602 286/419/604 283/129/605
f 252/229/606 253/338/607 287/289/608
f 252/229/606 287/289/608 281/96/609
f 245/118/610 254/376/611 276/267/612
f 245/118/610 276/267/612 286/419/613
f 251/363/614 244/296/615 284/64/616
f 251/363/614 284/64/616 285/314/617
f 244/296/618 247/144/619 274/223/620
f 244/296/618 274/223/620 284/64/621
usemtl stonetrims
f 257/84/622 249/315/623 283/23/624
f 257/84/622 283/23/624 282/215/625
usemtl brickwall1
f 248/329/626 252/229/627 281/96/628
f 248/329/626 281/96/628 275/162/629
usemtl stonetrims
f 243/53/630 256/374/631 280/102/632
f 243/53/630 280/102/632 279/178/633
usemtl brickwall1
f 250/226/634 246/316/635 278/94/636
f 250/226/634 278/94/636 277/40/637
f 254/376/638 250/226/639 277/40/640
f 254/376/638 277/40/640 276/267/641
f 247/144/642 248/329/643 275/162/644
f 247/144/642 275/162/644 274/223/645
usemtl stonetrims
f 6/5/646 257/335/647 282/416/648
f 6/5/646 282/416/648 258/81/649
f 258/81/650 282/416/651 273/119/652
f 280/13/653 11/437/654 272/26/655
f 256/220/656 3/346/657 11/437/658
f 256/220/656 11/437/658 280/13/659
f 289/11/660 9/343/661 8/307/662
f 289/11/660 8/307/662 210/219/663
f 210/219/664 8/307/665 1/342/666
usemtl brickwall1
f 206/43/667 200/288/668 208/362/669
f 268/406/670 270/38/671 262/227/672
usemtl stonetrims
f 273/91/673 17/151/674 258/86/675
f 272/69/676 14/389/677 17/151/678
f 272/69/676 17/151/678 273/91/679
usemtl brickwall1
f 202/39/680 201/45/681 206/43/682
f 201/45/683 198/17/684 200/288/685
f 206/43/686 201/45/687 200/288/688
f 198/17/689 205/282/690 209/179/691
f 209/179/692 200/288/693 198/17/694
f 200/288/695 204/378/696 208/362/697
f 208/362/698 199/41/699 206/43/700
f 199/41/701 203/47/702 289/299/703
f 289/299/704 210/421/705 207/401/706
f 210/421/707 197/115/708 207/401/709
f 207/401/710 206/43/711 199/41/712
f 289/299/713 207/401/714 199/41/715
f 260/330/716 263/418/717 262/227/718
f 263/418/719 264/351/720 268/406/721
f 262/227/722 263/418/723 268/406/724
f 268/406/725 269/285/726 270/38/727
f 269/285/728 259/149/729 272/172/730
f 272/172/731 273/332/732 261/224/733
f 273/332/734 265/222/735 261/224/736
f 261/224/737 270/38/738 269/285/739
f 272/172/740 261/224/741 269/285/742
f 270/38/743 266/271/744 262/227/745
f 262/227/746 271/71/747 260/330/748
f 271/71/749 267/221/750 260/330/751
