# Exact Cylinder mesh from user-supplied torch.fbx. Unrelated source scene objects excluded.
# Shaft normalized upright, bottom centred, 1.25m high; original normals and material groups retained; cylindrical UVs added (source has no UVs).
mtllib Torch.mtl
o SuppliedTorch
v -0.00068769913 0.91715875 -0.12179865
v 0.00047409983 1.1607532 -0.12179865
v 0.045922086 0.91693641 -0.11252729
v 0.047083885 1.1605309 -0.11252729
v 0.085435878 0.91674805 -0.086124651
v 0.086597658 1.1603425 -0.086124651
v 0.11183815 0.91662216 -0.046610301
v 0.11299995 1.1602166 -0.046610301
v 0.12110949 0.91657787 -1.8886907e-08
v 0.12227129 1.1601723 -1.8935691e-08
v 0.11183815 0.91662216 0.046610339
v 0.11299995 1.1602166 0.046610339
v 0.085435878 0.91674805 0.086124613
v 0.086597658 1.1603425 0.086124613
v 0.045922086 0.91693641 0.11252725
v 0.047083885 1.1605309 0.11252725
v -0.00068769911 0.91715875 0.12179862
v 0.00047409984 1.1607532 0.12179862
v -0.047297524 0.91738102 0.11252725
v -0.046135705 1.1609755 0.11252725
v -0.086811405 0.91756953 0.086124613
v -0.085649607 1.161164 0.086124613
v -0.11321368 0.91769542 0.046610339
v -0.11205201 1.1612899 0.046610339
v -0.12248489 0.91773963 -1.8873318e-08
v -0.12132309 1.1613341 -1.8922102e-08
v -0.11321368 0.91769542 -0.046610377
v -0.11205201 1.1612899 -0.046610377
v -0.086811406 0.91756953 -0.086124651
v -0.085649607 1.161164 -0.086124651
v -0.047297484 0.91738108 -0.11252729
v -0.046135685 1.1609755 -0.11252729
v 0.00079714957 1.2284918 -0.076357972
v 0.030017717 1.2283524 -0.070545536
v 0.054789646 1.2282344 -0.053993204
v 0.071341829 1.2281554 -0.029220972
v 0.077154199 1.2281276 -1.8946722e-08
v 0.071341829 1.2281554 0.029220934
v 0.054789646 1.2282344 0.053993166
v 0.030017717 1.2283524 0.070545498
v 0.00079714958 1.2284918 0.076357935
v -0.028423418 1.2286312 0.070545498
v -0.053195436 1.2287494 0.053993242
v -0.06974755 1.2288282 0.029220934
v -0.075560028 1.2288561 -1.8938203e-08
v -0.06974755 1.2288282 -0.029220972
v -0.053195436 1.2287494 -0.05399328
v -0.028423418 1.2286312 -0.070545612
v 0.00089921223 1.2498829 -0.024550817
v 0.010294233 1.2498382 -0.022682029
v 0.01825902 1.2498001 -0.017360061
v 0.023580905 1.2497748 -0.0093951953
v 0.025449746 1.2497658 -1.8948116e-08
v 0.023580905 1.2497748 0.0093951574
v 0.01825902 1.2498001 0.017360023
v 0.010294233 1.2498382 0.022681991
v 0.00089921223 1.2498829 0.024550779
v -0.0084959377 1.2499278 0.022681991
v -0.016460764 1.2499657 0.017360023
v -0.021782609 1.2499912 0.0093951575
v -0.023651361 1.25 -1.8945377e-08
v -0.021782609 1.2499912 -0.0093951953
v -0.016460724 1.2499658 -0.017360061
v -0.0084959377 1.2499278 -0.022682029
v -0.0017434854 0.69581006 -0.088653956
v 0.032182535 0.69564822 -0.081905536
v 0.060943625 0.69551102 -0.062687831
v 0.080161177 0.69541942 -0.033926393
v 0.086909608 0.69538712 -1.8840729e-08
v 0.080161177 0.69541942 0.033926355
v 0.060943625 0.69551102 0.062687793
v 0.032182535 0.69564822 0.081905498
v -0.0017433566 0.69580998 0.088653918
v -0.035669417 0.69597176 0.081905574
v -0.064430506 0.69610896 0.062687793
v -0.083648019 0.69620062 0.033926355
v -0.090396361 0.69623277 -1.8830837e-08
v -0.083648019 0.69620062 -0.033926393
v -0.064430506 0.69610896 -0.062687831
v -0.035669377 0.69597182 -0.081905612
v -0.0027606147 0.48251292 -0.078341034
v 0.027218803 0.48237002 -0.072377696
v 0.052634055 0.48224884 -0.055395514
v 0.069616099 0.48216778 -0.029979869
v 0.075579374 0.48213933 -1.8797436e-08
v 0.069616099 0.48216778 0.029979832
v 0.052634055 0.48224884 0.055395477
v 0.027218803 0.48237002 0.072377659
v -0.0027606147 0.48251292 0.078340997
v -0.032740122 0.48265597 0.072377659
v -0.058155542 0.48277716 0.055395477
v -0.075137586 0.48285822 0.029979832
v -0.081100861 0.48288667 -1.8788696e-08
v -0.075137586 0.48285822 -0.029979869
v -0.058155542 0.48277716 -0.055395514
v -0.032740122 0.48265597 -0.072377696
v -0.0050607303 0.00019265892 -0.040443541
v 0.010416037 0.00011891655 -0.037364967
v 0.023536851 5.6224576e-05 -0.028597916
v 0.032303719 1.4392678e-05 -0.015477044
v 0.035382183 0 -1.8698728e-08
v 0.032303719 1.4392684e-05 0.015477083
v 0.023536851 5.6224587e-05 0.028597879
v 0.010416037 0.00011891656 0.037364929
v -0.0050607303 0.00019265894 0.040443504
v -0.020537756 0.00026656028 0.037364929
v -0.03365844 0.00032917277 0.028597879
v -0.042425309 0.00037100467 0.015477083
v -0.045503822 0.00038560564 -1.8694216e-08
v -0.042425309 0.00037100466 -0.01547712
v -0.03365844 0.00032917276 -0.028597916
v -0.020537756 0.00026656027 -0.037364967
v -0.00056850852 0.94216252 -0.14310318
v 0.00035476055 1.1357495 -0.14310318
v 0.054194102 0.94190137 -0.13221011
v 0.055117351 1.1354883 -0.13221011
v 0.1006195 0.94167997 -0.10118923
v 0.10154289 1.1352668 -0.10118923
v 0.13164011 0.94153195 -0.054763226
v 0.13256338 1.1351189 -0.054763226
v 0.14253303 0.94148003 -1.8893103e-08
v 0.1434563 1.135067 -1.8931872e-08
v 0.13164011 0.94153195 0.054763188
v 0.13256338 1.1351189 0.054763188
v 0.1006195 0.94167997 0.10118919
v 0.10154289 1.1352668 0.10118919
v 0.054194102 0.94190137 0.13221007
v 0.055117351 1.1354883 0.13221007
v -0.00056850851 0.94216252 0.14310314
v 0.00035478043 1.1357495 0.14310314
v -0.055330951 0.94242365 0.13221007
v -0.05440781 1.1360107 0.13221007
v -0.10175647 0.94264513 0.1011892
v -0.10083322 1.1362321 0.10118919
v -0.13277711 0.94279311 0.054763188
v -0.13185371 1.13638 0.054763188
v -0.14367005 0.942845 -1.8877137e-08
v -0.14274676 1.136432 -1.8915906e-08
v -0.13277711 0.94279311 -0.054763226
v -0.13185371 1.13638 -0.054763226
v -0.10175647 0.94264513 -0.10118923
v -0.10083322 1.1362321 -0.10118923
v -0.055330951 0.94242365 -0.13221011
v -0.054407662 1.1360106 -0.13221011
v 0.00014373362 1.0915069 -0.14302387
v 0.053184915 1.0780043 -0.13213685
v 0.098151203 1.0665573 -0.10113316
v 0.12819657 1.0589087 -0.054732879
v 0.13874715 1.0562228 -1.8915837e-08
v 0.12819657 1.0589087 0.054732841
v 0.098151203 1.0665573 0.10113312
v 0.053184915 1.0780043 0.13213681
v 0.00014373364 1.0915069 0.14302383
v -0.052897358 1.1050093 0.13213681
v -0.097863389 1.1164562 0.10113312
v -0.12790886 1.1241048 0.054732841
v -0.13845949 1.1267906 -1.8914221e-08
v -0.12790886 1.1241048 -0.054732879
v -0.097863389 1.1164562 -0.10113316
v -0.05289721 1.1050092 -0.13213685
v 0.053295631 1.0626316 -0.13213685
v 0.098423876 1.0524532 -0.10113316
v 0.12857756 1.0456524 -0.054732879
v 0.13916616 1.0432641 -1.8913269e-08
v 0.12857756 1.0456524 0.054732841
v 0.098423876 1.0524532 0.10113312
v 0.053295631 1.0626316 0.13213681
v 6.3242154e-05 1.0746377 0.14302383
v -0.053168889 1.0866437 0.13213681
v -0.098297025 1.0968219 0.10113312
v -0.1284508 1.1036229 0.054732841
v -0.13903931 1.106011 -1.8910032e-08
v -0.1284508 1.1036229 -0.054732879
v -0.098297025 1.0968219 -0.10113316
v -0.053168741 1.0866436 -0.13213685
v 6.3242138e-05 1.0746377 -0.14302387
v 6.3836739e-05 1.0747672 -0.140828
v 0.00014313902 1.0913774 -0.140828
v -0.052083448 1.1046725 -0.13010816
v -0.096359346 1.1159436 -0.099580473
v -0.12594352 1.1234749 -0.053892552
v -0.13633215 1.1261194 -1.8914208e-08
v -0.12594352 1.1234749 0.053892515
v -0.096359346 1.1159436 0.099580436
v -0.052083596 1.1046725 0.13010812
v 0.00014313904 1.0913774 0.140828
v 0.052369983 1.0780821 0.13010812
v 0.096645822 1.0668108 0.099580436
v 0.12623003 1.0592797 0.053892515
v 0.13661863 1.056635 -1.8915798e-08
v 0.12623003 1.0592797 -0.053892552
v 0.096645822 1.0668108 -0.099580473
v 0.052369983 1.0780821 -0.13010816
v 0.052478916 1.0629455 -0.13010816
v 0.096914288 1.0529234 -0.099580473
v 0.12660507 1.0462269 -0.053892552
v 0.13703113 1.0438753 -1.891327e-08
v 0.12660507 1.0462269 0.053892515
v 0.096914288 1.0529234 0.099580436
v 0.052478916 1.0629455 0.13010812
v 6.3836755e-05 1.0747672 0.140828
v -0.052350985 1.0865888 0.13010812
v -0.096786268 1.0966108 0.099580436
v -0.12647712 1.1033074 0.053892515
v -0.13690311 1.1056589 -1.8910083e-08
v -0.12647712 1.1033074 -0.053892552
v -0.096786268 1.0966108 -0.099580473
v -0.052350836 1.0865888 -0.13010816
v 0.052289631 0.99451948 -0.12904299
v 0.096917713 1.0005099 -0.098765196
v 0.12673717 1.0045127 -0.053451351
v 0.13720827 1.0059184 -1.8905688e-08
v 0.12673717 1.0045127 0.053451313
v 0.096917713 1.0005099 0.098765196
v 0.052289631 0.99451948 0.12904295
v -0.00035255169 0.98745301 0.13967508
v -0.052994566 0.98038653 0.12904295
v -0.097622519 0.97439601 0.098765196
v -0.12744202 0.9703932 0.053451313
v -0.13791313 0.96898748 -1.8882692e-08
v -0.12744202 0.9703932 -0.053451351
v -0.097622519 0.97439601 -0.098765196
v -0.052994397 0.98038652 -0.12904299
v -0.0003525517 0.98745301 -0.13967512
v -0.00029412573 0.99969591 -0.14071834
v 0.052648281 1.0041566 -0.13000682
v 0.097531063 1.0079378 -0.099502904
v 0.12752068 1.0104645 -0.053850627
v 0.13805144 1.0113518 -1.8906823e-08
v 0.12752068 1.0104645 0.053850551
v 0.097531063 1.0079378 0.099502866
v 0.052648281 1.0041566 0.13000679
v -0.00029412572 0.99969591 0.14071834
v -0.053236512 0.99523527 0.13000679
v -0.098119057 0.99145382 0.099502866
v -0.12810867 0.98892714 0.053850551
v -0.13863971 0.98803994 -1.8886461e-08
v -0.12810867 0.98892714 -0.053850627
v -0.098119057 0.99145382 -0.099502904
v -0.053236344 0.99523525 -0.13000682
v 0.051021557 1.0037328 -0.1260155
v 0.051055995 0.99464045 -0.1260155
v 0.094526388 1.0073979 -0.096448092
v 0.094636992 1.0004904 -0.096448092
v 0.12359526 1.0098471 -0.052197293
v 0.12375683 1.0043993 -0.052197293
v 0.13380275 1.0107072 -1.8906453e-08
v 0.13398235 1.0057719 -1.8905476e-08
v 0.12359526 1.0098471 0.052197293
v 0.12375683 1.0043993 0.052197293
v 0.094526388 1.0073979 0.096448016
v 0.094636992 1.0004904 0.096448016
v 0.051021557 1.0037328 0.12601542
v 0.051055995 0.99464045 0.12601542
v -0.00029542829 0.99940904 0.13639812
v -0.00035112031 0.98773981 0.13639812
v -0.051612522 0.99508542 0.12601542
v -0.051758235 0.98083917 0.12601542
v -0.095117116 0.99142005 0.096448016
v -0.095339084 0.97498915 0.096448016
v -0.12418595 0.98897095 0.052197293
v -0.12445894 0.97108024 0.052197293
v -0.13439363 0.98811089 -1.8886716e-08
v -0.13468448 0.96970761 -1.8883019e-08
v -0.12418595 0.98897095 -0.052197293
v -0.12445894 0.97108024 -0.052197293
v -0.095117116 0.99142005 -0.096448092
v -0.095339084 0.97498915 -0.096448092
v -0.051612354 0.99508541 -0.1260155
v -0.051758067 0.98083915 -0.1260155
v -0.00035112032 0.98773981 -0.13639812
v -0.00029542831 0.99940904 -0.13639812
v -0.00017634573 1.0243812 -0.14483143
v -5.4409061e-05 1.0499523 -0.1456181
v 0.054337215 1.0432812 -0.13453364
v 0.054116446 1.0233287 -0.13380683
v 0.10044866 1.0376253 -0.10296751
v 0.10014387 1.0224362 -0.10241128
v 0.13125913 1.0338464 -0.055725697
v 0.13089851 1.0218398 -0.05542465
v 0.14207823 1.0325194 -1.8911285e-08
v 0.14169787 1.0216305 -1.8909086e-08
v 0.13125913 1.0338464 0.055725621
v 0.13089851 1.0218398 0.055424612
v 0.10044866 1.0376253 0.10296755
v 0.10014387 1.0224362 0.10241128
v 0.054337215 1.0432812 0.13453361
v 0.054116446 1.0233287 0.1338068
v -5.4409044e-05 1.0499523 0.14561806
v -0.00017634571 1.0243812 0.14483139
v -0.054446034 1.0566235 0.13453361
v -0.054469098 1.0254338 0.1338068
v -0.10055722 1.0622792 0.10296755
v -0.10049643 1.0263262 0.10241128
v -0.13136782 1.0660582 0.055725621
v -0.1312511 1.0269225 0.055424612
v -0.14218694 1.0673852 -1.8902129e-08
v -0.14205057 1.0271319 -1.8894086e-08
v -0.13136782 1.0660582 -0.055725697
v -0.1312511 1.0269225 -0.05542465
v -0.10055722 1.0622792 -0.10296751
v -0.10049643 1.0263262 -0.10241128
v -0.054445885 1.0566234 -0.13453364
v -0.054468969 1.0254337 -0.13380683
v 0.054267869 0.96827551 -0.13312233
v 0.10066448 0.97121507 -0.10188744
v 0.13166564 0.97317932 -0.05514101
v 0.14255182 0.97386902 -1.8899582e-08
v 0.13166564 0.97317932 0.05514101
v 0.10066448 0.97121507 0.10188736
v 0.054267869 0.96827551 0.13312225
v -0.0004605301 0.96480777 0.14409047
v -0.055188721 0.96134007 0.13312225
v -0.10158537 0.95840045 0.10188736
v -0.13258668 0.95643625 0.05514101
v -0.14347275 0.95574643 -1.8879728e-08
v -0.13258668 0.95643625 -0.05514101
v -0.10158537 0.95840045 -0.10188744
v -0.055188721 0.96134007 -0.13312233
v -0.00046053011 0.96480777 -0.14409054
v 0.00024924708 1.1136282 -0.14567214
v 0.055133972 1.1066208 -0.13458359
v 0.10166316 1.1006801 -0.10300573
v 0.13275278 1.0967109 -0.055746357
v 0.14367005 1.095317 -1.8923935e-08
v 0.13275278 1.0967109 0.055746319
v 0.10166316 1.1006801 0.10300577
v 0.055133972 1.1066208 0.13458352
v 0.00024926697 1.1136282 0.14567214
v -0.054635478 1.1206355 0.13458352
v -0.10116443 1.126576 0.10300577
v -0.13225416 1.1305454 0.055746319
v -0.14317146 1.1319392 -1.8914984e-08
v -0.13225416 1.1305454 -0.055746357
v -0.10116443 1.126576 -0.10300573
v -0.054635349 1.1206354 -0.13458359
vt 0.24910139 0.733727
vt 0.25061951 0.92860255
vt 0.31166733 0.73354913
vt 0.31307084 0.92842469
vt 0.37436104 0.73339844
vt 0.37543585 0.92827397
vt 0.43715362 0.73329772
vt 0.43773554 0.92817328
vt 0.49999998 0.73326229
vt 0.49999998 0.92813785
vt 0.56284643 0.73329772
vt 0.5622645 0.92817328
vt 0.62563893 0.73339844
vt 0.62456411 0.92827397
vt 0.68833265 0.73354913
vt 0.68692914 0.92842469
vt 0.75089861 0.733727
vt 0.74938049 0.92860256
vt 0.81332783 0.73390481
vt 0.81192618 0.9287804
vt 0.87563206 0.73405562
vt 0.87455989 0.92893118
vt 0.93784144 0.73415633
vt 0.93726146 0.92903196
vt 2.4523693e-08 0.7341917
vt 2.482253e-08 0.92906726
vt 0.062158605 0.73415633
vt 0.062738585 0.92903196
vt 0.12436798 0.73405562
vt 0.12544014 0.92893118
vt 0.18667223 0.73390486
vt 0.18807386 0.92878042
vt 0.25166146 0.98279344
vt 0.31402822 0.98268195
vt 0.37616522 0.9825875
vt 0.43812898 0.98252428
vt 0.49999996 0.9825021
vt 0.56187094 0.98252428
vt 0.62383473 0.9825875
vt 0.68597175 0.98268195
vt 0.74833854 0.98279344
vt 0.8109582 0.98290493
vt 0.87381543 0.98299949
vt 0.93685726 0.98306258
vt 3.9890253e-08 0.98308484
vt 0.063142812 0.98306258
vt 0.12618462 0.98299949
vt 0.18904189 0.98290493
vt 0.2558267 0.99990634
vt 0.31780809 0.99987054
vt 0.37901592 0.99984011
vt 0.4396569 0.99981982
vt 0.49999988 0.99981263
vt 0.56034288 0.99981982
vt 0.62098391 0.99984011
vt 0.68219181 0.99987054
vt 0.7441733 0.99990634
vt 0.80703978 0.9999422
vt 0.87076924 0.99997258
vt 0.93519099 0.99999292
vt 1.274874e-07 1
vt 0.064809239 0.99999292
vt 0.12923113 0.99997263
vt 0.19296031 0.9999422
vt 0.24687043 0.55664805
vt 0.30958607 0.55651857
vt 0.37275477 0.55640881
vt 0.43627943 0.55633554
vt 0.49999997 0.5563097
vt 0.5637205 0.55633554
vt 0.62724518 0.55640881
vt 0.69041391 0.55651857
vt 0.75312934 0.55664798
vt 0.81536904 0.55677741
vt 0.87718178 0.55688717
vt 0.93867578 0.55696049
vt 3.315422e-08 0.55698622
vt 0.061324286 0.55696049
vt 0.12281827 0.55688717
vt 0.18463105 0.55677746
vt 0.24439395 0.38601034
vt 0.30724884 0.38589601
vt 0.37093256 0.38579907
vt 0.43528078 0.38573422
vt 0.49999996 0.38571146
vt 0.56471914 0.38573422
vt 0.62906739 0.38579907
vt 0.69275113 0.38589601
vt 0.75560605 0.38601034
vt 0.81761021 0.38612477
vt 0.87886779 0.38622173
vt 0.9395779 0.38628657
vt 3.6871542e-08 0.38630933
vt 0.060422171 0.38628657
vt 0.12113226 0.38622173
vt 0.18238982 0.38612477
vt 0.2301878 0.00015412714
vt 0.29326833 9.5133237e-05
vt 0.35959804 4.4979661e-05
vt 0.42889011 1.1514142e-05
vt 0.49999992 0
vt 0.57111004 1.1514147e-05
vt 0.64040186 4.497967e-05
vt 0.70673163 9.5133249e-05
vt 0.76981222 0.00015412715
vt 0.82998761 0.00021324823
vt 0.88790867 0.00026333822
vt 0.94432677 0.00029680374
vt 6.5385209e-08 0.00030848451
vt 0.055673354 0.00029680373
vt 0.11209143 0.00026333821
vt 0.17001246 0.00021324822
vt 0.24936773 0.75373001
vt 0.25039455 0.90859958
vt 0.31191434 0.75352109
vt 0.31286353 0.90839063
vt 0.37455068 0.75334397
vt 0.37527764 0.90821347
vt 0.4372565 0.75322556
vt 0.43765001 0.90809512
vt 0.49999998 0.75318403
vt 0.49999998 0.90805359
vt 0.56274346 0.75322556
vt 0.56234995 0.90809513
vt 0.62544929 0.75334397
vt 0.62472233 0.90821347
vt 0.68808565 0.75352109
vt 0.68713645 0.90839063
vt 0.75063227 0.75373001
vt 0.74960542 0.9085996
vt 0.81308248 0.75393892
vt 0.81213448 0.90880855
vt 0.87544487 0.7541161
vt 0.87471956 0.90898564
vt 0.93774047 0.75423449
vt 0.937348 0.90910399
vt 2.0911733e-08 0.754276
vt 2.1090216e-08 0.90914559
vt 0.062259566 0.75423449
vt 0.062652042 0.90910399
vt 0.12455516 0.7541161
vt 0.12528047 0.90898564
vt 0.18691754 0.75393892
vt 0.18786569 0.90880851
vt 0.25015994 0.87320549
vt 0.31090201 0.86240343
vt 0.37261869 0.85324581
vt 0.43577829 0.847127
vt 0.49999998 0.84497826
vt 0.56422167 0.847127
vt 0.62738128 0.85324581
vt 0.68909798 0.86240343
vt 0.74984006 0.87320549
vt 0.81060373 0.88400744
vt 0.87238515 0.89316493
vt 0.9356491 0.89928383
vt 2.1741319e-08 0.90143251
vt 0.06435094 0.89928383
vt 0.12761488 0.89316493
vt 0.18939644 0.8840074
vt 0.31101674 0.85010529
vt 0.37283937 0.84196258
vt 0.43594867 0.83652191
vt 0.49999998 0.8346113
vt 0.56405129 0.83652191
vt 0.6271606 0.84196258
vt 0.68898325 0.85010529
vt 0.74992963 0.85971017
vt 0.81088541 0.86931493
vt 0.87273681 0.87745755
vt 0.93589212 0.88289834
vt 2.1645858e-08 0.88480883
vt 0.06410792 0.88289834
vt 0.12726322 0.87745755
vt 0.18911476 0.86931489
vt 0.25007037 0.85971017
vt 0.25007214 0.85981378
vt 0.25016177 0.87310188
vt 0.18939816 0.88373797
vt 0.12761617 0.89275489
vt 0.064351639 0.89877989
vt 2.2080556e-08 0.90089555
vt 0.9356484 0.89877989
vt 0.87238386 0.89275489
vt 0.81060202 0.883738
vt 0.74983823 0.87310188
vt 0.68909628 0.86246567
vt 0.62738003 0.85344867
vt 0.5642209 0.84742373
vt 0.49999998 0.84530801
vt 0.43577906 0.84742373
vt 0.37261994 0.85344867
vt 0.31090371 0.86246567
vt 0.31101835 0.85035637
vt 0.3728406 0.84233868
vt 0.43594939 0.83698154
vt 0.49999998 0.83510023
vt 0.56405057 0.83698154
vt 0.62715937 0.84233868
vt 0.68898164 0.85035637
vt 0.74992786 0.85981378
vt 0.81088372 0.86927107
vt 0.87273548 0.87728864
vt 0.93589142 0.88264592
vt 2.1983673e-08 0.88452709
vt 0.064108621 0.88264592
vt 0.12726455 0.87728864
vt 0.18911645 0.86927103
vt 0.31127314 0.79561558
vt 0.37349743 0.80040793
vt 0.43647899 0.80361014
vt 0.49999998 0.80473468
vt 0.56352097 0.80361014
vt 0.62650257 0.80040793
vt 0.68872685 0.79561558
vt 0.75040172 0.78996241
vt 0.81201854 0.78430923
vt 0.87407397 0.77951681
vt 0.93679447 0.77631456
vt 2.1791063e-08 0.77518999
vt 0.063205572 0.77631456
vt 0.12592603 0.77951681
vt 0.18798166 0.78430922
vt 0.24959828 0.78996241
vt 0.24966734 0.79975673
vt 0.31123958 0.80332527
vt 0.37340729 0.80635027
vt 0.43640606 0.80837162
vt 0.49999998 0.80908148
vt 0.56359386 0.80837162
vt 0.62659268 0.80635027
vt 0.6887604 0.80332527
vt 0.75033266 0.79975673
vt 0.81185728 0.79618822
vt 0.87388557 0.79316306
vt 0.93666812 0.79114171
vt 2.1681187e-08 0.79043195
vt 0.063331962 0.79114171
vt 0.12611446 0.79316306
vt 0.18814291 0.7961882
vt 0.31122833 0.80298621
vt 0.31126569 0.79571236
vt 0.37339854 0.80591836
vt 0.37349158 0.80039233
vt 0.43640133 0.80787769
vt 0.43647582 0.80351943
vt 0.49999998 0.80856572
vt 0.49999998 0.80461752
vt 0.56359867 0.80787769
vt 0.56352418 0.80351943
vt 0.6266014 0.80591836
vt 0.62650836 0.80039233
vt 0.68877164 0.80298621
vt 0.68873428 0.79571236
vt 0.75034472 0.79952723
vt 0.7504097 0.79019185
vt 0.81186857 0.79606834
vt 0.8120261 0.78467133
vt 0.87389429 0.79313604
vt 0.87407976 0.77999132
vt 0.93667284 0.79117676
vt 0.93679759 0.7768642
vt 2.2366494e-08 0.79048871
vt 2.2313824e-08 0.77576609
vt 0.063327156 0.79117676
vt 0.063202415 0.7768642
vt 0.12610577 0.79313604
vt 0.1259203 0.77999132
vt 0.18813165 0.79606833
vt 0.18797412 0.78467132
vt 0.2495903 0.79019185
vt 0.24965528 0.79952723
vt 0.24980621 0.81950497
vt 0.24994053 0.83996187
vt 0.3110929 0.83462494
vt 0.31116732 0.81866298
vt 0.37302933 0.83010025
vt 0.37321849 0.81794893
vt 0.43610135 0.82707713
vt 0.43625382 0.81747186
vt 0.49999998 0.82601552
vt 0.49999998 0.81730442
vt 0.56389857 0.82707713
vt 0.56374614 0.81747186
vt 0.6269707 0.83010025
vt 0.62678151 0.81794893
vt 0.68890708 0.83462494
vt 0.68883267 0.81866298
vt 0.75005947 0.83996187
vt 0.75019379 0.81950497
vt 0.81120356 0.84529879
vt 0.81152749 0.82034702
vt 0.87311523 0.84982335
vt 0.87349809 0.82106096
vt 0.9361488 0.85284654
vt 0.93640743 0.82153799
vt 2.1157831e-08 0.85390812
vt 2.1169132e-08 0.82170552
vt 0.063851279 0.85284654
vt 0.063592606 0.82153799
vt 0.12688474 0.84982335
vt 0.12650191 0.82106096
vt 0.1887966 0.84529875
vt 0.18847265 0.82034696
vt 0.31160686 0.77462041
vt 0.37403907 0.77697205
vt 0.43687853 0.77854345
vt 0.49999998 0.77909522
vt 0.56312147 0.77854345
vt 0.62596087 0.77697205
vt 0.68839311 0.77462041
vt 0.75050868 0.77184621
vt 0.81254865 0.76907206
vt 0.87476378 0.76672036
vt 0.93727287 0.765149
vt 2.0943364e-08 0.76459714
vt 0.062727129 0.765149
vt 0.12523628 0.76672036
vt 0.18745138 0.76907205
vt 0.24949132 0.77184621
vt 0.25027232 0.89090253
vt 0.31188088 0.88529665
vt 0.37395601 0.88054411
vt 0.43672554 0.8773687
vt 0.49999998 0.87625358
vt 0.56327442 0.8773687
vt 0.62604402 0.88054411
vt 0.68811909 0.88529665
vt 0.74972766 0.89090256
vt 0.81137547 0.89650842
vt 0.87356468 0.90126081
vt 0.9365115 0.9044363
vt 2.1026628e-08 0.90555137
vt 0.063488543 0.9044363
vt 0.12643529 0.90126081
vt 0.1886247 0.89650836
vn 0.1527565 0.64052132 0.75259417
vn 0.1527565 0.64052132 0.75259417
vn 0.1527565 0.64052132 0.75259417
vn 0.1527565 0.64052132 0.75259417
vn 0.1466407 -0.64194796 0.75259495
vn 0.1466407 -0.64194796 0.75259495
vn 0.1466407 -0.64194796 0.75259495
vn 0.1466407 -0.64194796 0.75259495
vn -0.74952736 0.64482416 0.14970154
vn -0.74952736 0.64482416 0.14970154
vn -0.74952736 0.64482416 0.14970154
vn -0.74952736 0.64482416 0.14970154
vn 0.6410676 0.63819333 -0.42631179
vn 0.6410676 0.63819333 -0.42631179
vn 0.6410676 0.63819333 -0.42631179
vn 0.6410676 0.63819333 -0.42631179
vn -0.75564227 -0.63764789 0.14969929
vn -0.75564227 -0.63764789 0.14969929
vn -0.75564227 -0.63764789 0.14969929
vn -0.75564227 -0.63764789 0.14969929
vn 0.63495143 -0.64427767 -0.42631322
vn 0.63495143 -0.64427767 -0.42631322
vn 0.63495143 -0.64427767 -0.42631322
vn 0.63495143 -0.64427767 -0.42631322
vn -0.1466406 0.64194892 -0.75259423
vn -0.1466406 0.64194892 -0.75259423
vn -0.1466406 0.64194892 -0.75259423
vn -0.1466406 0.64194892 -0.75259423
vn 0.42936337 0.63920382 0.63801694
vn 0.42936337 0.63920382 0.63801694
vn 0.42936337 0.63920382 0.63801694
vn 0.42936337 0.63920382 0.63801694
vn -0.15275727 -0.64051902 -0.7525959
vn -0.15275727 -0.64051902 -0.7525959
vn -0.15275727 -0.64051902 -0.7525959
vn -0.15275727 -0.64051902 -0.7525959
vn 0.4232488 -0.64326839 0.63801748
vn 0.4232488 -0.64326839 0.63801748
vn 0.4232488 -0.64326839 0.63801748
vn 0.4232488 -0.64326839 0.63801748
vn -0.63495423 0.64427619 0.42631131
vn -0.63495423 0.64427619 0.42631131
vn -0.63495423 0.64427619 0.42631131
vn -0.63495423 0.64427619 0.42631131
vn 0.42936317 0.63920346 -0.63801736
vn 0.42936317 0.63920346 -0.63801736
vn 0.42936317 0.63920346 -0.63801736
vn 0.42936317 0.63920346 -0.63801736
vn -0.64107008 -0.63819124 0.42631108
vn -0.64107008 -0.63819124 0.42631108
vn -0.64107008 -0.63819124 0.42631108
vn -0.64107008 -0.63819124 0.42631108
vn 0.42324784 -0.64326689 -0.6380195
vn 0.42324784 -0.64326689 -0.6380195
vn 0.42324784 -0.64326689 -0.6380195
vn 0.42324784 -0.64326689 -0.6380195
vn 0.6972274 0.54631494 -0.46412712
vn 0.6972274 0.54631494 -0.46412712
vn 0.6972274 0.54631494 -0.46412712
vn 0.6972274 0.54631494 -0.46412712
vn -0.42324766 0.64326888 -0.63801771
vn -0.42324766 0.64326888 -0.63801771
vn -0.42324766 0.64326888 -0.63801771
vn -0.42324766 0.64326888 -0.63801771
vn 0.64106819 0.6381924 0.426312
vn 0.64106819 0.6381924 0.426312
vn 0.64106819 0.6381924 0.426312
vn 0.64106819 0.6381924 0.426312
vn 0.82193994 -0.1492227 0.54967922
vn 0.82193994 -0.1492227 0.54967922
vn 0.82193994 -0.1492227 0.54967922
vn 0.82193994 -0.1492227 0.54967922
vn -0.37615544 0.92345899 -0.075700328
vn -0.37615544 0.92345899 -0.075700328
vn -0.37615544 0.92345899 -0.075700328
vn -0.37615544 0.92345899 -0.075700328
vn 0.16559986 0.54885096 0.81935304
vn 0.16559986 0.54885096 0.81935304
vn 0.16559986 0.54885096 0.81935304
vn 0.16559986 0.54885096 0.81935304
vn 0.16559921 0.54885087 -0.81935316
vn 0.16559921 0.54885087 -0.81935316
vn 0.16559921 0.54885087 -0.81935316
vn 0.16559921 0.54885087 -0.81935316
vn -0.81672224 0.55353667 -0.16297828
vn -0.81672224 0.55353667 -0.16297828
vn -0.81672224 0.55353667 -0.16297828
vn -0.81672224 0.55353667 -0.16297828
vn 0.6972269 0.5463156 0.46412703
vn 0.6972269 0.5463156 0.46412703
vn 0.6972269 0.5463156 0.46412703
vn 0.6972269 0.5463156 0.46412703
vn -0.69198272 0.55294169 0.46412867
vn -0.69198272 0.55294169 0.46412867
vn -0.69198272 0.55294169 0.46412867
vn -0.69198272 0.55294169 0.46412867
vn -0.16035652 0.55040741 -0.81935191
vn -0.16035652 0.55040741 -0.81935191
vn -0.16035652 0.55040741 -0.81935191
vn -0.16035652 0.55040741 -0.81935191
vn 0.82196457 0.54572158 -0.16297889
vn 0.82196457 0.54572158 -0.16297889
vn 0.82196457 0.54572158 -0.16297889
vn 0.82196457 0.54572158 -0.16297889
vn -0.16035706 0.55040648 0.81935239
vn -0.16035706 0.55040648 0.81935239
vn -0.16035706 0.55040648 0.81935239
vn -0.16035706 0.55040648 0.81935239
vn -0.69198259 0.5529419 -0.46412867
vn -0.69198259 0.5529419 -0.46412867
vn -0.69198259 0.5529419 -0.46412867
vn -0.69198259 0.5529419 -0.46412867
vn 0.46674215 0.54741483 -0.69461405
vn 0.46674215 0.54741483 -0.69461405
vn 0.46674215 0.54741483 -0.69461405
vn 0.46674215 0.54741483 -0.69461405
vn 0.46674174 0.54741502 0.69461423
vn 0.46674174 0.54741502 0.69461423
vn 0.46674174 0.54741502 0.69461423
vn 0.46674174 0.54741502 0.69461423
vn -0.81672224 0.55353667 0.16297828
vn -0.81672224 0.55353667 0.16297828
vn -0.81672224 0.55353667 0.16297828
vn -0.81672224 0.55353667 0.16297828
vn 0.82196474 0.54572141 0.16297899
vn 0.82196474 0.54572141 0.16297899
vn 0.82196474 0.54572141 0.16297899
vn 0.82196474 0.54572141 0.16297899
vn -0.46149932 0.55184389 0.69461256
vn -0.46149932 0.55184389 0.69461256
vn -0.46149932 0.55184389 0.69461256
vn -0.46149932 0.55184389 0.69461256
vn -0.4614991 0.55184209 -0.69461429
vn -0.4614991 0.55184209 -0.69461429
vn -0.4614991 0.55184209 -0.69461429
vn -0.4614991 0.55184209 -0.69461429
vn 0.0047703893 0.99998863 2.0320184e-07
vn 0.0047703893 0.99998863 2.0320184e-07
vn 0.0047703893 0.99998863 2.0320184e-07
vn 0.0047703893 0.99998863 2.0320184e-07
vn 0.0047703893 0.99998863 2.0320184e-07
vn 0.0047703893 0.99998863 2.0320184e-07
vn 0.0047703893 0.99998863 2.0320184e-07
vn 0.0047703893 0.99998863 2.0320184e-07
vn 0.0047703893 0.99998863 2.0320184e-07
vn 0.0047703893 0.99998863 2.0320184e-07
vn 0.0047703893 0.99998863 2.0320184e-07
vn 0.0047703893 0.99998863 2.0320184e-07
vn 0.0047703893 0.99998863 2.0320184e-07
vn 0.0047703893 0.99998863 2.0320184e-07
vn 0.0047703893 0.99998863 2.0320184e-07
vn 0.0047703893 0.99998863 2.0320184e-07
vn 0.32701087 0.92010634 0.21556503
vn 0.32701087 0.92010634 0.21556503
vn 0.32701087 0.92010634 0.21556503
vn 0.32701087 0.92010634 0.21556503
vn -0.31822177 0.92318231 -0.21556741
vn -0.31822177 0.92318231 -0.21556741
vn -0.31822177 0.92318231 -0.21556741
vn -0.31822177 0.92318231 -0.21556741
vn 0.21995976 0.92061562 0.32262146
vn 0.21995976 0.92061562 0.32262146
vn 0.21995976 0.92061562 0.32262146
vn 0.21995976 0.92061562 0.32262146
vn -0.21116706 0.9226739 -0.32261628
vn -0.21116706 0.9226739 -0.32261628
vn -0.21116706 0.9226739 -0.32261628
vn -0.21116706 0.9226739 -0.32261628
vn 0.080091251 0.92128402 0.38055378
vn 0.080091251 0.92128402 0.38055378
vn 0.080091251 0.92128402 0.38055378
vn 0.080091251 0.92128402 0.38055378
vn 0.080090626 0.92128392 -0.38055423
vn 0.080090626 0.92128392 -0.38055423
vn 0.080090626 0.92128392 -0.38055423
vn 0.080090626 0.92128392 -0.38055423
vn -0.071298553 0.92200423 -0.3805584
vn -0.071298553 0.92200423 -0.3805584
vn -0.071298553 0.92200423 -0.3805584
vn -0.071298553 0.92200423 -0.3805584
vn -0.071299893 0.92200422 0.38055819
vn -0.071299893 0.92200422 0.38055819
vn -0.071299893 0.92200422 0.38055819
vn -0.071299893 0.92200422 0.38055819
vn 0.21995976 0.92061562 -0.32262146
vn 0.21995976 0.92061562 -0.32262146
vn 0.21995976 0.92061562 -0.32262146
vn 0.21995976 0.92061562 -0.32262146
vn -0.2111672 0.92267503 0.32261324
vn -0.2111672 0.92267503 0.32261324
vn -0.2111672 0.92267503 0.32261324
vn -0.2111672 0.92267503 0.32261324
vn 0.32701127 0.92010616 -0.21556491
vn 0.32701127 0.92010616 -0.21556491
vn 0.32701127 0.92010616 -0.21556491
vn 0.32701127 0.92010616 -0.21556491
vn -0.31822121 0.92318162 0.215571
vn -0.31822121 0.92318162 0.215571
vn -0.31822121 0.92318162 0.215571
vn -0.31822121 0.92318162 0.215571
vn 0.38494665 0.91982935 -0.075696178
vn 0.38494665 0.91982935 -0.075696178
vn 0.38494665 0.91982935 -0.075696178
vn 0.38494665 0.91982935 -0.075696178
vn -0.37615443 0.92345948 0.075700275
vn -0.37615443 0.92345948 0.075700275
vn -0.37615443 0.92345948 0.075700275
vn -0.37615443 0.92345948 0.075700275
vn 0.38494708 0.91982922 0.075696654
vn 0.38494708 0.91982922 0.075696654
vn 0.38494708 0.91982922 0.075696654
vn 0.38494708 0.91982922 0.075696654
vn 0.19464398 -0.048295536 0.97968423
vn 0.19464398 -0.048295536 0.97968423
vn 0.19464398 -0.048295536 0.97968423
vn 0.19464398 -0.048295536 0.97968423
vn -0.82332931 -0.14137681 0.54967386
vn -0.82332931 -0.14137681 0.54967386
vn -0.82332931 -0.14137681 0.54967386
vn -0.82332931 -0.14137681 0.54967386
vn -0.19371038 -0.14437947 -0.97037655
vn -0.19371038 -0.14437947 -0.97037655
vn -0.19371038 -0.14437947 -0.97037655
vn -0.19371038 -0.14437947 -0.97037655
vn 0.96967232 -0.14992857 -0.19302088
vn 0.96967232 -0.14992857 -0.19302088
vn 0.96967232 -0.14992857 -0.19302088
vn 0.96967232 -0.14992857 -0.19302088
vn -0.19371017 -0.14438021 0.97037661
vn -0.19371017 -0.14438021 0.97037661
vn -0.19371017 -0.14438021 0.97037661
vn -0.19371017 -0.14438021 0.97037661
vn -0.82332947 -0.14137798 -0.54967356
vn -0.82332947 -0.14137798 -0.54967356
vn -0.82332947 -0.14137798 -0.54967356
vn -0.82332947 -0.14137798 -0.54967356
vn 0.54897722 -0.14792297 -0.82264388
vn 0.54897722 -0.14792297 -0.82264388
vn 0.54897722 -0.14792297 -0.82264388
vn 0.54897722 -0.14792297 -0.82264388
vn 0.54897692 -0.14792334 0.822644
vn 0.54897692 -0.14792334 0.822644
vn 0.54897692 -0.14792334 0.822644
vn 0.54897692 -0.14792334 0.822644
vn -0.97105866 -0.14067194 0.19301933
vn -0.97105866 -0.14067194 0.19301933
vn -0.97105866 -0.14067194 0.19301933
vn -0.97105866 -0.14067194 0.19301933
vn 0.96967226 -0.14992889 0.19302066
vn 0.96967226 -0.14992889 0.19302066
vn 0.96967226 -0.14992889 0.19302066
vn 0.96967226 -0.14992889 0.19302066
vn -0.55036052 -0.14267881 0.82264578
vn -0.55036052 -0.14267881 0.82264578
vn -0.55036052 -0.14267881 0.82264578
vn -0.55036052 -0.14267881 0.82264578
vn -0.55035952 -0.14267831 -0.82264656
vn -0.55035952 -0.14267831 -0.82264656
vn -0.55035952 -0.14267831 -0.82264656
vn -0.55035952 -0.14267831 -0.82264656
vn 0.82194017 -0.14922312 -0.5496788
vn 0.82194017 -0.14922312 -0.5496788
vn 0.82194017 -0.14922312 -0.5496788
vn 0.82194017 -0.14922312 -0.5496788
vn 0.19232526 -0.14622132 0.97037649
vn 0.19232526 -0.14622132 0.97037649
vn 0.19232526 -0.14622132 0.97037649
vn 0.19232526 -0.14622132 0.97037649
vn 0.19232518 -0.14622185 -0.97037631
vn 0.19232518 -0.14622185 -0.97037631
vn 0.19232518 -0.14622185 -0.97037631
vn 0.19232518 -0.14622185 -0.97037631
vn -0.97105866 -0.14067194 -0.19301933
vn -0.97105866 -0.14067194 -0.19301933
vn -0.97105866 -0.14067194 -0.19301933
vn -0.97105866 -0.14067194 -0.19301933
vn -0.97824167 -0.072169577 -0.19451155
vn -0.97824167 -0.072169577 -0.19451155
vn -0.97824167 -0.072169577 -0.19451155
vn -0.97824167 -0.072169577 -0.19451155
vn 0.19464387 -0.04829572 -0.97968423
vn 0.19464387 -0.04829572 -0.97968423
vn 0.19464387 -0.04829572 -0.97968423
vn 0.19464387 -0.04829572 -0.97968423
vn -0.19509409 -0.046437795 -0.97968459
vn -0.19509409 -0.046437795 -0.97968459
vn -0.19509409 -0.046437795 -0.97968459
vn -0.19509409 -0.046437795 -0.97968459
vn -0.19509375 -0.046437518 0.97968465
vn -0.19509375 -0.046437518 0.97968465
vn -0.19509375 -0.046437518 0.97968465
vn -0.19509375 -0.046437518 0.97968465
vn 0.55471161 -0.050012856 -0.83053821
vn 0.55471161 -0.050012856 -0.83053821
vn 0.55471161 -0.050012856 -0.83053821
vn 0.55471161 -0.050012856 -0.83053821
vn -0.55516769 -0.044720476 0.83053529
vn -0.55516769 -0.044720476 0.83053529
vn -0.55516769 -0.044720476 0.83053529
vn -0.55516769 -0.044720476 0.83053529
vn 0.83030075 -0.051328349 -0.55494684
vn 0.83030075 -0.051328349 -0.55494684
vn 0.83030075 -0.051328349 -0.55494684
vn 0.83030075 -0.051328349 -0.55494684
vn -0.83075239 -0.043405232 0.55494732
vn -0.83075239 -0.043405232 0.55494732
vn -0.83075239 -0.043405232 0.55494732
vn -0.83075239 -0.043405232 0.55494732
vn 0.97944763 -0.052038655 -0.19487004
vn 0.97944763 -0.052038655 -0.19487004
vn 0.97944763 -0.052038655 -0.19487004
vn 0.97944763 -0.052038655 -0.19487004
vn -0.97989964 -0.042693929 0.19486846
vn -0.97989964 -0.042693929 0.19486846
vn -0.97989964 -0.042693929 0.19486846
vn -0.97989964 -0.042693929 0.19486846
vn 0.9794475 -0.052039098 0.19487008
vn 0.9794475 -0.052039098 0.19487008
vn 0.9794475 -0.052039098 0.19487008
vn 0.9794475 -0.052039098 0.19487008
vn -0.97989971 -0.042694941 -0.19486834
vn -0.97989971 -0.042694941 -0.19486834
vn -0.97989971 -0.042694941 -0.19486834
vn -0.97989971 -0.042694941 -0.19486834
vn 0.83030095 -0.051327671 0.55494672
vn 0.83030095 -0.051327671 0.55494672
vn 0.83030095 -0.051327671 0.55494672
vn 0.83030095 -0.051327671 0.55494672
vn -0.83075223 -0.043404284 -0.55494744
vn -0.83075223 -0.043404284 -0.55494744
vn -0.83075223 -0.043404284 -0.55494744
vn -0.83075223 -0.043404284 -0.55494744
vn 0.55471136 -0.050013422 0.83053833
vn 0.55471136 -0.050013422 0.83053833
vn 0.55471136 -0.050013422 0.83053833
vn 0.55471136 -0.050013422 0.83053833
vn -0.55516722 -0.044719368 -0.83053565
vn -0.55516722 -0.044719368 -0.83053565
vn -0.55516722 -0.044719368 -0.83053565
vn -0.55516722 -0.044719368 -0.83053565
vn -0.0047694287 -0.99998867 -5.9942339e-07
vn -0.0047694287 -0.99998867 -5.9942339e-07
vn -0.0047694287 -0.99998867 -5.9942339e-07
vn -0.0047694287 -0.99998867 -5.9942339e-07
vn -0.0047694287 -0.99998867 -5.9942339e-07
vn -0.0047694287 -0.99998867 -5.9942339e-07
vn -0.0047694287 -0.99998867 -5.9942339e-07
vn -0.0047694287 -0.99998867 -5.9942339e-07
vn -0.0047694287 -0.99998867 -5.9942339e-07
vn -0.0047694287 -0.99998867 -5.9942339e-07
vn -0.0047694287 -0.99998867 -5.9942339e-07
vn -0.0047694287 -0.99998867 -5.9942339e-07
vn -0.0047694287 -0.99998867 -5.9942339e-07
vn -0.0047694287 -0.99998867 -5.9942339e-07
vn -0.0047694287 -0.99998867 -5.9942339e-07
vn -0.0047694287 -0.99998867 -5.9942339e-07
vn 0.82864175 -0.080787171 0.5539189
vn 0.82864175 -0.080787171 0.5539189
vn 0.82864175 -0.080787171 0.5539189
vn 0.82864175 -0.080787171 0.5539189
vn -0.8293692 -0.072879767 -0.55392712
vn -0.8293692 -0.072879767 -0.55392712
vn -0.8293692 -0.072879767 -0.55392712
vn -0.8293692 -0.072879767 -0.55392712
vn 0.55355332 -0.079475421 0.82901287
vn 0.55355332 -0.079475421 0.82901287
vn 0.55355332 -0.079475421 0.82901287
vn 0.55355332 -0.079475421 0.82901287
vn -0.55428483 -0.074192412 -0.82901376
vn -0.55428483 -0.074192412 -0.82901376
vn -0.55428483 -0.074192412 -0.82901376
vn -0.55428483 -0.074192412 -0.82901376
vn 0.19414577 -0.077761692 0.97788572
vn 0.19414577 -0.077761692 0.97788572
vn 0.19414577 -0.077761692 0.97788572
vn 0.19414577 -0.077761692 0.97788572
vn 0.19414577 -0.077761214 -0.97788578
vn 0.19414577 -0.077761214 -0.97788578
vn 0.19414577 -0.077761214 -0.97788578
vn 0.19414577 -0.077761214 -0.97788578
vn -0.19487708 -0.075907423 -0.97788596
vn -0.19487708 -0.075907423 -0.97788596
vn -0.19487708 -0.075907423 -0.97788596
vn -0.19487708 -0.075907423 -0.97788596
vn -0.19487665 -0.075906692 0.97788608
vn -0.19487665 -0.075906692 0.97788608
vn -0.19487665 -0.075906692 0.97788608
vn -0.19487665 -0.075906692 0.97788608
vn 0.55355328 -0.079474923 -0.82901287
vn 0.55355328 -0.079474923 -0.82901287
vn 0.55355328 -0.079474923 -0.82901287
vn 0.55355328 -0.079474923 -0.82901287
vn -0.55428497 -0.074192251 0.82901365
vn -0.55428497 -0.074192251 0.82901365
vn -0.55428497 -0.074192251 0.82901365
vn -0.55428497 -0.074192251 0.82901365
vn 0.82864203 -0.080788294 -0.55391842
vn 0.82864203 -0.080788294 -0.55391842
vn 0.82864203 -0.080788294 -0.55391842
vn 0.82864203 -0.080788294 -0.55391842
vn -0.82936923 -0.072880165 0.55392694
vn -0.82936923 -0.072880165 0.55392694
vn -0.82936923 -0.072880165 0.55392694
vn -0.82936923 -0.072880165 0.55392694
vn 0.97750923 -0.081497156 -0.19450925
vn 0.97750923 -0.081497156 -0.19450925
vn 0.97750923 -0.081497156 -0.19450925
vn 0.97750923 -0.081497156 -0.19450925
vn -0.97824152 -0.072170928 0.19451134
vn -0.97824152 -0.072170928 0.19451134
vn -0.97824152 -0.072170928 0.19451134
vn -0.97824152 -0.072170928 0.19451134
vn 0.97750938 -0.081497035 0.19450894
vn 0.97750938 -0.081497035 0.19450894
vn 0.97750938 -0.081497035 0.19450894
vn 0.97750938 -0.081497035 0.19450894
vn 0.20168687 0.094147822 -0.97491467
vn 0.20168687 0.094147822 -0.97491467
vn 0.20168687 0.094147822 -0.97491467
vn 0.20168687 0.094147822 -0.97491467
vn 0.56025095 0.055781691 -0.8264426
vn 0.56025095 0.055781691 -0.8264426
vn 0.56025095 0.055781691 -0.8264426
vn 0.56025095 0.055781691 -0.8264426
vn 0.83371655 0.024694214 -0.55164039
vn 0.83371655 0.024694214 -0.55164039
vn 0.83371655 0.024694214 -0.55164039
vn 0.83371655 0.024694214 -0.55164039
vn 0.98106731 0.0074941651 -0.19352178
vn 0.98106731 0.0074941651 -0.19352178
vn 0.98106731 0.0074941651 -0.19352178
vn 0.98106731 0.0074941651 -0.19352178
vn 0.9810669 0.0074937206 0.19352442
vn 0.9810669 0.0074937206 0.19352442
vn 0.9810669 0.0074937206 0.19352442
vn 0.9810669 0.0074937206 0.19352442
vn 0.83371686 0.024694266 0.5516398
vn 0.83371686 0.024694266 0.5516398
vn 0.83371686 0.024694266 0.5516398
vn 0.83371686 0.024694266 0.5516398
vn 0.56024994 0.055780672 0.82644325
vn 0.56024994 0.055780672 0.82644325
vn 0.56024994 0.055780672 0.82644325
vn 0.56024994 0.055780672 0.82644325
vn 0.20168929 0.094150165 0.9749139
vn 0.20168929 0.094150165 0.9749139
vn 0.20168929 0.094150165 0.9749139
vn 0.20168929 0.094150165 0.9749139
vn -0.18660279 0.13001505 0.97379428
vn -0.18660279 0.13001505 0.97379428
vn -0.18660279 0.13001505 0.97379428
vn -0.18660279 0.13001505 0.97379428
vn -0.54536898 0.15021201 0.82462662
vn -0.54536898 0.15021201 0.82462662
vn -0.54536898 0.15021201 0.82462662
vn -0.54536898 0.15021201 0.82462662
vn -0.8226219 0.13851805 0.551458
vn -0.8226219 0.13851805 0.551458
vn -0.8226219 0.13851805 0.551458
vn -0.8226219 0.13851805 0.551458
vn -0.97625997 0.096460985 0.19393751
vn -0.97625997 0.096460985 0.19393751
vn -0.97625997 0.096460985 0.19393751
vn -0.97625997 0.096460985 0.19393751
vn -0.97625985 0.09646242 -0.19393751
vn -0.97625985 0.09646242 -0.19393751
vn -0.97625985 0.09646242 -0.19393751
vn -0.97625985 0.09646242 -0.19393751
vn -0.82262382 0.13852334 -0.55145389
vn -0.82262382 0.13852334 -0.55145389
vn -0.82262382 0.13852334 -0.55145389
vn -0.82262382 0.13852334 -0.55145389
vn -0.54537168 0.15021138 -0.82462496
vn -0.54537168 0.15021138 -0.82462496
vn -0.54537168 0.15021138 -0.82462496
vn -0.54537168 0.15021138 -0.82462496
vn -0.18660515 0.13001281 -0.97379428
vn -0.18660515 0.13001281 -0.97379428
vn -0.18660515 0.13001281 -0.97379428
vn -0.18660515 0.13001281 -0.97379428
vn 0.74952604 -0.64482697 -0.14969634
vn 0.74952604 -0.64482697 -0.14969634
vn 0.74952604 -0.64482697 -0.14969634
vn 0.74952604 -0.64482697 -0.14969634
vn -0.75564289 -0.6376473 -0.14969924
vn -0.75564289 -0.6376473 -0.14969924
vn -0.75564289 -0.6376473 -0.14969924
vn -0.75564289 -0.6376473 -0.14969924
vn 0.75564238 0.63764762 -0.14970027
vn 0.75564238 0.63764762 -0.14970027
vn 0.75564238 0.63764762 -0.14970027
vn 0.75564238 0.63764762 -0.14970027
vn -0.74952736 0.64482416 -0.14970154
vn -0.74952736 0.64482416 -0.14970154
vn -0.74952736 0.64482416 -0.14970154
vn -0.74952736 0.64482416 -0.14970154
vn -0.15275646 -0.64051938 0.75259578
vn -0.15275646 -0.64051938 0.75259578
vn -0.15275646 -0.64051938 0.75259578
vn -0.15275646 -0.64051938 0.75259578
vn -0.1466397 0.6419506 0.75259298
vn -0.1466397 0.6419506 0.75259298
vn -0.1466397 0.6419506 0.75259298
vn -0.1466397 0.6419506 0.75259298
vn 0.74952604 -0.64482697 0.14969634
vn 0.74952604 -0.64482697 0.14969634
vn 0.74952604 -0.64482697 0.14969634
vn 0.74952604 -0.64482697 0.14969634
vn -0.64106954 -0.63819101 -0.42631218
vn -0.64106954 -0.63819101 -0.42631218
vn -0.64106954 -0.63819101 -0.42631218
vn -0.64106954 -0.63819101 -0.42631218
vn 0.14664059 -0.64195024 -0.75259316
vn 0.14664059 -0.64195024 -0.75259316
vn 0.14664059 -0.64195024 -0.75259316
vn 0.14664059 -0.64195024 -0.75259316
vn 0.75564238 0.63764762 0.14969982
vn 0.75564238 0.63764762 0.14969982
vn 0.75564238 0.63764762 0.14969982
vn 0.75564238 0.63764762 0.14969982
vn -0.63495372 0.64427566 -0.42631274
vn -0.63495372 0.64427566 -0.42631274
vn -0.63495372 0.64427566 -0.42631274
vn -0.63495372 0.64427566 -0.42631274
vn 0.15275704 0.64052211 -0.75259322
vn 0.15275704 0.64052211 -0.75259322
vn 0.15275704 0.64052211 -0.75259322
vn 0.15275704 0.64052211 -0.75259322
vn -0.4293631 -0.63920182 0.63801903
vn -0.4293631 -0.63920182 0.63801903
vn -0.4293631 -0.63920182 0.63801903
vn -0.4293631 -0.63920182 0.63801903
vn -0.42324818 0.64326895 0.63801724
vn -0.42324818 0.64326895 0.63801724
vn -0.42324818 0.64326895 0.63801724
vn -0.42324818 0.64326895 0.63801724
vn 0.63495143 -0.64427767 0.42631322
vn 0.63495143 -0.64427767 0.42631322
vn 0.63495143 -0.64427767 0.42631322
vn 0.63495143 -0.64427767 0.42631322
vn -0.42936215 -0.63920023 -0.63802147
vn -0.42936215 -0.63920023 -0.63802147
vn -0.42936215 -0.63920023 -0.63802147
vn -0.42936215 -0.63920023 -0.63802147
vn -0.30087336 -0.95359835 0.011198377
vn -0.30087336 -0.95359835 0.011198377
vn -0.30087336 -0.95359835 0.011198377
vn -0.30087336 -0.95359835 0.011198377
vn 0.16266247 0.98661383 -0.011582538
vn 0.16266247 0.98661383 -0.011582538
vn 0.16266247 0.98661383 -0.011582538
vn 0.16266247 0.98661383 -0.011582538
vn -0.30087336 -0.95359835 -0.011201474
vn -0.30087336 -0.95359835 -0.011201474
vn -0.30087336 -0.95359835 -0.011201474
vn -0.30087336 -0.95359835 -0.011201474
vn 0.16266128 0.98661394 0.01158257
vn 0.16266128 0.98661394 0.01158257
vn 0.16266128 0.98661394 0.01158257
vn 0.16266128 0.98661394 0.01158257
vn -0.29266993 -0.95567881 -0.031975165
vn -0.29266993 -0.95567881 -0.031975165
vn -0.29266993 -0.95567881 -0.031975165
vn -0.29266993 -0.95567881 -0.031975165
vn 0.17145382 0.98464265 0.032898851
vn 0.17145382 0.98464265 0.032898851
vn 0.17145382 0.98464265 0.032898851
vn 0.17145382 0.98464265 0.032898851
vn -0.23524283 -0.97024517 -0.057315241
vn -0.23524283 -0.97024517 -0.057315241
vn -0.23524283 -0.97024517 -0.057315241
vn -0.23524283 -0.97024517 -0.057315241
vn -0.27739957 -0.95955305 -0.04803491
vn -0.27739957 -0.95955305 -0.04803491
vn -0.27739957 -0.95955305 -0.04803491
vn -0.27739957 -0.95955305 -0.04803491
vn 0.18753296 0.98103129 0.049081851
vn 0.18753296 0.98103129 0.049081851
vn 0.18753296 0.98103129 0.049081851
vn 0.18753296 0.98103129 0.049081851
vn -0.21467156 -0.97546508 -0.04882722
vn -0.21467156 -0.97546508 -0.04882722
vn -0.21467156 -0.97546508 -0.04882722
vn -0.21467156 -0.97546508 -0.04882722
vn -0.25725644 -0.9646625 -0.056968868
vn -0.25725644 -0.9646625 -0.056968868
vn -0.25725644 -0.9646625 -0.056968868
vn -0.25725644 -0.9646625 -0.056968868
vn 0.20841293 0.97633901 0.057673402
vn 0.20841293 0.97633901 0.057673402
vn 0.20841293 0.97633901 0.057673402
vn 0.20841293 0.97633901 0.057673402
vn -0.19877402 -0.9794978 -0.032755535
vn -0.19877402 -0.9794978 -0.032755535
vn -0.19877402 -0.9794978 -0.032755535
vn -0.19877402 -0.9794978 -0.032755535
vn 0.23079933 0.97130927 0.057357218
vn 0.23079933 0.97130927 0.057357218
vn 0.23079933 0.97130927 0.057357218
vn 0.23079933 0.97130927 0.057357218
vn -0.19011219 -0.98169464 -0.011537935
vn -0.19011219 -0.98169464 -0.011537935
vn -0.19011219 -0.98169464 -0.011537935
vn -0.19011219 -0.98169464 -0.011537935
vn 0.25126788 0.96670648 0.048404965
vn 0.25126788 0.96670648 0.048404965
vn 0.25126788 0.96670648 0.048404965
vn 0.25126788 0.96670648 0.048404965
vn 0.21773679 0.11442853 -0.96927637
vn 0.21773679 0.11442853 -0.96927637
vn 0.21773679 0.11442853 -0.96927637
vn 0.21773679 0.11442853 -0.96927637
vn 0.57677356 0.15113163 -0.80280215
vn 0.57677356 0.15113163 -0.80280215
vn 0.57677356 0.15113163 -0.80280215
vn 0.57677356 0.15113163 -0.80280215
vn 0.83106519 0.20186228 -0.51824933
vn 0.83106519 0.20186228 -0.51824933
vn 0.83106519 0.20186228 -0.51824933
vn 0.83106519 0.20186228 -0.51824933
vn 0.95349207 0.24428248 -0.17657562
vn 0.95349207 0.24428248 -0.17657562
vn 0.95349207 0.24428248 -0.17657562
vn 0.95349207 0.24428248 -0.17657562
vn 0.95349218 0.24428241 0.17657547
vn 0.95349218 0.24428241 0.17657547
vn 0.95349218 0.24428241 0.17657547
vn 0.95349218 0.24428241 0.17657547
vn 0.83106515 0.201867 0.51824731
vn 0.83106515 0.201867 0.51824731
vn 0.83106515 0.201867 0.51824731
vn 0.83106515 0.201867 0.51824731
vn 0.57677181 0.15113169 0.80280346
vn 0.57677181 0.15113169 0.80280346
vn 0.57677181 0.15113169 0.80280346
vn 0.57677181 0.15113169 0.80280346
vn 0.21773482 0.11442605 0.96927714
vn 0.21773482 0.11442605 0.96927714
vn 0.21773482 0.11442605 0.96927714
vn 0.21773482 0.11442605 0.96927714
vn -0.18346337 0.093953503 0.97852635
vn -0.18346337 0.093953503 0.97852635
vn -0.18346337 0.093953503 0.97852635
vn -0.18346337 0.093953503 0.97852635
vn -0.55350441 0.084624749 0.8285358
vn -0.55350441 0.084624749 0.8285358
vn -0.55350441 0.084624749 0.8285358
vn -0.55350441 0.084624749 0.8285358
vn -0.83105579 0.081242325 0.55022359
vn -0.83105579 0.081242325 0.55022359
vn -0.83105579 0.081242325 0.55022359
vn -0.83105579 0.081242325 0.55022359
vn -0.97804912 0.080356642 0.19225699
vn -0.97804912 0.080356642 0.19225699
vn -0.97804912 0.080356642 0.19225699
vn -0.97804912 0.080356642 0.19225699
vn -0.97804909 0.080357362 -0.19225672
vn -0.97804909 0.080357362 -0.19225672
vn -0.97804909 0.080357362 -0.19225672
vn -0.97804909 0.080357362 -0.19225672
vn -0.83105467 0.081240726 -0.5502255
vn -0.83105467 0.081240726 -0.5502255
vn -0.83105467 0.081240726 -0.5502255
vn -0.83105467 0.081240726 -0.5502255
vn -0.55350345 0.084624034 -0.82853645
vn -0.55350345 0.084624034 -0.82853645
vn -0.55350345 0.084624034 -0.82853645
vn -0.55350345 0.084624034 -0.82853645
vn -0.18346302 0.093953833 -0.97852647
vn -0.18346302 0.093953833 -0.97852647
vn -0.18346302 0.093953833 -0.97852647
vn -0.18346302 0.093953833 -0.97852647
vn -0.20025862 0.0019985585 -0.97974092
vn -0.20025862 0.0019985585 -0.97974092
vn -0.20025862 0.0019985585 -0.97974092
vn -0.20025862 0.0019985585 -0.97974092
vn -0.56520464 0.010486264 -0.82488418
vn -0.56520464 0.010486264 -0.82488418
vn -0.56520464 0.010486264 -0.82488418
vn -0.56520464 0.010486264 -0.82488418
vn -0.83732036 0.020359791 -0.54633325
vn -0.83732036 0.020359791 -0.54633325
vn -0.83732036 0.020359791 -0.54633325
vn -0.83732036 0.020359791 -0.54633325
vn -0.98127891 0.026679121 -0.19073538
vn -0.98127891 0.026679121 -0.19073538
vn -0.98127891 0.026679121 -0.19073538
vn -0.98127891 0.026679121 -0.19073538
vn -0.98127891 0.026679121 0.19073538
vn -0.98127891 0.026679121 0.19073538
vn -0.98127891 0.026679121 0.19073538
vn -0.98127891 0.026679121 0.19073538
vn -0.83732023 0.020360689 0.54633355
vn -0.83732023 0.020360689 0.54633355
vn -0.83732023 0.020360689 0.54633355
vn -0.83732023 0.020360689 0.54633355
vn -0.5652089 0.01048872 0.82488108
vn -0.5652089 0.01048872 0.82488108
vn -0.5652089 0.01048872 0.82488108
vn -0.5652089 0.01048872 0.82488108
vn -0.20025754 0.0020011792 0.97974128
vn -0.20025754 0.0020011792 0.97974128
vn -0.20025754 0.0020011792 0.97974128
vn -0.20025754 0.0020011792 0.97974128
vn 0.20076215 0.0001886766 0.97964007
vn 0.20076215 0.0001886766 0.97964007
vn 0.20076215 0.0001886766 0.97964007
vn 0.20076215 0.0001886766 0.97964007
vn 0.56813656 0.0073865223 0.82290119
vn 0.56813656 0.0073865223 0.82290119
vn 0.56813656 0.0073865223 0.82290119
vn 0.56813656 0.0073865223 0.82290119
vn 0.84019916 0.020068387 0.5419066
vn 0.84019916 0.020068387 0.5419066
vn 0.84019916 0.020068387 0.5419066
vn 0.84019916 0.020068387 0.5419066
vn 0.9816769 0.029949627 0.18818445
vn 0.9816769 0.029949627 0.18818445
vn 0.9816769 0.029949627 0.18818445
vn 0.9816769 0.029949627 0.18818445
vn 0.98167697 0.029949166 -0.18818451
vn 0.98167697 0.029949166 -0.18818451
vn 0.98167697 0.029949166 -0.18818451
vn 0.98167697 0.029949166 -0.18818451
vn 0.84019896 0.02006795 -0.54190665
vn 0.84019896 0.02006795 -0.54190665
vn 0.84019896 0.02006795 -0.54190665
vn 0.84019896 0.02006795 -0.54190665
vn 0.56813531 0.007385684 -0.82290202
vn 0.56813531 0.007385684 -0.82290202
vn 0.56813531 0.007385684 -0.82290202
vn 0.56813531 0.007385684 -0.82290202
vn 0.20075951 0.00018626967 -0.97964048
vn 0.20075951 0.00018626967 -0.97964048
vn 0.20075951 0.00018626967 -0.97964048
vn 0.20075951 0.00018626967 -0.97964048
vn 0.17145849 0.98464194 -0.032898464
vn 0.17145849 0.98464194 -0.032898464
vn 0.17145849 0.98464194 -0.032898464
vn 0.17145849 0.98464194 -0.032898464
vn -0.2926669 -0.95567963 0.031975545
vn -0.2926669 -0.95567963 0.031975545
vn -0.2926669 -0.95567963 0.031975545
vn -0.2926669 -0.95567963 0.031975545
vn 0.23079737 0.97130985 -0.057356425
vn 0.23079737 0.97130985 -0.057356425
vn 0.23079737 0.97130985 -0.057356425
vn 0.23079737 0.97130985 -0.057356425
vn 0.18752851 0.98103208 -0.049082432
vn 0.18752851 0.98103208 -0.049082432
vn 0.18752851 0.98103208 -0.049082432
vn 0.18752851 0.98103208 -0.049082432
vn -0.27740281 -0.95955218 0.048034337
vn -0.27740281 -0.95955218 0.048034337
vn -0.27740281 -0.95955218 0.048034337
vn -0.27740281 -0.95955218 0.048034337
vn 0.25126073 0.96670823 -0.048406121
vn 0.25126073 0.96670823 -0.048406121
vn 0.25126073 0.96670823 -0.048406121
vn 0.25126073 0.96670823 -0.048406121
vn 0.20843401 0.97633616 -0.057644788
vn 0.20843401 0.97633616 -0.057644788
vn 0.20843401 0.97633616 -0.057644788
vn 0.20843401 0.97633616 -0.057644788
vn -0.25725907 -0.96466319 0.056944669
vn -0.25725907 -0.96466319 0.056944669
vn -0.25725907 -0.96466319 0.056944669
vn -0.25725907 -0.96466319 0.056944669
vn 0.26682756 0.96320547 -0.032222387
vn 0.26682756 0.96320547 -0.032222387
vn 0.26682756 0.96320547 -0.032222387
vn 0.26682756 0.96320547 -0.032222387
vn -0.23522674 -0.97024901 0.057318732
vn -0.23522674 -0.97024901 0.057318732
vn -0.23522674 -0.97024901 0.057318732
vn -0.23522674 -0.97024901 0.057318732
vn 0.27517217 0.96132856 -0.011294884
vn 0.27517217 0.96132856 -0.011294884
vn 0.27517217 0.96132856 -0.011294884
vn 0.27517217 0.96132856 -0.011294884
vn -0.21467156 -0.97546508 0.04882722
vn -0.21467156 -0.97546508 0.04882722
vn -0.21467156 -0.97546508 0.04882722
vn -0.21467156 -0.97546508 0.04882722
vn 0.27517298 0.96132834 0.01129485
vn 0.27517298 0.96132834 0.01129485
vn 0.27517298 0.96132834 0.01129485
vn 0.27517298 0.96132834 0.01129485
vn -0.19875801 -0.97950102 0.032755781
vn -0.19875801 -0.97950102 0.032755781
vn -0.19875801 -0.97950102 0.032755781
vn -0.19875801 -0.97950102 0.032755781
vn 0.26681602 0.96320867 0.032222274
vn 0.26681602 0.96320867 0.032222274
vn 0.26681602 0.96320867 0.032222274
vn 0.26681602 0.96320867 0.032222274
vn -0.19011329 -0.98169438 0.011531526
vn -0.19011329 -0.98169438 0.011531526
vn -0.19011329 -0.98169438 0.011531526
vn -0.19011329 -0.98169438 0.011531526
vn -0.21239773 0.20633994 -0.95514977
vn -0.21239773 0.20633994 -0.95514977
vn -0.21239773 0.20633994 -0.95514977
vn -0.21239773 0.20633994 -0.95514977
vn -0.55804382 0.26000277 -0.78802651
vn -0.55804382 0.26000277 -0.78802651
vn -0.55804382 0.26000277 -0.78802651
vn -0.55804382 0.26000277 -0.78802651
vn -0.79879636 0.32429078 -0.50671494
vn -0.79879636 0.32429078 -0.50671494
vn -0.79879636 0.32429078 -0.50671494
vn -0.79879636 0.32429078 -0.50671494
vn -0.9128964 0.3699976 -0.17240089
vn -0.9128964 0.3699976 -0.17240089
vn -0.9128964 0.3699976 -0.17240089
vn -0.9128964 0.3699976 -0.17240089
vn -0.9128964 0.36999772 0.17240053
vn -0.9128964 0.36999772 0.17240053
vn -0.9128964 0.36999772 0.17240053
vn -0.9128964 0.36999772 0.17240053
vn -0.79879569 0.32428744 0.5067181
vn -0.79879569 0.32428744 0.5067181
vn -0.79879569 0.32428744 0.5067181
vn -0.79879569 0.32428744 0.5067181
vn -0.55804253 0.25999805 0.7880289
vn -0.55804253 0.25999805 0.7880289
vn -0.55804253 0.25999805 0.7880289
vn -0.55804253 0.25999805 0.7880289
vn -0.21239698 0.2063395 0.95515001
vn -0.21239698 0.2063395 0.95515001
vn -0.21239698 0.2063395 0.95515001
vn -0.21239698 0.2063395 0.95515001
vn 0.1776419 0.17505951 0.96839941
vn 0.1776419 0.17505951 0.96839941
vn 0.1776419 0.17505951 0.96839941
vn 0.1776419 0.17505951 0.96839941
vn 0.54144026 0.16276508 0.82483333
vn 0.54144026 0.16276508 0.82483333
vn 0.54144026 0.16276508 0.82483333
vn 0.54144026 0.16276508 0.82483333
vn 0.81865539 0.16089375 0.55128622
vn 0.81865539 0.16089375 0.55128622
vn 0.81865539 0.16089375 0.55128622
vn 0.81865539 0.16089375 0.55128622
vn 0.96765008 0.1619769 0.19343418
vn 0.96765008 0.1619769 0.19343418
vn 0.96765008 0.1619769 0.19343418
vn 0.96765008 0.1619769 0.19343418
vn 0.96764972 0.16197712 -0.19343586
vn 0.96764972 0.16197712 -0.19343586
vn 0.96764972 0.16197712 -0.19343586
vn 0.96764972 0.16197712 -0.19343586
vn 0.81865608 0.16089465 -0.55128515
vn 0.81865608 0.16089465 -0.55128515
vn 0.81865608 0.16089465 -0.55128515
vn 0.81865608 0.16089465 -0.55128515
vn 0.54144044 0.16276844 -0.82483244
vn 0.54144044 0.16276844 -0.82483244
vn 0.54144044 0.16276844 -0.82483244
vn 0.54144044 0.16276844 -0.82483244
vn 0.17764253 0.17506189 -0.96839893
vn 0.17764253 0.17506189 -0.96839893
vn 0.17764253 0.17506189 -0.96839893
vn 0.17764253 0.17506189 -0.96839893
vn -0.05872478 0.99705042 0.049416177
vn -0.05872478 0.99705042 0.049416177
vn -0.05872478 0.99705042 0.049416177
vn -0.05872478 0.99705042 0.049416177
vn 0.016713941 -0.99977323 0.013200396
vn 0.016713941 -0.99977323 0.013200396
vn 0.016713941 -0.99977323 0.013200396
vn 0.016713941 -0.99977323 0.013200396
vn -0.083406422 0.99378869 0.073671579
vn -0.083406422 0.99378869 0.073671579
vn -0.083406422 0.99378869 0.073671579
vn -0.083406422 0.99378869 0.073671579
vn 0.016713012 -0.99977315 -0.013203709
vn 0.016713012 -0.99977315 -0.013203709
vn 0.016713012 -0.99977315 -0.013203709
vn 0.016713012 -0.99977315 -0.013203709
vn -0.11534639 0.9895498 0.086523317
vn -0.11534639 0.9895498 0.086523317
vn -0.11534639 0.9895498 0.086523317
vn -0.11534639 0.9895498 0.086523317
vn 0.02697947 -0.99893024 -0.03755486
vn 0.02697947 -0.99893024 -0.03755486
vn 0.02697947 -0.99893024 -0.03755486
vn 0.02697947 -0.99893024 -0.03755486
vn -0.14962687 0.98497968 0.086178899
vn -0.14962687 0.98497968 0.086178899
vn -0.14962687 0.98497968 0.086178899
vn -0.14962687 0.98497968 0.086178899
vn 0.09700704 -0.9930991 -0.065907687
vn 0.09700704 -0.9930991 -0.065907687
vn 0.09700704 -0.9930991 -0.065907687
vn 0.09700704 -0.9930991 -0.065907687
vn 0.045887634 -0.99736946 -0.056111879
vn 0.045887634 -0.99736946 -0.056111879
vn 0.045887634 -0.99736946 -0.056111879
vn 0.045887634 -0.99736946 -0.056111879
vn -0.18098402 0.98079474 0.07270845
vn -0.18098402 0.98079474 0.07270845
vn -0.18098402 0.98079474 0.07270845
vn -0.18098402 0.98079474 0.07270845
vn 0.12139344 -0.99103622 -0.055776357
vn 0.12139344 -0.99103622 -0.055776357
vn 0.12139344 -0.99103622 -0.055776357
vn 0.12139344 -0.99103622 -0.055776357
vn 0.07049068 -0.99532064 -0.066090293
vn 0.07049068 -0.99532064 -0.066090293
vn 0.07049068 -0.99532064 -0.066090293
vn 0.07049068 -0.99532064 -0.066090293
vn -0.20479162 0.97760727 0.048417792
vn -0.20479162 0.97760727 0.048417792
vn -0.20479162 0.97760727 0.048417792
vn -0.20479162 0.97760727 0.048417792
vn 0.13997706 -0.98945601 -0.037191085
vn 0.13997706 -0.98945601 -0.037191085
vn 0.13997706 -0.98945601 -0.037191085
vn 0.13997706 -0.98945601 -0.037191085
vn -0.21764486 0.97588036 0.016978836
vn -0.21764486 0.97588036 0.016978836
vn -0.21764486 0.97588036 0.016978836
vn -0.21764486 0.97588036 0.016978836
vn 0.15000353 -0.98859942 -0.013048004
vn 0.15000353 -0.98859942 -0.013048004
vn 0.15000353 -0.98859942 -0.013048004
vn 0.15000353 -0.98859942 -0.013048004
vn -0.19829809 0.0015446178 -0.98014057
vn -0.19829809 0.0015446178 -0.98014057
vn -0.19829809 0.0015446178 -0.98014057
vn -0.19829809 0.0015446178 -0.98014057
vn -0.56225697 0.0067428736 -0.82693511
vn -0.56225697 0.0067428736 -0.82693511
vn -0.56225697 0.0067428736 -0.82693511
vn -0.56225697 0.0067428736 -0.82693511
vn -0.83591037 0.012056769 -0.54873365
vn -0.83591037 0.012056769 -0.54873365
vn -0.83591037 0.012056769 -0.54873365
vn -0.83591037 0.012056769 -0.54873365
vn -0.9813258 0.015245594 -0.19174795
vn -0.9813258 0.015245594 -0.19174795
vn -0.9813258 0.015245594 -0.19174795
vn -0.9813258 0.015245594 -0.19174795
vn -0.9813258 0.015245247 0.1917479
vn -0.9813258 0.015245247 0.1917479
vn -0.9813258 0.015245247 0.1917479
vn -0.9813258 0.015245247 0.1917479
vn -0.83590936 0.012055796 0.54873508
vn -0.83590936 0.012055796 0.54873508
vn -0.83590936 0.012055796 0.54873508
vn -0.83590936 0.012055796 0.54873508
vn -0.56225816 0.0067381095 0.8269344
vn -0.56225816 0.0067381095 0.8269344
vn -0.56225816 0.0067381095 0.8269344
vn -0.56225816 0.0067381095 0.8269344
vn -0.19830192 0.0015409601 0.98013979
vn -0.19830192 0.0015409601 0.98013979
vn -0.19830192 0.0015409601 0.98013979
vn -0.19830192 0.0015409601 0.98013979
vn 0.19815946 -0.00020210682 0.98016971
vn 0.19815946 -0.00020210682 0.98016971
vn 0.19815946 -0.00020210682 0.98016971
vn 0.19815946 -0.00020210682 0.98016971
vn 0.5613766 0.005088232 0.82754487
vn 0.5613766 0.005088232 0.82754487
vn 0.5613766 0.005088232 0.82754487
vn 0.5613766 0.005088232 0.82754487
vn 0.83482204 0.018392756 0.55021256
vn 0.83482204 0.018392756 0.55021256
vn 0.83482204 0.018392756 0.55021256
vn 0.83482204 0.018392756 0.55021256
vn 0.9807386 0.032225608 0.19264826
vn 0.9807386 0.032225608 0.19264826
vn 0.9807386 0.032225608 0.19264826
vn 0.9807386 0.032225608 0.19264826
vn 0.98073859 0.032227295 -0.19264805
vn 0.98073859 0.032227295 -0.19264805
vn 0.98073859 0.032227295 -0.19264805
vn 0.98073859 0.032227295 -0.19264805
vn 0.83482318 0.018393243 -0.55021083
vn 0.83482318 0.018393243 -0.55021083
vn 0.83482318 0.018393243 -0.55021083
vn 0.83482318 0.018393243 -0.55021083
vn 0.56137689 0.0050889947 -0.82754463
vn 0.56137689 0.0050889947 -0.82754463
vn 0.56137689 0.0050889947 -0.82754463
vn 0.56137689 0.0050889947 -0.82754463
vn 0.19815811 -0.00019918963 -0.98017013
vn 0.19815811 -0.00019918963 -0.98017013
vn 0.19815811 -0.00019918963 -0.98017013
vn 0.19815811 -0.00019918963 -0.98017013
vn 0.02697947 -0.99893024 0.03755486
vn 0.02697947 -0.99893024 0.03755486
vn 0.02697947 -0.99893024 0.03755486
vn 0.02697947 -0.99893024 0.03755486
vn -0.045330733 0.99882085 0.017379509
vn -0.045330733 0.99882085 0.017379509
vn -0.045330733 0.99882085 0.017379509
vn -0.045330733 0.99882085 0.017379509
vn 0.045887964 -0.99737085 0.056086708
vn 0.045887964 -0.99737085 0.056086708
vn 0.045887964 -0.99737085 0.056086708
vn 0.045887964 -0.99737085 0.056086708
vn -0.045333197 0.99882083 -0.017379575
vn -0.045333197 0.99882083 -0.017379575
vn -0.045333197 0.99882083 -0.017379575
vn -0.045333197 0.99882083 -0.017379575
vn 0.070489747 -0.99532419 0.066036955
vn 0.070489747 -0.99532419 0.066036955
vn 0.070489747 -0.99532419 0.066036955
vn 0.070489747 -0.99532419 0.066036955
vn -0.05872478 0.99705042 -0.049416177
vn -0.05872478 0.99705042 -0.049416177
vn -0.05872478 0.99705042 -0.049416177
vn -0.05872478 0.99705042 -0.049416177
vn 0.097009661 -0.99309883 0.065907553
vn 0.097009661 -0.99309883 0.065907553
vn 0.097009661 -0.99309883 0.065907553
vn 0.097009661 -0.99309883 0.065907553
vn -0.14961854 0.98498399 -0.086144135
vn -0.14961854 0.98498399 -0.086144135
vn -0.14961854 0.98498399 -0.086144135
vn -0.14961854 0.98498399 -0.086144135
vn -0.083397561 0.99378931 -0.073672854
vn -0.083397561 0.99378931 -0.073672854
vn -0.083397561 0.99378931 -0.073672854
vn -0.083397561 0.99378931 -0.073672854
vn 0.12139033 -0.99103661 0.055775553
vn 0.12139033 -0.99103661 0.055775553
vn 0.12139033 -0.99103661 0.055775553
vn 0.12139033 -0.99103661 0.055775553
vn -0.18098338 0.98079476 -0.07270933
vn -0.18098338 0.98079476 -0.07270933
vn -0.18098338 0.98079476 -0.07270933
vn -0.18098338 0.98079476 -0.07270933
vn -0.11534639 0.9895498 -0.086523317
vn -0.11534639 0.9895498 -0.086523317
vn -0.11534639 0.9895498 -0.086523317
vn -0.11534639 0.9895498 -0.086523317
vn 0.13997329 -0.98945656 0.037191682
vn 0.13997329 -0.98945656 0.037191682
vn 0.13997329 -0.98945656 0.037191682
vn 0.13997329 -0.98945656 0.037191682
vn -0.20478523 0.97760866 -0.048418671
vn -0.20478523 0.97760866 -0.048418671
vn -0.20478523 0.97760866 -0.048418671
vn -0.20478523 0.97760866 -0.048418671
vn 0.14999361 -0.98860086 0.013048114
vn 0.14999361 -0.98860086 0.013048114
vn 0.14999361 -0.98860086 0.013048114
vn 0.14999361 -0.98860086 0.013048114
vn -0.21764636 0.97588009 -0.016974569
vn -0.21764636 0.97588009 -0.016974569
vn -0.21764636 0.97588009 -0.016974569
vn -0.21764636 0.97588009 -0.016974569
vn -0.1921968 -0.14386716 -0.97075361
vn -0.1921968 -0.14386716 -0.97075361
vn -0.1921968 -0.14386716 -0.97075361
vn -0.1921968 -0.14386716 -0.97075361
vn -0.20102357 -0.025597751 -0.97925186
vn -0.20102357 -0.025597751 -0.97925186
vn -0.20102357 -0.025597751 -0.97925186
vn -0.20102357 -0.025597751 -0.97925186
vn -0.55651483 -0.11569202 -0.82274342
vn -0.55651483 -0.11569202 -0.82274342
vn -0.55651483 -0.11569202 -0.82274342
vn -0.55651483 -0.11569202 -0.82274342
vn -0.56489848 -0.016082506 -0.82500356
vn -0.56489848 -0.016082506 -0.82500356
vn -0.56489848 -0.016082506 -0.82500356
vn -0.56489848 -0.016082506 -0.82500356
vn -0.83141491 -0.096641934 -0.54718328
vn -0.83141491 -0.096641934 -0.54718328
vn -0.83141491 -0.096641934 -0.54718328
vn -0.83141491 -0.096641934 -0.54718328
vn -0.83730135 -0.0082212923 -0.54667979
vn -0.83730135 -0.0082212923 -0.54667979
vn -0.83730135 -0.0082212923 -0.54667979
vn -0.83730135 -0.0082212923 -0.54667979
vn -0.97765141 -0.087019547 -0.19137734
vn -0.97765141 -0.087019547 -0.19137734
vn -0.97765141 -0.087019547 -0.19137734
vn -0.97765141 -0.087019547 -0.19137734
vn -0.98160842 -0.0038537737 -0.19086628
vn -0.98160842 -0.0038537737 -0.19086628
vn -0.98160842 -0.0038537737 -0.19086628
vn -0.98160842 -0.0038537737 -0.19086628
vn -0.97765132 -0.087019957 0.19137746
vn -0.97765132 -0.087019957 0.19137746
vn -0.97765132 -0.087019957 0.19137746
vn -0.97765132 -0.087019957 0.19137746
vn -0.9816085 -0.0038528833 0.19086613
vn -0.9816085 -0.0038528833 0.19086613
vn -0.9816085 -0.0038528833 0.19086613
vn -0.9816085 -0.0038528833 0.19086613
vn -0.83141634 -0.096643787 0.54718083
vn -0.83141634 -0.096643787 0.54718083
vn -0.83141634 -0.096643787 0.54718083
vn -0.83141634 -0.096643787 0.54718083
vn -0.83730164 -0.0082200617 0.54667956
vn -0.83730164 -0.0082200617 0.54667956
vn -0.83730164 -0.0082200617 0.54667956
vn -0.83730164 -0.0082200617 0.54667956
vn -0.55651583 -0.1156933 0.82274252
vn -0.55651583 -0.1156933 0.82274252
vn -0.55651583 -0.1156933 0.82274252
vn -0.55651583 -0.1156933 0.82274252
vn -0.56489907 -0.016082038 0.82500333
vn -0.56489907 -0.016082038 0.82500333
vn -0.56489907 -0.016082038 0.82500333
vn -0.56489907 -0.016082038 0.82500333
vn -0.19219461 -0.14386485 0.97075439
vn -0.19219461 -0.14386485 0.97075439
vn -0.19219461 -0.14386485 0.97075439
vn -0.19219461 -0.14386485 0.97075439
vn -0.20102301 -0.025598115 0.97925198
vn -0.20102301 -0.025598115 0.97925198
vn -0.20102301 -0.025598115 0.97925198
vn -0.20102301 -0.025598115 0.97925198
vn 0.20089779 -0.18096953 0.96275133
vn 0.20089779 -0.18096953 0.96275133
vn 0.20089779 -0.18096953 0.96275133
vn 0.20089779 -0.18096953 0.96275133
vn 0.19690052 -0.034057948 0.97983176
vn 0.19690052 -0.034057948 0.97983176
vn 0.19690052 -0.034057948 0.97983176
vn 0.19690052 -0.034057948 0.97983176
vn 0.55306435 -0.22675987 0.80168557
vn 0.55306435 -0.22675987 0.80168557
vn 0.55306435 -0.22675987 0.80168557
vn 0.55306435 -0.22675987 0.80168557
vn 0.56189994 -0.038571741 0.82630551
vn 0.56189994 -0.038571741 0.82630551
vn 0.56189994 -0.038571741 0.82630551
vn 0.56189994 -0.038571741 0.82630551
vn 0.8061189 -0.2772198 0.5228017
vn 0.8061189 -0.2772198 0.5228017
vn 0.8061189 -0.2772198 0.5228017
vn 0.8061189 -0.2772198 0.5228017
vn 0.83575757 -0.037718351 0.54780167
vn 0.83575757 -0.037718351 0.54780167
vn 0.83575757 -0.037718351 0.54780167
vn 0.83575757 -0.037718351 0.54780167
vn 0.93176845 -0.31533381 0.17992285
vn 0.93176845 -0.31533381 0.17992285
vn 0.93176845 -0.31533381 0.17992285
vn 0.93176845 -0.31533381 0.17992285
vn 0.98094002 -0.034259594 0.19126633
vn 0.98094002 -0.034259594 0.19126633
vn 0.98094002 -0.034259594 0.19126633
vn 0.98094002 -0.034259594 0.19126633
vn 0.93176859 -0.31533358 -0.1799227
vn 0.93176859 -0.31533358 -0.1799227
vn 0.93176859 -0.31533358 -0.1799227
vn 0.93176859 -0.31533358 -0.1799227
vn 0.98094004 -0.034258311 -0.19126654
vn 0.98094004 -0.034258311 -0.19126654
vn 0.98094004 -0.034258311 -0.19126654
vn 0.98094004 -0.034258311 -0.19126654
vn 0.80612075 -0.27721385 -0.52280182
vn 0.80612075 -0.27721385 -0.52280182
vn 0.80612075 -0.27721385 -0.52280182
vn 0.80612075 -0.27721385 -0.52280182
vn 0.83575794 -0.037719802 -0.54780096
vn 0.83575794 -0.037719802 -0.54780096
vn 0.83575794 -0.037719802 -0.54780096
vn 0.83575794 -0.037719802 -0.54780096
vn 0.55306352 -0.22675679 -0.80168718
vn 0.55306352 -0.22675679 -0.80168718
vn 0.55306352 -0.22675679 -0.80168718
vn 0.55306352 -0.22675679 -0.80168718
vn 0.56190009 -0.038573762 -0.82630521
vn 0.56190009 -0.038573762 -0.82630521
vn 0.56190009 -0.038573762 -0.82630521
vn 0.56190009 -0.038573762 -0.82630521
vn 0.20089646 -0.18097281 -0.96275097
vn 0.20089646 -0.18097281 -0.96275097
vn 0.20089646 -0.18097281 -0.96275097
vn 0.20089646 -0.18097281 -0.96275097
vn 0.19689864 -0.034060116 -0.97983205
vn 0.19689864 -0.034060116 -0.97983205
vn 0.19689864 -0.034060116 -0.97983205
vn 0.19689864 -0.034060116 -0.97983205
vn 0.19674271 -0.03869292 -0.97969139
vn 0.19674271 -0.03869292 -0.97969139
vn 0.19674271 -0.03869292 -0.97969139
vn 0.19674271 -0.03869292 -0.97969139
vn 0.55734943 -0.025088499 -0.82989883
vn 0.55734943 -0.025088499 -0.82989883
vn 0.55734943 -0.025088499 -0.82989883
vn 0.55734943 -0.025088499 -0.82989883
vn 0.83248144 -0.010701358 -0.55394948
vn 0.83248144 -0.010701358 -0.55394948
vn 0.83248144 -0.010701358 -0.55394948
vn 0.83248144 -0.010701358 -0.55394948
vn 0.98092563 -0.0018264395 -0.19437447
vn 0.98092563 -0.0018264395 -0.19437447
vn 0.98092563 -0.0018264395 -0.19437447
vn 0.98092563 -0.0018264395 -0.19437447
vn 0.98092577 -0.0018266661 0.19437443
vn 0.98092577 -0.0018266661 0.19437443
vn 0.98092577 -0.0018266661 0.19437443
vn 0.98092577 -0.0018266661 0.19437443
vn 0.83248191 -0.010701159 0.55394888
vn 0.83248191 -0.010701159 0.55394888
vn 0.83248191 -0.010701159 0.55394888
vn 0.83248191 -0.010701159 0.55394888
vn 0.55735077 -0.025087789 0.829898
vn 0.55735077 -0.025087789 0.829898
vn 0.55735077 -0.025087789 0.829898
vn 0.55735077 -0.025087789 0.829898
vn 0.19674174 -0.038693884 0.97969151
vn 0.19674174 -0.038693884 0.97969151
vn 0.19674174 -0.038693884 0.97969151
vn 0.19674174 -0.038693884 0.97969151
vn -0.19438457 -0.043617235 0.9799552
vn -0.19438457 -0.043617235 0.9799552
vn -0.19438457 -0.043617235 0.9799552
vn -0.19438457 -0.043617235 0.9799552
vn -0.55602534 -0.033547339 0.83048797
vn -0.55602534 -0.033547339 0.83048797
vn -0.55602534 -0.033547339 0.83048797
vn -0.55602534 -0.033547339 0.83048797
vn -0.83229776 -0.010051553 0.55423772
vn -0.83229776 -0.010051553 0.55423772
vn -0.83229776 -0.010051553 0.55423772
vn -0.83229776 -0.010051553 0.55423772
vn -0.98087307 0.011563787 0.19430433
vn -0.98087307 0.011563787 0.19430433
vn -0.98087307 0.011563787 0.19430433
vn -0.98087307 0.011563787 0.19430433
vn -0.98087274 0.011564775 -0.19430636
vn -0.98087274 0.011564775 -0.19430636
vn -0.98087274 0.011564775 -0.19430636
vn -0.98087274 0.011564775 -0.19430636
vn -0.83230045 -0.010053641 -0.55423349
vn -0.83230045 -0.010053641 -0.55423349
vn -0.83230045 -0.010053641 -0.55423349
vn -0.83230045 -0.010053641 -0.55423349
vn -0.55602558 -0.033549432 -0.83048791
vn -0.55602558 -0.033549432 -0.83048791
vn -0.55602558 -0.033549432 -0.83048791
vn -0.55602558 -0.033549432 -0.83048791
vn -0.19438428 -0.043617871 -0.97995526
vn -0.19438428 -0.043617871 -0.97995526
vn -0.19438428 -0.043617871 -0.97995526
vn -0.19438428 -0.043617871 -0.97995526
vn -0.22301509 -0.13986119 -0.96472961
vn -0.22301509 -0.13986119 -0.96472961
vn -0.22301509 -0.13986119 -0.96472961
vn -0.22301509 -0.13986119 -0.96472961
vn -0.57866154 -0.24382772 -0.77826661
vn -0.57866154 -0.24382772 -0.77826661
vn -0.57866154 -0.24382772 -0.77826661
vn -0.57866154 -0.24382772 -0.77826661
vn -0.77684019 -0.43760153 -0.45279598
vn -0.77684019 -0.43760153 -0.45279598
vn -0.77684019 -0.43760153 -0.45279598
vn -0.77684019 -0.43760153 -0.45279598
vn -0.77597958 -0.6176383 -0.1279788
vn -0.77597958 -0.6176383 -0.1279788
vn -0.77597958 -0.6176383 -0.1279788
vn -0.77597958 -0.6176383 -0.1279788
vn -0.77598117 -0.61763634 0.12797894
vn -0.77598117 -0.61763634 0.12797894
vn -0.77598117 -0.61763634 0.12797894
vn -0.77598117 -0.61763634 0.12797894
vn -0.77684279 -0.43760035 0.4527927
vn -0.77684279 -0.43760035 0.4527927
vn -0.77684279 -0.43760035 0.4527927
vn -0.77684279 -0.43760035 0.4527927
vn -0.57866143 -0.24382856 0.77826631
vn -0.57866143 -0.24382856 0.77826631
vn -0.57866143 -0.24382856 0.77826631
vn -0.57866143 -0.24382856 0.77826631
vn -0.22301374 -0.13986051 0.96472996
vn -0.22301374 -0.13986051 0.96472996
vn -0.22301374 -0.13986051 0.96472996
vn -0.22301374 -0.13986051 0.96472996
vn 0.17912459 -0.10547871 0.97815573
vn 0.17912459 -0.10547871 0.97815573
vn 0.17912459 -0.10547871 0.97815573
vn 0.17912459 -0.10547871 0.97815573
vn 0.54779873 -0.10482653 0.83001697
vn 0.54779873 -0.10482653 0.83001697
vn 0.54779873 -0.10482653 0.83001697
vn 0.54779873 -0.10482653 0.83001697
vn 0.82528694 -0.11476355 0.55292922
vn 0.82528694 -0.11476355 0.55292922
vn 0.82528694 -0.11476355 0.55292922
vn 0.82528694 -0.11476355 0.55292922
vn 0.97338316 -0.12254235 0.19367152
vn 0.97338316 -0.12254235 0.19367152
vn 0.97338316 -0.12254235 0.19367152
vn 0.97338316 -0.12254235 0.19367152
vn 0.97338304 -0.12254357 -0.19367149
vn 0.97338304 -0.12254357 -0.19367149
vn 0.97338304 -0.12254357 -0.19367149
vn 0.97338304 -0.12254357 -0.19367149
vn 0.8252869 -0.11476248 -0.55292952
vn 0.8252869 -0.11476248 -0.55292952
vn 0.8252869 -0.11476248 -0.55292952
vn 0.8252869 -0.11476248 -0.55292952
vn 0.54780154 -0.10482584 -0.83001506
vn 0.54780154 -0.10482584 -0.83001506
vn 0.54780154 -0.10482584 -0.83001506
vn 0.54780154 -0.10482584 -0.83001506
vn 0.17912589 -0.10547669 -0.97815573
vn 0.17912589 -0.10547669 -0.97815573
vn 0.17912589 -0.10547669 -0.97815573
vn 0.17912589 -0.10547669 -0.97815573
usemtl Torch_IronBindings
f 16/16/1 18/18/2 130/130/3
f 16/16/1 130/130/3 128/128/4
f 17/17/5 15/15/6 127/127/7
f 17/17/5 127/127/7 129/129/8
f 24/24/9 26/26/10 138/138/11
f 24/24/9 138/138/11 136/136/12
f 6/6/13 8/8/14 120/120/15
f 6/6/13 120/120/15 118/118/16
f 25/25/17 23/23/18 135/135/19
f 25/25/17 135/135/19 137/137/20
f 7/7/21 5/5/22 117/117/23
f 7/7/21 117/117/23 119/119/24
f 32/32/25 2/2/26 114/114/27
f 32/32/25 114/114/27 144/144/28
f 14/14/29 16/16/30 128/128/31
f 14/14/29 128/128/31 126/126/32
f 1/1/33 31/31/34 143/143/35
f 1/1/33 143/143/35 113/113/36
f 15/15/37 13/13/38 125/125/39
f 15/15/37 125/125/39 127/127/40
f 22/22/41 24/24/42 136/136/43
f 22/22/41 136/136/43 134/134/44
f 4/4/45 6/6/46 118/118/47
f 4/4/45 118/118/47 116/116/48
f 23/23/49 21/21/50 133/133/51
f 23/23/49 133/133/51 135/135/52
f 5/5/53 3/3/54 115/115/55
f 5/5/53 115/115/55 117/117/56
usemtl Torch_Wood
f 8/8/57 6/6/58 35/35/59
f 8/8/57 35/35/59 36/36/60
usemtl Torch_IronBindings
f 30/30/61 32/32/62 144/144/63
f 30/30/61 144/144/63 142/142/64
f 12/12/65 14/14/66 126/126/67
f 12/12/65 126/126/67 124/124/68
usemtl Torch_Wood
f 11/11/69 13/13/70 71/71/71
f 11/11/69 71/71/71 70/70/72
f 46/46/73 45/45/74 61/61/75
f 46/46/73 61/61/75 62/62/76
f 18/18/77 16/16/78 40/40/79
f 18/18/77 40/40/79 41/41/80
f 4/4/81 2/2/82 33/33/83
f 4/4/81 33/33/83 34/34/84
f 28/28/85 26/26/86 45/45/87
f 28/28/85 45/45/87 46/46/88
f 14/14/89 12/12/90 38/38/91
f 14/14/89 38/38/91 39/39/92
f 24/24/93 22/22/94 43/43/95
f 24/24/93 43/43/95 44/44/96
f 2/2/97 32/32/98 48/48/99
f 2/2/97 48/48/99 33/33/100
f 10/10/101 8/8/102 36/36/103
f 10/10/101 36/36/103 37/37/104
f 20/20/105 18/18/106 41/41/107
f 20/20/105 41/41/107 42/42/108
f 30/30/109 28/28/110 46/46/111
f 30/30/109 46/46/111 47/47/112
f 6/6/113 4/4/114 34/34/115
f 6/6/113 34/34/115 35/35/116
f 16/16/117 14/14/118 39/39/119
f 16/16/117 39/39/119 40/40/120
f 26/26/121 24/24/122 44/44/123
f 26/26/121 44/44/123 45/45/124
f 12/12/125 10/10/126 37/37/127
f 12/12/125 37/37/127 38/38/128
f 22/22/129 20/20/130 42/42/131
f 22/22/129 42/42/131 43/43/132
f 32/32/133 30/30/134 47/47/135
f 32/32/133 47/47/135 48/48/136
f 50/50/137 49/49/138 64/64/139
f 50/50/137 64/64/139 63/63/140
f 50/50/137 63/63/140 62/62/141
f 50/50/137 62/62/141 61/61/142
f 50/50/137 61/61/142 60/60/143
f 50/50/137 60/60/143 59/59/144
f 50/50/137 59/59/144 58/58/145
f 50/50/137 58/58/145 57/57/146
f 50/50/137 57/57/146 56/56/147
f 50/50/137 56/56/147 55/55/148
f 50/50/137 55/55/148 54/54/149
f 50/50/137 54/54/149 53/53/150
f 50/50/137 53/53/150 52/52/151
f 50/50/137 52/52/151 51/51/152
f 39/39/153 38/38/154 54/54/155
f 39/39/153 54/54/155 55/55/156
f 47/47/157 46/46/158 62/62/159
f 47/47/157 62/62/159 63/63/160
f 40/40/161 39/39/162 55/55/163
f 40/40/161 55/55/163 56/56/164
f 48/48/165 47/47/166 63/63/167
f 48/48/165 63/63/167 64/64/168
f 41/41/169 40/40/170 56/56/171
f 41/41/169 56/56/171 57/57/172
f 34/34/173 33/33/174 49/49/175
f 34/34/173 49/49/175 50/50/176
f 33/33/177 48/48/178 64/64/179
f 33/33/177 64/64/179 49/49/180
f 42/42/181 41/41/182 57/57/183
f 42/42/181 57/57/183 58/58/184
f 35/35/185 34/34/186 50/50/187
f 35/35/185 50/50/187 51/51/188
f 43/43/189 42/42/190 58/58/191
f 43/43/189 58/58/191 59/59/192
f 36/36/193 35/35/194 51/51/195
f 36/36/193 51/51/195 52/52/196
f 44/44/197 43/43/198 59/59/199
f 44/44/197 59/59/199 60/60/200
f 37/37/201 36/36/202 52/52/203
f 37/37/201 52/52/203 53/53/204
f 45/45/205 44/44/206 60/60/207
f 45/45/205 60/60/207 61/61/208
f 38/38/209 37/37/210 53/53/211
f 38/38/209 53/53/211 54/54/212
f 72/72/213 73/73/214 89/89/215
f 72/72/213 89/89/215 88/88/216
f 21/21/217 23/23/218 76/76/219
f 21/21/217 76/76/219 75/75/220
f 31/31/221 1/1/222 65/65/223
f 31/31/221 65/65/223 80/80/224
f 7/7/225 9/9/226 69/69/227
f 7/7/225 69/69/227 68/68/228
f 17/17/229 19/19/230 74/74/231
f 17/17/229 74/74/231 73/73/232
f 27/27/233 29/29/234 79/79/235
f 27/27/233 79/79/235 78/78/236
f 3/3/237 5/5/238 67/67/239
f 3/3/237 67/67/239 66/66/240
f 13/13/241 15/15/242 72/72/243
f 13/13/241 72/72/243 71/71/244
f 23/23/245 25/25/246 77/77/247
f 23/23/245 77/77/247 76/76/248
f 9/9/249 11/11/250 70/70/251
f 9/9/249 70/70/251 69/69/252
f 19/19/253 21/21/254 75/75/255
f 19/19/253 75/75/255 74/74/256
f 29/29/257 31/31/258 80/80/259
f 29/29/257 80/80/259 79/79/260
f 5/5/261 7/7/262 68/68/263
f 5/5/261 68/68/263 67/67/264
f 15/15/265 17/17/266 73/73/267
f 15/15/265 73/73/267 72/72/268
f 1/1/269 3/3/270 66/66/271
f 1/1/269 66/66/271 65/65/272
f 25/25/273 27/27/274 78/78/275
f 25/25/273 78/78/275 77/77/276
f 93/93/277 94/94/278 110/110/279
f 93/93/277 110/110/279 109/109/280
f 65/65/281 66/66/282 82/82/283
f 65/65/281 82/82/283 81/81/284
f 80/80/285 65/65/286 81/81/287
f 80/80/285 81/81/287 96/96/288
f 73/73/289 74/74/290 90/90/291
f 73/73/289 90/90/291 89/89/292
f 66/66/293 67/67/294 83/83/295
f 66/66/293 83/83/295 82/82/296
f 74/74/297 75/75/298 91/91/299
f 74/74/297 91/91/299 90/90/300
f 67/67/301 68/68/302 84/84/303
f 67/67/301 84/84/303 83/83/304
f 75/75/305 76/76/306 92/92/307
f 75/75/305 92/92/307 91/91/308
f 68/68/309 69/69/310 85/85/311
f 68/68/309 85/85/311 84/84/312
f 76/76/313 77/77/314 93/93/315
f 76/76/313 93/93/315 92/92/316
f 69/69/317 70/70/318 86/86/319
f 69/69/317 86/86/319 85/85/320
f 77/77/321 78/78/322 94/94/323
f 77/77/321 94/94/323 93/93/324
f 70/70/325 71/71/326 87/87/327
f 70/70/325 87/87/327 86/86/328
f 78/78/329 79/79/330 95/95/331
f 78/78/329 95/95/331 94/94/332
f 71/71/333 72/72/334 88/88/335
f 71/71/333 88/88/335 87/87/336
f 79/79/337 80/80/338 96/96/339
f 79/79/337 96/96/339 95/95/340
f 97/97/341 98/98/342 99/99/343
f 97/97/341 99/99/343 100/100/344
f 97/97/341 100/100/344 101/101/345
f 97/97/341 101/101/345 102/102/346
f 97/97/341 102/102/346 103/103/347
f 97/97/341 103/103/347 104/104/348
f 97/97/341 104/104/348 105/105/349
f 97/97/341 105/105/349 106/106/350
f 97/97/341 106/106/350 107/107/351
f 97/97/341 107/107/351 108/108/352
f 97/97/341 108/108/352 109/109/353
f 97/97/341 109/109/353 110/110/354
f 97/97/341 110/110/354 111/111/355
f 97/97/341 111/111/355 112/112/356
f 86/86/357 87/87/358 103/103/359
f 86/86/357 103/103/359 102/102/360
f 94/94/361 95/95/362 111/111/363
f 94/94/361 111/111/363 110/110/364
f 87/87/365 88/88/366 104/104/367
f 87/87/365 104/104/367 103/103/368
f 95/95/369 96/96/370 112/112/371
f 95/95/369 112/112/371 111/111/372
f 88/88/373 89/89/374 105/105/375
f 88/88/373 105/105/375 104/104/376
f 81/81/377 82/82/378 98/98/379
f 81/81/377 98/98/379 97/97/380
f 96/96/381 81/81/382 97/97/383
f 96/96/381 97/97/383 112/112/384
f 89/89/385 90/90/386 106/106/387
f 89/89/385 106/106/387 105/105/388
f 82/82/389 83/83/390 99/99/391
f 82/82/389 99/99/391 98/98/392
f 90/90/393 91/91/394 107/107/395
f 90/90/393 107/107/395 106/106/396
f 83/83/397 84/84/398 100/100/399
f 83/83/397 100/100/399 99/99/400
f 91/91/401 92/92/402 108/108/403
f 91/91/401 108/108/403 107/107/404
f 84/84/405 85/85/406 101/101/407
f 84/84/405 101/101/407 100/100/408
f 92/92/409 93/93/410 109/109/411
f 92/92/409 109/109/411 108/108/412
f 85/85/413 86/86/414 102/102/415
f 85/85/413 102/102/415 101/101/416
usemtl Torch_IronBindings
f 321/321/417 114/114/418 116/116/419
f 321/321/417 116/116/419 322/322/420
f 322/322/421 116/116/422 118/118/423
f 322/322/421 118/118/423 323/323/424
f 323/323/425 118/118/426 120/120/427
f 323/323/425 120/120/427 324/324/428
f 324/324/429 120/120/430 122/122/431
f 324/324/429 122/122/431 325/325/432
f 325/325/433 122/122/434 124/124/435
f 325/325/433 124/124/435 326/326/436
f 326/326/437 124/124/438 126/126/439
f 326/326/437 126/126/439 327/327/440
f 327/327/441 126/126/442 128/128/443
f 327/327/441 128/128/443 328/328/444
f 328/328/445 128/128/446 130/130/447
f 328/328/445 130/130/447 329/329/448
f 329/329/449 130/130/450 132/132/451
f 329/329/449 132/132/451 330/330/452
f 330/330/453 132/132/454 134/134/455
f 330/330/453 134/134/455 331/331/456
f 331/331/457 134/134/458 136/136/459
f 331/331/457 136/136/459 332/332/460
f 332/332/461 136/136/462 138/138/463
f 332/332/461 138/138/463 333/333/464
f 333/333/465 138/138/466 140/140/467
f 333/333/465 140/140/467 334/334/468
f 334/334/469 140/140/470 142/142/471
f 334/334/469 142/142/471 335/335/472
f 335/335/473 142/142/474 144/144/475
f 335/335/473 144/144/475 336/336/476
f 336/336/477 144/144/478 114/114/479
f 336/336/477 114/114/479 321/321/480
f 9/9/481 7/7/482 119/119/483
f 9/9/481 119/119/483 121/121/484
f 27/27/485 25/25/486 137/137/487
f 27/27/485 137/137/487 139/139/488
f 8/8/489 10/10/490 122/122/491
f 8/8/489 122/122/491 120/120/492
f 26/26/493 28/28/494 140/140/495
f 26/26/493 140/140/495 138/138/496
f 19/19/497 17/17/498 129/129/499
f 19/19/497 129/129/499 131/131/500
f 18/18/501 20/20/502 132/132/503
f 18/18/501 132/132/503 130/130/504
f 11/11/505 9/9/506 121/121/507
f 11/11/505 121/121/507 123/123/508
f 29/29/509 27/27/510 139/139/511
f 29/29/509 139/139/511 141/141/512
f 3/3/513 1/1/514 113/113/515
f 3/3/513 113/113/515 115/115/516
f 10/10/517 12/12/518 124/124/519
f 10/10/517 124/124/519 122/122/520
f 28/28/521 30/30/522 142/142/523
f 28/28/521 142/142/523 140/140/524
f 2/2/525 4/4/526 116/116/527
f 2/2/525 116/116/527 114/114/528
f 21/21/529 19/19/530 131/131/531
f 21/21/529 131/131/531 133/133/532
f 20/20/533 22/22/534 134/134/535
f 20/20/533 134/134/535 132/132/536
f 13/13/537 11/11/538 123/123/539
f 13/13/537 123/123/539 125/125/540
f 31/31/541 29/29/542 141/141/543
f 31/31/541 141/141/543 143/143/544
f 156/156/545 157/157/546 182/182/547
f 156/156/545 182/182/547 183/183/548
f 173/173/549 172/172/550 205/205/551
f 173/173/549 205/205/551 206/206/552
f 157/157/553 158/158/554 181/181/555
f 157/157/553 181/181/555 182/182/556
f 172/172/557 171/171/558 204/204/559
f 172/172/557 204/204/559 205/205/560
f 158/158/561 159/159/562 180/180/563
f 158/158/561 180/180/563 181/181/564
f 171/171/565 170/170/566 203/203/567
f 171/171/565 203/203/567 204/204/568
f 145/145/569 146/146/570 193/193/571
f 145/145/569 193/193/571 178/178/572
f 159/159/573 160/160/574 179/179/575
f 159/159/573 179/179/575 180/180/576
f 170/170/577 169/169/578 202/202/579
f 170/170/577 202/202/579 203/203/580
f 146/146/581 147/147/582 192/192/583
f 146/146/581 192/192/583 193/193/584
f 160/160/585 145/145/586 178/178/587
f 160/160/585 178/178/587 179/179/588
f 169/169/589 168/168/590 201/201/591
f 169/169/589 201/201/591 202/202/592
f 147/147/593 148/148/594 191/191/595
f 147/147/593 191/191/595 192/192/596
f 168/168/597 167/167/598 200/200/599
f 168/168/597 200/200/599 201/201/600
f 148/148/601 149/149/602 190/190/603
f 148/148/601 190/190/603 191/191/604
f 167/167/605 166/166/606 199/199/607
f 167/167/605 199/199/607 200/200/608
f 274/274/609 176/176/610 161/161/611
f 274/274/609 161/161/611 275/275/612
f 275/275/613 161/161/614 162/162/615
f 275/275/613 162/162/615 277/277/616
f 277/277/617 162/162/618 163/163/619
f 277/277/617 163/163/619 279/279/620
f 279/279/621 163/163/622 164/164/623
f 279/279/621 164/164/623 281/281/624
f 281/281/625 164/164/626 165/165/627
f 281/281/625 165/165/627 283/283/628
f 283/283/629 165/165/630 166/166/631
f 283/283/629 166/166/631 285/285/632
f 285/285/633 166/166/634 167/167/635
f 285/285/633 167/167/635 287/287/636
f 287/287/637 167/167/638 168/168/639
f 287/287/637 168/168/639 289/289/640
f 289/289/641 168/168/642 169/169/643
f 289/289/641 169/169/643 291/291/644
f 291/291/645 169/169/646 170/170/647
f 291/291/645 170/170/647 293/293/648
f 293/293/649 170/170/650 171/171/651
f 293/293/649 171/171/651 295/295/652
f 295/295/653 171/171/654 172/172/655
f 295/295/653 172/172/655 297/297/656
f 297/297/657 172/172/658 173/173/659
f 297/297/657 173/173/659 299/299/660
f 299/299/661 173/173/662 174/174/663
f 299/299/661 174/174/663 301/301/664
f 301/301/665 174/174/666 175/175/667
f 301/301/665 175/175/667 303/303/668
f 303/303/669 175/175/670 176/176/671
f 303/303/669 176/176/671 274/274/672
usemtl Torch_Wick
f 208/208/673 179/179/674 178/178/675
f 208/208/673 178/178/675 177/177/676
f 207/207/677 180/180/678 179/179/679
f 207/207/677 179/179/679 208/208/680
f 206/206/681 181/181/682 180/180/683
f 206/206/681 180/180/683 207/207/684
f 205/205/685 182/182/686 181/181/687
f 205/205/685 181/181/687 206/206/688
f 204/204/689 183/183/690 182/182/691
f 204/204/689 182/182/691 205/205/692
f 203/203/693 184/184/694 183/183/695
f 203/203/693 183/183/695 204/204/696
f 202/202/697 185/185/698 184/184/699
f 202/202/697 184/184/699 203/203/700
f 201/201/701 186/186/702 185/185/703
f 201/201/701 185/185/703 202/202/704
f 200/200/705 187/187/706 186/186/707
f 200/200/705 186/186/707 201/201/708
f 199/199/709 188/188/710 187/187/711
f 199/199/709 187/187/711 200/200/712
f 198/198/713 189/189/714 188/188/715
f 198/198/713 188/188/715 199/199/716
f 197/197/717 190/190/718 189/189/719
f 197/197/717 189/189/719 198/198/720
f 196/196/721 191/191/722 190/190/723
f 196/196/721 190/190/723 197/197/724
f 195/195/725 192/192/726 191/191/727
f 195/195/725 191/191/727 196/196/728
f 194/194/729 193/193/730 192/192/731
f 194/194/729 192/192/731 195/195/732
f 177/177/733 178/178/734 193/193/735
f 177/177/733 193/193/735 194/194/736
usemtl Torch_IronBindings
f 174/174/737 173/173/738 206/206/739
f 174/174/737 206/206/739 207/207/740
f 155/155/741 156/156/742 183/183/743
f 155/155/741 183/183/743 184/184/744
f 161/161/745 176/176/746 177/177/747
f 161/161/745 177/177/747 194/194/748
f 175/175/749 174/174/750 207/207/751
f 175/175/749 207/207/751 208/208/752
f 154/154/753 155/155/754 184/184/755
f 154/154/753 184/184/755 185/185/756
f 162/162/757 161/161/758 194/194/759
f 162/162/757 194/194/759 195/195/760
f 176/176/761 175/175/762 208/208/763
f 176/176/761 208/208/763 177/177/764
f 153/153/765 154/154/766 185/185/767
f 153/153/765 185/185/767 186/186/768
f 163/163/769 162/162/770 195/195/771
f 163/163/769 195/195/771 196/196/772
f 152/152/773 153/153/774 186/186/775
f 152/152/773 186/186/775 187/187/776
f 164/164/777 163/163/778 196/196/779
f 164/164/777 196/196/779 197/197/780
f 151/151/781 152/152/782 187/187/783
f 151/151/781 187/187/783 188/188/784
f 165/165/785 164/164/786 197/197/787
f 165/165/785 197/197/787 198/198/788
f 150/150/789 151/151/790 188/188/791
f 150/150/789 188/188/791 189/189/792
f 166/166/793 165/165/794 198/198/795
f 166/166/793 198/198/795 199/199/796
f 149/149/797 150/150/798 189/189/799
f 149/149/797 189/189/799 190/190/800
f 319/319/801 223/223/802 224/224/803
f 319/319/801 224/224/803 320/320/804
f 318/318/805 222/222/806 223/223/807
f 318/318/805 223/223/807 319/319/808
f 317/317/809 221/221/810 222/222/811
f 317/317/809 222/222/811 318/318/812
f 316/316/813 220/220/814 221/221/815
f 316/316/813 221/221/815 317/317/816
f 315/315/817 219/219/818 220/220/819
f 315/315/817 220/220/819 316/316/820
f 314/314/821 218/218/822 219/219/823
f 314/314/821 219/219/823 315/315/824
f 313/313/825 217/217/826 218/218/827
f 313/313/825 218/218/827 314/314/828
f 312/312/829 216/216/830 217/217/831
f 312/312/829 217/217/831 313/313/832
f 311/311/833 215/215/834 216/216/835
f 311/311/833 216/216/835 312/312/836
f 310/310/837 214/214/838 215/215/839
f 310/310/837 215/215/839 311/311/840
f 309/309/841 213/213/842 214/214/843
f 309/309/841 214/214/843 310/310/844
f 308/308/845 212/212/846 213/213/847
f 308/308/845 213/213/847 309/309/848
f 307/307/849 211/211/850 212/212/851
f 307/307/849 212/212/851 308/308/852
f 306/306/853 210/210/854 211/211/855
f 306/306/853 211/211/855 307/307/856
f 305/305/857 209/209/858 210/210/859
f 305/305/857 210/210/859 306/306/860
f 320/320/861 224/224/862 209/209/863
f 320/320/861 209/209/863 305/305/864
f 214/214/865 213/213/866 250/250/867
f 214/214/865 250/250/867 252/252/868
f 236/236/869 237/237/870 263/263/871
f 236/236/869 263/263/871 261/261/872
f 215/215/873 214/214/874 252/252/875
f 215/215/873 252/252/875 254/254/876
f 237/237/877 238/238/878 265/265/879
f 237/237/877 265/265/879 263/263/880
f 216/216/881 215/215/882 254/254/883
f 216/216/881 254/254/883 256/256/884
f 238/238/885 239/239/886 267/267/887
f 238/238/885 267/267/887 265/265/888
f 217/217/889 216/216/890 256/256/891
f 217/217/889 256/256/891 258/258/892
f 225/225/893 226/226/894 241/241/895
f 225/225/893 241/241/895 272/272/896
f 239/239/897 240/240/898 269/269/899
f 239/239/897 269/269/899 267/267/900
f 218/218/901 217/217/902 258/258/903
f 218/218/901 258/258/903 260/260/904
f 226/226/905 227/227/906 243/243/907
f 226/226/905 243/243/907 241/241/908
f 240/240/909 225/225/910 272/272/911
f 240/240/909 272/272/911 269/269/912
f 219/219/913 218/218/914 260/260/915
f 219/219/913 260/260/915 262/262/916
f 227/227/917 228/228/918 245/245/919
f 227/227/917 245/245/919 243/243/920
f 220/220/921 219/219/922 262/262/923
f 220/220/921 262/262/923 264/264/924
f 228/228/925 229/229/926 247/247/927
f 228/228/925 247/247/927 245/245/928
usemtl Torch_Wick
f 270/270/929 269/269/930 272/272/931
f 270/270/929 272/272/931 271/271/932
f 268/268/933 267/267/934 269/269/935
f 268/268/933 269/269/935 270/270/936
f 266/266/937 265/265/938 267/267/939
f 266/266/937 267/267/939 268/268/940
f 264/264/941 263/263/942 265/265/943
f 264/264/941 265/265/943 266/266/944
f 262/262/945 261/261/946 263/263/947
f 262/262/945 263/263/947 264/264/948
f 260/260/949 259/259/950 261/261/951
f 260/260/949 261/261/951 262/262/952
f 258/258/953 257/257/954 259/259/955
f 258/258/953 259/259/955 260/260/956
f 256/256/957 255/255/958 257/257/959
f 256/256/957 257/257/959 258/258/960
f 254/254/961 253/253/962 255/255/963
f 254/254/961 255/255/963 256/256/964
f 252/252/965 251/251/966 253/253/967
f 252/252/965 253/253/967 254/254/968
f 250/250/969 249/249/970 251/251/971
f 250/250/969 251/251/971 252/252/972
f 248/248/973 247/247/974 249/249/975
f 248/248/973 249/249/975 250/250/976
f 246/246/977 245/245/978 247/247/979
f 246/246/977 247/247/979 248/248/980
f 244/244/981 243/243/982 245/245/983
f 244/244/981 245/245/983 246/246/984
f 242/242/985 241/241/986 243/243/987
f 242/242/985 243/243/987 244/244/988
f 271/271/989 272/272/990 241/241/991
f 271/271/989 241/241/991 242/242/992
usemtl Torch_IronBindings
f 235/235/993 236/236/994 261/261/995
f 235/235/993 261/261/995 259/259/996
f 213/213/997 212/212/998 248/248/999
f 213/213/997 248/248/999 250/250/1000
f 234/234/1001 235/235/1002 259/259/1003
f 234/234/1001 259/259/1003 257/257/1004
f 212/212/1005 211/211/1006 246/246/1007
f 212/212/1005 246/246/1007 248/248/1008
f 233/233/1009 234/234/1010 257/257/1011
f 233/233/1009 257/257/1011 255/255/1012
f 211/211/1013 210/210/1014 244/244/1015
f 211/211/1013 244/244/1015 246/246/1016
f 232/232/1017 233/233/1018 255/255/1019
f 232/232/1017 255/255/1019 253/253/1020
f 224/224/1021 223/223/1022 270/270/1023
f 224/224/1021 270/270/1023 271/271/1024
f 210/210/1025 209/209/1026 242/242/1027
f 210/210/1025 242/242/1027 244/244/1028
f 231/231/1029 232/232/1030 253/253/1031
f 231/231/1029 253/253/1031 251/251/1032
f 223/223/1033 222/222/1034 268/268/1035
f 223/223/1033 268/268/1035 270/270/1036
f 209/209/1037 224/224/1038 271/271/1039
f 209/209/1037 271/271/1039 242/242/1040
f 230/230/1041 231/231/1042 251/251/1043
f 230/230/1041 251/251/1043 249/249/1044
f 222/222/1045 221/221/1046 266/266/1047
f 222/222/1045 266/266/1047 268/268/1048
f 229/229/1049 230/230/1050 249/249/1051
f 229/229/1049 249/249/1051 247/247/1052
f 221/221/1053 220/220/1054 264/264/1055
f 221/221/1053 264/264/1055 266/266/1056
f 240/240/1057 304/304/1058 273/273/1059
f 240/240/1057 273/273/1059 225/225/1060
f 304/304/1061 303/303/1062 274/274/1063
f 304/304/1061 274/274/1063 273/273/1064
f 239/239/1065 302/302/1066 304/304/1067
f 239/239/1065 304/304/1067 240/240/1068
f 302/302/1069 301/301/1070 303/303/1071
f 302/302/1069 303/303/1071 304/304/1072
f 238/238/1073 300/300/1074 302/302/1075
f 238/238/1073 302/302/1075 239/239/1076
f 300/300/1077 299/299/1078 301/301/1079
f 300/300/1077 301/301/1079 302/302/1080
f 237/237/1081 298/298/1082 300/300/1083
f 237/237/1081 300/300/1083 238/238/1084
f 298/298/1085 297/297/1086 299/299/1087
f 298/298/1085 299/299/1087 300/300/1088
f 236/236/1089 296/296/1090 298/298/1091
f 236/236/1089 298/298/1091 237/237/1092
f 296/296/1093 295/295/1094 297/297/1095
f 296/296/1093 297/297/1095 298/298/1096
f 235/235/1097 294/294/1098 296/296/1099
f 235/235/1097 296/296/1099 236/236/1100
f 294/294/1101 293/293/1102 295/295/1103
f 294/294/1101 295/295/1103 296/296/1104
f 234/234/1105 292/292/1106 294/294/1107
f 234/234/1105 294/294/1107 235/235/1108
f 292/292/1109 291/291/1110 293/293/1111
f 292/292/1109 293/293/1111 294/294/1112
f 233/233/1113 290/290/1114 292/292/1115
f 233/233/1113 292/292/1115 234/234/1116
f 290/290/1117 289/289/1118 291/291/1119
f 290/290/1117 291/291/1119 292/292/1120
f 232/232/1121 288/288/1122 290/290/1123
f 232/232/1121 290/290/1123 233/233/1124
f 288/288/1125 287/287/1126 289/289/1127
f 288/288/1125 289/289/1127 290/290/1128
f 231/231/1129 286/286/1130 288/288/1131
f 231/231/1129 288/288/1131 232/232/1132
f 286/286/1133 285/285/1134 287/287/1135
f 286/286/1133 287/287/1135 288/288/1136
f 230/230/1137 284/284/1138 286/286/1139
f 230/230/1137 286/286/1139 231/231/1140
f 284/284/1141 283/283/1142 285/285/1143
f 284/284/1141 285/285/1143 286/286/1144
f 229/229/1145 282/282/1146 284/284/1147
f 229/229/1145 284/284/1147 230/230/1148
f 282/282/1149 281/281/1150 283/283/1151
f 282/282/1149 283/283/1151 284/284/1152
f 228/228/1153 280/280/1154 282/282/1155
f 228/228/1153 282/282/1155 229/229/1156
f 280/280/1157 279/279/1158 281/281/1159
f 280/280/1157 281/281/1159 282/282/1160
f 227/227/1161 278/278/1162 280/280/1163
f 227/227/1161 280/280/1163 228/228/1164
f 278/278/1165 277/277/1166 279/279/1167
f 278/278/1165 279/279/1167 280/280/1168
f 226/226/1169 276/276/1170 278/278/1171
f 226/226/1169 278/278/1171 227/227/1172
f 276/276/1173 275/275/1174 277/277/1175
f 276/276/1173 277/277/1175 278/278/1176
f 225/225/1177 273/273/1178 276/276/1179
f 225/225/1177 276/276/1179 226/226/1180
f 273/273/1181 274/274/1182 275/275/1183
f 273/273/1181 275/275/1183 276/276/1184
f 113/113/1185 320/320/1186 305/305/1187
f 113/113/1185 305/305/1187 115/115/1188
f 115/115/1189 305/305/1190 306/306/1191
f 115/115/1189 306/306/1191 117/117/1192
f 117/117/1193 306/306/1194 307/307/1195
f 117/117/1193 307/307/1195 119/119/1196
f 119/119/1197 307/307/1198 308/308/1199
f 119/119/1197 308/308/1199 121/121/1200
f 121/121/1201 308/308/1202 309/309/1203
f 121/121/1201 309/309/1203 123/123/1204
f 123/123/1205 309/309/1206 310/310/1207
f 123/123/1205 310/310/1207 125/125/1208
f 125/125/1209 310/310/1210 311/311/1211
f 125/125/1209 311/311/1211 127/127/1212
f 127/127/1213 311/311/1214 312/312/1215
f 127/127/1213 312/312/1215 129/129/1216
f 129/129/1217 312/312/1218 313/313/1219
f 129/129/1217 313/313/1219 131/131/1220
f 131/131/1221 313/313/1222 314/314/1223
f 131/131/1221 314/314/1223 133/133/1224
f 133/133/1225 314/314/1226 315/315/1227
f 133/133/1225 315/315/1227 135/135/1228
f 135/135/1229 315/315/1230 316/316/1231
f 135/135/1229 316/316/1231 137/137/1232
f 137/137/1233 316/316/1234 317/317/1235
f 137/137/1233 317/317/1235 139/139/1236
f 139/139/1237 317/317/1238 318/318/1239
f 139/139/1237 318/318/1239 141/141/1240
f 141/141/1241 318/318/1242 319/319/1243
f 141/141/1241 319/319/1243 143/143/1244
f 143/143/1245 319/319/1246 320/320/1247
f 143/143/1245 320/320/1247 113/113/1248
f 160/160/1249 336/336/1250 321/321/1251
f 160/160/1249 321/321/1251 145/145/1252
f 159/159/1253 335/335/1254 336/336/1255
f 159/159/1253 336/336/1255 160/160/1256
f 158/158/1257 334/334/1258 335/335/1259
f 158/158/1257 335/335/1259 159/159/1260
f 157/157/1261 333/333/1262 334/334/1263
f 157/157/1261 334/334/1263 158/158/1264
f 156/156/1265 332/332/1266 333/333/1267
f 156/156/1265 333/333/1267 157/157/1268
f 155/155/1269 331/331/1270 332/332/1271
f 155/155/1269 332/332/1271 156/156/1272
f 154/154/1273 330/330/1274 331/331/1275
f 154/154/1273 331/331/1275 155/155/1276
f 153/153/1277 329/329/1278 330/330/1279
f 153/153/1277 330/330/1279 154/154/1280
f 152/152/1281 328/328/1282 329/329/1283
f 152/152/1281 329/329/1283 153/153/1284
f 151/151/1285 327/327/1286 328/328/1287
f 151/151/1285 328/328/1287 152/152/1288
f 150/150/1289 326/326/1290 327/327/1291
f 150/150/1289 327/327/1291 151/151/1292
f 149/149/1293 325/325/1294 326/326/1295
f 149/149/1293 326/326/1295 150/150/1296
f 148/148/1297 324/324/1298 325/325/1299
f 148/148/1297 325/325/1299 149/149/1300
f 147/147/1301 323/323/1302 324/324/1303
f 147/147/1301 324/324/1303 148/148/1304
f 146/146/1305 322/322/1306 323/323/1307
f 146/146/1305 323/323/1307 147/147/1308
f 145/145/1309 321/321/1310 322/322/1311
f 145/145/1309 322/322/1311 146/146/1312
