# User-supplied Mayan dungeon glTF module; Y-up meters, bottom centered
mtllib Mayan.mtl
o Circle
usemtl SunkenKingdom
v -0.58778496 0 -0.8090172
v -0.95105651 0 -0.30901711
v -0.95105651 0 0.30901709
v -0.58778538 0 0.80901692
v -1.339889e-07 0 0.99999998
v -4.6566129e-08 0 -0.99999998
v 0.5877851 0 0.80901701
v 0.5877852 0 -0.80901701
v 0.95105642 0 0.30901702
v 0.95105651 0 -0.30901697
v 0.5877851 0.10468257 0.80901701
v 0.5877851 0 0.80901701
v -1.339889e-07 0 0.99999998
v -1.339889e-07 0.10468257 0.99999998
v 0.5877852 0.10468257 -0.80901701
v 0.5877852 0 -0.80901701
v 0.95105651 0 -0.30901697
v 0.95105651 0.10468257 -0.30901697
v -0.95105651 0.10468257 -0.30901711
v -0.95105651 0 -0.30901711
v -0.58778496 0 -0.8090172
v -0.58778496 0.10468257 -0.8090172
v -1.339889e-07 0.10468257 0.99999998
v -1.339889e-07 0 0.99999998
v -0.58778538 0 0.80901692
v -0.58778538 0.10468257 0.80901692
v 0.95105651 0.10468257 -0.30901697
v 0.95105651 0 -0.30901697
v 0.95105642 0 0.30901702
v 0.95105642 0.10468257 0.30901702
v -0.58778496 0.10468257 -0.8090172
v -0.58778496 0 -0.8090172
v -4.6566129e-08 0 -0.99999998
v -4.6566129e-08 0.10468257 -0.99999998
v -0.58778538 0.10468257 0.80901692
v -0.58778538 0 0.80901692
v -0.95105651 0 0.30901709
v -0.95105651 0.10468257 0.30901709
v 0.95105642 0.10468257 0.30901702
v 0.95105642 0 0.30901702
v 0.5877851 0 0.80901701
v 0.5877851 0.10468257 0.80901701
v -4.6566129e-08 0.10468257 -0.99999998
v -4.6566129e-08 0 -0.99999998
v 0.5877852 0 -0.80901701
v 0.5877852 0.10468257 -0.80901701
v -0.95105651 0.10468257 0.30901709
v -0.95105651 0 0.30901709
v -0.95105651 0 -0.30901711
v -0.95105651 0.10468257 -0.30901711
vt 0.6484946 0.74632424
vt 0.6484946 0.80053145
vt 0.61634624 0.84438598
vt 0.56432897 0.86113691
vt 0.51231182 0.84438604
vt 0.61634624 0.70246983
vt 0.48016346 0.80053151
vt 0.56432897 0.68571877
vt 0.48016346 0.7463243
vt 0.51231182 0.70246983
vt 0.70977098 0.70602798
vt 0.70050687 0.70602798
vt 0.70050687 0.66217351
vt 0.70977098 0.66217351
vt 0.69124287 0.80408973
vt 0.68197882 0.80408973
vt 0.68197882 0.76023519
vt 0.69124287 0.76023519
vt 0.69124287 0.66217351
vt 0.70050687 0.66217351
vt 0.70050687 0.70602804
vt 0.69124287 0.70602804
vt 0.70977098 0.66217351
vt 0.70050687 0.66217351
vt 0.70050687 0.6079663
vt 0.7097711 0.6079663
vt 0.69124287 0.76023519
vt 0.68197882 0.76023519
vt 0.68197882 0.70602798
vt 0.69124287 0.70602798
vt 0.69124287 0.70602804
vt 0.70050687 0.70602804
vt 0.70050687 0.76023519
vt 0.69124287 0.76023519
vt 0.7097711 0.80408973
vt 0.70050687 0.80408973
vt 0.70050687 0.76023519
vt 0.7097711 0.76023519
vt 0.69124287 0.70602798
vt 0.68197882 0.70602798
vt 0.68197882 0.66217351
vt 0.69124287 0.66217351
vt 0.69124287 0.76023519
vt 0.70050687 0.76023519
vt 0.70050687 0.80408973
vt 0.69124287 0.80408973
vt 0.7097711 0.76023519
vt 0.70050687 0.76023519
vt 0.70050687 0.70602798
vt 0.7097711 0.70602798
vn 0 -1 0
vn 0 -1 0
vn 0 -1 0
vn 0 -1 0
vn 0 -1 0
vn 0 -1 0
vn 0 -1 0
vn 0 -1 0
vn 0 -1 0
vn 0 -1 0
vn 0.30901688 0 0.95105654
vn 0.30901688 0 0.95105654
vn 0.30901688 0 0.95105654
vn 0.30901688 0 0.95105654
vn 0.809017 0 -0.58778524
vn 0.809017 0 -0.58778524
vn 0.809017 0 -0.58778524
vn 0.809017 0 -0.58778524
vn -0.80901682 0 -0.58778554
vn -0.80901682 0 -0.58778554
vn -0.80901682 0 -0.58778554
vn -0.80901682 0 -0.58778554
vn -0.30901703 0 0.95105654
vn -0.30901703 0 0.95105654
vn -0.30901703 0 0.95105654
vn -0.30901703 0 0.95105654
vn 1 0 1.1516047e-07
vn 1 0 1.1516047e-07
vn 1 0 1.1516047e-07
vn 1 0 1.1516047e-07
vn -0.30901679 0 -0.95105654
vn -0.30901679 0 -0.95105654
vn -0.30901679 0 -0.95105654
vn -0.30901679 0 -0.95105654
vn -0.80901706 0 0.58778518
vn -0.80901706 0 0.58778518
vn -0.80901706 0 0.58778518
vn -0.80901706 0 0.58778518
vn 0.809017 0 0.58778524
vn 0.809017 0 0.58778524
vn 0.809017 0 0.58778524
vn 0.809017 0 0.58778524
vn 0.30901697 0 -0.95105654
vn 0.30901697 0 -0.95105654
vn 0.30901697 0 -0.95105654
vn 0.30901697 0 -0.95105654
vn -1 0 0
vn -1 0 0
vn -1 0 0
vn -1 0 0
f 3/3/3 2/2/2 1/1/1
f 1/1/1 4/4/4 3/3/3
f 1/1/1 5/5/5 4/4/4
f 1/1/1 6/6/6 5/5/5
f 6/6/6 7/7/7 5/5/5
f 6/6/6 8/8/8 7/7/7
f 8/8/8 9/9/9 7/7/7
f 8/8/8 10/10/10 9/9/9
f 13/13/13 12/12/12 11/11/11
f 14/14/14 13/13/13 11/11/11
f 17/17/17 16/16/16 15/15/15
f 18/18/18 17/17/17 15/15/15
f 21/21/21 20/20/20 19/19/19
f 22/22/22 21/21/21 19/19/19
f 25/25/25 24/24/24 23/23/23
f 26/26/26 25/25/25 23/23/23
f 29/29/29 28/28/28 27/27/27
f 30/30/30 29/29/29 27/27/27
f 33/33/33 32/32/32 31/31/31
f 34/34/34 33/33/33 31/31/31
f 37/37/37 36/36/36 35/35/35
f 38/38/38 37/37/37 35/35/35
f 41/41/41 40/40/40 39/39/39
f 42/42/42 41/41/41 39/39/39
f 45/45/45 44/44/44 43/43/43
f 46/46/46 45/45/45 43/43/43
f 49/49/49 48/48/48 47/47/47
f 50/50/50 49/49/49 47/47/47
