# User-supplied Mayan dungeon glTF module; Y-up meters, bottom centered
mtllib Mayan.mtl
o Cube_195
usemtl SunkenKingdom
v 0.78812186 0.18617734 0.79932541
v 0.78812232 0 0.79932541
v 1.5762428 0 0.79932522
v 1.576242 0.18617734 0.79932541
v 0.78812232 0 0.79932541
v 0.78812232 0 1.1989881
v 1.5762428 0 1.1989881
v 1.5762428 0 0.79932522
v 0.78812186 0.37235431 0.39966258
v 0.78812251 0.18617716 0.39966258
v 1.576243 0.18617716 0.39966258
v 1.576242 0.37235431 0.39966258
v 0.78812251 0.18617716 0.39966258
v 0.78812186 0.18617734 0.79932541
v 1.576242 0.18617734 0.79932541
v 1.576243 0.18617716 0.39966258
v 0.78812195 0.55853128 -1.1641532e-07
v 0.78812176 0.37235413 -1.1641532e-07
v 1.576242 0.37235413 -1.1641532e-07
v 1.5762424 0.55853128 -1.1641532e-07
v 0.78812176 0.37235413 -1.1641532e-07
v 0.78812186 0.37235431 0.39966258
v 1.576242 0.37235431 0.39966258
v 1.576242 0.37235413 -1.1641532e-07
v 0.7881213 0.74470853 -0.39966275
v 0.7881213 0.55853128 -0.39966275
v 1.5762417 0.55853128 -0.39966275
v 1.5762417 0.74470853 -0.39966275
v 0.7881213 0.55853128 -0.39966275
v 0.78812195 0.55853128 -1.1641532e-07
v 1.5762424 0.55853128 -1.1641532e-07
v 1.5762417 0.55853128 -0.39966275
v 0.78811953 0.9308856 -0.79932518
v 0.78811953 0.74470844 -0.79932518
v 1.5762398 0.74470844 -0.79932518
v 1.5762398 0.93088569 -0.79932518
v 0.78811953 0.74470844 -0.79932518
v 0.7881213 0.74470853 -0.39966275
v 1.5762417 0.74470853 -0.39966275
v 1.5762398 0.74470844 -0.79932518
v 0.78811822 1.1170627 -1.1989878
v 0.78811888 0.9308856 -1.198988
v 1.5762394 0.9308856 -1.1989881
v 1.5762385 1.1170628 -1.1989878
v 0.78811888 0.9308856 -1.198988
v 0.78811953 0.9308856 -0.79932518
v 1.5762398 0.93088569 -0.79932518
v 1.5762394 0.9308856 -1.1989881
v -0.78812204 0.9308856 -1.1989879
v -0.7881212 0.9308856 -0.79932518
v -8.7916838e-07 0.9308856 -0.79932518
v -1.5944241e-06 0.9308856 -1.1989879
v -0.7881226 1.1170627 -1.1989878
v -0.78812204 0.9308856 -1.1989879
v -1.5944241e-06 0.9308856 -1.1989879
v -2.1904707e-06 1.1170627 -1.1989878
v -0.7881212 0.74470844 -0.79932518
v -0.78811944 0.74470853 -0.39966275
v 9.0897085e-07 0.74470853 -0.39966275
v -8.7916838e-07 0.74470844 -0.79932518
v -0.7881212 0.9308856 -0.79932518
v -0.7881212 0.74470844 -0.79932518
v -8.7916838e-07 0.74470844 -0.79932518
v -8.7916838e-07 0.9308856 -0.79932518
v -0.78811934 0.55853128 -0.39966275
v -0.78811897 0.55853128 -1.1641532e-07
v 1.5050173e-06 0.55853128 -1.1641532e-07
v 1.0281801e-06 0.55853128 -0.39966275
v -0.78811944 0.74470853 -0.39966275
v -0.78811934 0.55853128 -0.39966275
v 1.0281801e-06 0.55853128 -0.39966275
v 9.0897085e-07 0.74470853 -0.39966275
v -0.78811878 0.37235413 -1.1641532e-07
v -0.78811869 0.37235431 0.39966258
v 1.6242266e-06 0.37235431 0.39966258
v 1.5050173e-06 0.37235413 -1.1641532e-07
v -0.78811897 0.55853128 -1.1641532e-07
v -0.78811878 0.37235413 -1.1641532e-07
v 1.5050173e-06 0.37235413 -1.1641532e-07
v 1.5050173e-06 0.55853128 -1.1641532e-07
v -0.78811832 0.18617716 0.39966258
v -0.7881186 0.18617734 0.79932541
v 1.6242266e-06 0.18617734 0.79932541
v 2.1010637e-06 0.18617716 0.39966258
v -0.78811869 0.37235431 0.39966258
v -0.78811832 0.18617716 0.39966258
v 2.1010637e-06 0.18617716 0.39966258
v 1.6242266e-06 0.37235431 0.39966258
v -0.7881186 0 0.79932541
v -0.7881186 0 1.1989881
v 1.8626451e-06 0 1.1989881
v 1.8626451e-06 0 0.79932541
v -0.7881186 0.18617734 0.79932541
v -0.7881186 0 0.79932541
v 1.8626451e-06 0 0.79932541
v 1.6242266e-06 0.18617734 0.79932541
v -1.5762387 0.18617716 0.79932522
v -1.5762391 0 0.79932541
v -0.7881186 0 0.79932541
v -0.7881186 0.18617734 0.79932541
v -1.5762391 0 0.79932541
v -1.5762391 0 1.1989881
v -0.7881186 0 1.1989881
v -0.7881186 0 0.79932541
v -1.5762391 0.37235413 0.39966258
v -1.5762387 0.18617716 0.39966258
v -0.78811832 0.18617716 0.39966258
v -0.78811869 0.37235431 0.39966258
v -1.5762387 0.18617716 0.39966258
v -1.5762387 0.18617716 0.79932522
v -0.7881186 0.18617734 0.79932541
v -0.78811832 0.18617716 0.39966258
v -1.5762394 0.55853128 -1.1641532e-07
v -1.5762391 0.37235413 -1.1641532e-07
v -0.78811878 0.37235413 -1.1641532e-07
v -0.78811897 0.55853128 -1.1641532e-07
v -1.5762391 0.37235413 -1.1641532e-07
v -1.5762391 0.37235413 0.39966258
v -0.78811869 0.37235431 0.39966258
v -0.78811878 0.37235413 -1.1641532e-07
v -1.5762398 0.74470844 -0.39966275
v -1.5762398 0.55853128 -0.39966275
v -0.78811934 0.55853128 -0.39966275
v -0.78811944 0.74470853 -0.39966275
v -1.5762398 0.55853128 -0.39966275
v -1.5762394 0.55853128 -1.1641532e-07
v -0.78811897 0.55853128 -1.1641532e-07
v -0.78811934 0.55853128 -0.39966275
v -1.5762417 0.9308856 -0.79932518
v -1.5762417 0.74470844 -0.79932518
v -0.7881212 0.74470844 -0.79932518
v -0.7881212 0.9308856 -0.79932518
v -1.5762417 0.74470844 -0.79932518
v -1.5762398 0.74470844 -0.39966275
v -0.78811944 0.74470853 -0.39966275
v -0.7881212 0.74470844 -0.79932518
v -1.576243 1.1170627 -1.1989878
v -1.5762426 0.9308856 -1.1989878
v -0.78812204 0.9308856 -1.1989879
v -0.7881226 1.1170627 -1.1989878
v -1.5762426 0.9308856 -1.1989878
v -1.5762417 0.9308856 -0.79932518
v -0.7881212 0.9308856 -0.79932518
v -0.78812204 0.9308856 -1.1989879
v -1.5944241e-06 0.9308856 -1.1989879
v -8.7916838e-07 0.9308856 -0.79932518
v 0.78811953 0.9308856 -0.79932518
v 0.78811888 0.9308856 -1.198988
v -2.1904707e-06 1.1170627 -1.1989878
v -1.5944241e-06 0.9308856 -1.1989879
v 0.78811888 0.9308856 -1.198988
v 0.78811822 1.1170627 -1.1989878
v -8.7916838e-07 0.74470844 -0.79932518
v 9.0897085e-07 0.74470853 -0.39966275
v 0.7881213 0.74470853 -0.39966275
v 0.78811953 0.74470844 -0.79932518
v -8.7916838e-07 0.9308856 -0.79932518
v -8.7916838e-07 0.74470844 -0.79932518
v 0.78811953 0.74470844 -0.79932518
v 0.78811953 0.9308856 -0.79932518
v 1.0281801e-06 0.55853128 -0.39966275
v 1.5050173e-06 0.55853128 -1.1641532e-07
v 0.78812195 0.55853128 -1.1641532e-07
v 0.7881213 0.55853128 -0.39966275
v 9.0897085e-07 0.74470853 -0.39966275
v 1.0281801e-06 0.55853128 -0.39966275
v 0.7881213 0.55853128 -0.39966275
v 0.7881213 0.74470853 -0.39966275
v 1.5050173e-06 0.37235413 -1.1641532e-07
v 1.6242266e-06 0.37235431 0.39966258
v 0.78812186 0.37235431 0.39966258
v 0.78812176 0.37235413 -1.1641532e-07
v 1.5050173e-06 0.55853128 -1.1641532e-07
v 1.5050173e-06 0.37235413 -1.1641532e-07
v 0.78812176 0.37235413 -1.1641532e-07
v 0.78812195 0.55853128 -1.1641532e-07
v 2.1010637e-06 0.18617716 0.39966258
v 1.6242266e-06 0.18617734 0.79932541
v 0.78812186 0.18617734 0.79932541
v 0.78812251 0.18617716 0.39966258
v 1.6242266e-06 0.37235431 0.39966258
v 2.1010637e-06 0.18617716 0.39966258
v 0.78812251 0.18617716 0.39966258
v 0.78812186 0.37235431 0.39966258
v 1.8626451e-06 0 0.79932541
v 1.8626451e-06 0 1.1989881
v 0.78812232 0 1.1989881
v 0.78812232 0 0.79932541
v 1.6242266e-06 0.18617734 0.79932541
v 1.8626451e-06 0 0.79932541
v 0.78812232 0 0.79932541
v 0.78812186 0.18617734 0.79932541
vt 0.91598928 0.072001398
vt 0.95695847 0.072009385
vt 0.95727855 0.14268225
vt 0.9168058 0.14532244
vt 0.86248982 0.088488638
vt 0.91293454 0.088496387
vt 0.91332865 0.15916914
vt 0.86349517 0.16180968
vt 0.91599035 0.072001398
vt 0.95695943 0.072009385
vt 0.9572795 0.14268225
vt 0.91680688 0.14532244
vt 0.91598928 0.072001636
vt 0.95695943 0.072009146
vt 0.9572795 0.1426819
vt 0.9168058 0.1453228
vt 0.91598928 0.072001636
vt 0.95695847 0.072009146
vt 0.95727855 0.1426819
vt 0.9168058 0.1453228
vt 0.95747977 0.14264363
vt 0.91700619 0.14528418
vt 0.91618967 0.071963012
vt 0.9571597 0.071970761
vt 0.91598928 0.072001398
vt 0.95696682 0.072009146
vt 0.95728725 0.1426819
vt 0.9168058 0.14532244
vt 0.8624903 0.088488638
vt 0.91293335 0.088496625
vt 0.91332746 0.1591695
vt 0.86349517 0.16180968
vt 0.91598952 0.072001398
vt 0.95695847 0.072009146
vt 0.95727855 0.1426819
vt 0.91680592 0.14532244
vt 0.78067428 0.30665743
vt 0.78058177 0.25775784
vt 0.86170977 0.25878465
vt 0.86268502 0.30628824
vt 0.95747882 0.14264351
vt 0.91700608 0.14528406
vt 0.91618955 0.071962893
vt 0.95715874 0.071970642
vt 0.7806744 0.30665743
vt 0.78058177 0.25775784
vt 0.86170977 0.25878465
vt 0.86268514 0.30628824
vt 0.78067136 0.30664092
vt 0.78057891 0.25774139
vt 0.86170691 0.25876814
vt 0.86268198 0.30627173
vt 0.95746452 0.14264613
vt 0.91699177 0.14528668
vt 0.91617525 0.071965635
vt 0.95714444 0.071973383
vt 0.95746547 0.14264625
vt 0.91699177 0.14528644
vt 0.91617537 0.071965396
vt 0.95714539 0.071973383
vt 0.91600382 0.071998894
vt 0.95697278 0.072006643
vt 0.95729285 0.14267927
vt 0.91682035 0.14531982
vt 0.86250859 0.088486135
vt 0.91295099 0.088493884
vt 0.91334504 0.15916675
vt 0.86351353 0.16180706
vt 0.9160037 0.071998894
vt 0.95698041 0.072006643
vt 0.95730084 0.14267927
vt 0.91682023 0.14531982
vt 0.78067124 0.30664092
vt 0.78057849 0.25774121
vt 0.86170661 0.25876814
vt 0.86268198 0.30627173
vt 0.9160037 0.071998894
vt 0.95697278 0.072006643
vt 0.95729285 0.14267927
vt 0.91682023 0.14532006
vt 0.91600358 0.071998894
vt 0.95697373 0.072006643
vt 0.95729381 0.14267927
vt 0.91682011 0.14532006
vt 0.91600478 0.071998894
vt 0.95697373 0.072006643
vt 0.95729381 0.14267951
vt 0.9168213 0.14531982
vt 0.86250758 0.088486135
vt 0.91295213 0.088493884
vt 0.91334623 0.15916651
vt 0.86351293 0.16180706
vt 0.9160037 0.071998894
vt 0.95697278 0.072006643
vt 0.95729285 0.14267951
vt 0.91682023 0.14531982
vt 0.91618967 0.071962893
vt 0.95715874 0.071970642
vt 0.95747882 0.14264351
vt 0.91700619 0.14528394
vt 0.91618967 0.071962893
vt 0.9571597 0.071970642
vt 0.95747977 0.14264339
vt 0.91700619 0.14528394
vt 0.91619086 0.071962893
vt 0.9571597 0.071970642
vt 0.95747977 0.14264351
vt 0.91700727 0.14528394
vt 0.86170977 0.25878453
vt 0.86268514 0.30628824
vt 0.78067452 0.30665743
vt 0.78058165 0.25775772
vt 0.91618967 0.071962893
vt 0.95715874 0.071970642
vt 0.95747882 0.14264339
vt 0.91700619 0.14528406
vt 0.91332865 0.1591695
vt 0.86349517 0.16181004
vt 0.86248982 0.088488877
vt 0.91293454 0.088496625
vt 0.91618967 0.071962893
vt 0.95716614 0.071970642
vt 0.95748645 0.14264339
vt 0.91700619 0.14528394
vt 0.91619086 0.071962893
vt 0.95715874 0.071970642
vt 0.95747882 0.14264351
vt 0.91700703 0.14528394
vt 0.91618991 0.071962893
vt 0.95715874 0.071970642
vt 0.95747882 0.14264339
vt 0.91700631 0.14528394
vt 0.78062969 0.30642641
vt 0.78053737 0.25752676
vt 0.86166537 0.2585535
vt 0.86264044 0.30605721
vt 0.95727855 0.14268225
vt 0.9168058 0.1453228
vt 0.91598928 0.072001636
vt 0.95695847 0.072009385
vt 0.91332865 0.1591695
vt 0.86349535 0.16180968
vt 0.86249 0.088488638
vt 0.91293454 0.088496625
vt 0.91334623 0.15916675
vt 0.86351293 0.16180706
vt 0.86250758 0.088486135
vt 0.91295213 0.088493884
vt 0.95729285 0.14267951
vt 0.91682011 0.14532006
vt 0.91600358 0.071998894
vt 0.95697278 0.072006643
vt 0.78063273 0.30644292
vt 0.78054041 0.25754339
vt 0.86166823 0.25857013
vt 0.86264348 0.30607373
vt 0.91617548 0.071965396
vt 0.95714444 0.071973145
vt 0.95746452 0.1426459
vt 0.91699201 0.14528644
vt 0.91617584 0.071965396
vt 0.95714444 0.071973383
vt 0.95746452 0.14264613
vt 0.91699213 0.14528644
vt 0.91617537 0.071965396
vt 0.95715243 0.071973145
vt 0.95747286 0.1426459
vt 0.91699177 0.14528644
vt 0.91334623 0.15916687
vt 0.86351293 0.16180742
vt 0.86250758 0.088486254
vt 0.91295213 0.088494003
vt 0.91617537 0.071965635
vt 0.95714444 0.071973145
vt 0.95746452 0.1426459
vt 0.91699177 0.14528668
vt 0.86170661 0.25876802
vt 0.86268228 0.30627173
vt 0.78067166 0.30664092
vt 0.78057861 0.25774121
vt 0.91617644 0.071965396
vt 0.95714539 0.071973383
vt 0.95746547 0.14264613
vt 0.91699284 0.14528644
vt 0.91617537 0.071965396
vt 0.95714539 0.071973145
vt 0.95746547 0.1426459
vt 0.91699177 0.14528644
vt 0.91617537 0.071965396
vt 0.95714444 0.071973383
vt 0.95746452 0.14264613
vt 0.91699177 0.14528644
vn 0 0 -1
vn 0 0 -1
vn 0 0 -1
vn 0 0 -1
vn 0 -1 0
vn 0 -1 0
vn 0 -1 0
vn 0 -1 0
vn 0 0 -1
vn 0 0 -1
vn 0 0 -1
vn 0 0 -1
vn 0 -1 2.982747e-07
vn 0 -1 2.982747e-07
vn 0 -1 2.982747e-07
vn 0 -1 2.982747e-07
vn 0 2.0311001e-07 -1
vn 0 2.0311001e-07 -1
vn 0 2.0311001e-07 -1
vn 0 2.0311001e-07 -1
vn 0 -1 2.9827478e-07
vn 0 -1 2.9827478e-07
vn 0 -1 2.9827478e-07
vn 0 -1 2.9827478e-07
vn 0 0 -1
vn 0 0 -1
vn 0 0 -1
vn 0 0 -1
vn 0 -1 0
vn 0 -1 0
vn 0 -1 0
vn 0 -1 0
vn 0 0 -1
vn 0 0 -1
vn 0 0 -1
vn 0 0 -1
vn 0 -1 2.9827493e-07
vn 0 -1 2.9827493e-07
vn 0 -1 2.9827493e-07
vn 0 -1 2.9827493e-07
vn 0 1.2186593e-06 -1
vn 0 1.2186593e-06 -1
vn 0 1.2186593e-06 -1
vn 0 1.2186593e-06 -1
vn 0 -1 1.4913724e-07
vn 0 -1 1.4913724e-07
vn 0 -1 1.4913724e-07
vn 0 -1 1.4913724e-07
vn 0 -1 0
vn 0 -1 0
vn 0 -1 0
vn 0 -1 0
vn 0 4.0621987e-07 -1
vn 0 4.0621987e-07 -1
vn 0 4.0621987e-07 -1
vn 0 4.0621987e-07 -1
vn 0 -1 2.9827493e-07
vn 0 -1 2.9827493e-07
vn 0 -1 2.9827493e-07
vn 0 -1 2.9827493e-07
vn 0 0 -1
vn 0 0 -1
vn 0 0 -1
vn 0 0 -1
vn 0 -1 0
vn 0 -1 0
vn 0 -1 0
vn 0 -1 0
vn 0 0 -1
vn 0 0 -1
vn 0 0 -1
vn 0 0 -1
vn 0 -1 2.9827478e-07
vn 0 -1 2.9827478e-07
vn 0 -1 2.9827478e-07
vn 0 -1 2.9827478e-07
vn 0 0 -1
vn 0 0 -1
vn 0 0 -1
vn 0 0 -1
vn 0 -1 2.982747e-07
vn 0 -1 2.982747e-07
vn 0 -1 2.982747e-07
vn 0 -1 2.982747e-07
vn 0 0 -1
vn 0 0 -1
vn 0 0 -1
vn 0 0 -1
vn 0 -1 0
vn 0 -1 0
vn 0 -1 0
vn 0 -1 0
vn 0 0 -1
vn 0 0 -1
vn 0 0 -1
vn 0 0 -1
vn 0 0 -1
vn 0 0 -1
vn 0 0 -1
vn 0 0 -1
vn 0 -1 0
vn 0 -1 0
vn 0 -1 0
vn 0 -1 0
vn 0 0 -1
vn 0 0 -1
vn 0 0 -1
vn 0 0 -1
vn 1.2773432e-07 -1 1.4913736e-07
vn 1.2773432e-07 -1 1.4913736e-07
vn 1.2773432e-07 -1 1.4913736e-07
vn 1.2773432e-07 -1 1.4913736e-07
vn 0 2.0310998e-07 -1
vn 0 2.0310998e-07 -1
vn 0 2.0310998e-07 -1
vn 0 2.0310998e-07 -1
vn 1.8923173e-07 -1 1.4913736e-07
vn 1.8923173e-07 -1 1.4913736e-07
vn 1.8923173e-07 -1 1.4913736e-07
vn 1.8923173e-07 -1 1.4913736e-07
vn 0 0 -1
vn 0 0 -1
vn 0 0 -1
vn 0 0 -1
vn 0 -1 0
vn 0 -1 0
vn 0 -1 0
vn 0 -1 0
vn 0 0 -1
vn 0 0 -1
vn 0 0 -1
vn 0 0 -1
vn 1.8923183e-07 -1 1.4913714e-07
vn 1.8923183e-07 -1 1.4913714e-07
vn 1.8923183e-07 -1 1.4913714e-07
vn 1.8923183e-07 -1 1.4913714e-07
vn 0 0 -1
vn 0 0 -1
vn 0 0 -1
vn 0 0 -1
vn 0 -1 0
vn 0 -1 0
vn 0 -1 0
vn 0 -1 0
vn 0 -1 0
vn 0 -1 0
vn 0 -1 0
vn 0 -1 0
vn 0 8.1243974e-07 -1
vn 0 8.1243974e-07 -1
vn 0 8.1243974e-07 -1
vn 0 8.1243974e-07 -1
vn 0 -1 2.9827495e-07
vn 0 -1 2.9827495e-07
vn 0 -1 2.9827495e-07
vn 0 -1 2.9827495e-07
vn 0 0 -1
vn 0 0 -1
vn 0 0 -1
vn 0 0 -1
vn 0 -1 0
vn 0 -1 0
vn 0 -1 0
vn 0 -1 0
vn 0 0 -1
vn 0 0 -1
vn 0 0 -1
vn 0 0 -1
vn 0 -1 2.9827478e-07
vn 0 -1 2.9827478e-07
vn 0 -1 2.9827478e-07
vn 0 -1 2.9827478e-07
vn 0 0 -1
vn 0 0 -1
vn 0 0 -1
vn 0 0 -1
vn 0 -1 2.9827464e-07
vn 0 -1 2.9827464e-07
vn 0 -1 2.9827464e-07
vn 0 -1 2.9827464e-07
vn 0 -4.0621993e-07 -1
vn 0 -4.0621993e-07 -1
vn 0 -4.0621993e-07 -1
vn 0 -4.0621993e-07 -1
vn 0 -1 0
vn 0 -1 0
vn 0 -1 0
vn 0 -1 0
vn 0 0 -1
vn 0 0 -1
vn 0 0 -1
vn 0 0 -1
f 3/3/3 2/2/2 1/1/1
f 4/4/4 3/3/3 1/1/1
f 7/7/7 6/6/6 5/5/5
f 8/8/8 7/7/7 5/5/5
f 11/11/11 10/10/10 9/9/9
f 12/12/12 11/11/11 9/9/9
f 15/15/15 14/14/14 13/13/13
f 16/16/16 15/15/15 13/13/13
f 19/19/19 18/18/18 17/17/17
f 20/20/20 19/19/19 17/17/17
f 23/23/23 22/22/22 21/21/21
f 24/24/24 23/23/23 21/21/21
f 27/27/27 26/26/26 25/25/25
f 28/28/28 27/27/27 25/25/25
f 31/31/31 30/30/30 29/29/29
f 32/32/32 31/31/31 29/29/29
f 35/35/35 34/34/34 33/33/33
f 36/36/36 35/35/35 33/33/33
f 39/39/39 38/38/38 37/37/37
f 40/40/40 39/39/39 37/37/37
f 43/43/43 42/42/42 41/41/41
f 44/44/44 43/43/43 41/41/41
f 47/47/47 46/46/46 45/45/45
f 48/48/48 47/47/47 45/45/45
f 51/51/51 50/50/50 49/49/49
f 52/52/52 51/51/51 49/49/49
f 55/55/55 54/54/54 53/53/53
f 56/56/56 55/55/55 53/53/53
f 59/59/59 58/58/58 57/57/57
f 60/60/60 59/59/59 57/57/57
f 63/63/63 62/62/62 61/61/61
f 64/64/64 63/63/63 61/61/61
f 67/67/67 66/66/66 65/65/65
f 68/68/68 67/67/67 65/65/65
f 71/71/71 70/70/70 69/69/69
f 72/72/72 71/71/71 69/69/69
f 75/75/75 74/74/74 73/73/73
f 76/76/76 75/75/75 73/73/73
f 79/79/79 78/78/78 77/77/77
f 80/80/80 79/79/79 77/77/77
f 83/83/83 82/82/82 81/81/81
f 84/84/84 83/83/83 81/81/81
f 87/87/87 86/86/86 85/85/85
f 88/88/88 87/87/87 85/85/85
f 91/91/91 90/90/90 89/89/89
f 92/92/92 91/91/91 89/89/89
f 95/95/95 94/94/94 93/93/93
f 96/96/96 95/95/95 93/93/93
f 99/99/99 98/98/98 97/97/97
f 100/100/100 99/99/99 97/97/97
f 103/103/103 102/102/102 101/101/101
f 104/104/104 103/103/103 101/101/101
f 107/107/107 106/106/106 105/105/105
f 108/108/108 107/107/107 105/105/105
f 111/111/111 110/110/110 109/109/109
f 112/112/112 111/111/111 109/109/109
f 115/115/115 114/114/114 113/113/113
f 116/116/116 115/115/115 113/113/113
f 119/119/119 118/118/118 117/117/117
f 120/120/120 119/119/119 117/117/117
f 123/123/123 122/122/122 121/121/121
f 124/124/124 123/123/123 121/121/121
f 127/127/127 126/126/126 125/125/125
f 128/128/128 127/127/127 125/125/125
f 131/131/131 130/130/130 129/129/129
f 132/132/132 131/131/131 129/129/129
f 135/135/135 134/134/134 133/133/133
f 136/136/136 135/135/135 133/133/133
f 139/139/139 138/138/138 137/137/137
f 140/140/140 139/139/139 137/137/137
f 143/143/143 142/142/142 141/141/141
f 144/144/144 143/143/143 141/141/141
f 147/147/147 146/146/146 145/145/145
f 148/148/148 147/147/147 145/145/145
f 151/151/151 150/150/150 149/149/149
f 152/152/152 151/151/151 149/149/149
f 155/155/155 154/154/154 153/153/153
f 156/156/156 155/155/155 153/153/153
f 159/159/159 158/158/158 157/157/157
f 160/160/160 159/159/159 157/157/157
f 163/163/163 162/162/162 161/161/161
f 164/164/164 163/163/163 161/161/161
f 167/167/167 166/166/166 165/165/165
f 168/168/168 167/167/167 165/165/165
f 171/171/171 170/170/170 169/169/169
f 172/172/172 171/171/171 169/169/169
f 175/175/175 174/174/174 173/173/173
f 176/176/176 175/175/175 173/173/173
f 179/179/179 178/178/178 177/177/177
f 180/180/180 179/179/179 177/177/177
f 183/183/183 182/182/182 181/181/181
f 184/184/184 183/183/183 181/181/181
f 187/187/187 186/186/186 185/185/185
f 188/188/188 187/187/187 185/185/185
f 191/191/191 190/190/190 189/189/189
f 192/192/192 191/191/191 189/189/189
