# User-supplied Mayan dungeon glTF module; Y-up meters, bottom centered
mtllib Mayan.mtl
o Cube_087
usemtl SunkenKingdom
v -0.49617211 0.22714268 -0.37714274
v -1.4999987 0.22714268 -0.37714274
v -1.4999991 0 -0.37714274
v -0.49617221 0 -0.37714274
v 0.50765472 0.22714268 -0.37714274
v 0.50765458 0 -0.37714274
v -1.4999991 0.22714287 0.37714274
v -0.49617197 0.22714268 0.37714271
v -0.49617221 0 0.37714274
v -1.4999991 0 0.37714274
v 0.50765458 0 0.37714274
v 0.50765472 0.22714268 0.37714271
v 0.50765458 0 -0.37714274
v 0.50765458 0 0.37714274
v 1.5 0 0.37714274
v 1.5 0 -0.37714274
v -1.4999987 0.22714268 -0.37714274
v -1.4999991 0.22714287 0.37714274
v -1.4999991 0 0.37714274
v -1.4999991 0 -0.37714274
v 0.50765472 0.22714268 0.37714271
v 0.50765472 0.22714268 -0.37714274
v 0.50765458 0 -0.37714274
v 0.50765458 0 0.37714274
v -0.49617221 0 -0.37714274
v -0.49617221 0 0.37714274
v 0.50765458 0 0.37714274
v 0.50765458 0 -0.37714274
v -1.4999991 0 -0.37714274
v -1.4999991 0 0.37714274
v 1.5 0.22714287 0.37714274
v 1.5 0.22714268 -0.37714274
v 1.5 0 -0.37714274
v 1.5 0 0.37714274
v 1.5 0.22714268 -0.37714274
v 0.50765472 0.22714268 -0.37714274
v 0.50765458 0 -0.37714274
v 1.5 0 -0.37714274
v 0.50765472 0.22714268 0.37714271
v 1.5 0.22714287 0.37714274
v 1.5 0 0.37714274
v 0.50765458 0 0.37714274
v 1.5 0.64937621 0.14999985
v 1.5 0.22714287 0.14999988
v 1.5 0.22714287 0.37714274
v 1.5 0.64937621 0.3771427
v 1.5 0.22714287 0.14999988
v 0.50765472 0.22714268 0.14999988
v 0.50765472 0.22714268 0.37714271
v 1.5 0.22714287 0.37714274
v 0.50765458 0.64937621 0.14999985
v 1.5 0.64937621 0.14999985
v 1.5 0.64937621 0.3771427
v 0.50765472 0.64937621 0.3771427
v 0.50765472 0.22714268 0.37714271
v 0.50765472 0.64937621 0.3771427
v 1.5 0.64937621 0.3771427
v 1.5 0.22714287 0.37714274
v 0.50765472 0.22714268 0.14999988
v -0.49617197 0.22714268 0.14999988
v -0.49617197 0.22714268 0.37714271
v 0.50765472 0.22714268 0.37714271
v -0.49617197 0.64937621 0.14999985
v 0.50765458 0.64937621 0.14999985
v 0.50765472 0.64937621 0.3771427
v -0.49617197 0.64937621 0.3771427
v -0.49617197 0.22714268 0.37714271
v -0.49617197 0.64937621 0.3771427
v 0.50765472 0.64937621 0.3771427
v 0.50765472 0.22714268 0.37714271
v -0.49617197 0.22714268 0.14999988
v -1.4999979 0.22714287 0.15000002
v -1.4999991 0.22714287 0.37714274
v -0.49617197 0.22714268 0.37714271
v -1.4999987 0.64937621 0.14999985
v -0.49617197 0.64937621 0.14999985
v -0.49617197 0.64937621 0.3771427
v -1.4999987 0.64937621 0.3771427
v -1.4999991 0.22714287 0.37714274
v -1.4999987 0.64937621 0.3771427
v -0.49617197 0.64937621 0.3771427
v -0.49617197 0.22714268 0.37714271
v -1.4999979 0.22714287 0.15000002
v -1.4999987 0.64937621 0.14999985
v -1.4999987 0.64937621 0.3771427
v -1.4999991 0.22714287 0.37714274
v -0.49617211 0.22714268 -0.37714274
v -1.4999987 0.22714268 -0.37714274
v -1.4999996 0.22714287 -0.14999982
v -0.49617211 0.22714268 -0.14999992
v 0.50765472 0.22714268 -0.37714274
v 0.50765472 0.22714268 -0.14999992
v 1.5 0.22714268 -0.37714274
v 1.4999995 0.22714287 -0.14999992
v -1.4999987 0.64937621 -0.37714274
v -0.49617197 0.64937621 -0.37714274
v -0.49617179 0.64937621 -0.14999992
v -1.5 0.64937621 -0.14999992
v 0.50765458 0.64937621 -0.14999992
v 0.50765458 0.64937621 -0.37714274
v 1.5 0.64937621 -0.14999992
v 1.5 0.64937621 -0.37714274
v -0.49617211 0.22714268 -0.37714274
v -0.49617197 0.64937621 -0.37714274
v -1.4999987 0.64937621 -0.37714274
v -1.4999987 0.22714268 -0.37714274
v 0.50765472 0.22714268 -0.37714274
v 0.50765458 0.64937621 -0.37714274
v 1.5 0.22714268 -0.37714274
v 1.5 0.64937621 -0.37714274
v -1.4999996 0.22714287 -0.14999982
v -1.5 0.64937621 -0.14999992
v -0.49617179 0.64937621 -0.14999992
v -0.49617211 0.22714268 -0.14999992
v -1.4999987 0.22714268 -0.37714274
v -1.4999987 0.64937621 -0.37714274
v -1.5 0.64937621 -0.14999992
v -1.4999996 0.22714287 -0.14999982
v 1.5 0.64937621 -0.37714274
v 1.5 0.22714268 -0.37714274
v 1.4999995 0.22714287 -0.14999992
v 1.5 0.64937621 -0.14999992
v -1.4999996 0.22714287 -0.14999982
v -1.4999979 0.22714287 0.15000002
v 1.5 0.22714287 0.14999988
v 1.4999995 0.22714287 -0.14999992
v 0.50765458 0.64937621 -0.14999992
v 1.5 0.64937621 -0.14999992
v 1.5 0.64937621 0.14999985
v 0.50765458 0.64937621 0.14999985
v -0.49617179 0.64937621 -0.14999992
v 0.50765458 0.64937621 -0.14999992
v 0.50765458 0.64937621 0.14999985
v -0.49617197 0.64937621 0.14999985
v -1.5 0.64937621 -0.14999992
v -1.4999987 0.64937621 0.14999985
v -1.4999986 0.65489653 -0.14999982
v -1.4999974 0.65489653 0.15000004
v -1.4999973 0.22714287 0.15000006
v -1.4999987 0.22714287 -0.14999982
v 1.4999982 0.65489653 -0.14999982
v 1.4999995 0.22714287 -0.14999992
v 1.5 0.22714287 0.14999988
v 1.4999995 0.65489653 0.15000004
vt 0.29007119 0.18139809
vt 0.35859552 0.18139809
vt 0.35859552 0.1986264
vt 0.29007119 0.1986264
vt 0.22154683 0.18139809
vt 0.22154683 0.1986264
vt 0.34221986 0.04965657
vt 0.27369553 0.04965657
vt 0.27369559 0.032428324
vt 0.34221986 0.032428324
vt 0.20517126 0.032428324
vt 0.20517121 0.04965657
vt 0.28928742 0.22004765
vt 0.28928742 0.27993065
vt 0.22154683 0.27993065
vt 0.22154683 0.22004765
vt 0.39942807 0.18099529
vt 0.34260237 0.18099529
vt 0.34260237 0.1637671
vt 0.39942807 0.1637671
vt 0.34260237 0.14613599
vt 0.39942807 0.14613599
vt 0.39942807 0.16336441
vt 0.34260237 0.16336441
vt 0.27369586 0.12111235
vt 0.27369577 0.18099529
vt 0.20517147 0.18099529
vt 0.20517151 0.12111235
vt 0.34222007 0.12111235
vt 0.34222007 0.18099529
vt 0.33130538 0.071053147
vt 0.27447954 0.071053147
vt 0.2744796 0.053824842
vt 0.33130538 0.053824842
vt 0.068906516 0.0092711449
vt 0.13664716 0.0092711449
vt 0.13664716 0.026499391
vt 0.068906516 0.026499391
vt 0.39904594 0.071053207
vt 0.33130538 0.071053147
vt 0.33130538 0.053824842
vt 0.399046 0.053824961
vt 0.34261274 0.1457333
vt 0.34260237 0.11370784
vt 0.35895106 0.11370188
vt 0.35896158 0.14572746
vt 0.27447954 0.10348147
vt 0.34222007 0.10348147
vt 0.34222007 0.12070972
vt 0.27447954 0.12070972
vt 0.28928742 0.21964496
vt 0.22154683 0.21964496
vt 0.22154683 0.20241672
vt 0.28928742 0.20241672
vt 0.34181836 0
vt 0.34181836 0.032025456
vt 0.27407771 0.032025456
vt 0.27407777 0
vt 0.35313988 0.20771974
vt 0.35313988 0.27993065
vt 0.33679113 0.27993065
vt 0.33679113 0.20771974
vt 0.06852439 0.026499391
vt 0 0.026499391
vt 0 0.0092711449
vt 0.06852439 0.0092711449
vt 0.27369559 0
vt 0.27369559 0.032025456
vt 0.20517121 0.032025456
vt 0.20517121 0
vt 0.32006013 0.27993065
vt 0.32006013 0.2077198
vt 0.33640891 0.20771974
vt 0.33640897 0.27993065
vt 0.27369577 0.12070972
vt 0.20517147 0.12070972
vt 0.20517147 0.10348129
vt 0.27369577 0.10348147
vt 0.41112638 0.017631173
vt 0.41112638 0.04965657
vt 0.34260204 0.04965657
vt 0.34260204 0.017631114
vt 0.39242345 0.11370784
vt 0.39242345 0.1457333
vt 0.37607461 0.1457333
vt 0.37607461 0.11370784
vt 0.15262419 0.23067683
vt 0.22114852 0.23065186
vt 0.22115421 0.24788016
vt 0.15262985 0.24790508
vt 0.084099814 0.23070174
vt 0.084105462 0.24793005
vt 0.016359255 0.23072636
vt 0.016364902 0.24795461
vt 0.22113805 0.1986264
vt 0.1526137 0.19865131
vt 0.15260804 0.18142307
vt 0.22113241 0.18139809
vt 0.084083691 0.18144774
vt 0.084089339 0.19867617
vt 0.016343117 0.1814726
vt 0.016348764 0.19870085
vt 0.15262419 0.23067683
vt 0.1526137 0.19865131
vt 0.22113805 0.1986264
vt 0.22114852 0.23065186
vt 0.084099814 0.23070174
vt 0.084089339 0.19867617
vt 0.016359255 0.23072636
vt 0.016348764 0.19870085
vt 0.22115421 0.24788016
vt 0.22116467 0.27990574
vt 0.1526403 0.27993065
vt 0.15262985 0.24790508
vt 0.39242345 0.081279635
vt 0.39242345 0.11330515
vt 0.37607461 0.11330515
vt 0.37607461 0.081279635
vt 0.016348764 0.19870085
vt 0.016359255 0.23072636
vt 1.0475516e-05 0.23073226
vt 0 0.19870669
vt 0.23751993 0.49613988
vt 0.21592715 0.49613976
vt 0.21592721 0.28033328
vt 0.23751993 0.2803334
vt 0.28928742 0.22004765
vt 0.22154683 0.22004765
vt 0.22154683 0.27993065
vt 0.28928742 0.27993065
vt 0.27369586 0.12111235
vt 0.20517151 0.12111235
vt 0.20517147 0.18099529
vt 0.27369577 0.18099529
vt 0.34222007 0.12111235
vt 0.34222007 0.18099529
vt 0.45344704 0.16615891
vt 0.43185431 0.16615891
vt 0.43185431 0.052387118
vt 0.45344704 0.052387118
vt 0.45344704 0.16615891
vt 0.45344704 0.052387118
vt 0.43185431 0.052387118
vt 0.43185431 0.16615891
vn 0 -1.1229035e-07 -1
vn 0 -1.1229035e-07 -1
vn 0 -1.1229035e-07 -1
vn 0 -1.1229035e-07 -1
vn 0 0 -1
vn 0 0 -1
vn 0 0 1
vn 0 0 1
vn 0 0 1
vn 0 0 1
vn 0 1.3091491e-07 1
vn 0 1.3091491e-07 1
vn 0 -1 0
vn 0 -1 0
vn 0 -1 0
vn 0 -1 0
vn -1 7.8723167e-07 0
vn -1 7.8723167e-07 0
vn -1 7.8723167e-07 0
vn -1 7.8723167e-07 0
vn 1 -5.2482108e-07 0
vn 1 -5.2482108e-07 0
vn 1 -5.2482108e-07 0
vn 1 -5.2482108e-07 0
vn 0 -1 0
vn 0 -1 0
vn 0 -1 0
vn 0 -1 0
vn 0 -1 0
vn 0 -1 0
vn 1 0 0
vn 1 0 0
vn 1 0 0
vn 1 0 0
vn 0 -1.2600815e-07 -1
vn 0 -1.2600815e-07 -1
vn 0 -1.2600815e-07 -1
vn 0 -1.2600815e-07 -1
vn 0 0 1
vn 0 0 1
vn 0 0 1
vn 0 0 1
vn 1 0 0
vn 1 0 0
vn 1 0 0
vn 1 0 0
vn 2.6443456e-07 -1 0
vn 2.6443456e-07 -1 0
vn 2.6443456e-07 -1 0
vn 2.6443456e-07 -1 0
vn 0 1 0
vn 0 1 0
vn 0 1 0
vn 0 1 0
vn 0 0 1
vn 0 0 1
vn 0 0 1
vn 0 0 1
vn 0 -1 0
vn 0 -1 0
vn 0 -1 0
vn 0 -1 0
vn 0 1 0
vn 0 1 0
vn 0 1 0
vn 0 1 0
vn 0 0 1
vn 0 0 1
vn 0 0 1
vn 0 0 1
vn -2.6141018e-07 -1 0
vn -2.6141018e-07 -1 0
vn -2.6141018e-07 -1 0
vn -2.6141018e-07 -1 0
vn 0 1 0
vn 0 1 0
vn 0 1 0
vn 0 1 0
vn 0 0 1
vn 0 0 1
vn 0 0 1
vn 0 0 1
vn -1 -5.6466126e-07 -3.1074103e-06
vn -1 -5.6466126e-07 -3.1074103e-06
vn -1 -5.6466126e-07 -3.1074103e-06
vn -1 -5.6466126e-07 -3.1074103e-06
vn 0 -1 5.2482051e-07
vn 0 -1 5.2482051e-07
vn 0 -1 5.2482051e-07
vn 0 -1 5.2482051e-07
vn 0 -1 0
vn 0 -1 0
vn 0 -1 5.2482096e-07
vn 0 -1 5.2482096e-07
vn 0 1 0
vn 0 1 0
vn 0 1 0
vn 0 1 0
vn 0 1 0
vn 0 1 0
vn 0 1 0
vn 0 1 0
vn 0 0 -1
vn 0 0 -1
vn 0 0 -1
vn 0 0 -1
vn 0 0 -1
vn 0 0 -1
vn 0 0 -1
vn 0 0 -1
vn 0 1.4062681e-07 1
vn 0 1.4062681e-07 1
vn 0 1.4062681e-07 1
vn 0 1.4062681e-07 1
vn -1 -4.2349529e-07 -5.5933315e-06
vn -1 -4.2349529e-07 -5.5933315e-06
vn -1 -4.2349529e-07 -5.5933315e-06
vn -1 -4.2349529e-07 -5.5933315e-06
vn 1 -7.0582541e-07 5.5724399e-07
vn 1 -7.0582541e-07 5.5724399e-07
vn 1 -7.0582541e-07 5.5724399e-07
vn 1 -7.0582541e-07 5.5724399e-07
vn 0 -1 0
vn 0 -1 0
vn 0 -1 0
vn 0 -1 0
vn 0 1 0
vn 0 1 0
vn 0 1 0
vn 0 1 0
vn 0 1 0
vn 0 1 0
vn 0 1 0
vn 0 1 0
vn 0 1 0
vn 0 1 0
vn -1 0 4.6447808e-06
vn -1 0 4.6447808e-06
vn -1 0 4.6447808e-06
vn -1 0 4.6447808e-06
vn 1 1.9508079e-06 -3.2513469e-06
vn 1 1.9508079e-06 -3.2513469e-06
vn 1 1.9508079e-06 -3.2513469e-06
vn 1 1.9508079e-06 -3.2513469e-06
f 3/3/3 2/2/2 1/1/1
f 4/4/4 3/3/3 1/1/1
f 4/4/4 1/1/1 5/5/5
f 6/6/6 4/4/4 5/5/5
f 9/9/9 8/8/8 7/7/7
f 10/10/10 9/9/9 7/7/7
f 9/9/9 11/11/11 8/8/8
f 11/11/11 12/12/12 8/8/8
f 15/15/15 14/14/14 13/13/13
f 16/16/16 15/15/15 13/13/13
f 19/19/19 18/18/18 17/17/17
f 20/20/20 19/19/19 17/17/17
f 23/23/23 22/22/22 21/21/21
f 24/24/24 23/23/23 21/21/21
f 27/27/27 26/26/26 25/25/25
f 28/28/28 27/27/27 25/25/25
f 25/25/25 26/26/26 29/29/29
f 26/26/26 30/30/30 29/29/29
f 33/33/33 32/32/32 31/31/31
f 34/34/34 33/33/33 31/31/31
f 37/37/37 36/36/36 35/35/35
f 38/38/38 37/37/37 35/35/35
f 41/41/41 40/40/40 39/39/39
f 42/42/42 41/41/41 39/39/39
f 45/45/45 44/44/44 43/43/43
f 46/46/46 45/45/45 43/43/43
f 49/49/49 48/48/48 47/47/47
f 50/50/50 49/49/49 47/47/47
f 53/53/53 52/52/52 51/51/51
f 54/54/54 53/53/53 51/51/51
f 57/57/57 56/56/56 55/55/55
f 58/58/58 57/57/57 55/55/55
f 61/61/61 60/60/60 59/59/59
f 62/62/62 61/61/61 59/59/59
f 65/65/65 64/64/64 63/63/63
f 66/66/66 65/65/65 63/63/63
f 69/69/69 68/68/68 67/67/67
f 70/70/70 69/69/69 67/67/67
f 73/73/73 72/72/72 71/71/71
f 74/74/74 73/73/73 71/71/71
f 77/77/77 76/76/76 75/75/75
f 78/78/78 77/77/77 75/75/75
f 81/81/81 80/80/80 79/79/79
f 82/82/82 81/81/81 79/79/79
f 85/85/85 84/84/84 83/83/83
f 86/86/86 85/85/85 83/83/83
f 89/89/89 88/88/88 87/87/87
f 90/90/90 89/89/89 87/87/87
f 90/90/90 87/87/87 91/91/91
f 92/92/92 90/90/90 91/91/91
f 92/92/92 91/91/91 93/93/93
f 94/94/94 92/92/92 93/93/93
f 97/97/97 96/96/96 95/95/95
f 98/98/98 97/97/97 95/95/95
f 97/97/97 99/99/99 96/96/96
f 99/99/99 100/100/100 96/96/96
f 99/99/99 101/101/101 100/100/100
f 101/101/101 102/102/102 100/100/100
f 105/105/105 104/104/104 103/103/103
f 106/106/106 105/105/105 103/103/103
f 103/103/103 104/104/104 107/107/107
f 104/104/104 108/108/108 107/107/107
f 107/107/107 108/108/108 109/109/109
f 108/108/108 110/110/110 109/109/109
f 113/113/113 112/112/112 111/111/111
f 114/114/114 113/113/113 111/111/111
f 117/117/117 116/116/116 115/115/115
f 118/118/118 117/117/117 115/115/115
f 121/121/121 120/120/120 119/119/119
f 122/122/122 121/121/121 119/119/119
f 125/125/125 124/124/124 123/123/123
f 126/126/126 125/125/125 123/123/123
f 129/129/129 128/128/128 127/127/127
f 130/130/130 129/129/129 127/127/127
f 133/133/133 132/132/132 131/131/131
f 134/134/134 133/133/133 131/131/131
f 134/134/134 131/131/131 135/135/135
f 136/136/136 134/134/134 135/135/135
f 139/139/139 138/138/138 137/137/137
f 140/140/140 139/139/139 137/137/137
f 143/143/143 142/142/142 141/141/141
f 144/144/144 143/143/143 141/141/141
