# User-supplied Mayan dungeon glTF module; Y-up meters, bottom centered
mtllib Mayan.mtl
o Cube_134
usemtl SunkenKingdom
v 0.29686319 0.30065894 0.53627789
v 0.29686319 0.30065894 -0.53627789
v 0.29686319 0 -0.53627789
v 0.29686319 0 0.53627789
v 0.29686319 0.30065894 -0.53627789
v -0.29686319 0.30065894 -0.53627789
v -0.29686319 0 -0.53627789
v 0.29686319 0 -0.53627789
v -0.29686319 0.30065894 -0.53627789
v -0.29686319 0.30065894 0.53627789
v -0.29686319 0 0.53627789
v -0.29686319 0 -0.53627789
v -0.29686319 0.30065894 0.53627789
v 0.29686319 0.30065894 0.53627789
v 0.29686319 0 0.53627789
v -0.29686319 0 0.53627789
v 0.29686319 0.30065894 -0.53627789
v 0.29686319 0.30065894 0.53627789
v -0.29686319 0.30065894 0.53627789
v -0.29686319 0.30065894 -0.53627789
v -0.29686319 0 -0.53627789
v -0.29686319 0 0.53627789
v 0.29686319 0 0.53627789
v 0.29686319 0 -0.53627789
vt 0.83775109 0.42962021
vt 0.75999951 0.42962021
vt 0.75999951 0.37957239
vt 0.84023142 0.37957239
vt 0.83775109 0.42962021
vt 0.75999951 0.42962021
vt 0.75999951 0.37957239
vt 0.84023142 0.37957239
vt 0.83775109 0.42962021
vt 0.75999951 0.42962021
vt 0.75999951 0.37957239
vt 0.84023142 0.37957239
vt 0.83775109 0.42962021
vt 0.75999951 0.42962021
vt 0.75999951 0.37957239
vt 0.84023142 0.37957239
vt 0.72616613 0.25467771
vt 0.72565246 0.32797867
vt 0.7782343 0.32739276
vt 0.77796674 0.25252932
vt 0.77796674 0.25252932
vt 0.7782343 0.32739276
vt 0.72565246 0.32797867
vt 0.72616613 0.25467771
vn 1 0 0
vn 1 0 0
vn 1 0 0
vn 1 0 0
vn 0 0 -1
vn 0 0 -1
vn 0 0 -1
vn 0 0 -1
vn -1 0 0
vn -1 0 0
vn -1 0 0
vn -1 0 0
vn 0 0 1
vn 0 0 1
vn 0 0 1
vn 0 0 1
vn 0 1 0
vn 0 1 0
vn 0 1 0
vn 0 1 0
vn 0 -1 0
vn 0 -1 0
vn 0 -1 0
vn 0 -1 0
f 3/3/3 2/2/2 1/1/1
f 4/4/4 3/3/3 1/1/1
f 7/7/7 6/6/6 5/5/5
f 8/8/8 7/7/7 5/5/5
f 11/11/11 10/10/10 9/9/9
f 12/12/12 11/11/11 9/9/9
f 15/15/15 14/14/14 13/13/13
f 16/16/16 15/15/15 13/13/13
f 19/19/19 18/18/18 17/17/17
f 20/20/20 19/19/19 17/17/17
f 23/23/23 22/22/22 21/21/21
f 24/24/24 23/23/23 21/21/21
