# User-supplied Mayan dungeon glTF module; Y-up meters, bottom centered
mtllib Mayan.mtl
o Cube_133
usemtl SunkenKingdom
v -0.29708046 0.30065894 -1.5127958
v -0.29708076 0.30065894 -0.63231587
v -0.29708076 0 -0.63231587
v -0.29708046 0 -1.5127958
v 0.29708062 0.30065894 -0.63231573
v 0.29708092 0.30065894 -1.5127955
v 0.29708092 0 -1.5127955
v 0.29708062 0 -0.63231573
v 0.29708092 0.30065894 -1.5127955
v -0.29708046 0.30065894 -1.5127958
v -0.29708046 0 -1.5127958
v 0.29708092 0 -1.5127955
v -0.29708076 0.30065894 -0.63231587
v -0.29708046 0.30065894 -1.5127958
v 0.29708092 0.30065894 -1.5127955
v 0.29708062 0.30065894 -0.63231573
v 0.29708062 0 -0.63231573
v 0.29708092 0 -1.5127955
v -0.29708046 0 -1.5127958
v -0.29708076 0 -0.63231587
v 0.13192131 0.30065894 0.44023981
v 0.13192133 0.30065894 -0.63231587
v 0.13192133 0 -0.63231587
v 0.13192131 0 0.44023981
v -0.29708083 0.30065894 -0.63231587
v -0.29708088 0.30065894 0.44023991
v -0.29708088 0 0.44023991
v -0.29708083 0 -0.63231587
v 0.13192133 0.30065894 -0.63231587
v 0.13192131 0.30065894 0.44023981
v -0.29708088 0.30065894 0.44023991
v -0.29708083 0.30065894 -0.63231587
v -0.29708083 0 -0.63231587
v -0.29708088 0 0.44023991
v 0.13192131 0 0.44023981
v 0.13192133 0 -0.63231587
v 0.29664546 0.30065894 1.5127958
v 0.29664546 0.30065894 0.44024009
v 0.29664546 0 0.44024009
v 0.29664546 0 1.5127958
v -0.29708092 0.30065894 0.44024009
v -0.29708092 0.30065894 1.5127958
v -0.29708092 0 1.5127958
v -0.29708092 0 0.44024009
v -0.29708092 0.30065894 1.5127958
v 0.29664546 0.30065894 1.5127958
v 0.29664546 0 1.5127958
v -0.29708092 0 1.5127958
v 0.29664546 0.30065894 1.5127958
v -0.29708092 0.30065894 1.5127958
v -0.29708092 0.30065894 0.44024009
v 0.13503968 0.30065894 0.44024009
v 0.29664546 0.30065894 0.44024009
v 0.13504871 0 0.44024009
v -0.29708092 0 0.44024009
v -0.29708092 0 1.5127958
v 0.29664546 0 1.5127958
v 0.29664546 0 0.44024009
v 0.29708062 0.30065894 -0.63231573
v 0.29708062 0 -0.63231573
v 0.13192133 0 -0.63231587
v 0.13192133 0.30065894 -0.63231587
v 0.13504871 0 0.44024009
v 0.29664546 0 0.44024009
v 0.29664546 0.30065894 0.44024009
v 0.13503968 0.30065894 0.44024009
vt 0.83775109 0.42962021
vt 0.75999951 0.42962021
vt 0.75999951 0.37957239
vt 0.84023142 0.37957239
vt 0.83775109 0.42962021
vt 0.75999951 0.42962021
vt 0.75999951 0.37957239
vt 0.84023142 0.37957239
vt 0.83775109 0.42962021
vt 0.75999951 0.42962021
vt 0.75999951 0.37957239
vt 0.84023142 0.37957239
vt 0.86457443 0.088696241
vt 0.86319888 0.15989512
vt 0.9153375 0.15903956
vt 0.91141593 0.090254962
vt 0.91141593 0.090254962
vt 0.9153375 0.15903956
vt 0.86319888 0.15989512
vt 0.86457443 0.088696241
vt 0.83775109 0.42962021
vt 0.75999951 0.42962021
vt 0.75999951 0.37957239
vt 0.84023142 0.37957239
vt 0.83775109 0.42962021
vt 0.75999951 0.42962021
vt 0.75999951 0.37957239
vt 0.84023142 0.37957239
vt 0.72616613 0.25467771
vt 0.72526187 0.33012712
vt 0.77979684 0.32954121
vt 0.77796674 0.25252932
vt 0.77796674 0.25252932
vt 0.77979684 0.32954121
vt 0.72526187 0.33012712
vt 0.72616613 0.25467771
vt 0.83775109 0.42962021
vt 0.75999951 0.42962021
vt 0.75999951 0.37957239
vt 0.84023142 0.37957239
vt 0.83775109 0.42962021
vt 0.75999951 0.42962021
vt 0.75999951 0.37957239
vt 0.84023142 0.37957239
vt 0.83775109 0.42962021
vt 0.75999951 0.42962021
vt 0.75999951 0.37957239
vt 0.84023142 0.37957239
vt 0.72526187 0.33012712
vt 0.77979684 0.32954121
vt 0.77796674 0.25252932
vt 0.74026567 0.25409293
vt 0.72616613 0.25467771
vt 0.74026489 0.25409299
vt 0.77796674 0.25252932
vt 0.77979684 0.32954121
vt 0.72526187 0.33012712
vt 0.72616613 0.25467771
vt 0.75999963 0.37978518
vt 0.84023142 0.37999797
vt 0.83775109 0.42962021
vt 0.75999951 0.42962021
vt 0.83775109 0.42885548
vt 0.84023142 0.38010436
vt 0.75999969 0.37989157
vt 0.75999957 0.42885774
vn -1 0 -3.3773631e-07
vn -1 0 -3.3773631e-07
vn -1 0 -3.3773631e-07
vn -1 0 -3.3773631e-07
vn 1 0 3.377364e-07
vn 1 0 3.377364e-07
vn 1 0 3.377364e-07
vn 1 0 3.377364e-07
vn 4.0126906e-07 0 -1
vn 4.0126906e-07 0 -1
vn 4.0126906e-07 0 -1
vn 4.0126906e-07 0 -1
vn 0 1 0
vn 0 1 0
vn 0 1 0
vn 0 1 0
vn 0 -1 0
vn 0 -1 0
vn 0 -1 0
vn 0 -1 0
vn 1 0 0
vn 1 0 0
vn 1 0 0
vn 1 0 0
vn -1 0 0
vn -1 0 0
vn -1 0 0
vn -1 0 0
vn 0 1 0
vn 0 1 0
vn 0 1 0
vn 0 1 0
vn 0 -1 0
vn 0 -1 0
vn 0 -1 0
vn 0 -1 0
vn 1 0 0
vn 1 0 0
vn 1 0 0
vn 1 0 0
vn -1 0 0
vn -1 0 0
vn -1 0 0
vn -1 0 0
vn 0 0 1
vn 0 0 1
vn 0 0 1
vn 0 0 1
vn 0 1 0
vn 0 1 0
vn 0 1 0
vn 0 1 0
vn 0 1 0
vn 0 -1 0
vn 0 -1 0
vn 0 -1 0
vn 0 -1 0
vn 0 -1 0
vn -1.0826757e-06 0 1
vn -1.0826757e-06 0 1
vn -1.0826757e-06 0 1
vn -1.0826757e-06 0 1
vn 0 0 -1
vn 0 0 -1
vn 0 0 -1
vn 0 0 -1
f 3/3/3 2/2/2 1/1/1
f 4/4/4 3/3/3 1/1/1
f 7/7/7 6/6/6 5/5/5
f 8/8/8 7/7/7 5/5/5
f 11/11/11 10/10/10 9/9/9
f 12/12/12 11/11/11 9/9/9
f 15/15/15 14/14/14 13/13/13
f 16/16/16 15/15/15 13/13/13
f 19/19/19 18/18/18 17/17/17
f 20/20/20 19/19/19 17/17/17
f 23/23/23 22/22/22 21/21/21
f 24/24/24 23/23/23 21/21/21
f 27/27/27 26/26/26 25/25/25
f 28/28/28 27/27/27 25/25/25
f 31/31/31 30/30/30 29/29/29
f 32/32/32 31/31/31 29/29/29
f 35/35/35 34/34/34 33/33/33
f 36/36/36 35/35/35 33/33/33
f 39/39/39 38/38/38 37/37/37
f 40/40/40 39/39/39 37/37/37
f 43/43/43 42/42/42 41/41/41
f 44/44/44 43/43/43 41/41/41
f 47/47/47 46/46/46 45/45/45
f 48/48/48 47/47/47 45/45/45
f 51/51/51 50/50/50 49/49/49
f 49/49/49 52/52/52 51/51/51
f 49/49/49 53/53/53 52/52/52
f 56/56/56 55/55/55 54/54/54
f 54/54/54 57/57/57 56/56/56
f 54/54/54 58/58/58 57/57/57
f 61/61/61 60/60/60 59/59/59
f 62/62/62 61/61/61 59/59/59
f 65/65/65 64/64/64 63/63/63
f 66/66/66 65/65/65 63/63/63
