# User-supplied Mayan dungeon glTF module; Y-up meters, bottom centered
mtllib Mayan.mtl
o Cube_049
usemtl SunkenKingdom
v -0.4961723 3.2271428 0.57223323
v 0.50765453 3.2271428 0.57223323
v 0.50765453 2.9999999 0.57223323
v -0.4961723 2.9999999 0.57223323
v -1.499999 3.2271428 0.57223323
v -1.499999 2.9999999 0.57223323
v 1.4999989 2.9999999 0.57223323
v 1.4999989 3.2271428 0.57223323
v 0.50765453 3.2271428 0.14999988
v 0.50765453 3.2271428 0.57223323
v -0.4961723 3.2271428 0.57223323
v -0.4961723 3.2271428 0.14999988
v -1.499999 3.2271428 0.57223323
v -1.499999 3.2271428 0.14999991
v 1.4999995 3.2271428 0.14999988
v 1.4999989 3.2271428 0.57223323
v -0.4961723 2.9999999 0.14999988
v -0.4961723 2.9999999 0.57223323
v 0.50765453 2.9999999 0.57223323
v 0.50765453 2.9999999 0.14999988
v -1.499999 2.9999999 0.14999988
v -1.499999 2.9999999 0.57223323
v 1.4999989 2.9999999 0.57223323
v 1.4999989 2.9999999 0.14999988
v -0.49617239 0.22714287 -0.37714276
v -1.4999993 0.22714287 -0.37714276
v -1.4999993 0 -0.37714276
v -0.49617239 0 -0.37714276
v 0.50765439 0.22714287 -0.37714276
v 0.50765439 0 -0.37714276
v -1.4999993 0.22714287 0.37714272
v -0.49617216 0.22714268 0.3771427
v -0.49617239 0 0.37714272
v -1.4999993 0 0.37714272
v 0.50765439 0 0.37714272
v 0.50765453 0.22714268 0.3771427
v -1.4999993 0 -0.37714276
v -1.4999993 0 0.37714272
v -0.49617239 0 0.37714272
v -0.49617239 0 -0.37714276
v 0.50765439 0 0.37714272
v 0.50765439 0 -0.37714276
v -1.4999993 0.22714287 -0.37714276
v -1.4999993 0.22714287 0.37714272
v -1.4999993 0 0.37714272
v -1.4999993 0 -0.37714276
v 0.50765453 0.22714268 0.3771427
v 0.50765439 0.22714287 -0.37714276
v 0.50765439 0 -0.37714276
v 0.50765439 0 0.37714272
v 1.4999998 0.22714287 0.37714272
v 1.4999998 0.22714287 -0.37714276
v 1.4999998 0 -0.37714276
v 1.4999998 0 0.37714272
v 1.4999998 0.22714287 -0.37714276
v 0.50765439 0.22714287 -0.37714276
v 0.50765439 0 -0.37714276
v 1.4999998 0 -0.37714276
v 0.50765453 0.22714268 0.3771427
v 1.4999998 0.22714287 0.37714272
v 1.4999998 0 0.37714272
v 0.50765439 0 0.37714272
v 0.50765439 0 -0.37714276
v 0.50765439 0 0.37714272
v 1.4999998 0 0.37714272
v 1.4999998 0 -0.37714276
v 1.4999998 0.64937621 0.14999984
v 1.4999998 0.22714287 0.14999986
v 1.4999998 0.22714287 0.37714272
v 1.4999998 0.64937621 0.37714268
v 1.4999998 0.22714287 0.14999986
v 0.50765453 0.22714268 0.14999986
v 0.50765453 0.22714268 0.3771427
v 1.4999998 0.22714287 0.37714272
v 0.50765439 0.64937621 0.14999984
v 1.4999998 0.64937621 0.14999984
v 1.4999998 0.64937621 0.37714268
v 0.50765453 0.64937621 0.37714268
v 1.4999998 0.22714287 0.14999986
v 1.4999998 0.64937621 0.14999984
v 0.50765439 0.64937621 0.14999984
v 0.50765453 0.22714268 0.14999986
v 0.50765453 0.22714268 0.3771427
v 0.50765453 0.64937621 0.37714268
v 1.4999998 0.64937621 0.37714268
v 1.4999998 0.22714287 0.37714272
v 0.50765453 0.22714268 0.14999986
v 0.50765439 0.64937621 0.14999984
v 0.50765453 0.64937621 0.37714268
v 0.50765453 0.22714268 0.3771427
v 0.50765453 0.22714268 0.14999986
v -0.49617216 0.22714268 0.14999986
v -0.49617216 0.22714268 0.3771427
v 0.50765453 0.22714268 0.3771427
v -0.49617216 0.64937621 0.14999984
v 0.50765439 0.64937621 0.14999984
v 0.50765453 0.64937621 0.37714268
v -0.49617216 0.64937621 0.37714268
v 0.50765453 0.22714268 0.14999986
v 0.50765439 0.64937621 0.14999984
v -0.49617216 0.64937621 0.14999984
v -0.49617216 0.22714268 0.14999986
v -0.49617216 0.22714268 0.3771427
v -0.49617216 0.64937621 0.37714268
v 0.50765453 0.64937621 0.37714268
v 0.50765453 0.22714268 0.3771427
v -0.49617216 0.64937621 0.14999984
v -0.49617216 0.22714268 0.14999986
v -0.49617216 0.22714268 0.3771427
v -0.49617216 0.64937621 0.37714268
v -0.49617216 0.22714268 0.14999986
v -1.4999981 0.22714287 0.15
v -1.4999993 0.22714287 0.37714272
v -0.49617216 0.22714268 0.3771427
v -1.4999989 0.64937621 0.14999984
v -0.49617216 0.64937621 0.14999984
v -0.49617216 0.64937621 0.37714268
v -1.4999989 0.64937621 0.37714268
v -0.49617216 0.22714268 0.14999986
v -0.49617216 0.64937621 0.14999984
v -1.4999989 0.64937621 0.14999984
v -1.4999981 0.22714287 0.15
v -1.4999993 0.22714287 0.37714272
v -1.4999989 0.64937621 0.37714268
v -0.49617216 0.64937621 0.37714268
v -0.49617216 0.22714268 0.3771427
v -1.4999981 0.22714287 0.15
v -1.4999989 0.64937621 0.14999984
v -1.4999989 0.64937621 0.37714268
v -1.4999993 0.22714287 0.37714272
v -0.4961723 0.22714268 -0.37714276
v -1.4999989 0.22714268 -0.37714276
v -1.4999998 0.22714287 -0.14999984
v -0.4961723 0.22714268 -0.14999993
v 0.50765453 0.22714268 -0.37714276
v 0.50765453 0.22714268 -0.14999993
v 1.4999998 0.22714268 -0.37714276
v 1.4999993 0.22714287 -0.14999993
v -1.4999989 0.64937621 -0.37714276
v -0.49617216 0.64937621 -0.37714276
v -0.49617216 0.64937621 -0.14999993
v -1.4999989 0.64937621 -0.14999993
v 0.50765439 0.64937621 -0.14999993
v 0.50765439 0.64937621 -0.37714276
v 1.4999998 0.64937621 -0.14999993
v 1.4999998 0.64937621 -0.37714276
v -0.4961723 0.22714268 -0.37714276
v -0.49617216 0.64937621 -0.37714276
v -1.4999989 0.64937621 -0.37714276
v -1.4999989 0.22714268 -0.37714276
v 0.50765453 0.22714268 -0.37714276
v 0.50765439 0.64937621 -0.37714276
v 1.4999998 0.22714268 -0.37714276
v 1.4999998 0.64937621 -0.37714276
v -1.4999998 0.22714287 -0.14999984
v -1.4999989 0.64937621 -0.14999993
v -0.49617216 0.64937621 -0.14999993
v -0.4961723 0.22714268 -0.14999993
v -1.4999989 0.22714268 -0.37714276
v -1.4999989 0.64937621 -0.37714276
v -1.4999989 0.64937621 -0.14999993
v -1.4999998 0.22714287 -0.14999984
v 1.4999998 0.64937621 -0.37714276
v 1.4999998 0.22714268 -0.37714276
v 1.4999993 0.22714287 -0.14999993
v 1.4999998 0.64937621 -0.14999993
v 1.4999989 3.2271428 -0.14999993
v 1.4999989 3.2271428 -0.57223323
v 1.4999989 2.9999999 -0.57223323
v 1.4999989 2.9999999 -0.14999993
v 1.4999989 3.2271428 -0.57223323
v 0.50765453 3.2271428 -0.57223323
v 0.50765453 2.9999999 -0.57223323
v 1.4999989 2.9999999 -0.57223323
v -0.4961723 2.9999999 -0.57223323
v -0.4961723 3.2271428 -0.57223323
v -1.499999 2.9999999 -0.57223323
v -1.499999 3.2271428 -0.57223323
v 1.4999989 3.2271428 -0.57223323
v 1.4999989 3.2271428 -0.14999993
v 0.50765453 3.2271428 -0.14999993
v 0.50765453 3.2271428 -0.57223323
v -0.4961723 3.2271428 -0.14999993
v -0.4961723 3.2271428 -0.57223323
v -1.499999 3.2271428 -0.14999993
v -1.499999 3.2271428 -0.57223323
v 0.50765453 2.9999999 -0.57223323
v 0.50765453 2.9999999 -0.14999993
v 1.4999989 2.9999999 -0.14999993
v 1.4999989 2.9999999 -0.57223323
v -0.4961723 2.9999999 -0.57223323
v -0.4961723 2.9999999 -0.14999993
v -1.499999 2.9999999 -0.57223323
v -1.499999 2.9999999 -0.14999993
v -1.499999 3.2271428 -0.57223323
v -1.499999 3.2271428 -0.14999993
v -1.499999 2.9999999 -0.14999993
v -1.499999 2.9999999 -0.57223323
v -1.499999 3.2271428 0.14999991
v -1.499999 3.2271428 0.57223323
v -1.499999 2.9999999 0.57223323
v -1.499999 2.9999999 0.14999988
v 1.4999989 3.2271428 0.57223323
v 1.4999995 3.2271428 0.14999988
v 1.4999989 2.9999999 0.14999988
v 1.4999989 2.9999999 0.57223323
v -1.499999 3.2271428 -0.14999993
v 1.4999989 3.2271428 -0.14999993
v 1.4999995 3.2271428 0.14999988
v -1.499999 3.2271428 0.14999991
v -1.4999998 0.22714287 -0.14999984
v -1.4999981 0.22714287 0.15
v 1.4999998 0.22714287 0.14999986
v 1.4999993 0.22714287 -0.14999993
v -1.499999 3.2271428 -0.14999993
v -1.499999 3.2271428 0.14999991
v -1.4999981 0.22714287 0.15
v -1.4999998 0.22714287 -0.14999984
v -1.499999 3.2271428 0.14999991
v 1.4999995 3.2271428 0.14999988
v 1.4999998 0.22714287 0.14999986
v -1.4999981 0.22714287 0.15
v 1.4999995 3.2271428 0.14999988
v 1.4999989 3.2271428 -0.14999993
v 1.4999993 0.22714287 -0.14999993
v 1.4999998 0.22714287 0.14999986
v -1.4999998 0.22714287 -0.14999984
v 1.4999993 0.22714287 -0.14999993
v 1.4999989 3.2271428 -0.14999993
v -1.499999 3.2271428 -0.14999993
vt 0.13626483 0.09931314
vt 0.0677405 0.09931314
vt 0.0677405 0.082084715
vt 0.13626483 0.082084715
vt 0.20478924 0.09931314
vt 0.20478927 0.082084715
vt 0 0.082084715
vt 0 0.099313021
vt 0.48421979 0.40752679
vt 0.4538292 0.40752679
vt 0.4538292 0.33531594
vt 0.48421979 0.33531594
vt 0.4538292 0.26310515
vt 0.48421979 0.26310515
vt 0.48421979 0.47891164
vt 0.4538292 0.47891164
vt 0.13626483 0.050059319
vt 0.13626483 0.082084715
vt 0.0677405 0.082084715
vt 0.0677405 0.050059319
vt 0.20478927 0.050059319
vt 0.20478927 0.082084715
vt 0 0.082084715
vt 1.4901161e-08 0.050059319
vt 0.29007119 0.18139809
vt 0.35859552 0.18139809
vt 0.35859552 0.1986264
vt 0.29007119 0.1986264
vt 0.22154683 0.18139809
vt 0.22154683 0.1986264
vt 0.34221986 0.04965657
vt 0.27369553 0.04965657
vt 0.27369559 0.032428324
vt 0.34221986 0.032428324
vt 0.20517126 0.032428324
vt 0.20517121 0.04965657
vt 0.34222007 0.12111235
vt 0.34222007 0.18099529
vt 0.27369577 0.18099529
vt 0.27369586 0.12111235
vt 0.20517147 0.18099529
vt 0.20517151 0.12111235
vt 0.39942807 0.18099529
vt 0.34260237 0.18099529
vt 0.34260237 0.1637671
vt 0.39942807 0.1637671
vt 0.34260237 0.14613599
vt 0.39942807 0.14613599
vt 0.39942807 0.16336441
vt 0.34260237 0.16336441
vt 0.33130538 0.071053147
vt 0.27447954 0.071053147
vt 0.2744796 0.053824842
vt 0.33130538 0.053824842
vt 0.068906516 0.0092711449
vt 0.13664716 0.0092711449
vt 0.13664716 0.026499391
vt 0.068906516 0.026499391
vt 0.39904594 0.071053207
vt 0.33130538 0.071053147
vt 0.33130538 0.053824842
vt 0.399046 0.053824961
vt 0.28928742 0.22004765
vt 0.28928742 0.27993065
vt 0.22154683 0.27993065
vt 0.22154683 0.22004765
vt 0.34261274 0.1457333
vt 0.34260237 0.11370784
vt 0.35895106 0.11370188
vt 0.35896158 0.14572746
vt 0.27447954 0.10348147
vt 0.34222007 0.10348147
vt 0.34222007 0.12070972
vt 0.27447954 0.12070972
vt 0.28928742 0.21964496
vt 0.22154683 0.21964496
vt 0.22154683 0.20241672
vt 0.28928742 0.20241672
vt 0.27447954 0.10348147
vt 0.2744796 0.071455836
vt 0.34222007 0.071455836
vt 0.34222007 0.10348147
vt 0.34181836 0
vt 0.34181836 0.032025456
vt 0.27407771 0.032025456
vt 0.27407777 0
vt 0.37569255 0.081279635
vt 0.37569255 0.11330515
vt 0.35934374 0.11330515
vt 0.35934374 0.081279635
vt 0.35313988 0.20771974
vt 0.35313988 0.27993065
vt 0.33679113 0.27993065
vt 0.33679113 0.20771974
vt 0.06852439 0.026499391
vt 0 0.026499391
vt 0 0.0092711449
vt 0.06852439 0.0092711449
vt 0.35313988 0.20771974
vt 0.38353041 0.20771974
vt 0.38353041 0.27993065
vt 0.35313988 0.27993065
vt 0.27369559 0
vt 0.27369559 0.032025456
vt 0.20517121 0.032025456
vt 0.20517121 0
vt 0.35934374 0.1457333
vt 0.35934374 0.11370784
vt 0.37569255 0.11370784
vt 0.37569255 0.1457333
vt 0.32006013 0.27993065
vt 0.32006013 0.2077198
vt 0.33640891 0.20771974
vt 0.33640897 0.27993065
vt 0.27369577 0.12070972
vt 0.20517147 0.12070972
vt 0.20517147 0.10348129
vt 0.27369577 0.10348147
vt 0.32006013 0.27993065
vt 0.2896696 0.27993065
vt 0.2896696 0.20771974
vt 0.32006013 0.2077198
vt 0.41112638 0.017631173
vt 0.41112638 0.04965657
vt 0.34260204 0.04965657
vt 0.34260204 0.017631114
vt 0.39242345 0.11370784
vt 0.39242345 0.1457333
vt 0.37607461 0.1457333
vt 0.37607461 0.11370784
vt 0.15262419 0.23067683
vt 0.22114852 0.23065186
vt 0.22115421 0.24788016
vt 0.15262985 0.24790508
vt 0.084099814 0.23070174
vt 0.084105462 0.24793005
vt 0.016359255 0.23072636
vt 0.016364902 0.24795461
vt 0.22113805 0.1986264
vt 0.1526137 0.19865131
vt 0.15260804 0.18142307
vt 0.22113241 0.18139809
vt 0.084083691 0.18144774
vt 0.084089339 0.19867617
vt 0.016343117 0.1814726
vt 0.016348764 0.19870085
vt 0.15262419 0.23067683
vt 0.1526137 0.19865131
vt 0.22113805 0.1986264
vt 0.22114852 0.23065186
vt 0.084099814 0.23070174
vt 0.084089339 0.19867617
vt 0.016359255 0.23072636
vt 0.016348764 0.19870085
vt 0.22115421 0.24788016
vt 0.22116467 0.27990574
vt 0.1526403 0.27993065
vt 0.15262985 0.24790508
vt 0.39242345 0.081279635
vt 0.39242345 0.11330515
vt 0.37607461 0.11330515
vt 0.37607461 0.081279635
vt 0.016348764 0.19870085
vt 0.016359255 0.23072636
vt 1.0475516e-05 0.23073226
vt 0 0.19870669
vt 0.24330525 0.085850358
vt 0.27369577 0.085850358
vt 0.27369577 0.10307866
vt 0.24330525 0.10307866
vt 0 0.13174152
vt 0.06774056 0.13174152
vt 0.06774056 0.14896971
vt 1.4901161e-08 0.14896989
vt 0.13626489 0.14896971
vt 0.13626489 0.13174152
vt 0.20478927 0.14896959
vt 0.20478924 0.1317414
vt 0 0.13174152
vt 0 0.099715948
vt 0.0677405 0.099715948
vt 0.06774056 0.13174152
vt 0.13626489 0.099715948
vt 0.13626492 0.13174152
vt 0.2047893 0.099715948
vt 0.2047893 0.1317414
vt 0.06774056 0.14896971
vt 0.06774056 0.18099529
vt 5.9604645e-08 0.18099529
vt 1.4901161e-08 0.14896989
vt 0.13626489 0.14896971
vt 0.13626492 0.18099529
vt 0.20478927 0.14896959
vt 0.20478927 0.18099523
vt 0.3893683 0.1986264
vt 0.35897776 0.1986264
vt 0.35897776 0.18139809
vt 0.3893683 0.18139809
vt 0.23517981 0.09931314
vt 0.20478924 0.09931314
vt 0.20478927 0.082084715
vt 0.23517981 0.082084894
vt 0.4538292 0.47891164
vt 0.48421979 0.47891164
vt 0.48421979 0.49613988
vt 0.4538292 0.49613988
vt 0.20478909 0.049656451
vt 5.9604645e-08 0.04965657
vt 0 0.026902258
vt 0.20478909 0.026902258
vt 0.23751993 0.49613988
vt 0.21592715 0.49613976
vt 0.21592721 0.28033328
vt 0.23751993 0.2803334
vt 0.45344704 0.27993065
vt 0.43185431 0.27993065
vt 0.43185431 0.052387118
vt 0.45344704 0.052387118
vt 0 0.49613976
vt 1.1920929e-07 0.28033328
vt 0.21592721 0.28033328
vt 0.21592715 0.49613976
vt 0.43147212 0.27993065
vt 0.40987945 0.27993065
vt 0.40987945 0.052387118
vt 0.43147212 0.052387118
vt 0.23751993 0.49613988
vt 0.23751993 0.2803334
vt 0.4534471 0.2803334
vt 0.45344704 0.49613988
vn 0 0 1
vn 0 0 1
vn 0 0 1
vn 0 0 1
vn 0 0 1
vn 0 0 1
vn 0 0 1
vn 0 0 1
vn 0 1 0
vn 0 1 0
vn 0 1 0
vn 0 1 0
vn 0 1 0
vn 0 1 0
vn 0 1 0
vn 0 1 0
vn 0 -1 0
vn 0 -1 0
vn 0 -1 0
vn 0 -1 0
vn 0 -1 0
vn 0 -1 0
vn 0 -1 0
vn 0 -1 0
vn 0 0 -1
vn 0 0 -1
vn 0 0 -1
vn 0 0 -1
vn 0 0 -1
vn 0 0 -1
vn 0 0 1
vn 0 0 1
vn 0 0 1
vn 0 0 1
vn 0 1.3091491e-07 1
vn 0 1.3091491e-07 1
vn 0 -1 0
vn 0 -1 0
vn 0 -1 0
vn 0 -1 0
vn 0 -1 0
vn 0 -1 0
vn -1 0 0
vn -1 0 0
vn -1 0 0
vn -1 0 0
vn 1 -2.6241054e-07 0
vn 1 -2.6241054e-07 0
vn 1 -2.6241054e-07 0
vn 1 -2.6241054e-07 0
vn 1 0 0
vn 1 0 0
vn 1 0 0
vn 1 0 0
vn 0 0 -1
vn 0 0 -1
vn 0 0 -1
vn 0 0 -1
vn 0 0 1
vn 0 0 1
vn 0 0 1
vn 0 0 1
vn 0 -1 0
vn 0 -1 0
vn 0 -1 0
vn 0 -1 0
vn 1 0 0
vn 1 0 0
vn 1 0 0
vn 1 0 0
vn 2.6443456e-07 -1 0
vn 2.6443456e-07 -1 0
vn 2.6443456e-07 -1 0
vn 2.6443456e-07 -1 0
vn 0 1 0
vn 0 1 0
vn 0 1 0
vn 0 1 0
vn 0 0 -1
vn 0 0 -1
vn 0 0 -1
vn 0 0 -1
vn 0 0 1
vn 0 0 1
vn 0 0 1
vn 0 0 1
vn -1 -1.411651e-07 3.1074083e-07
vn -1 -1.411651e-07 3.1074083e-07
vn -1 -1.411651e-07 3.1074083e-07
vn -1 -1.411651e-07 3.1074083e-07
vn 0 -1 0
vn 0 -1 0
vn 0 -1 0
vn 0 -1 0
vn 0 1 0
vn 0 1 0
vn 0 1 0
vn 0 1 0
vn 0 -1.0547021e-07 -1
vn 0 -1.0547021e-07 -1
vn 0 -1.0547021e-07 -1
vn 0 -1.0547021e-07 -1
vn 0 0 1
vn 0 0 1
vn 0 0 1
vn 0 0 1
vn 1 0 0
vn 1 0 0
vn 1 0 0
vn 1 0 0
vn -2.6141018e-07 -1 0
vn -2.6141018e-07 -1 0
vn -2.6141018e-07 -1 0
vn -2.6141018e-07 -1 0
vn 0 1 0
vn 0 1 0
vn 0 1 0
vn 0 1 0
vn 0 -2.109406e-07 -1
vn 0 -2.109406e-07 -1
vn 0 -2.109406e-07 -1
vn 0 -2.109406e-07 -1
vn 0 0 1
vn 0 0 1
vn 0 0 1
vn 0 0 1
vn -1 -5.6466126e-07 -3.1074103e-06
vn -1 -5.6466126e-07 -3.1074103e-06
vn -1 -5.6466126e-07 -3.1074103e-06
vn -1 -5.6466126e-07 -3.1074103e-06
vn 0 -1 5.2482051e-07
vn 0 -1 5.2482051e-07
vn 0 -1 5.2482051e-07
vn 0 -1 5.2482051e-07
vn 0 -1 0
vn 0 -1 0
vn 0 -1 5.2482096e-07
vn 0 -1 5.2482096e-07
vn 0 1 0
vn 0 1 0
vn 0 1 0
vn 0 1 0
vn 0 1 0
vn 0 1 0
vn 0 1 0
vn 0 1 0
vn 0 0 -1
vn 0 0 -1
vn 0 0 -1
vn 0 0 -1
vn 0 0 -1
vn 0 0 -1
vn 0 0 -1
vn 0 0 -1
vn 0 1.4062692e-07 1
vn 0 1.4062692e-07 1
vn 0 1.4062692e-07 1
vn 0 1.4062692e-07 1
vn -1 1.12932e-06 -2.4859248e-06
vn -1 1.12932e-06 -2.4859248e-06
vn -1 1.12932e-06 -2.4859248e-06
vn -1 1.12932e-06 -2.4859248e-06
vn 1 -7.0582541e-07 5.5724399e-07
vn 1 -7.0582541e-07 5.5724399e-07
vn 1 -7.0582541e-07 5.5724399e-07
vn 1 -7.0582541e-07 5.5724399e-07
vn 1 0 -3.1074097e-07
vn 1 0 -3.1074097e-07
vn 1 0 -3.1074097e-07
vn 1 0 -3.1074097e-07
vn 0 0 -1
vn 0 0 -1
vn 0 0 -1
vn 0 0 -1
vn 0 1.2199351e-07 -1
vn 0 1.2199351e-07 -1
vn 0 0 -1
vn 0 0 -1
vn 0 1 0
vn 0 1 0
vn 0 1 0
vn 0 1 0
vn 0 1 0
vn 0 1 0
vn 0 1 0
vn 0 1 0
vn 0 -1 0
vn 0 -1 0
vn 0 -1 0
vn 0 -1 0
vn 0 -1 0
vn 0 -1 0
vn 0 -1 0
vn 0 -1 0
vn -1 0 0
vn -1 0 0
vn -1 0 0
vn -1 0 0
vn -1 0 3.1074103e-07
vn -1 0 3.1074103e-07
vn -1 0 3.1074103e-07
vn -1 0 3.1074103e-07
vn 1 -1.3120519e-06 9.3222292e-07
vn 1 -1.3120519e-06 9.3222292e-07
vn 1 -1.3120519e-06 9.3222292e-07
vn 1 -1.3120519e-06 9.3222292e-07
vn 0 1 0
vn 0 1 0
vn 0 1 0
vn 0 1 0
vn 0 -1 0
vn 0 -1 0
vn 0 -1 0
vn 0 -1 0
vn -1 0 3.1789159e-06
vn -1 0 3.1789159e-06
vn -1 0 3.1789159e-06
vn -1 0 3.1789159e-06
vn 0 0 1
vn 0 0 1
vn 0 0 1
vn 0 0 1
vn 1 1.1920928e-07 -1.0596389e-06
vn 1 1.1920928e-07 -1.0596389e-06
vn 1 1.1920928e-07 -1.0596389e-06
vn 1 1.1920928e-07 -1.0596389e-06
vn 0 0 -1
vn 0 0 -1
vn 0 0 -1
vn 0 0 -1
f 3/3/3 2/2/2 1/1/1
f 4/4/4 3/3/3 1/1/1
f 4/4/4 1/1/1 5/5/5
f 6/6/6 4/4/4 5/5/5
f 3/3/3 7/7/7 2/2/2
f 7/7/7 8/8/8 2/2/2
f 11/11/11 10/10/10 9/9/9
f 12/12/12 11/11/11 9/9/9
f 13/13/13 11/11/11 12/12/12
f 14/14/14 13/13/13 12/12/12
f 9/9/9 10/10/10 15/15/15
f 10/10/10 16/16/16 15/15/15
f 19/19/19 18/18/18 17/17/17
f 20/20/20 19/19/19 17/17/17
f 17/17/17 18/18/18 21/21/21
f 18/18/18 22/22/22 21/21/21
f 23/23/23 19/19/19 20/20/20
f 24/24/24 23/23/23 20/20/20
f 27/27/27 26/26/26 25/25/25
f 28/28/28 27/27/27 25/25/25
f 28/28/28 25/25/25 29/29/29
f 30/30/30 28/28/28 29/29/29
f 33/33/33 32/32/32 31/31/31
f 34/34/34 33/33/33 31/31/31
f 33/33/33 35/35/35 32/32/32
f 35/35/35 36/36/36 32/32/32
f 39/39/39 38/38/38 37/37/37
f 40/40/40 39/39/39 37/37/37
f 41/41/41 39/39/39 40/40/40
f 42/42/42 41/41/41 40/40/40
f 45/45/45 44/44/44 43/43/43
f 46/46/46 45/45/45 43/43/43
f 49/49/49 48/48/48 47/47/47
f 50/50/50 49/49/49 47/47/47
f 53/53/53 52/52/52 51/51/51
f 54/54/54 53/53/53 51/51/51
f 57/57/57 56/56/56 55/55/55
f 58/58/58 57/57/57 55/55/55
f 61/61/61 60/60/60 59/59/59
f 62/62/62 61/61/61 59/59/59
f 65/65/65 64/64/64 63/63/63
f 66/66/66 65/65/65 63/63/63
f 69/69/69 68/68/68 67/67/67
f 70/70/70 69/69/69 67/67/67
f 73/73/73 72/72/72 71/71/71
f 74/74/74 73/73/73 71/71/71
f 77/77/77 76/76/76 75/75/75
f 78/78/78 77/77/77 75/75/75
f 81/81/81 80/80/80 79/79/79
f 82/82/82 81/81/81 79/79/79
f 85/85/85 84/84/84 83/83/83
f 86/86/86 85/85/85 83/83/83
f 89/89/89 88/88/88 87/87/87
f 90/90/90 89/89/89 87/87/87
f 93/93/93 92/92/92 91/91/91
f 94/94/94 93/93/93 91/91/91
f 97/97/97 96/96/96 95/95/95
f 98/98/98 97/97/97 95/95/95
f 101/101/101 100/100/100 99/99/99
f 102/102/102 101/101/101 99/99/99
f 105/105/105 104/104/104 103/103/103
f 106/106/106 105/105/105 103/103/103
f 109/109/109 108/108/108 107/107/107
f 110/110/110 109/109/109 107/107/107
f 113/113/113 112/112/112 111/111/111
f 114/114/114 113/113/113 111/111/111
f 117/117/117 116/116/116 115/115/115
f 118/118/118 117/117/117 115/115/115
f 121/121/121 120/120/120 119/119/119
f 122/122/122 121/121/121 119/119/119
f 125/125/125 124/124/124 123/123/123
f 126/126/126 125/125/125 123/123/123
f 129/129/129 128/128/128 127/127/127
f 130/130/130 129/129/129 127/127/127
f 133/133/133 132/132/132 131/131/131
f 134/134/134 133/133/133 131/131/131
f 134/134/134 131/131/131 135/135/135
f 136/136/136 134/134/134 135/135/135
f 136/136/136 135/135/135 137/137/137
f 138/138/138 136/136/136 137/137/137
f 141/141/141 140/140/140 139/139/139
f 142/142/142 141/141/141 139/139/139
f 141/141/141 143/143/143 140/140/140
f 143/143/143 144/144/144 140/140/140
f 143/143/143 145/145/145 144/144/144
f 145/145/145 146/146/146 144/144/144
f 149/149/149 148/148/148 147/147/147
f 150/150/150 149/149/149 147/147/147
f 147/147/147 148/148/148 151/151/151
f 148/148/148 152/152/152 151/151/151
f 151/151/151 152/152/152 153/153/153
f 152/152/152 154/154/154 153/153/153
f 157/157/157 156/156/156 155/155/155
f 158/158/158 157/157/157 155/155/155
f 161/161/161 160/160/160 159/159/159
f 162/162/162 161/161/161 159/159/159
f 165/165/165 164/164/164 163/163/163
f 166/166/166 165/165/165 163/163/163
f 169/169/169 168/168/168 167/167/167
f 170/170/170 169/169/169 167/167/167
f 173/173/173 172/172/172 171/171/171
f 174/174/174 173/173/173 171/171/171
f 173/173/173 175/175/175 172/172/172
f 175/175/175 176/176/176 172/172/172
f 175/175/175 177/177/177 176/176/176
f 177/177/177 178/178/178 176/176/176
f 181/181/181 180/180/180 179/179/179
f 182/182/182 181/181/181 179/179/179
f 183/183/183 181/181/181 182/182/182
f 184/184/184 183/183/183 182/182/182
f 185/185/185 183/183/183 184/184/184
f 186/186/186 185/185/185 184/184/184
f 189/189/189 188/188/188 187/187/187
f 190/190/190 189/189/189 187/187/187
f 187/187/187 188/188/188 191/191/191
f 188/188/188 192/192/192 191/191/191
f 191/191/191 192/192/192 193/193/193
f 192/192/192 194/194/194 193/193/193
f 197/197/197 196/196/196 195/195/195
f 198/198/198 197/197/197 195/195/195
f 201/201/201 200/200/200 199/199/199
f 202/202/202 201/201/201 199/199/199
f 205/205/205 204/204/204 203/203/203
f 206/206/206 205/205/205 203/203/203
f 209/209/209 208/208/208 207/207/207
f 210/210/210 209/209/209 207/207/207
f 213/213/213 212/212/212 211/211/211
f 214/214/214 213/213/213 211/211/211
f 217/217/217 216/216/216 215/215/215
f 218/218/218 217/217/217 215/215/215
f 221/221/221 220/220/220 219/219/219
f 222/222/222 221/221/221 219/219/219
f 225/225/225 224/224/224 223/223/223
f 226/226/226 225/225/225 223/223/223
f 229/229/229 228/228/228 227/227/227
f 230/230/230 229/229/229 227/227/227
