# User-supplied Mayan dungeon glTF module; Y-up meters, bottom centered
mtllib Mayan.mtl
o Cube_169
usemtl SunkenKingdom
v -0.49617211 0.2271425 -0.37714274
v -1.4999987 0.92561133 -0.37714274
v -1.4999991 0.69846865 -0.37714274
v -0.49617221 0 -0.37714274
v -1.4999991 0.92561152 0.37714274
v -0.49617197 0.2271425 0.37714271
v -0.49617221 0 0.37714274
v -1.4999991 0.69846865 0.37714274
v 0.50765458 0 -0.37714274
v 0.50765458 0 0.37714274
v 1.5 0.69846865 0.37714274
v 1.5 0.69846865 -0.37714274
v -1.4999987 0.92561133 -0.37714274
v -1.4999991 0.92561152 0.37714274
v -1.4999991 0.69846865 0.37714274
v -1.4999991 0.69846865 -0.37714274
v 0.50765472 0.2271425 0.37714271
v 0.50765472 0.2271425 -0.37714274
v 0.50765458 0 -0.37714274
v 0.50765458 0 0.37714274
v 0.50765472 0.2271425 -0.37714274
v -0.49617211 0.2271425 -0.37714274
v -0.49617221 0 -0.37714274
v 0.50765458 0 -0.37714274
v -0.49617197 0.2271425 0.37714271
v 0.50765472 0.2271425 0.37714271
v 0.50765458 0 0.37714274
v -0.49617221 0 0.37714274
v -0.49617221 0 -0.37714274
v -0.49617221 0 0.37714274
v 0.50765458 0 0.37714274
v 0.50765458 0 -0.37714274
v 1.5 0.92561152 0.37714274
v 1.5 0.92561133 -0.37714274
v 1.5 0.69846865 -0.37714274
v 1.5 0.69846865 0.37714274
v 1.5 0.92561133 -0.37714274
v 0.50765472 0.2271425 -0.37714274
v 0.50765458 0 -0.37714274
v 1.5 0.69846865 -0.37714274
v 0.50765472 0.2271425 0.37714271
v 1.5 0.92561152 0.37714274
v 1.5 0.69846865 0.37714274
v 0.50765458 0 0.37714274
v -1.4999991 0.69846865 -0.37714274
v -1.4999991 0.69846865 0.37714274
v -0.49617221 0 0.37714274
v -0.49617221 0 -0.37714274
v 1.5 1.3478449 0.14999985
v 1.5 0.92561152 0.14999988
v 1.5 0.92561152 0.37714274
v 1.5 1.3478449 0.3771427
v 1.5 0.92561152 0.14999988
v 0.50765472 0.2271425 0.14999988
v 0.50765472 0.2271425 0.37714271
v 1.5 0.92561152 0.37714274
v 0.50765458 0.64937621 0.14999985
v 1.5 1.3478449 0.14999985
v 1.5 1.3478449 0.3771427
v 0.50765472 0.64937621 0.3771427
v 0.50765472 0.2271425 0.37714271
v 0.50765472 0.64937621 0.3771427
v 1.5 1.3478449 0.3771427
v 1.5 0.92561152 0.37714274
v 0.50765472 0.2271425 0.14999988
v -0.49617197 0.2271425 0.14999988
v -0.49617197 0.2271425 0.37714271
v 0.50765472 0.2271425 0.37714271
v -0.49617197 0.64937621 0.14999985
v 0.50765458 0.64937621 0.14999985
v 0.50765472 0.64937621 0.3771427
v -0.49617197 0.64937621 0.3771427
v -0.49617197 0.2271425 0.37714271
v -0.49617197 0.64937621 0.3771427
v 0.50765472 0.64937621 0.3771427
v 0.50765472 0.2271425 0.37714271
v -0.49617197 0.2271425 0.14999988
v -1.4999979 0.92561152 0.15000002
v -1.4999991 0.92561152 0.37714274
v -0.49617197 0.2271425 0.37714271
v -1.4999987 1.3478449 0.14999985
v -0.49617197 0.64937621 0.14999985
v -0.49617197 0.64937621 0.3771427
v -1.4999987 1.3478449 0.3771427
v -1.4999991 0.92561152 0.37714274
v -1.4999987 1.3478449 0.3771427
v -0.49617197 0.64937621 0.3771427
v -0.49617197 0.2271425 0.37714271
v -1.4999979 0.92561152 0.15000002
v -1.4999987 1.3478449 0.14999985
v -1.4999987 1.3478449 0.3771427
v -1.4999991 0.92561152 0.37714274
v -0.49617211 0.2271425 -0.37714274
v -1.4999987 0.92561133 -0.37714274
v -1.4999996 0.92561152 -0.14999982
v -0.49617211 0.2271425 -0.14999992
v -1.4999987 1.3478449 -0.37714274
v -0.49617197 0.64937621 -0.37714274
v -0.49617179 0.64937621 -0.14999992
v -1.5 1.3478449 -0.14999992
v -0.49617211 0.2271425 -0.37714274
v -0.49617197 0.64937621 -0.37714274
v -1.4999987 1.3478449 -0.37714274
v -1.4999987 0.92561133 -0.37714274
v 0.50765472 0.2271425 -0.37714274
v 0.50765458 0.64937621 -0.37714274
v 1.5 0.92561133 -0.37714274
v 1.5 1.3478449 -0.37714274
v -1.4999996 0.92561152 -0.14999982
v -1.5 1.3478449 -0.14999992
v -0.49617179 0.64937621 -0.14999992
v -0.49617211 0.2271425 -0.14999992
v -1.4999987 0.92561133 -0.37714274
v -1.4999987 1.3478449 -0.37714274
v -1.5 1.3478449 -0.14999992
v -1.4999996 0.92561152 -0.14999982
v 0.50765472 0.2271425 -0.37714274
v -0.49617211 0.2271425 -0.37714274
v -0.49617211 0.2271425 -0.14999992
v 0.50765472 0.2271425 -0.14999992
v -0.49617197 0.64937621 -0.37714274
v 0.50765458 0.64937621 -0.37714274
v 0.50765458 0.64937621 -0.14999992
v -0.49617179 0.64937621 -0.14999992
v 1.5 1.3478449 -0.37714274
v 1.5 0.92561133 -0.37714274
v 1.4999995 0.92561152 -0.14999992
v 1.5 1.3478449 -0.14999992
v 1.5 0.92561133 -0.37714274
v 0.50765472 0.2271425 -0.37714274
v 0.50765472 0.2271425 -0.14999992
v 1.4999995 0.92561152 -0.14999992
v 0.50765458 0.64937621 -0.37714274
v 1.5 1.3478449 -0.37714274
v 1.5 1.3478449 -0.14999992
v 0.50765458 0.64937621 -0.14999992
v 0.49999966 0.22714287 -0.14999992
v 0.50000069 0.22714287 0.14999992
v 1.5 0.92561152 0.14999988
v 1.4999995 0.92561152 -0.14999992
v 0.50765458 0.64937621 -0.14999992
v 1.5 1.3478449 -0.14999992
v 1.5 1.3478449 0.14999985
v 0.50765458 0.64937621 0.14999985
v -0.49617179 0.64937621 -0.14999992
v 0.50765458 0.64937621 -0.14999992
v 0.50765458 0.64937621 0.14999985
v -0.49617197 0.64937621 0.14999985
v -1.5 1.3478449 -0.14999992
v -0.49617179 0.64937621 -0.14999992
v -0.49617197 0.64937621 0.14999985
v -1.4999987 1.3478449 0.14999985
v -1.4999986 1.3533652 -0.14999982
v -1.4999974 1.3533652 0.15000004
v -1.4999973 0.92561152 0.15000006
v -1.4999987 0.92561152 -0.14999982
v 1.4999982 1.3533652 -0.14999982
v 1.4999995 0.92561152 -0.14999992
v 1.5 0.92561152 0.14999988
v 1.4999995 1.3533652 0.15000004
v -1.4999996 0.92561152 -0.14999982
v -1.4999979 0.92561152 0.15000002
v -0.49999855 0.22714287 0.14999997
v -0.49999999 0.22714287 -0.14999987
v -0.49999999 0.22714287 -0.14999987
v -0.49999855 0.22714287 0.14999997
v 0.50000069 0.22714287 0.14999992
v 0.49999966 0.22714287 -0.14999992
vt 0.29007119 0.18139809
vt 0.35859552 0.18139809
vt 0.35859552 0.1986264
vt 0.29007119 0.1986264
vt 0.34221986 0.04965657
vt 0.27369553 0.04965657
vt 0.27369559 0.032428324
vt 0.34221986 0.032428324
vt 0.28928742 0.22004765
vt 0.28928742 0.27993065
vt 0.22154683 0.27993065
vt 0.22154683 0.22004765
vt 0.39942807 0.18099529
vt 0.34260237 0.18099529
vt 0.34260237 0.1637671
vt 0.39942807 0.1637671
vt 0.34260237 0.14613599
vt 0.39942807 0.14613599
vt 0.39942807 0.16336441
vt 0.34260237 0.16336441
vt 0.22154683 0.18139809
vt 0.29007119 0.18139809
vt 0.29007119 0.1986264
vt 0.22154683 0.1986264
vt 0.27369553 0.04965657
vt 0.20517121 0.04965657
vt 0.20517126 0.032428324
vt 0.27369559 0.032428324
vt 0.27369586 0.12111235
vt 0.27369577 0.18099529
vt 0.20517147 0.18099529
vt 0.20517151 0.12111235
vt 0.33130538 0.071053147
vt 0.27447954 0.071053147
vt 0.2744796 0.053824842
vt 0.33130538 0.053824842
vt 0.068906516 0.0092711449
vt 0.13664716 0.0092711449
vt 0.13664716 0.026499391
vt 0.068906516 0.026499391
vt 0.39904594 0.071053207
vt 0.33130538 0.071053147
vt 0.33130538 0.053824842
vt 0.399046 0.053824961
vt 0.34222007 0.12111235
vt 0.34222007 0.18099529
vt 0.27369577 0.18099529
vt 0.27369586 0.12111235
vt 0.34261274 0.1457333
vt 0.34260237 0.11370784
vt 0.35895106 0.11370188
vt 0.35896158 0.14572746
vt 0.27447954 0.10348147
vt 0.34222007 0.10348147
vt 0.34222007 0.12070972
vt 0.27447954 0.12070972
vt 0.28928742 0.21964496
vt 0.22154683 0.21964496
vt 0.22154683 0.20241672
vt 0.28928742 0.20241672
vt 0.34181836 0
vt 0.34181836 0.032025456
vt 0.27407771 0.032025456
vt 0.27407777 0
vt 0.35313988 0.20771974
vt 0.35313988 0.27993065
vt 0.33679113 0.27993065
vt 0.33679113 0.20771974
vt 0.06852439 0.026499391
vt 0 0.026499391
vt 0 0.0092711449
vt 0.06852439 0.0092711449
vt 0.27369559 0
vt 0.27369559 0.032025456
vt 0.20517121 0.032025456
vt 0.20517121 0
vt 0.32006013 0.27993065
vt 0.32006013 0.2077198
vt 0.33640891 0.20771974
vt 0.33640897 0.27993065
vt 0.27369577 0.12070972
vt 0.20517147 0.12070972
vt 0.20517147 0.10348129
vt 0.27369577 0.10348147
vt 0.41112638 0.017631173
vt 0.41112638 0.04965657
vt 0.34260204 0.04965657
vt 0.34260204 0.017631114
vt 0.39242345 0.11370784
vt 0.39242345 0.1457333
vt 0.37607461 0.1457333
vt 0.37607461 0.11370784
vt 0.15262419 0.23067683
vt 0.22114852 0.23065186
vt 0.22115421 0.24788016
vt 0.15262985 0.24790508
vt 0.22113805 0.1986264
vt 0.1526137 0.19865131
vt 0.15260804 0.18142307
vt 0.22113241 0.18139809
vt 0.15262419 0.23067683
vt 0.1526137 0.19865131
vt 0.22113805 0.1986264
vt 0.22114852 0.23065186
vt 0.084099814 0.23070174
vt 0.084089339 0.19867617
vt 0.016359255 0.23072636
vt 0.016348764 0.19870085
vt 0.22115421 0.24788016
vt 0.22116467 0.27990574
vt 0.1526403 0.27993065
vt 0.15262985 0.24790508
vt 0.39242345 0.081279635
vt 0.39242345 0.11330515
vt 0.37607461 0.11330515
vt 0.37607461 0.081279635
vt 0.084099814 0.23070174
vt 0.15262419 0.23067683
vt 0.15262985 0.24790508
vt 0.084105462 0.24793005
vt 0.1526137 0.19865131
vt 0.084089339 0.19867617
vt 0.084083691 0.18144774
vt 0.15260804 0.18142307
vt 0.016348764 0.19870085
vt 0.016359255 0.23072636
vt 1.0475516e-05 0.23073226
vt 0 0.19870669
vt 0.016359255 0.23072636
vt 0.084099814 0.23070174
vt 0.084105462 0.24793005
vt 0.016364902 0.24795461
vt 0.084089339 0.19867617
vt 0.016348764 0.19870085
vt 0.016343117 0.1814726
vt 0.084083691 0.18144774
vt 0.23751992 0.35226893
vt 0.21592718 0.35226882
vt 0.21592721 0.28033328
vt 0.23751993 0.2803334
vt 0.28928742 0.22004765
vt 0.22154683 0.22004765
vt 0.22154683 0.27993065
vt 0.28928742 0.27993065
vt 0.27369586 0.12111235
vt 0.20517151 0.12111235
vt 0.20517147 0.18099529
vt 0.27369577 0.18099529
vt 0.34222007 0.12111235
vt 0.27369586 0.12111235
vt 0.27369577 0.18099529
vt 0.34222007 0.18099529
vt 0.45344704 0.16615891
vt 0.43185431 0.16615891
vt 0.43185431 0.052387118
vt 0.45344704 0.052387118
vt 0.45344704 0.16615891
vt 0.45344704 0.052387118
vt 0.43185431 0.052387118
vt 0.43185431 0.16615891
vt 0.23751993 0.49613988
vt 0.21592715 0.49613976
vt 0.21592717 0.42420429
vt 0.23751992 0.42420441
vt 0.23751992 0.42420441
vt 0.21592717 0.42420429
vt 0.21592718 0.35226882
vt 0.23751992 0.35226893
vn 0 -1.1229028e-07 -1
vn 0 -1.1229028e-07 -1
vn 0 -1.1229028e-07 -1
vn 0 -1.1229028e-07 -1
vn 0 0 1
vn 0 0 1
vn 0 0 1
vn 0 0 1
vn 0.57557696 -0.81774771 0
vn 0.57557696 -0.81774771 0
vn 0.57557696 -0.81774771 0
vn 0.57557696 -0.81774771 0
vn -1 7.8723167e-07 0
vn -1 7.8723167e-07 0
vn -1 7.8723167e-07 0
vn -1 7.8723167e-07 0
vn 1 -5.2482108e-07 0
vn 1 -5.2482108e-07 0
vn 1 -5.2482108e-07 0
vn 1 -5.2482108e-07 0
vn 0 0 -1
vn 0 0 -1
vn 0 0 -1
vn 0 0 -1
vn 0 1.3091491e-07 1
vn 0 1.3091491e-07 1
vn 0 1.3091491e-07 1
vn 0 1.3091491e-07 1
vn 0 -1 0
vn 0 -1 0
vn 0 -1 0
vn 0 -1 0
vn 1 0 0
vn 1 0 0
vn 1 0 0
vn 1 0 0
vn 0 -1.2600815e-07 -1
vn 0 -1.2600815e-07 -1
vn 0 -1.2600815e-07 -1
vn 0 -1.2600815e-07 -1
vn 0 0 1
vn 0 0 1
vn 0 0 1
vn 0 0 1
vn -0.57114959 -0.82084602 0
vn -0.57114959 -0.82084602 0
vn -0.57114959 -0.82084602 0
vn -0.57114959 -0.82084602 0
vn 1 0 0
vn 1 0 0
vn 1 0 0
vn 1 0 0
vn 0.57557708 -0.81774747 0
vn 0.57557708 -0.81774747 0
vn 0.57557708 -0.81774747 0
vn 0.57557708 -0.81774747 0
vn -0.57557696 0.81774759 0
vn -0.57557696 0.81774759 0
vn -0.57557696 0.81774759 0
vn -0.57557696 0.81774759 0
vn 0 0 1
vn 0 0 1
vn 0 0 1
vn 0 0 1
vn 0 -1 0
vn 0 -1 0
vn 0 -1 0
vn 0 -1 0
vn 0 1 0
vn 0 1 0
vn 0 1 0
vn 0 1 0
vn 0 0 1
vn 0 0 1
vn 0 0 1
vn 0 0 1
vn -0.57114983 -0.82084584 -1.5020421e-06
vn -0.57114983 -0.82084584 -1.5020421e-06
vn -0.57114983 -0.82084584 -1.5020421e-06
vn -0.57114983 -0.82084584 -1.5020421e-06
vn 0.57114965 0.82084596 0
vn 0.57114965 0.82084596 0
vn 0.57114965 0.82084596 0
vn 0.57114965 0.82084596 0
vn 0 0 1
vn 0 0 1
vn 0 0 1
vn 0 0 1
vn -1 -5.6466126e-07 -3.1074103e-06
vn -1 -5.6466126e-07 -3.1074103e-06
vn -1 -5.6466126e-07 -3.1074103e-06
vn -1 -5.6466126e-07 -3.1074103e-06
vn -0.57114941 -0.8208462 -6.6591207e-07
vn -0.57114941 -0.8208462 -6.6591207e-07
vn -0.57114941 -0.8208462 -6.6591207e-07
vn -0.57114941 -0.8208462 -6.6591207e-07
vn 0.57114941 0.8208462 1.2874636e-06
vn 0.57114941 0.8208462 1.2874636e-06
vn 0.57114941 0.8208462 1.2874636e-06
vn 0.57114941 0.8208462 1.2874636e-06
vn 0 0 -1
vn 0 0 -1
vn 0 0 -1
vn 0 0 -1
vn 0 0 -1
vn 0 0 -1
vn 0 0 -1
vn 0 0 -1
vn 1.5760074e-07 1.4062682e-07 1
vn 1.5760074e-07 1.4062682e-07 1
vn 1.5760074e-07 1.4062682e-07 1
vn 1.5760074e-07 1.4062682e-07 1
vn -1 -4.2349529e-07 -5.5933315e-06
vn -1 -4.2349529e-07 -5.5933315e-06
vn -1 -4.2349529e-07 -5.5933315e-06
vn -1 -4.2349529e-07 -5.5933315e-06
vn 0 -1 0
vn 0 -1 0
vn 0 -1 0
vn 0 -1 0
vn 0 1 0
vn 0 1 0
vn 0 1 0
vn 0 1 0
vn 1 -7.0582541e-07 5.5724399e-07
vn 1 -7.0582541e-07 5.5724399e-07
vn 1 -7.0582541e-07 5.5724399e-07
vn 1 -7.0582541e-07 5.5724399e-07
vn 0.57557696 -0.81774759 8.6496311e-07
vn 0.57557696 -0.81774759 8.6496311e-07
vn 0.57557696 -0.81774759 8.6496311e-07
vn 0.57557696 -0.81774759 8.6496311e-07
vn -0.57557696 0.81774753 0
vn -0.57557696 0.81774753 0
vn -0.57557696 0.81774753 0
vn -0.57557696 0.81774753 0
vn 0.57261962 -0.81982118 -1.62884e-06
vn 0.57261962 -0.81982118 -1.62884e-06
vn 0.57261962 -0.81982118 -1.62884e-06
vn 0.57261962 -0.81982118 -1.62884e-06
vn -0.57557696 0.81774753 0
vn -0.57557696 0.81774753 0
vn -0.57557696 0.81774753 0
vn -0.57557696 0.81774753 0
vn 0 1 0
vn 0 1 0
vn 0 1 0
vn 0 1 0
vn 0.57114941 0.8208462 -9.7479472e-07
vn 0.57114941 0.8208462 -9.7479472e-07
vn 0.57114941 0.8208462 -9.7479472e-07
vn 0.57114941 0.8208462 -9.7479472e-07
vn -1 0 4.6447808e-06
vn -1 0 4.6447808e-06
vn -1 0 4.6447808e-06
vn -1 0 4.6447808e-06
vn 1 1.9508079e-06 -3.2513469e-06
vn 1 1.9508079e-06 -3.2513469e-06
vn 1 1.9508079e-06 -3.2513469e-06
vn 1 1.9508079e-06 -3.2513469e-06
vn -0.57261962 -0.8198213 2.9319128e-06
vn -0.57261962 -0.8198213 2.9319128e-06
vn -0.57261962 -0.8198213 2.9319128e-06
vn -0.57261962 -0.8198213 2.9319128e-06
vn -1.3682718e-07 -1 0
vn -1.3682718e-07 -1 0
vn -1.3682718e-07 -1 0
vn -1.3682718e-07 -1 0
f 3/3/3 2/2/2 1/1/1
f 4/4/4 3/3/3 1/1/1
f 7/7/7 6/6/6 5/5/5
f 8/8/8 7/7/7 5/5/5
f 11/11/11 10/10/10 9/9/9
f 12/12/12 11/11/11 9/9/9
f 15/15/15 14/14/14 13/13/13
f 16/16/16 15/15/15 13/13/13
f 19/19/19 18/18/18 17/17/17
f 20/20/20 19/19/19 17/17/17
f 23/23/23 22/22/22 21/21/21
f 24/24/24 23/23/23 21/21/21
f 27/27/27 26/26/26 25/25/25
f 28/28/28 27/27/27 25/25/25
f 31/31/31 30/30/30 29/29/29
f 32/32/32 31/31/31 29/29/29
f 35/35/35 34/34/34 33/33/33
f 36/36/36 35/35/35 33/33/33
f 39/39/39 38/38/38 37/37/37
f 40/40/40 39/39/39 37/37/37
f 43/43/43 42/42/42 41/41/41
f 44/44/44 43/43/43 41/41/41
f 47/47/47 46/46/46 45/45/45
f 48/48/48 47/47/47 45/45/45
f 51/51/51 50/50/50 49/49/49
f 52/52/52 51/51/51 49/49/49
f 55/55/55 54/54/54 53/53/53
f 56/56/56 55/55/55 53/53/53
f 59/59/59 58/58/58 57/57/57
f 60/60/60 59/59/59 57/57/57
f 63/63/63 62/62/62 61/61/61
f 64/64/64 63/63/63 61/61/61
f 67/67/67 66/66/66 65/65/65
f 68/68/68 67/67/67 65/65/65
f 71/71/71 70/70/70 69/69/69
f 72/72/72 71/71/71 69/69/69
f 75/75/75 74/74/74 73/73/73
f 76/76/76 75/75/75 73/73/73
f 79/79/79 78/78/78 77/77/77
f 80/80/80 79/79/79 77/77/77
f 83/83/83 82/82/82 81/81/81
f 84/84/84 83/83/83 81/81/81
f 87/87/87 86/86/86 85/85/85
f 88/88/88 87/87/87 85/85/85
f 91/91/91 90/90/90 89/89/89
f 92/92/92 91/91/91 89/89/89
f 95/95/95 94/94/94 93/93/93
f 96/96/96 95/95/95 93/93/93
f 99/99/99 98/98/98 97/97/97
f 100/100/100 99/99/99 97/97/97
f 103/103/103 102/102/102 101/101/101
f 104/104/104 103/103/103 101/101/101
f 101/101/101 102/102/102 105/105/105
f 102/102/102 106/106/106 105/105/105
f 105/105/105 106/106/106 107/107/107
f 106/106/106 108/108/108 107/107/107
f 111/111/111 110/110/110 109/109/109
f 112/112/112 111/111/111 109/109/109
f 115/115/115 114/114/114 113/113/113
f 116/116/116 115/115/115 113/113/113
f 119/119/119 118/118/118 117/117/117
f 120/120/120 119/119/119 117/117/117
f 123/123/123 122/122/122 121/121/121
f 124/124/124 123/123/123 121/121/121
f 127/127/127 126/126/126 125/125/125
f 128/128/128 127/127/127 125/125/125
f 131/131/131 130/130/130 129/129/129
f 132/132/132 131/131/131 129/129/129
f 135/135/135 134/134/134 133/133/133
f 136/136/136 135/135/135 133/133/133
f 139/139/139 138/138/138 137/137/137
f 140/140/140 139/139/139 137/137/137
f 143/143/143 142/142/142 141/141/141
f 144/144/144 143/143/143 141/141/141
f 147/147/147 146/146/146 145/145/145
f 148/148/148 147/147/147 145/145/145
f 151/151/151 150/150/150 149/149/149
f 152/152/152 151/151/151 149/149/149
f 155/155/155 154/154/154 153/153/153
f 156/156/156 155/155/155 153/153/153
f 159/159/159 158/158/158 157/157/157
f 160/160/160 159/159/159 157/157/157
f 163/163/163 162/162/162 161/161/161
f 164/164/164 163/163/163 161/161/161
f 167/167/167 166/166/166 165/165/165
f 168/168/168 167/167/167 165/165/165
