# User-supplied Mayan dungeon glTF module; Y-up meters, bottom centered
mtllib Mayan.mtl
o Cube_008
usemtl SunkenKingdom
v 1.499999 0.25242523 1.499999
v 1.499999 0.25242523 -1.499999
v 1.499999 0 -1.499999
v 1.499999 0 1.499999
v 1.499999 0.25242523 -1.499999
v -1.499999 0.25242523 -1.499999
v -1.499999 0 -1.499999
v 1.499999 0 -1.499999
v -1.499999 0.25242523 -1.499999
v -1.499999 0.25242523 1.499999
v -1.499999 0 1.499999
v -1.499999 0 -1.499999
v -1.499999 0.25242523 1.499999
v 1.499999 0.25242523 1.499999
v 1.499999 0 1.499999
v -1.499999 0 1.499999
v 1.499999 0.25242523 -1.499999
v 1.499999 0.25242523 1.499999
v -1.499999 0.25242523 1.499999
v -1.499999 0.25242523 -1.499999
v -1.499999 0 -1.499999
v -1.499999 0 1.499999
v 1.499999 0 1.499999
v 1.499999 0 -1.499999
vt 0.98227185 0.22231394
vt 0.98227185 0.4342562
vt 0.96454382 0.4342562
vt 0.96454382 0.22231394
vt 0.9761802 0
vt 0.9761802 0.21194226
vt 0.95845211 0.21194226
vt 0.95845211 0
vt 0.98227191 0.4342562
vt 0.98227191 0.22231394
vt 0.99999988 0.22231394
vt 1 0.4342562
vt 0.9761802 0.21194226
vt 0.9761802 0
vt 0.99390829 0
vt 0.99390817 0.21194226
vt 0.95845187 0.21868122
vt 0.95845187 0.43062371
vt 0.72430801 0.43062371
vt 0.72430813 0.21868122
vt 0.95845211 0.21194226
vt 0.72430813 0.21194226
vt 0.72430825 0
vt 0.95845211 0
vn 1 0 0
vn 1 0 0
vn 1 0 0
vn 1 0 0
vn 0 0 -1
vn 0 0 -1
vn 0 0 -1
vn 0 0 -1
vn -1 0 0
vn -1 0 0
vn -1 0 0
vn -1 0 0
vn 0 0 1
vn 0 0 1
vn 0 0 1
vn 0 0 1
vn 0 1 0
vn 0 1 0
vn 0 1 0
vn 0 1 0
vn 0 -1 0
vn 0 -1 0
vn 0 -1 0
vn 0 -1 0
f 3/3/3 2/2/2 1/1/1
f 4/4/4 3/3/3 1/1/1
f 7/7/7 6/6/6 5/5/5
f 8/8/8 7/7/7 5/5/5
f 11/11/11 10/10/10 9/9/9
f 12/12/12 11/11/11 9/9/9
f 15/15/15 14/14/14 13/13/13
f 16/16/16 15/15/15 13/13/13
f 19/19/19 18/18/18 17/17/17
f 20/20/20 19/19/19 17/17/17
f 23/23/23 22/22/22 21/21/21
f 24/24/24 23/23/23 21/21/21
