# User-supplied Mayan dungeon glTF module; Y-up meters, bottom centered
mtllib Mayan.mtl
o Cylinder
usemtl SunkenKingdom
v 0.00053163385 0.59494635 0.10893971
v -0.046556479 0.58354613 0.12854216
v -0.046556479 0.35104081 -0.0066762659
v 0.00053163676 0.36244104 -0.02627872
v 0.047619746 0.58354613 0.12854216
v 0.047619746 0.35104081 -0.0066762659
v 0.080651237 0.28860604 -0.073459138
v 0.00053163385 0.3080033 -0.10681234
v -0.079587958 0.28860604 -0.073459138
v 0.080651237 0.24718195 -0.097550194
v 0.00053163385 0.26657921 -0.13090339
v -0.079587958 0.24718195 -0.097550194
v 0.10456318 0.16981629 -0.16460325
v 0.00053163385 0.19500274 -0.20791082
v -0.1034999 0.16981629 -0.16460325
v -0.046556479 0.58354613 0.12854216
v -0.058186276 0.55793007 0.17258844
v -0.058186276 0.32542475 0.037370007
v -0.046556479 0.35104081 -0.0066762659
v -0.025600287 0.30488227 0.072692394
v -0.025600287 0.53738759 0.20791082
v -0.099375856 0.24502077 0.0014848323
v -0.043931367 0.21006814 0.061585208
v -0.079587958 0.28860604 -0.073459138
v -0.099375856 0.20359668 -0.022606236
v -0.043931367 0.16864401 0.037494152
v -0.079587958 0.24718195 -0.097550194
v -0.1034999 0.16981629 -0.16460325
v -0.12919354 0.11322289 -0.067292059
v -0.057201488 0.067838514 0.01074545
v -0.025600287 0.53738759 0.20791082
v 0.026663562 0.5373876 0.20791082
v 0.026663573 0.30488227 0.072692388
v -0.025600287 0.30488227 0.072692394
v 0.059249549 0.32542475 0.037370007
v 0.059249537 0.55793007 0.17258845
v -0.043931367 0.21006814 0.061585208
v 0.044994662 0.21006814 0.061585197
v 0.10043913 0.24502077 0.0014848323
v 0.044994662 0.16864405 0.03749414
v 0.10043913 0.20359668 -0.022606236
v -0.043931367 0.16864401 0.037494152
v -0.057201488 0.067838514 0.01074545
v 0.058264792 0.067838514 0.01074545
v 0.13025683 0.11322289 -0.067292059
v 0.059249537 0.55793007 0.17258845
v 0.047619746 0.58354613 0.12854216
v 0.047619746 0.35104081 -0.0066762659
v 0.059249549 0.32542475 0.037370007
v 0.10043913 0.24502077 0.0014848323
v 0.080651237 0.28860604 -0.073459138
v 0.10043913 0.20359668 -0.022606236
v 0.080651237 0.24718195 -0.097550194
v 0.13025683 0.11322289 -0.067292059
v 0.10456318 0.16981629 -0.16460325
v -0.025600287 0.53738759 0.20791082
v -0.058186276 0.55793007 0.17258844
v -0.046556479 0.58354613 0.12854216
v 0.00053163385 0.59494635 0.10893971
v 0.026663562 0.5373876 0.20791082
v 0.047619746 0.58354613 0.12854216
v 0.059249537 0.55793007 0.17258845
v -0.066425717 0.24190499 -0.088476551
v -0.082962809 0.20548 -0.025844584
v -0.036626882 0.17626947 0.024382364
v 0.00053163385 0.25811563 -0.11635043
v 0.037690171 0.17626947 0.024382341
v 0.067488995 0.24190499 -0.088476551
v 0.084026082 0.20548 -0.025844584
v -0.036626882 0.17626947 0.024382364
v -0.047716955 0.077739777 -0.0062795691
v 0.048780249 0.077739824 -0.006279604
v 0.037690171 0.17626947 0.024382341
v 0.10894526 0.11566831 -0.071496911
v 0.084026082 0.20548 -0.025844584
v -0.066425717 0.24190499 -0.088476551
v -0.086409342 0.16296441 -0.15282158
v -0.10788197 0.11566831 -0.071496911
v -0.082962809 0.20548 -0.025844584
v -0.047716955 0.077739777 -0.0062795691
v -0.036626882 0.17626947 0.024382364
v 0.067488995 0.24190499 -0.088476551
v 0.087472616 0.16296441 -0.15282156
v 0.00053163385 0.18401316 -0.18901448
v 0.00053163385 0.25811563 -0.11635043
v -0.086409342 0.16296441 -0.15282158
v -0.066425717 0.24190499 -0.088476551
v -0.10788197 0.11566831 -0.071496911
v -0.12919354 0.11322289 -0.067292059
v -0.057201488 0.067838514 0.01074545
v -0.047716955 0.077739777 -0.0062795691
v -0.086409342 0.16296441 -0.15282158
v -0.1034999 0.16981629 -0.16460325
v 0.00053163385 0.18401316 -0.18901448
v 0.00053163385 0.19500274 -0.20791082
v 0.087472616 0.16296441 -0.15282156
v 0.10456318 0.16981629 -0.16460325
v 0.10894526 0.11566831 -0.071496911
v 0.13025683 0.11322289 -0.067292059
v 0.048780249 0.077739824 -0.006279604
v 0.058264792 0.067838514 0.01074545
v -0.047716955 0.077739777 -0.0062795691
v -0.057201488 0.067838514 0.01074545
v 0.084026082 0.20548 -0.025844584
v 0.10894526 0.11566831 -0.071496911
v 0.087472616 0.16296441 -0.15282156
v 0.067488995 0.24190499 -0.088476551
v 0.17982004 0.66388428 0.18993922
v 0.17982004 0.66388425 0.13161316
v 0.17982004 0 0.13161318
v 0.17982004 4.6566129e-08 0.18993923
v 0.17982004 0.66388425 0.13161316
v -0.17982004 0.66388425 0.13161319
v -0.17982004 0 0.13161319
v 0.17982004 0 0.13161318
v -0.17982004 0.66388425 0.13161319
v -0.17982004 0.66388422 0.18993922
v -0.17982004 0 0.18993923
v -0.17982004 0 0.13161319
v -0.17982004 0.66388422 0.18993922
v 0.17982004 0.66388428 0.18993922
v 0.17982004 4.6566129e-08 0.18993923
v -0.17982004 0 0.18993923
v 0.17982004 0.66388425 0.13161316
v 0.17982004 0.66388428 0.18993922
v -0.17982004 0.66388422 0.18993922
v -0.17982004 0.66388425 0.13161319
v -0.17982004 0 0.13161319
v -0.17982004 0 0.18993923
v 0.17982004 4.6566129e-08 0.18993923
v 0.17982004 0 0.13161318
vt 0.69050384 0.5936439
vt 0.68730557 0.59352255
vt 0.68746686 0.57054019
vt 0.69097191 0.57055128
vt 0.69372183 0.59384024
vt 0.69451332 0.57065499
vt 0.69434309 0.56339383
vt 0.69067287 0.56345135
vt 0.68695718 0.56355691
vt 0.69432789 0.56080341
vt 0.6906662 0.56087297
vt 0.6869297 0.56087506
vt 0.69432199 0.55590975
vt 0.69081217 0.55601907
vt 0.68719566 0.55588543
vt 0.68730557 0.59352255
vt 0.68412608 0.59347761
vt 0.68401176 0.57070613
vt 0.68746686 0.57054019
vt 0.68071425 0.57124972
vt 0.68096238 0.5935061
vt 0.68302768 0.56385767
vt 0.67859691 0.56463015
vt 0.68695718 0.56355691
vt 0.68289006 0.56087762
vt 0.67836928 0.56110346
vt 0.6869297 0.56087506
vt 0.68719566 0.55588543
vt 0.68315881 0.55545878
vt 0.67798471 0.55369365
vt 0.70363641 0.59483171
vt 0.70021105 0.59444362
vt 0.70167321 0.57122332
vt 0.70517308 0.57191926
vt 0.69808781 0.57085246
vt 0.69695872 0.5941087
vt 0.70726353 0.56360483
vt 0.70219398 0.5633499
vt 0.69811356 0.56334782
vt 0.70217228 0.56034893
vt 0.69808799 0.56063217
vt 0.70709968 0.55986202
vt 0.70577633 0.55192959
vt 0.7015745 0.55446684
vt 0.69788468 0.5554744
vt 0.69695872 0.5941087
vt 0.69372183 0.59384024
vt 0.69451332 0.57065499
vt 0.69808781 0.57085246
vt 0.69811356 0.56334782
vt 0.69434309 0.56339383
vt 0.69808799 0.56063217
vt 0.69432789 0.56080341
vt 0.69788468 0.5554744
vt 0.69432199 0.55590975
vt 0.71399134 0.55539262
vt 0.71652573 0.55408943
vt 0.71888977 0.55585241
vt 0.71930331 0.55935401
vt 0.71319497 0.55878055
vt 0.71745491 0.56195742
vt 0.7147364 0.56170219
vt 0.7119295 0.55962539
vt 0.71529102 0.56213224
vt 0.71587908 0.56711131
vt 0.70832568 0.56147838
vt 0.71325064 0.57081318
vt 0.70719337 0.56629598
vt 0.70938522 0.57045031
vt 0.70258987 0.54639959
vt 0.70508409 0.55123687
vt 0.70133269 0.55359173
vt 0.69974929 0.5483377
vt 0.69775379 0.55455315
vt 0.6968857 0.54932463
vt 0.68764246 0.54920352
vt 0.68722314 0.55489385
vt 0.68330002 0.5542798
vt 0.6843667 0.5482803
vt 0.67883354 0.55244839
vt 0.68108863 0.54666209
vt 0.69389188 0.54971635
vt 0.69425851 0.55499917
vt 0.69079471 0.55509365
vt 0.69081318 0.54965901
vt 0.68722314 0.55489385
vt 0.68764246 0.54920352
vt 0.68330002 0.5542798
vt 0.68315881 0.55545878
vt 0.67798471 0.55369365
vt 0.67883354 0.55244839
vt 0.68722314 0.55489385
vt 0.68719566 0.55588543
vt 0.69079471 0.55509365
vt 0.69081217 0.55601907
vt 0.69425851 0.55499917
vt 0.69432199 0.55590975
vt 0.69775379 0.55455315
vt 0.69788468 0.5554744
vt 0.70133269 0.55359173
vt 0.7015745 0.55446684
vt 0.70508409 0.55123687
vt 0.70577633 0.55192959
vt 0.6968857 0.54932463
vt 0.69775379 0.55455315
vt 0.69425851 0.55499917
vt 0.69389188 0.54971635
vt 0.65710527 0.58648223
vt 0.65443784 0.58648223
vt 0.65443784 0.54702002
vt 0.65710527 0.54702002
vt 0.65443784 0.54353994
vt 0.65443784 0.52216244
vt 0.68479866 0.52216244
vt 0.68479866 0.54353994
vt 0.6762197 0.58648217
vt 0.67355227 0.58648217
vt 0.67355227 0.54702002
vt 0.67621964 0.54702002
vt 0.67355227 0.58648217
vt 0.65710527 0.58648223
vt 0.65710527 0.54702002
vt 0.67355227 0.54702002
vt 0.65710527 0.58994913
vt 0.65710527 0.58648223
vt 0.67355227 0.58648217
vt 0.67355227 0.58994913
vt 0.67355227 0.54355299
vt 0.67355227 0.54702002
vt 0.65710527 0.54702002
vt 0.65710527 0.54355299
vn 0 0.50273395 -0.86444116
vn -0.78183991 0.31343183 -0.53896844
vn -0.75944906 0.50985998 -0.40407914
vn 0 0.69373727 -0.72022814
vn 0.78183991 0.31343183 -0.53896844
vn 0.75944906 0.50985998 -0.40407914
vn 0.76429719 0.48846292 -0.42101508
vn 0 0.67350489 -0.73918277
vn -0.76429719 0.48846292 -0.42101508
vn 0.77259529 0.44228524 -0.45550004
vn 0 0.62933254 -0.77713615
vn -0.77259529 0.44228524 -0.45550004
vn 0.74802577 0.55136001 -0.36940446
vn 0 0.73246944 -0.68079984
vn -0.74802577 0.55136001 -0.36940446
vn -0.78183991 0.31343183 -0.53896844
vn -0.97493458 -0.11185273 0.19233176
vn -0.94701201 0.096715465 0.3062911
vn -0.75944906 0.50985998 -0.40407914
vn -0.42144012 -0.23457082 0.87599355
vn -0.43388715 -0.45293099 0.77884233
vn -0.95307136 0.072665252 0.29389596
vn -0.42416006 -0.26072812 0.86724228
vn -0.76429719 0.48846292 -0.42101508
vn -0.96340013 0.021973837 0.26716524
vn -0.42873126 -0.31504789 0.8467198
vn -0.77259529 0.44228524 -0.45550004
vn -0.74802577 0.55136001 -0.36940446
vn -0.9327684 0.14441842 0.33028236
vn -0.41512147 -0.18186362 0.89140332
vn -0.43388715 -0.45293099 0.77884233
vn 0.43388715 -0.45293099 0.77884233
vn 0.42144012 -0.23457082 0.87599355
vn -0.42144012 -0.23457082 0.87599355
vn 0.94701201 0.096715465 0.3062911
vn 0.97493458 -0.11185273 0.19233176
vn -0.42416006 -0.26072812 0.86724228
vn 0.42416006 -0.26072812 0.86724228
vn 0.95307136 0.072665252 0.29389596
vn 0.42873126 -0.31504789 0.8467198
vn 0.96340013 0.021973837 0.26716524
vn -0.42873126 -0.31504789 0.8467198
vn -0.41512147 -0.18186362 0.89140332
vn 0.41512147 -0.18186362 0.89140332
vn 0.9327684 0.14441842 0.33028236
vn 0.97493458 -0.11185273 0.19233176
vn 0.78183991 0.31343183 -0.53896844
vn 0.75944906 0.50985998 -0.40407914
vn 0.94701201 0.096715465 0.3062911
vn 0.95307136 0.072665252 0.29389596
vn 0.76429719 0.48846292 -0.42101508
vn 0.96340013 0.021973837 0.26716524
vn 0.77259529 0.44228524 -0.45550004
vn 0.9327684 0.14441842 0.33028236
vn 0.74802577 0.55136001 -0.36940446
vn 0 0.86444116 0.50273395
vn 0 0.86444116 0.50273395
vn 0 0.86444116 0.50273395
vn 0 0.86444116 0.50273395
vn 0 0.86444116 0.50273395
vn 0 0.86444116 0.50273395
vn 0 0.86444116 0.50273395
vn 0 -0.86444116 -0.50273395
vn 0 -0.86444116 -0.50273395
vn 0 -0.86444116 -0.50273395
vn 0 -0.86444116 -0.50273395
vn 0 -0.86444116 -0.50273395
vn 0 -0.86444116 -0.50273395
vn 0 -0.86444116 -0.50273395
vn 0.42051753 0.22608271 -0.87866467
vn 0.42051753 0.22608271 -0.87866467
vn -0.42051753 0.22608271 -0.87866467
vn -0.42051753 0.22608271 -0.87866467
vn -0.94490492 -0.10446722 -0.31022766
vn -0.94490492 -0.10446722 -0.31022766
vn 0.75775623 -0.51668668 0.39854765
vn 0.75775623 -0.51668668 0.39854765
vn 0.94490492 -0.10446722 -0.31022766
vn 0.94490492 -0.10446722 -0.31022766
vn 0.42051753 0.22608271 -0.87866467
vn 0.42051753 0.22608271 -0.87866467
vn -0.75775623 -0.51668668 0.39854765
vn -0.75775623 -0.51668668 0.39854765
vn 0 -0.70014495 0.71400076
vn 0 -0.70014495 0.71400076
vn 0.75775623 -0.51668668 0.39854765
vn 0.75775623 -0.51668668 0.39854765
vn 0 -0.86444116 -0.50273395
vn 0 -0.86444116 -0.50273395
vn 0 -0.86444116 -0.50273395
vn 0 -0.86444116 -0.50273395
vn 0 -0.86444116 -0.50273395
vn 0 -0.86444116 -0.50273395
vn 0 -0.86444116 -0.50273395
vn 0 -0.86444116 -0.50273395
vn 0 -0.86444116 -0.50273395
vn 0 -0.86444116 -0.50273395
vn 0 -0.86444116 -0.50273395
vn 0 -0.86444116 -0.50273395
vn 0 -0.86444116 -0.50273395
vn 0 -0.86444116 -0.50273395
vn 0 -0.86444116 -0.50273395
vn 0 -0.86444116 -0.50273395
vn -0.94490492 -0.10446722 -0.31022766
vn -0.94490492 -0.10446722 -0.31022766
vn -0.75775623 -0.51668668 0.39854765
vn -0.75775623 -0.51668668 0.39854765
vn 1 0 0
vn 1 0 0
vn 1 0 0
vn 1 0 0
vn 0 0 -1
vn 0 0 -1
vn 0 0 -1
vn 0 0 -1
vn -1 0 0
vn -1 0 0
vn -1 0 0
vn -1 0 0
vn 0 0 1
vn 0 0 1
vn 0 0 1
vn 0 0 1
vn 0 1 0
vn 0 1 0
vn 0 1 0
vn 0 1 0
vn 0 -1 5.1096083e-07
vn 0 -1 5.1096083e-07
vn 0 -1 5.1096083e-07
vn 0 -1 5.1096083e-07
f 3/3/3 2/2/2 1/1/1
f 4/4/4 3/3/3 1/1/1
f 4/4/4 1/1/1 5/5/5
f 6/6/6 4/4/4 5/5/5
f 6/6/6 7/7/7 4/4/4
f 7/7/7 8/8/8 4/4/4
f 4/4/4 8/8/8 3/3/3
f 8/8/8 9/9/9 3/3/3
f 7/7/7 10/10/10 8/8/8
f 10/10/10 11/11/11 8/8/8
f 8/8/8 11/11/11 9/9/9
f 11/11/11 12/12/12 9/9/9
f 10/10/10 13/13/13 11/11/11
f 13/13/13 14/14/14 11/11/11
f 11/11/11 14/14/14 12/12/12
f 14/14/14 15/15/15 12/12/12
f 18/18/18 17/17/17 16/16/16
f 19/19/19 18/18/18 16/16/16
f 18/18/18 20/20/20 17/17/17
f 20/20/20 21/21/21 17/17/17
f 18/18/18 22/22/22 20/20/20
f 22/22/22 23/23/23 20/20/20
f 24/24/24 22/22/22 18/18/18
f 19/19/19 24/24/24 18/18/18
f 22/22/22 25/25/25 23/23/23
f 25/25/25 26/26/26 23/23/23
f 27/27/27 25/25/25 22/22/22
f 24/24/24 27/27/27 22/22/22
f 27/27/27 28/28/28 25/25/25
f 28/28/28 29/29/29 25/25/25
f 25/25/25 29/29/29 26/26/26
f 29/29/29 30/30/30 26/26/26
f 33/33/33 32/32/32 31/31/31
f 34/34/34 33/33/33 31/31/31
f 33/33/33 35/35/35 32/32/32
f 35/35/35 36/36/36 32/32/32
f 34/34/34 37/37/37 33/33/33
f 37/37/37 38/38/38 33/33/33
f 33/33/33 38/38/38 35/35/35
f 38/38/38 39/39/39 35/35/35
f 38/38/38 40/40/40 39/39/39
f 40/40/40 41/41/41 39/39/39
f 42/42/42 40/40/40 38/38/38
f 37/37/37 42/42/42 38/38/38
f 42/42/42 43/43/43 40/40/40
f 43/43/43 44/44/44 40/40/40
f 40/40/40 44/44/44 41/41/41
f 44/44/44 45/45/45 41/41/41
f 48/48/48 47/47/47 46/46/46
f 49/49/49 48/48/48 46/46/46
f 49/49/49 50/50/50 48/48/48
f 50/50/50 51/51/51 48/48/48
f 50/50/50 52/52/52 51/51/51
f 52/52/52 53/53/53 51/51/51
f 52/52/52 54/54/54 53/53/53
f 54/54/54 55/55/55 53/53/53
f 58/58/58 57/57/57 56/56/56
f 56/56/56 59/59/59 58/58/58
f 56/56/56 60/60/60 59/59/59
f 60/60/60 61/61/61 59/59/59
f 60/60/60 62/62/62 61/61/61
f 65/65/65 64/64/64 63/63/63
f 63/63/63 66/66/66 65/65/65
f 66/66/66 67/67/67 65/65/65
f 66/66/66 68/68/68 67/67/67
f 68/68/68 69/69/69 67/67/67
f 72/72/72 71/71/71 70/70/70
f 73/73/73 72/72/72 70/70/70
f 74/74/74 72/72/72 73/73/73
f 75/75/75 74/74/74 73/73/73
f 78/78/78 77/77/77 76/76/76
f 79/79/79 78/78/78 76/76/76
f 80/80/80 78/78/78 79/79/79
f 81/81/81 80/80/80 79/79/79
f 84/84/84 83/83/83 82/82/82
f 85/85/85 84/84/84 82/82/82
f 86/86/86 84/84/84 85/85/85
f 87/87/87 86/86/86 85/85/85
f 90/90/90 89/89/89 88/88/88
f 91/91/91 90/90/90 88/88/88
f 88/88/88 89/89/89 92/92/92
f 89/89/89 93/93/93 92/92/92
f 92/92/92 93/93/93 94/94/94
f 93/93/93 95/95/95 94/94/94
f 94/94/94 95/95/95 96/96/96
f 95/95/95 97/97/97 96/96/96
f 96/96/96 97/97/97 98/98/98
f 97/97/97 99/99/99 98/98/98
f 98/98/98 99/99/99 100/100/100
f 99/99/99 101/101/101 100/100/100
f 100/100/100 101/101/101 102/102/102
f 101/101/101 103/103/103 102/102/102
f 106/106/106 105/105/105 104/104/104
f 107/107/107 106/106/106 104/104/104
f 110/110/110 109/109/109 108/108/108
f 111/111/111 110/110/110 108/108/108
f 114/114/114 113/113/113 112/112/112
f 115/115/115 114/114/114 112/112/112
f 118/118/118 117/117/117 116/116/116
f 119/119/119 118/118/118 116/116/116
f 122/122/122 121/121/121 120/120/120
f 123/123/123 122/122/122 120/120/120
f 126/126/126 125/125/125 124/124/124
f 127/127/127 126/126/126 124/124/124
f 130/130/130 129/129/129 128/128/128
f 131/131/131 130/130/130 128/128/128
